<?xml version="1.0" encoding="utf-8"?>
<!-- Generator: Adobe Illustrator 28.1.0, SVG Export Plug-In . SVG Version: 6.00 Build 0)  -->
<svg version="1.1" id="Layer_1" xmlns="http://www.w3.org/2000/svg" xmlns:xlink="http://www.w3.org/1999/xlink" x="0px" y="0px"
	 viewBox="0 0 216 216" style="enable-background:new 0 0 216 216;" xml:space="preserve">
<style type="text/css">
	.st0{fill:#FFFAEB;}
	.st1{fill:#FFE199;}
	.st2{fill:#FFB400;}
	.st3{fill:#646464;}
	.st4{fill:#FFCA4C;}
	.st5{fill:none;stroke:#FFB400;stroke-width:1.905;stroke-linecap:round;stroke-linejoin:round;stroke-miterlimit:10;}
	.st6{fill:#FFFFFF;}
	.st7{fill:#FFFFFF;stroke:#FFCA4C;stroke-width:1.905;stroke-linecap:round;stroke-linejoin:round;stroke-miterlimit:10;}
	.st8{fill:none;stroke:#FFE199;stroke-width:1.905;stroke-linecap:round;stroke-linejoin:round;stroke-miterlimit:10;}
	.st9{fill:#FDEDBF;}
	.st10{fill:#C5C5C5;}
	.st11{fill:#F2F2F2;}
	.st12{fill:#FFE8B2;}
	.st13{fill:#FFF0CC;}
	.st14{fill:#FFF7E5;}
	.st15{fill:#FFD166;}
	.st16{fill:#FFC233;}
	.st17{fill:#FFD980;}
	.st18{fill:#C1E6FA;}
	.st19{fill:#D4EDFB;}
	.st20{fill:#FDD094;}
	.st21{fill:#006EE8;}
	.st22{fill:#737373;}
	.st23{fill:#007CFF;}
	.st24{fill:#197DEA;}
	.st25{opacity:0.1;}
	.st26{opacity:0.2;}
	.st27{fill:#FFCC54;}
	.st28{fill:#E7DCEE;}
	.st29{fill:#7D39AD;}
	.st30{fill:#EBF9FF;}
	.st31{fill:#97D200;}
	.st32{fill:#E2EFD1;}
	.st33{fill:#00A0B5;}
	.st34{fill:#BEECF0;}
	.st35{fill:#FF4444;}
	.st36{fill:#FFE6E6;}
	.st37{fill:#C18300;}
	.st38{fill:#F3E6CF;}
	.st39{fill:#008000;}
	.st40{fill:#006EE9;}
	.st41{fill:#EAB888;}
	.st42{fill:#FFD296;}
	.st43{fill:#FF5757;}
	.st44{fill:#FF6969;}
	.st45{fill:#FABE82;}
	.st46{fill:#FAFAFA;}
	.st47{fill:#C8C8C8;}
	.st48{fill:#A1D619;}
	.st49{fill:#FF9C6A;}
	.st50{fill:#66B366;}
	.st51{fill:#FDB002;}
	.st52{fill:#FFB300;}
	.st53{fill:#FF735D;}
	.st54{fill:#E1E1E1;}
	.st55{opacity:0.15;fill:#FFFFFF;}
	.st56{fill:#F4F4F4;}
	.st57{fill:#ECDAB2;}
	.st58{fill:#33B3C4;}
</style>
<g>
	<path class="st0" d="M108,180L108,180c-39.76,0-72-32.24-72-72v0c0-39.76,32.24-72,72-72h0c39.76,0,72,32.24,72,72v0
		C180,147.76,147.76,180,108,180z"/>
	<g>
		<polygon class="st12" points="108.95,131.59 109.85,131.59 109.85,131.73 110.74,131.73 110.74,131.59 111.64,131.59 
			111.64,131.73 112.44,131.73 112.54,131.73 112.54,131.59 113.43,131.59 113.43,131.73 114.33,131.73 114.33,131.59 
			115.22,131.59 115.22,131.73 116.12,131.73 116.12,131.59 117.01,131.59 117.01,131.73 117.91,131.73 117.91,131.59 
			118.81,131.59 118.81,131.73 119.7,131.73 119.7,131.59 120.6,131.59 120.6,131.73 121.49,131.73 121.49,131.59 122.39,131.59 
			122.39,131.73 122.52,131.73 122.52,119.07 116.51,119.07 116.51,121.63 114.95,121.63 114.95,119.07 112.44,119.07 108.1,119.07 
			108.1,131.73 108.95,131.73 		"/>
		<polygon class="st12" points="87.45,131.73 87.45,131.59 88.09,131.59 88.09,119.07 82.08,119.07 82.08,121.63 80.52,121.63 
			80.52,119.07 78.01,119.07 73.67,119.07 73.67,131.59 74.02,131.59 74.02,131.73 74.91,131.73 74.91,131.59 75.81,131.59 
			75.81,131.73 76.7,131.73 76.7,131.59 77.6,131.59 77.6,131.73 78.01,131.73 78.5,131.73 78.5,131.59 79.39,131.59 79.39,131.73 
			80.29,131.73 80.29,131.59 81.18,131.59 81.18,131.73 82.08,131.73 82.08,131.59 82.97,131.59 82.97,131.73 83.87,131.73 
			83.87,131.59 84.77,131.59 84.77,131.73 85.66,131.73 85.66,131.59 86.56,131.59 86.56,131.73 		"/>
		<path class="st12" d="M101.31,135.32c-0.46,0.53-0.4,1.32,0.13,1.78c0.53,0.46,1.32,0.4,1.78-0.13c0.46-0.53,0.4-1.32-0.13-1.78
			C102.56,134.74,101.76,134.8,101.31,135.32z"/>
		<path class="st12" d="M123.28,135.32c-0.46,0.53-0.4,1.32,0.13,1.78c0.53,0.46,1.32,0.4,1.78-0.13c0.46-0.53,0.4-1.32-0.13-1.78
			C124.53,134.74,123.74,134.8,123.28,135.32z"/>
		<path class="st12" d="M145.26,135.32c-0.46,0.53-0.4,1.32,0.13,1.78c0.53,0.46,1.32,0.4,1.78-0.13c0.46-0.53,0.4-1.32-0.13-1.78
			C146.51,134.74,145.72,134.8,145.26,135.32z"/>
		<path class="st12" d="M167.24,135.32c-0.46,0.53-0.4,1.32,0.13,1.78c0.53,0.46,1.32,0.4,1.78-0.13c0.46-0.53,0.4-1.32-0.13-1.78
			C168.49,134.74,167.69,134.8,167.24,135.32z"/>
		<path class="st12" d="M79.33,135.32c-0.46,0.53-0.4,1.32,0.13,1.78c0.53,0.46,1.32,0.4,1.78-0.13c0.46-0.53,0.4-1.32-0.13-1.78
			C80.58,134.74,79.79,134.8,79.33,135.32z"/>
		<path class="st12" d="M72.12,132.53c-0.04-0.08-0.09-0.15-0.13-0.22c-0.03-0.05-0.05-0.09-0.08-0.13
			c-0.07-0.12-0.15-0.24-0.23-0.36c-0.05-0.08-0.11-0.15-0.17-0.22c-1.65-2.2-4.7-3.9-8.53-5.09c-0.4-0.12-0.81-0.24-1.22-0.36
			H38.31c0.38,1.47,0.82,2.91,1.29,4.34c0.37,1.11,0.76,2.22,1.18,3.31c0.12,0.31,0.24,0.62,0.36,0.92
			c2.4,6.01,5.58,11.62,9.43,16.7h22.3v-10.77v-0.36v-0.36h99.67c1.19-2.39,2.25-4.86,3.17-7.4H72.12z M81.87,137.53
			c-0.76,0.88-2.09,0.97-2.97,0.21c-0.88-0.76-0.97-2.09-0.21-2.97c0.76-0.88,2.09-0.97,2.97-0.21
			C82.54,135.32,82.64,136.65,81.87,137.53z M103.85,137.53c-0.76,0.88-2.09,0.97-2.97,0.21c-0.88-0.76-0.97-2.09-0.21-2.97
			c0.76-0.88,2.09-0.97,2.97-0.21C104.52,135.32,104.61,136.65,103.85,137.53z M125.83,137.53c-0.76,0.88-2.09,0.97-2.97,0.21
			c-0.88-0.76-0.97-2.09-0.21-2.97c0.76-0.88,2.09-0.97,2.97-0.21C126.49,135.32,126.59,136.65,125.83,137.53z M147.8,137.53
			c-0.76,0.88-2.09,0.97-2.97,0.21c-0.88-0.76-0.97-2.09-0.21-2.97c0.76-0.88,2.09-0.97,2.97-0.21
			C148.47,135.32,148.56,136.65,147.8,137.53z M169.78,137.53c-0.76,0.88-2.09,0.97-2.97,0.21c-0.88-0.76-0.97-2.09-0.21-2.97
			c0.76-0.88,2.09-0.97,2.97-0.21C170.45,135.32,170.54,136.65,169.78,137.53z"/>
		<path class="st12" d="M86.74,71.8l-3.66,0l-0.24,0c-0.76,0.62-1.25,1.57-1.25,2.63l0.01,3.09l6.78,0l-0.01-3.1
			c0-1.06-0.48-2-1.24-2.62L86.74,71.8z"/>
		<path class="st12" d="M74.96,87.58c1.02,0.71,2.38,0.58,3.24-0.28c0.13-0.13,0.25-0.27,0.35-0.43l3.05-4.75l7.53,0l3.62,4.27
			c0.16,0.19,0.36,0.35,0.56,0.48c1,0.65,2.37,0.54,3.24-0.37c0.04-0.04,0.06-0.08,0.09-0.12c0.97-1.17,0.73-2.94-0.57-3.77
			l-5.83-3.81c-0.29-0.19-0.61-0.26-0.93-0.24c0,0,0,0,0,0l-8.06-0.01c-0.42,0-0.79,0.15-1.1,0.39c-0.03,0.03-0.08,0.03-0.11,0.06
			l-5.27,4.55c-1.22,1.03-1.2,2.92,0.04,3.92C74.84,87.51,74.9,87.54,74.96,87.58z M93.61,84.51c0.08-0.4,0.41-0.72,0.82-0.78
			c0.53-0.07,0.99,0.28,1.09,0.77c0.03,0.13,0.04,0.26,0.01,0.39c-0.08,0.4-0.41,0.72-0.82,0.78c-0.65,0.09-1.19-0.46-1.1-1.1
			C93.61,84.56,93.61,84.54,93.61,84.51z M75.73,84.82c0.26-0.32,0.7-0.45,1.09-0.31c0.19,0.07,0.34,0.19,0.46,0.34
			c0.25,0.34,0.28,0.83-0.02,1.19c-0.26,0.32-0.7,0.45-1.09,0.31c-0.53-0.19-0.77-0.76-0.59-1.26C75.61,85,75.66,84.9,75.73,84.82z"
			/>
		<path class="st12" d="M85.08,66.04c0.59,0,1.14-0.12,1.66-0.32c1.8-0.68,3.09-2.4,3.09-4.43c0-2.62-2.12-4.75-4.75-4.75h-6.15
			v2.58v4.34v2.58h4.16H85.08z M84.27,58.95c1.27-0.53,2.74,0.07,3.27,1.34c0.45,1.07,0.09,2.28-0.8,2.95
			c-0.17,0.13-0.34,0.24-0.54,0.32c-0.71,0.3-1.48,0.23-2.11-0.1c-0.41-0.21-0.76-0.53-1-0.95c-0.06-0.1-0.12-0.19-0.16-0.29
			c-0.48-1.15-0.03-2.46,1.01-3.09C84.04,59.06,84.15,59,84.27,58.95z"/>
		<path class="st12" d="M46.15,82.15L46.7,83l21.04-15.58c0.54-0.4,0.99-0.87,1.36-1.38h4.67v-2.58v-4.34v-2.58h-7.11
			c-1.81-0.85-3.98-0.84-5.84,0.22l-7.19,4.07c-3.09,3.56-5.84,7.43-8.2,11.56c-0.56,0.98-1.09,1.97-1.6,2.97
			c-0.3,0.6-0.61,1.19-0.9,1.8l1.51,2.34L46.15,82.15z M60.41,60.28c0.31-0.54,0.74-1.02,1.29-1.39c1.89-1.23,4.42-0.69,5.65,1.2
			c1.23,1.89,0.69,4.42-1.2,5.65c-0.18,0.12-0.38,0.21-0.57,0.29c-1.8,0.8-3.97,0.21-5.08-1.5C59.64,63.21,59.66,61.57,60.41,60.28z
			"/>
		<path class="st12" d="M48.16,102.52c5.45,0,9.98,3.91,10.95,9.08c-0.03-2.81-1.01-5.63-2.99-7.92l-16.3-18.8
			C37.35,92.14,36,99.91,36,108v0c0,3.7,0.28,7.33,0.82,10.88l0.19,0.22v-5.43C37.01,107.51,42,102.52,48.16,102.52z"/>
		<path class="st12" d="M44.96,109.68c-2.12,1.83-2.34,5.04-0.51,7.15s5.04,2.34,7.15,0.51c2.12-1.83,2.34-5.04,0.51-7.15
			S47.08,107.84,44.96,109.68z M50.27,115.8c-1.26,1.1-3.18,0.96-4.28-0.3c-1.1-1.27-0.96-3.18,0.3-4.28
			c1.27-1.1,3.18-0.96,4.28,0.3C51.67,112.79,51.53,114.7,50.27,115.8z"/>
	</g>
	<g>
		<path class="st17" d="M175.24,131.59v0.22h-0.9v-0.22h-0.9v0.22h-0.9v-0.22h-0.9v0.22h-0.9v-0.22h-0.9v0.22h-0.9v-0.22h-0.9v0.22
			h-0.9v-0.22h-0.9v0.22h-0.9v-0.22h-0.9v0.22h-0.9v-0.22h-0.9v0.22h-0.9v-0.22h-0.9v0.22h-0.9v-0.22h-0.9v0.22h-0.9v-0.22h-0.9
			v0.22h-0.9v-0.22h-0.9v0.22h-0.9v-0.22h-0.9v0.22h-0.9v-0.22h-0.9v0.22h-0.9v-0.22h-0.9v0.22h-0.9v-0.22h-0.9v0.22h-0.9v-0.22
			h-0.9v0.22h-0.9v-0.22h-0.9v0.22h-0.9v-0.22h-0.9v0.22h-0.9v-0.22h-0.9v0.22h-0.9v-0.22h-0.9v0.22h-0.9v-0.22h-0.9v0.22h-0.9
			v-0.22h-0.9v0.22h-0.9v-0.22h-0.9v0.22h-0.9v-0.22h-0.9v0.22h-0.9v-0.22h-0.9v0.22h-0.9v-0.22h-0.9v0.22h-0.9v-0.22h-0.9v0.22
			h-0.9v-0.08h0.89v-12.66h-4.35v12.66h0.77v0.08h-0.9v-0.08v-0.14h-0.9v0.14v0.08h-0.9v-0.08v-0.14h-0.9v0.14v0.08h-0.9v-0.08
			v-0.14h-0.9v0.14v0.08h-0.9v-0.08v-0.14h-0.9v0.14v0.08h-0.9v-0.08v-0.14h-0.9v0.14v0.08h-0.9v-0.08v-0.14h-0.9v0.14v0.08h-0.9
			v-0.08v-0.14h-0.9v0.14v0.08h-0.9v-0.08v-0.14h-0.9v0.14v0.08h-0.9v-0.22h-0.9v0.22h-0.9v-0.22h-0.9v0.22h-0.9v-0.22h-0.9v0.22
			h-0.9v-0.22h-0.9v0.22h-0.9v-0.22h-0.9v0.22h-0.9v-0.22h-0.9v0.22h-0.9v-0.22h-0.9v0.22h-0.9v-0.22h-0.9v0.22h-0.9v-0.22h-0.9
			v0.22h-0.9v-0.08h0.5v-12.66h-4.35v12.51h-0.63v0.14v0.08h-0.9v-0.08v-0.14h-0.9v0.14v0.08h-0.9v-0.08v-0.14h-0.9v0.14v0.08h-0.9
			v-0.08v-0.14h-0.9v0.14v0.08h-0.9v-0.08v-0.14h-0.9v0.14v0.08h-0.9v-0.08v-0.14h-0.9v0.14v0.08h-0.9v-0.08v-0.14h-0.9v0.14v0.08
			h-0.9v-0.08v-0.14h-0.9v0.14v0.08h-0.9v-0.08v-0.14h-0.35h-0.55v0.22h-0.9v-0.22h-0.71c0.06,0.07,0.12,0.15,0.17,0.22
			c0.08,0.12,0.15,0.24,0.23,0.36c0.03,0.04,0.05,0.09,0.08,0.13c0.04,0.08,0.09,0.15,0.13,0.22h103.59
			c0.03-0.07,0.05-0.15,0.08-0.22c0.02-0.04,0.03-0.09,0.05-0.13c0.04-0.12,0.08-0.24,0.12-0.36c0.03-0.07,0.05-0.15,0.08-0.22
			H175.24z M124.18,131.73h0.9v0.08h-0.9V131.73z M91.04,131.81h-0.9v-0.08h0.9V131.81z M88.35,131.73h0.9v0.08h-0.9V131.73z"/>
		<path class="st17" d="M72.87,140.28v0.36h0.22v0.22h0.9v-0.22h0.9v0.22h0.9v-0.22h0.9v0.22h0.9v-0.22h0.9v0.22h0.9v-0.22h0.9v0.22
			h0.9v-0.22h0.9v0.22h0.9v-0.22h0.9v0.22h0.9v-0.22h0.9v0.22h0.9v-0.22h0.9v0.22h0.9v-0.22h0.9v0.22h0.9v-0.22H91v0.22h0.9v-0.22
			h0.9v0.22h0.9v-0.22h0.9v0.22h0.9v-0.22h0.9v0.22h0.9v-0.22h0.9v0.22h0.9v-0.22h0.9v0.22h0.9v-0.22h0.9v0.22h0.9v-0.22h0.9v0.22
			h0.9v-0.22h0.9v0.22h0.9v-0.22h0.9v0.22h0.9v-0.22h0.9v0.22h0.9v-0.22h0.9v0.22h0.9v-0.22h0.9v0.22h0.9v-0.22h0.9v0.22h0.9v-0.22
			h0.9v0.22h0.9v-0.22h0.9v0.22h0.9v-0.22h0.9v0.22h0.9v-0.22h0.9v0.22h0.9v-0.22h0.9v0.22h0.9v-0.22h0.9v0.22h0.9v-0.22h0.9v0.22
			h0.9v-0.22h0.9v0.22h0.9v-0.22h0.9v0.22h0.9v-0.22h0.9v0.22h0.9v-0.22h0.9v0.22h0.9v-0.22h0.9v0.22h0.9v-0.22h0.9v0.22h0.9v-0.22
			h0.9v0.22h0.9v-0.22h0.9v0.22h0.9v-0.22h0.9v0.22h0.9v-0.22h0.9v0.22h0.9v-0.22h0.9v0.22h0.9v-0.22h0.9v0.22h0.9v-0.22h0.9v0.22
			h0.9v-0.22h0.9v0.22h0.9v-0.22h0.9v0.22h0.9v-0.22h0.9v0.22h0.9v-0.22h0.9v0.22h0.9v-0.22h0.9v0.22h0.9v-0.22h0.9v0.22h0.9v-0.22
			h0.9v0.22h0.9v-0.22h0.9v0.22h0.9v-0.22h0.9v0.22h0.9v-0.22h0.9v0.22h0.9v-0.22h0.9v0.22h0.9v-0.22h0.9v0.22h0.43
			c0.04-0.07,0.08-0.15,0.11-0.22c0.06-0.12,0.12-0.24,0.18-0.36c0.02-0.05,0.05-0.09,0.07-0.14c0.04-0.08,0.08-0.15,0.11-0.22
			H72.87V140.28z"/>
		<path class="st17" d="M169.78,137.53c0.76-0.88,0.67-2.21-0.21-2.97c-0.88-0.76-2.21-0.67-2.97,0.21
			c-0.76,0.88-0.67,2.21,0.21,2.97C167.69,138.5,169.02,138.41,169.78,137.53z M167.36,137.1c-0.53-0.46-0.58-1.25-0.13-1.78
			s1.25-0.58,1.78-0.13c0.53,0.46,0.58,1.25,0.13,1.78C168.68,137.5,167.89,137.55,167.36,137.1z"/>
		<path class="st17" d="M147.8,137.53c0.76-0.88,0.67-2.21-0.21-2.97c-0.88-0.76-2.21-0.67-2.97,0.21
			c-0.76,0.88-0.67,2.21,0.21,2.97C145.71,138.5,147.04,138.41,147.8,137.53z M145.39,137.1c-0.53-0.46-0.58-1.25-0.13-1.78
			c0.46-0.53,1.25-0.58,1.78-0.13c0.53,0.46,0.58,1.25,0.13,1.78C146.71,137.5,145.91,137.55,145.39,137.1z"/>
		<path class="st17" d="M125.83,137.53c0.76-0.88,0.67-2.21-0.21-2.97c-0.88-0.76-2.21-0.67-2.97,0.21
			c-0.76,0.88-0.67,2.21,0.21,2.97C123.73,138.5,125.06,138.41,125.83,137.53z M123.41,137.1c-0.53-0.46-0.58-1.25-0.13-1.78
			c0.46-0.53,1.25-0.58,1.78-0.13c0.53,0.46,0.58,1.25,0.13,1.78C124.73,137.5,123.94,137.55,123.41,137.1z"/>
		<path class="st17" d="M103.85,137.53c0.76-0.88,0.67-2.21-0.21-2.97c-0.88-0.76-2.21-0.67-2.97,0.21
			c-0.76,0.88-0.67,2.21,0.21,2.97C101.76,138.5,103.09,138.41,103.85,137.53z M101.43,137.1c-0.53-0.46-0.58-1.25-0.13-1.78
			s1.25-0.58,1.78-0.13c0.53,0.46,0.58,1.25,0.13,1.78C102.75,137.5,101.96,137.55,101.43,137.1z"/>
		<path class="st17" d="M81.87,137.53c0.76-0.88,0.67-2.21-0.21-2.97c-0.88-0.76-2.21-0.67-2.97,0.21
			c-0.76,0.88-0.67,2.21,0.21,2.97C79.78,138.5,81.11,138.41,81.87,137.53z M79.46,137.1c-0.53-0.46-0.58-1.25-0.13-1.78
			c0.46-0.53,1.25-0.58,1.78-0.13c0.53,0.46,0.58,1.25,0.13,1.78C80.78,137.5,79.98,137.55,79.46,137.1z"/>
		<path class="st17" d="M83.08,66.04l0,5.75l3.66,0l0-6.07c-0.52,0.19-1.07,0.32-1.66,0.32H83.08z"/>
		<polygon class="st17" points="89.01,77.51 88.37,77.51 81.6,77.51 81.01,77.51 81.01,78.48 89.01,78.49 		"/>
		<path class="st17" d="M77.97,95.38l1.37-0.2l-1.15-7.88c-0.85,0.85-2.22,0.98-3.24,0.28L77.97,95.38z"/>
		<path class="st17" d="M94.99,95.06l1.63-8.68c-0.03,0.04-0.06,0.09-0.09,0.12c-0.87,0.92-2.23,1.03-3.24,0.37l0.31,8.23
			L94.99,95.06z"/>
		<path class="st17" d="M77.25,86.04c0.29-0.37,0.27-0.85,0.02-1.19c-0.11-0.15-0.26-0.27-0.46-0.34c-0.39-0.14-0.83-0.01-1.09,0.31
			c-0.07,0.09-0.12,0.18-0.15,0.28c-0.18,0.49,0.06,1.07,0.59,1.26C76.55,86.49,77,86.37,77.25,86.04z"/>
		<path class="st17" d="M94.71,85.68c0.41-0.06,0.74-0.37,0.82-0.78c0.03-0.14,0.02-0.27-0.01-0.39c-0.1-0.48-0.56-0.84-1.09-0.77
			c-0.41,0.06-0.74,0.37-0.82,0.78c0,0.02,0,0.04,0,0.06C93.52,85.22,94.06,85.77,94.71,85.68z"/>
		<rect x="73.77" y="59.13" class="st17" width="5.16" height="4.34"/>
		<path class="st17" d="M83.09,62.51c0.24,0.42,0.59,0.74,1,0.95c0.64,0.33,1.4,0.4,2.11,0.1c0.2-0.08,0.38-0.2,0.54-0.32
			c0.88-0.67,1.25-1.88,0.8-2.95c-0.53-1.27-2-1.87-3.27-1.34c-0.12,0.05-0.22,0.12-0.33,0.18c-1.04,0.63-1.49,1.94-1.01,3.09
			C82.97,62.33,83.03,62.42,83.09,62.51z"/>
		<path class="st17" d="M45.17,82.78l0.98-0.63l-1.7-2.64l-1.51-2.34c-0.2,0.42-0.38,0.84-0.57,1.26c-0.49,1.09-0.96,2.2-1.4,3.33
			l2.51-1.61L45.17,82.78z"/>
		<path class="st17" d="M65.58,66.04c0.19-0.09,0.39-0.17,0.57-0.29c1.89-1.23,2.43-3.76,1.2-5.65c-1.23-1.89-3.76-2.43-5.65-1.2
			c-0.56,0.36-0.98,0.85-1.29,1.39c-0.74,1.29-0.77,2.93,0.09,4.26C61.61,66.25,63.78,66.84,65.58,66.04z"/>
		<path class="st17" d="M50.27,115.8c1.27-1.1,1.4-3.01,0.3-4.28c-1.1-1.27-3.01-1.4-4.28-0.3c-1.26,1.1-1.4,3.01-0.3,4.28
			C47.09,116.76,49,116.9,50.27,115.8z"/>
		<path class="st17" d="M62.98,126.5v-4.39h-3.67v-8.44c0-0.71-0.07-1.4-0.2-2.07c-0.97-5.17-5.5-9.08-10.95-9.08
			c-6.16,0-11.15,4.99-11.15,11.15v5.43v0.88c0.12,0.71,0.24,1.42,0.38,2.13c0.07,0.38,0.16,0.75,0.24,1.12
			c0.21,0.97,0.43,1.95,0.68,2.91h23.45C62.17,126.25,62.58,126.37,62.98,126.5z M44.96,109.68c2.12-1.83,5.32-1.61,7.15,0.51
			s1.61,5.32-0.51,7.15c-2.12,1.83-5.32,1.61-7.15-0.51S42.85,111.51,44.96,109.68z"/>
		<path class="st17" d="M50.57,151.42c1.98,2.61,4.12,5.08,6.42,7.4c0,0,0,0,0,0h17.38v-7.4h-1.51H50.57z"/>
	</g>
	<g id="male_04_00000093867031189235780800000005590892894112748982_">
		<path class="st20" d="M128.33,68.59l-16.09,8.75l-8.18-20.23l-4.21,1.06c0,0,2.73,23.5,7.1,27.81c4.38,4.3,26.71-5.18,26.71-5.18
			C139.14,77.3,134.15,66.2,128.33,68.59z"/>
		<g>
			<path class="st20" d="M103.96,59.94c0,0,2.92-3.7,3.04-4.91c0.12-1.2-3.67-3.9-4.03-3.45s-1.15,1.57,1.39,3.12
				C102.02,55.88,98.97,58.68,103.96,59.94z"/>
			<g>
				<path class="st20" d="M104.13,60.2c0,0,1.44-3.68,1.26-5.38c-0.23-2.26-2.27-4.26-2.27-4.26s-5.23,2.12-5.54,2.69
					c-0.31,0.57,2.18,5.3,2.18,5.3S101.69,61.83,104.13,60.2z"/>
				<path class="st20" d="M105.05,55.09c0,0,1.67-9.74,0.11-9.9c-0.72-0.07-2.35,9.22-2.35,9.22L105.05,55.09z"/>
				<path class="st25" d="M104.78,58.89c-0.01,0-0.02,0-0.03-0.01c-0.02-0.02-0.03-0.05-0.01-0.07c0.8-1.11,2.14-3.07,2.21-3.78
					c0.09-0.93-2.34-2.88-3.49-3.35c-0.34-0.14-0.43-0.08-0.44-0.06c-0.23,0.3-0.46,0.66-0.37,1.15c0.11,0.61,0.7,1.25,1.75,1.89
					l0.08,0.05l-0.08,0.04c-0.97,0.49-2.21,1.34-2.77,2.26c-0.02,0.03-0.05,0.03-0.07,0.02c-0.02-0.02-0.03-0.05-0.02-0.07
					c0.56-0.92,1.76-1.76,2.73-2.26c-1.03-0.64-1.61-1.28-1.72-1.91c-0.11-0.6,0.24-1.05,0.39-1.24c0.08-0.1,0.26-0.09,0.56,0.03
					c1.17,0.47,3.66,2.45,3.56,3.46c-0.07,0.73-1.43,2.71-2.23,3.83C104.81,58.89,104.8,58.89,104.78,58.89z"/>
				<path class="st25" d="M100.16,55.62c-0.02,0-0.03,0-0.05,0l-0.04,0l-0.01-0.04c-0.33-1.13-1.67-1.93-1.68-1.94
					c-0.03-0.01-0.03-0.05-0.02-0.07c0.01-0.02,0.05-0.03,0.07-0.02c0.06,0.03,1.36,0.81,1.72,1.97c0,0,0,0,0,0
					c0.98,0,2.88-1.78,2.9-1.8c0.02-0.02,0.05-0.02,0.07,0c0.02,0.02,0.02,0.05,0,0.07C103.05,53.87,101.19,55.62,100.16,55.62z"/>
			</g>
		</g>
		<path class="st39" d="M131.26,67.57c0,0-3.37,0.45-11.45,5.62c0.9,3.48,3.59,12.58,3.59,12.58s12.35-3.82,14.04-7.97
			C139.13,73.63,137.33,65.88,131.26,67.57z"/>
		<g>
			<path class="st3" d="M160.62,157.12c-3.3-26.9-5.82-44.33-8.91-49.09c-2.7-11.13-10.06-12.29-14.37-8.36
				c-5.21-3.34-14.22,1.71-15.61,10.99c-2.87,20.5-1.3,48.71,0.23,67.97c4.27-0.84,8.4-2.07,12.37-3.63
				c0.66-5.13,1.22-10.03,1.7-19.84c0,0,1.67-7.98,3.09-19.85c2.12,7.83,4.86,15.7,8.44,23.79c0.48,2.96,0.96,5.63,1.44,8.06
				C153.23,164.23,157.12,160.86,160.62,157.12z"/>
		</g>
		<path class="st39" d="M122.35,109.24c0,4.19,29.73,2.97,29.73-1.21c1.7-36.54,10.53-32.8,8.28-36.48
			c-3.9-6.34-23.57-5.98-30.66-3.26c-2.81,1.08-6.59,5.49-7.8,12.52c-0.62,3.61,2.04,7.82,2.46,10.75
			C125.33,98.32,122.54,108.27,122.35,109.24z"/>
		<path class="st20" d="M140.88,71.17c5.02,0.73,8.14-2.77,8.88-4.24l-0.35-10.16l-5.75-0.56c-1.67,0.14-3.34,0.54-4.77,1.1
			l-1.3,6.69l-0.29,1.45C136.65,66.89,135.86,70.44,140.88,71.17z"/>
		<path class="st25" d="M147.47,59.08c-0.9,1.39-4.68,4.95-9.89,4.93l1.12-5.79L147.47,59.08z"/>
		<g>
			<g>
				<path class="st20" d="M134.73,45.69c-0.45,2-1.38,6.39-1.23,8.42c0.23,3.08,3.11,6.5,5.62,6.95c2.9,0.3,6.82-0.57,8.95-2.4
					c1.18-1.39,3.47-4.68,4.53-7.56c2.2-6.01-2.05-11.27-7.43-12.49C139.78,37.4,136.14,39.46,134.73,45.69z"/>
				<path class="st3" d="M150.79,55.08c1.12-1.98-0.37-2.78-2-1.24c0.28-1.49,1.98-5.86,0.47-7.31c-1.7-1.68-9.19-0.95-13.21-5.14
					c0,0,3-6.57,12.83-2.69C160,44.58,150.79,55.08,150.79,55.08z"/>
				<path class="st20" d="M149.4,53.2c-0.85,1.03-0.89,2.41-0.08,3.06c0.81,0.66,2.15,0.35,3-0.68c0.85-1.03,0.89-2.41,0.08-3.06
					C151.59,51.86,150.25,52.16,149.4,53.2z"/>
			</g>
		</g>
		<path class="st34" d="M158.31,69.5c-3.34-0.4-6.62,15.74-4.32,20.16c0.01,0.33,0.01,0.66,0.02,0.99c0.03,1.26,0.06,2.56,0.1,3.87
			c0.02,0.58,0.04,1.17,0.06,1.75c0.04,1.29,0.09,2.59,0.15,3.88c0.41,9.97,1.03,19.28,1.03,19.28h-34.82
			c0.28-6.84,1.28-13.86,1.96-19.28c0.18-1.41,0.33-2.71,0.45-3.88c0.06-0.63,0.11-1.21,0.15-1.75c0.09-1.29,0.09-2.32-0.03-3.02
			c-0.04-0.24-0.07-0.53-0.08-0.85c-0.17-5.09,3.27-19.37,5.75-22.04c3.48-1.61,7.25-1.74,7.25-1.74
			c-0.24,7.26,2.64,13.77,2.64,13.77s7.37-6.33,11.39-13.86C153.53,67.35,156.76,68.06,158.31,69.5z"/>
		<path class="st50" d="M123.07,94.52c0.09-1.29,0.09-2.32-0.03-3.02c-0.04-0.24-0.07-0.53-0.08-0.85h31.05
			c0.03,1.26,0.06,2.56,0.1,3.87H123.07z"/>
		<path class="st50" d="M154.31,100.15h-31.83c0.18-1.41,0.33-2.71,0.45-3.88h31.24C154.21,97.56,154.26,98.86,154.31,100.15z"/>
		<path class="st39" d="M154.28,49.48c0.43-3.14,0.92-11.19-6.22-13.26c-6.34-1.84-10.89,1.97-13.04,4.48
			c-0.93,0.14-3.44-0.54-3.88-0.02c-0.1,0.31-0.01,0.91,2.54,1.92c-0.01,0.02-0.01,0.02-0.01,0.02c9.21,2.02,17.06,4.59,20.38,9.01
			c0,0,0.6,0.27,0.95,0.27C155.3,51.9,154.54,50.67,154.28,49.48z"/>
		<path class="st50" d="M141.6,42.77c0,0,2.9-6.83,9.77-5.01l0.13-0.29c0,0-1.73-1.09-3.69-1.68c-2.17-0.34-7.2,0.5-10.09,5.77
			C139.2,42.33,141.6,42.77,141.6,42.77z"/>
		<g>
			<path class="st20" d="M154.35,87.67l4.87,10.81l-19.73,3.95l0.37,4.16c0,0,26.05,2.58,28.34-3.14
				c2.29-5.72-6.99-30.27-6.99-30.27C158.6,66.92,155.11,82.44,154.35,87.67z"/>
			<g>
				<path class="st6" d="M139.91,111.02l-16.9-2.03c-0.66-0.08-1.26-0.7-1.32-1.38l-2.5-26.95c-0.06-0.68,0.43-1.17,1.09-1.09
					l16.9,2.03c0.66,0.08,1.26,0.7,1.32,1.38l2.5,26.95C141.06,110.61,140.57,111.1,139.91,111.02z"/>
				<path class="st51" d="M139.35,111.2l-17.18-2.06c-0.67-0.08-1.28-0.71-1.34-1.4l-2.54-27.4c-0.06-0.69,0.44-1.19,1.11-1.11
					l17.18,2.06c0.67,0.08,1.28,0.71,1.34,1.4l2.54,27.4C140.53,110.78,140.03,111.28,139.35,111.2z"/>
				<path class="st3" d="M136.77,88.39l-5.4-0.65c-0.21-0.03-0.4-0.22-0.42-0.44l-0.47-5.07c-0.02-0.22,0.14-0.37,0.35-0.35
					l5.4,0.65c0.21,0.03,0.4,0.22,0.42,0.44l0.47,5.07C137.14,88.26,136.98,88.41,136.77,88.39z"/>
			</g>
		</g>
		<path class="st39" d="M154.33,89.38l11.29-5.72c0,0-3.29-11.69-7.03-13.92c-1.82,1.09-2.71,3.61-3.71,8.13
			C154.02,81.78,153.64,85.72,154.33,89.38z"/>
		<path class="st42" d="M145.38,106.36l-4.9,0.78c-0.59,0.09-1.19,0.06-1.77-0.09l-2.66-0.72c-1.09-0.29-1.7-1.41-1.36-2.46
			l0.76-2.33c0.3-0.93,1.24-1.52,2.23-1.39l2.9,0.36c0,0,5.34-0.21,5.86,2.52L145.38,106.36z"/>
	</g>
</g>
</svg>
