<svg xmlns="http://www.w3.org/2000/svg" xmlns:xlink="http://www.w3.org/1999/xlink" version="1.1" id="Layer_1" x="0px" y="0px" style="enable-background:new 0 0 216 216;" xml:space="preserve" viewBox="36 33.64 144.02 146.36">
<style type="text/css">
	.st0{fill:#FFFAEB;}
	.st1{fill:#FFE199;}
	.st2{fill:#FFB400;}
	.st3{fill:#646464;}
	.st4{fill:#FFCA4C;}
	.st5{fill:none;stroke:#FFB400;stroke-width:1.905;stroke-linecap:round;stroke-linejoin:round;stroke-miterlimit:10;}
	.st6{fill:#FFFFFF;}
	.st7{fill:#FFFFFF;stroke:#FFCA4C;stroke-width:1.905;stroke-linecap:round;stroke-linejoin:round;stroke-miterlimit:10;}
	.st8{fill:none;stroke:#FFE199;stroke-width:1.905;stroke-linecap:round;stroke-linejoin:round;stroke-miterlimit:10;}
	.st9{fill:#FDEDBF;}
	.st10{fill:#C5C5C5;}
	.st11{fill:#F2F2F2;}
	.st12{fill:#FFE8B2;}
	.st13{fill:#FFF0CC;}
	.st14{fill:#FFF7E5;}
	.st15{fill:#FFD166;}
	.st16{fill:#FFC233;}
	.st17{fill:#FFD980;}
	.st18{fill:#C1E6FA;}
	.st19{fill:#D4EDFB;}
	.st20{fill:#FDD094;}
	.st21{fill:#006EE8;}
	.st22{fill:#737373;}
	.st23{fill:#007CFF;}
	.st24{fill:#197DEA;}
	.st25{opacity:0.1;}
	.st26{opacity:0.2;}
	.st27{fill:#FFCC54;}
	.st28{fill:#E7DCEE;}
	.st29{fill:#7D39AD;}
	.st30{fill:#EBF9FF;}
	.st31{fill:#97D200;}
	.st32{fill:#E2EFD1;}
	.st33{fill:#00A0B5;}
	.st34{fill:#BEECF0;}
	.st35{fill:#FF4444;}
	.st36{fill:#FFE6E6;}
	.st37{fill:#C18300;}
	.st38{fill:#F3E6CF;}
	.st39{fill:#008000;}
	.st40{fill:#006EE9;}
	.st41{fill:#EAB888;}
	.st42{fill:#FFD296;}
	.st43{fill:#FF5757;}
	.st44{fill:#FF6969;}
	.st45{fill:#FABE82;}
	.st46{fill:#FAFAFA;}
	.st47{fill:#C8C8C8;}
	.st48{fill:#A1D619;}
	.st49{fill:#FF9C6A;}
	.st50{fill:#66B366;}
	.st51{fill:#FDB002;}
	.st52{fill:#FFB300;}
	.st53{fill:#FF735D;}
	.st54{fill:#E1E1E1;}
	.st55{opacity:0.15;fill:#FFFFFF;}
	.st56{fill:#F4F4F4;}
	.st57{fill:#ECDAB2;}
	.st58{fill:#33B3C4;}
</style>
<g>
	<path class="st0" d="M108,180L108,180c-39.76,0-72-32.24-72-72v0c0-39.76,32.24-72,72-72h0c39.76,0,72,32.24,72,72v0   C180,147.76,147.76,180,108,180z"/>
	<g>
		<path class="st12" d="M137.3,88.5h-24.77v54.66h27.78V88.5H137.3z M122.2,135.6c0,0.25-0.2,0.45-0.45,0.45h-3.62    c-0.25,0-0.45-0.2-0.45-0.45v-3.62c0-0.25,0.2-0.45,0.45-0.45h3.62c0.25,0,0.45,0.2,0.45,0.45V135.6z M122.2,126.54    c0,0.25-0.2,0.45-0.45,0.45h-3.62c-0.25,0-0.45-0.2-0.45-0.45v-3.62c0-0.25,0.2-0.45,0.45-0.45h3.62c0.25,0,0.45,0.2,0.45,0.45    V126.54z M122.2,117.48c0,0.25-0.2,0.45-0.45,0.45h-3.62c-0.25,0-0.45-0.2-0.45-0.45v-3.62c0-0.25,0.2-0.45,0.45-0.45h3.62    c0.25,0,0.45,0.2,0.45,0.45V117.48z M122.2,108.43c0,0.25-0.2,0.45-0.45,0.45h-3.62c-0.25,0-0.45-0.2-0.45-0.45v-3.62    c0-0.25,0.2-0.45,0.45-0.45h3.62c0.25,0,0.45,0.2,0.45,0.45V108.43z M122.2,99.37c0,0.25-0.2,0.45-0.45,0.45h-3.62    c-0.25,0-0.45-0.2-0.45-0.45v-3.62c0-0.25,0.2-0.45,0.45-0.45h3.62c0.25,0,0.45,0.2,0.45,0.45V99.37z M133.43,135.6    c0,0.25-0.2,0.45-0.45,0.45h-3.62c-0.25,0-0.45-0.2-0.45-0.45v-3.62c0-0.25,0.2-0.45,0.45-0.45h3.62c0.25,0,0.45,0.2,0.45,0.45    V135.6z M133.43,126.54c0,0.25-0.2,0.45-0.45,0.45h-3.62c-0.25,0-0.45-0.2-0.45-0.45v-3.62c0-0.25,0.2-0.45,0.45-0.45h3.62    c0.25,0,0.45,0.2,0.45,0.45V126.54z M133.43,117.48c0,0.25-0.2,0.45-0.45,0.45h-3.62c-0.25,0-0.45-0.2-0.45-0.45v-3.62    c0-0.25,0.2-0.45,0.45-0.45h3.62c0.25,0,0.45,0.2,0.45,0.45V117.48z M133.43,108.43c0,0.25-0.2,0.45-0.45,0.45h-3.62    c-0.25,0-0.45-0.2-0.45-0.45v-3.62c0-0.25,0.2-0.45,0.45-0.45h3.62c0.25,0,0.45,0.2,0.45,0.45V108.43z M133.43,99.37    c0,0.25-0.2,0.45-0.45,0.45h-3.62c-0.25,0-0.45-0.2-0.45-0.45v-3.62c0-0.25,0.2-0.45,0.45-0.45h3.62c0.25,0,0.45,0.2,0.45,0.45    V99.37z"/>
		<path class="st13" d="M137.3,88.5l3.02-4.53H80.15c-0.4,0-0.78,0.1-1,0.27l-5.68,4.26h8.68h30.39H137.3z"/>
		<path class="st13" d="M168.25,147.4c0.91-1.38,1.77-2.8,2.58-4.24h-6.35h-6.04h-18.11h-27.78H82.15H45.17    c0.81,1.45,1.67,2.86,2.58,4.24h77.59H168.25z"/>
		<path class="st1" d="M125.34,151.65h39.91c1.05-1.38,2.05-2.79,3-4.24h-42.91V151.65z"/>
		<path class="st12" d="M120.47,151.65v4.24h41.28c1.22-1.37,2.39-2.78,3.5-4.24h-39.91H120.47z"/>
		<path class="st1" d="M140.32,88.5v54.66h18.11V88.5H140.32z M151.64,135.6c0,0.25-0.2,0.45-0.45,0.45h-3.62    c-0.25,0-0.45-0.2-0.45-0.45v-3.62c0-0.25,0.2-0.45,0.45-0.45h3.62c0.25,0,0.45,0.2,0.45,0.45V135.6z M151.64,126.54    c0,0.25-0.2,0.45-0.45,0.45h-3.62c-0.25,0-0.45-0.2-0.45-0.45v-3.62c0-0.25,0.2-0.45,0.45-0.45h3.62c0.25,0,0.45,0.2,0.45,0.45    V126.54z M151.64,117.48c0,0.25-0.2,0.45-0.45,0.45h-3.62c-0.25,0-0.45-0.2-0.45-0.45v-3.62c0-0.25,0.2-0.45,0.45-0.45h3.62    c0.25,0,0.45,0.2,0.45,0.45V117.48z M151.64,108.43c0,0.25-0.2,0.45-0.45,0.45h-3.62c-0.25,0-0.45-0.2-0.45-0.45v-3.62    c0-0.25,0.2-0.45,0.45-0.45h3.62c0.25,0,0.45,0.2,0.45,0.45V108.43z M151.64,99.37c0,0.25-0.2,0.45-0.45,0.45h-3.62    c-0.25,0-0.45-0.2-0.45-0.45v-3.62c0-0.25,0.2-0.45,0.45-0.45h3.62c0.25,0,0.45,0.2,0.45,0.45V99.37z"/>
		<g>
			<path class="st13" d="M82.15,143.16h30.39V88.5H82.15V143.16z M102.33,95.75c0-0.25,0.2-0.45,0.45-0.45h3.62     c0.25,0,0.45,0.2,0.45,0.45v3.62c0,0.25-0.2,0.45-0.45,0.45h-3.62c-0.25,0-0.45-0.2-0.45-0.45V95.75z M102.33,104.81     c0-0.25,0.2-0.45,0.45-0.45h3.62c0.25,0,0.45,0.2,0.45,0.45v3.62c0,0.25-0.2,0.45-0.45,0.45h-3.62c-0.25,0-0.45-0.2-0.45-0.45     V104.81z M102.33,113.86c0-0.25,0.2-0.45,0.45-0.45h3.62c0.25,0,0.45,0.2,0.45,0.45v3.62c0,0.25-0.2,0.45-0.45,0.45h-3.62     c-0.25,0-0.45-0.2-0.45-0.45V113.86z M102.33,122.92c0-0.25,0.2-0.45,0.45-0.45h3.62c0.25,0,0.45,0.2,0.45,0.45v3.62     c0,0.25-0.2,0.45-0.45,0.45h-3.62c-0.25,0-0.45-0.2-0.45-0.45V122.92z M102.33,131.97c0-0.25,0.2-0.45,0.45-0.45h3.62     c0.25,0,0.45,0.2,0.45,0.45v3.62c0,0.25-0.2,0.45-0.45,0.45h-3.62c-0.25,0-0.45-0.2-0.45-0.45V131.97z M91.1,95.75     c0-0.25,0.2-0.45,0.45-0.45h3.62c0.25,0,0.45,0.2,0.45,0.45v3.62c0,0.25-0.2,0.45-0.45,0.45h-3.62c-0.25,0-0.45-0.2-0.45-0.45     V95.75z M91.1,104.81c0-0.25,0.2-0.45,0.45-0.45h3.62c0.25,0,0.45,0.2,0.45,0.45v3.62c0,0.25-0.2,0.45-0.45,0.45h-3.62     c-0.25,0-0.45-0.2-0.45-0.45V104.81z M91.1,113.86c0-0.25,0.2-0.45,0.45-0.45h3.62c0.25,0,0.45,0.2,0.45,0.45v3.62     c0,0.25-0.2,0.45-0.45,0.45h-3.62c-0.25,0-0.45-0.2-0.45-0.45V113.86z M91.1,122.92c0-0.25,0.2-0.45,0.45-0.45h3.62     c0.25,0,0.45,0.2,0.45,0.45v3.62c0,0.25-0.2,0.45-0.45,0.45h-3.62c-0.25,0-0.45-0.2-0.45-0.45V122.92z M91.1,131.97     c0-0.25,0.2-0.45,0.45-0.45h3.62c0.25,0,0.45,0.2,0.45,0.45v3.62c0,0.25-0.2,0.45-0.45,0.45h-3.62c-0.25,0-0.45-0.2-0.45-0.45     V131.97z"/>
			<path class="st13" d="M115.48,155.89v4.24h42.16c1.43-1.36,2.8-2.77,4.12-4.24h-41.28H115.48z"/>
			<path class="st13" d="M177.31,88.5c-0.29-1.04-0.6-2.07-0.94-3.09c-0.3,1.22-0.96,2.29-1.87,3.09c-1.06,0.94-2.46,1.51-3.98,1.51     s-2.92-0.57-3.98-1.51c-1.26-1.11-2.05-2.72-2.05-4.53c0-1.81,0.8-3.42,2.05-4.53c1.06-0.94,2.46-1.51,3.98-1.51     c1.25,0,2.42,0.38,3.38,1.03c-1.43-3.23-3.08-6.34-4.95-9.3l-10.5,5.25v4.53h-14.45c-0.4,0-0.78,0.2-1,0.54l-2.66,3.99     l-3.02,4.53h3.02h18.11v54.66h6.04v-36.54c0-3.33,2.7-6.04,6.04-6.04c3.33,0,6.04,2.7,6.04,6.04v23.43     c2.23-6.95,3.45-14.36,3.45-22.05v0C180,101.24,179.05,94.71,177.31,88.5z"/>
		</g>
		<path class="st1" d="M176.55,106.62c0-3.33-2.7-6.04-6.04-6.04c-3.33,0-6.04,2.7-6.04,6.04v36.54h6.35    c2.32-4.14,4.24-8.52,5.72-13.11V106.62z"/>
		<path class="st14" d="M151.19,104.35h-3.62c-0.25,0-0.45,0.2-0.45,0.45v3.62c0,0.25,0.2,0.45,0.45,0.45h3.62    c0.25,0,0.45-0.2,0.45-0.45v-3.62C151.64,104.56,151.44,104.35,151.19,104.35z"/>
		<path class="st14" d="M151.19,113.41h-3.62c-0.25,0-0.45,0.2-0.45,0.45v3.62c0,0.25,0.2,0.45,0.45,0.45h3.62    c0.25,0,0.45-0.2,0.45-0.45v-3.62C151.64,113.61,151.44,113.41,151.19,113.41z"/>
		<path class="st14" d="M151.19,95.3h-3.62c-0.25,0-0.45,0.2-0.45,0.45v3.62c0,0.25,0.2,0.45,0.45,0.45h3.62    c0.25,0,0.45-0.2,0.45-0.45v-3.62C151.64,95.5,151.44,95.3,151.19,95.3z"/>
		<path class="st14" d="M132.97,104.35h-3.62c-0.25,0-0.45,0.2-0.45,0.45v3.62c0,0.25,0.2,0.45,0.45,0.45h3.62    c0.25,0,0.45-0.2,0.45-0.45v-3.62C133.43,104.56,133.22,104.35,132.97,104.35z"/>
		<path class="st14" d="M132.97,113.41h-3.62c-0.25,0-0.45,0.2-0.45,0.45v3.62c0,0.25,0.2,0.45,0.45,0.45h3.62    c0.25,0,0.45-0.2,0.45-0.45v-3.62C133.43,113.61,133.22,113.41,132.97,113.41z"/>
		<path class="st14" d="M132.97,95.3h-3.62c-0.25,0-0.45,0.2-0.45,0.45v3.62c0,0.25,0.2,0.45,0.45,0.45h3.62    c0.25,0,0.45-0.2,0.45-0.45v-3.62C133.43,95.5,133.22,95.3,132.97,95.3z"/>
		<path class="st14" d="M121.74,104.35h-3.62c-0.25,0-0.45,0.2-0.45,0.45v3.62c0,0.25,0.2,0.45,0.45,0.45h3.62    c0.25,0,0.45-0.2,0.45-0.45v-3.62C122.2,104.56,121.99,104.35,121.74,104.35z"/>
		<path class="st14" d="M121.74,113.41h-3.62c-0.25,0-0.45,0.2-0.45,0.45v3.62c0,0.25,0.2,0.45,0.45,0.45h3.62    c0.25,0,0.45-0.2,0.45-0.45v-3.62C122.2,113.61,121.99,113.41,121.74,113.41z"/>
		<path class="st14" d="M121.74,95.3h-3.62c-0.25,0-0.45,0.2-0.45,0.45v3.62c0,0.25,0.2,0.45,0.45,0.45h3.62    c0.25,0,0.45-0.2,0.45-0.45v-3.62C122.2,95.5,121.99,95.3,121.74,95.3z"/>
		<path class="st14" d="M106.41,104.35h-3.62c-0.25,0-0.45,0.2-0.45,0.45v3.62c0,0.25,0.2,0.45,0.45,0.45h3.62    c0.25,0,0.45-0.2,0.45-0.45v-3.62C106.86,104.56,106.66,104.35,106.41,104.35z"/>
		<path class="st14" d="M106.41,113.41h-3.62c-0.25,0-0.45,0.2-0.45,0.45v3.62c0,0.25,0.2,0.45,0.45,0.45h3.62    c0.25,0,0.45-0.2,0.45-0.45v-3.62C106.86,113.61,106.66,113.41,106.41,113.41z"/>
		<path class="st14" d="M106.41,95.3h-3.62c-0.25,0-0.45,0.2-0.45,0.45v3.62c0,0.25,0.2,0.45,0.45,0.45h3.62    c0.25,0,0.45-0.2,0.45-0.45v-3.62C106.86,95.5,106.66,95.3,106.41,95.3z"/>
		<path class="st14" d="M95.18,104.35h-3.62c-0.25,0-0.45,0.2-0.45,0.45v3.62c0,0.25,0.2,0.45,0.45,0.45h3.62    c0.25,0,0.45-0.2,0.45-0.45v-3.62C95.63,104.56,95.43,104.35,95.18,104.35z"/>
		<path class="st14" d="M95.18,113.41h-3.62c-0.25,0-0.45,0.2-0.45,0.45v3.62c0,0.25,0.2,0.45,0.45,0.45h3.62    c0.25,0,0.45-0.2,0.45-0.45v-3.62C95.63,113.61,95.43,113.41,95.18,113.41z"/>
		<path class="st14" d="M95.18,95.3h-3.62c-0.25,0-0.45,0.2-0.45,0.45v3.62c0,0.25,0.2,0.45,0.45,0.45h3.62    c0.25,0,0.45-0.2,0.45-0.45v-3.62C95.63,95.5,95.43,95.3,95.18,95.3z"/>
		<path class="st14" d="M151.19,122.47h-3.62c-0.25,0-0.45,0.2-0.45,0.45v3.62c0,0.25,0.2,0.45,0.45,0.45h3.62    c0.25,0,0.45-0.2,0.45-0.45v-3.62C151.64,122.67,151.44,122.47,151.19,122.47z"/>
		<path class="st14" d="M151.19,131.52h-3.62c-0.25,0-0.45,0.2-0.45,0.45v3.62c0,0.25,0.2,0.45,0.45,0.45h3.62    c0.25,0,0.45-0.2,0.45-0.45v-3.62C151.64,131.72,151.44,131.52,151.19,131.52z"/>
		<path class="st14" d="M132.97,122.47h-3.62c-0.25,0-0.45,0.2-0.45,0.45v3.62c0,0.25,0.2,0.45,0.45,0.45h3.62    c0.25,0,0.45-0.2,0.45-0.45v-3.62C133.43,122.67,133.22,122.47,132.97,122.47z"/>
		<path class="st14" d="M132.97,131.52h-3.62c-0.25,0-0.45,0.2-0.45,0.45v3.62c0,0.25,0.2,0.45,0.45,0.45h3.62    c0.25,0,0.45-0.2,0.45-0.45v-3.62C133.43,131.72,133.22,131.52,132.97,131.52z"/>
		<path class="st14" d="M121.74,122.47h-3.62c-0.25,0-0.45,0.2-0.45,0.45v3.62c0,0.25,0.2,0.45,0.45,0.45h3.62    c0.25,0,0.45-0.2,0.45-0.45v-3.62C122.2,122.67,121.99,122.47,121.74,122.47z"/>
		<path class="st14" d="M121.74,131.52h-3.62c-0.25,0-0.45,0.2-0.45,0.45v3.62c0,0.25,0.2,0.45,0.45,0.45h3.62    c0.25,0,0.45-0.2,0.45-0.45v-3.62C122.2,131.72,121.99,131.52,121.74,131.52z"/>
		<path class="st14" d="M106.41,122.47h-3.62c-0.25,0-0.45,0.2-0.45,0.45v3.62c0,0.25,0.2,0.45,0.45,0.45h3.62    c0.25,0,0.45-0.2,0.45-0.45v-3.62C106.86,122.67,106.66,122.47,106.41,122.47z"/>
		<path class="st14" d="M106.41,131.52h-3.62c-0.25,0-0.45,0.2-0.45,0.45v3.62c0,0.25,0.2,0.45,0.45,0.45h3.62    c0.25,0,0.45-0.2,0.45-0.45v-3.62C106.86,131.72,106.66,131.52,106.41,131.52z"/>
		<path class="st14" d="M95.18,122.47h-3.62c-0.25,0-0.45,0.2-0.45,0.45v3.62c0,0.25,0.2,0.45,0.45,0.45h3.62    c0.25,0,0.45-0.2,0.45-0.45v-3.62C95.63,122.67,95.43,122.47,95.18,122.47z"/>
		<path class="st14" d="M95.18,131.52h-3.62c-0.25,0-0.45,0.2-0.45,0.45v3.62c0,0.25,0.2,0.45,0.45,0.45h3.62    c0.25,0,0.45-0.2,0.45-0.45v-3.62C95.63,131.72,95.43,131.52,95.18,131.52z"/>
		<path class="st1" d="M155.42,73.78v1.67c0,0.45,0.47,0.74,0.87,0.54l12.65-6.32c-0.48-0.77-0.97-1.53-1.48-2.28l-11.7,5.85    C155.54,73.35,155.42,73.56,155.42,73.78z"/>
	</g>
	<g>
		<g>
			<path class="st18" d="M106.47,99.35c0,0,6.34,0,7.04,0.66c0.7,0.66,7.07,21.31,7.05,23.19c-0.02,1.88-8.87,3.89-9.74,3.1     c-0.87-0.79-6.46-23.85-6.46-23.85L106.47,99.35z"/>
		</g>
		<g>
			<g>
				<path class="st20" d="M102.9,72.68l7.75,12.2l9.45-7.01l4.61,1.38c0,0-11.04,13.25-12.72,14.28c-1.75,1.07-4.04,2.25-6.13-0.23      c-1.91-2.25-9.25-16.35-9.25-16.35L102.9,72.68z"/>
			</g>
			<g>
				<g>
					<g>
						<g>
							<g>
								<g>
									<g>
										<g>
											<g>
												<g>
													<g>
														<path class="st52" d="M130.85,64.42c-0.16-0.2-0.41-0.3-0.66-0.27l-4.24,0.55c-0.37,0.05-0.7,0.26-0.91,0.58                l-8.9,13.46l0.67,0.38l4.69-0.11l9.48-14.43L130.85,64.42z"/>
													</g>
												</g>
											</g>
										</g>
									</g>
								</g>
							</g>
						</g>
					</g>
				</g>
				<g>
					<g>
						<g>
							<g>
								<g>
									<g>
										<g>
											<g>
												<g>
													<g>
														<path class="st6" d="M127.84,66.16c0.09,0.08,0.25,0.05,0.36-0.07c0.11-0.12,0.12-0.28,0.03-0.36                c-0.09-0.08-0.25-0.05-0.36,0.07C127.76,65.92,127.75,66.08,127.84,66.16z"/>
													</g>
												</g>
											</g>
										</g>
									</g>
								</g>
							</g>
						</g>
					</g>
				</g>
			</g>
			<g>
				<g>
					<g>
						<g>
							<g>
								<g>
									<g>
										<g>
											<g>
												<g>
													<g>
														<path class="st20" d="M126.25,69.39c0,0-0.38-0.07-0.59,0.96c-0.21,1.03-0.9,3.99-0.9,3.99l-1.97-1.07l-2.48,0.3                c0,0-0.54,0.5-0.15,0.77c0.39,0.27,1.96,0.57,1.96,0.57l1.14,1.67l-3.3-1.62c0,0-1.11,0.28-0.79,0.96                c0.32,0.68,2.54,2.8,2.54,2.8l-1.66-0.14l-1.96-1.21c0,0-0.61,0.02-0.38,0.54c0.22,0.52,2.26,2.4,2.26,2.4l2.48,1.23                c0,0,1.36-0.1,1.49-0.49c0.13-0.4,0.17-0.97,0.17-0.97s0.72-0.19,0.86-0.54c0.14-0.35,0.05-0.9,0.05-0.9                s1.13,0.21,1.28-0.42c0.15-0.63,0.04-1.87-0.07-2.36c-0.11-0.49,0.52-4.99,0.48-5.13                C126.64,70.58,126.96,69.1,126.25,69.39z"/>
													</g>
												</g>
											</g>
										</g>
									</g>
								</g>
							</g>
						</g>
					</g>
				</g>
			</g>
		</g>
		<path class="st35" d="M75.13,104.35l30.09,0.34c1.97,5.33,2.41,11.15,1.91,16.82c-0.5,5.67-1.9,11.21-3.5,16.67    c-10.62,1.21-21.31,2.43-31.98,1.86c-0.88-0.05-1.84-0.15-2.44-0.79c-0.49-0.53-0.6-1.3-0.67-2.02    C67.44,125.93,69.96,114.44,75.13,104.35z"/>
		<path class="st3" d="M73.18,113.99l-1.15,2.95c-2.69,6.92-2.48,19.71-1.89,26.28c0.59,6.57,0.74,10.54-0.58,17.04    c-0.36,1.77-0.79,4.66-1.23,7.82c3.19,2.11,6.56,3.97,10.08,5.56c1.22-3.94,4.56-19.44,5.92-24.22    c0.86-3.01,5.32-25.23,5.32-25.23s1.72,10.32,2.4,15.37c0.52,3.8,2.39,27.69,3.29,39.32c3.46,0.61,7.01,0.98,10.62,1.08    l1.63-26.35c0,0,1.88-21.85,2.32-27.43c0.44-5.59-2.55-13.17-2.47-13.49L73.18,113.99z"/>
		<g>
			<g>
				<path class="st3" d="M81.59,35.38c-0.31-0.62-0.92-1.03-1.56-1.3c-1.45-0.62-3.17-0.6-4.57,0.13s-2.43,2.16-2.58,3.73      c-0.15,1.57,0.61,3.21,1.95,4.04c-0.84,0.05-1.66,0.31-2.37,0.74c-0.21,0.13-0.43,0.3-0.48,0.54C71.89,43.65,72.3,44,72.69,44      c0.29,0.01,0.57-0.11,0.82-0.26c-0.28,0.18-0.53,0.41-0.59,0.73c-0.1,0.56,0.49,1.05,1.07,1.06c0.57,0.01,1.09-0.31,1.57-0.61      l5.72-7.66C81.82,36.84,81.9,36,81.59,35.38z"/>
				<g>
					<g>
						<g>
							<g>
								<g>
									<g>
										<path class="st3" d="M94.69,44.43c0,0,2.33,7.84,2.66,13.42l0.11,1.86c0,0-4.55,4-8.45,4.34l-3.5-7.96L94.69,44.43z"/>
									</g>
								</g>
							</g>
						</g>
						<g>
							<g>
								<g>
									<g>
										<g>
											<g>
												<g>
													<g>
														<g>
															<g>
																<g>
																	<g>
																		<path class="st3" d="M74.13,49.84c0.79-3.88,1-8.37,4.14-10.96c2.33-1.93,5.02-2.52,8.04-2.48                    c1.49,0.02,3.18,0.66,4.5,1.36c1.8,0.96,2.61,2.97,3.52,4.8c1.82,3.66,1.74,8.68,0.61,10.11l-15.26,8.6                    c-3.14-1.52-5.09-2.11-5.7-6.22C73.71,53.32,73.78,51.56,74.13,49.84z"/>
																	</g>
																</g>
															</g>
														</g>
													</g>
												</g>
												<g>
													<g>
														<g>
															<g>
																<g>
																	<g>
																		<path class="st20" d="M78.51,41.93l9.67-3.14c3.13-0.54,5.48,3.19,5.89,6.34c0.46,3.5,0.87,7.78,0.63,10.43                    c-0.48,5.33-4.48,6.27-4.48,6.27c0-0.02-0.01,0.08,0.07,1.65l0.1,3.23c0.07,1.03-0.1,1.38-0.71,2.21                    c-1.39,1.9-4,2.22-7.12,1.16c-1.81-0.61-3.09-1.91-3.28-3.72l-0.57-21.48C78.64,43.91,77.56,42.1,78.51,41.93z"/>
																	</g>
																</g>
															</g>
														</g>
													</g>
												</g>
											</g>
										</g>
									</g>
									<g>
										<g>
											<g>
												<g>
													<g>
														<path class="st3" d="M88.2,38.22c0.01,0.04,0.02,0.08,0.03,0.11l-0.02,0.01C88.21,38.3,88.21,38.26,88.2,38.22z"/>
													</g>
												</g>
											</g>
										</g>
									</g>
								</g>
							</g>
							<g>
								<g>
									<g>
										<g>
											<path class="st3" d="M79.13,64.79c2.63-0.23,2.68-2.95,2.48-4.33c-0.21-1.46-0.58-3.13-1.01-4.54             c-0.69-2.26,0.1-4.71,0.35-7.07c1.32-0.2,2.53-1.03,3.38-2.07c1.02-1.26,1.62-2.81,2.2-4.33c0,1.47-0.47,2.94-1.32,4.14             c0.59,0.11,1.2-0.16,1.63-0.58c0.43-0.42,0.7-0.97,0.92-1.52c0.54-1.35,0.81-2.8,0.82-4.25             c0.25,2.07,0.08,4.19-0.52,6.18c0.37-0.12,0.76-0.03,1.15,0.01c0.38,0.04,0.82,0.02,1.08-0.26             c0.18-0.19,0.23-0.46,0.28-0.71c0.32-1.77,0.33-3.6,0.03-5.37c0.5,0.95,0.99,1.91,1.29,2.94c0.3,1.03,0.4,2.14,0.11,3.17             c0.16,0.19,0.48,0.15,0.66-0.02c0.18-0.17,0.24-0.43,0.27-0.67c0.11-0.89-0.07-1.79-0.25-2.67             c0.55,0.92,0.76,2,1.08,3.03c0.32,1.03,0.81,2.07,1.73,2.64c0.11-1.55,0.03-2.6-0.24-4.05c-0.21-1.1-0.76-2.18-1.27-3.18             c-0.57-1.12-1.36-2.2-2.22-2.92c-1.59-1.32-2.23-0.71-3.2-0.17l-0.12,0.05c0-0.02-0.01-0.05-0.01-0.07l-0.05-0.21             c-2.6-0.51-5.34-0.31-7.83,0.58c-1.85,0.66-1.92,4.69-2.42,2.79c-0.31-1.15-1.78-0.05-1.8-0.02             c-2.1,4.04-4.26,10.42-4.1,20.4l0,0L79.13,64.79z"/>
										</g>
									</g>
								</g>
							</g>
						</g>
					</g>
					<g>
						<g>
							<path class="st3" d="M76.33,41.16c0.32,0.14,1.17-1.25,2.74-2.37c1.54-1.15,3.12-1.55,3.09-1.89         c-0.02-0.16-0.47-0.27-1.2-0.18c-0.72,0.09-1.7,0.43-2.61,1.1c-0.9,0.66-1.53,1.5-1.83,2.15         C76.21,40.63,76.18,41.09,76.33,41.16z"/>
						</g>
					</g>
				</g>
			</g>
		</g>
		<g>
			<path class="st29" d="M74.89,67.2c-0.51,0.01-5.19,1.46-6.28,4.91c-0.9,2.82-3.31,15.06-3.31,15.06l11.31-0.31     c0,0,2.18-6.92,1.73-10.71C77.9,72.37,74.89,67.2,74.89,67.2z"/>
			<path class="st29" d="M77.57,101.27L74.01,84l0.86-16.84l4.42-0.81c4.33,1.83,8.17,2.07,11.21-0.29l4.13,0.4     c0.01,0,4.32,0.08,8.02,4.37c1.37,1.59,7.09,10.06,7.09,10.06l-6.21,4.08c-0.07,4.04-0.33,10.73-0.33,10.73l6.31,21.92     c0,0-11.28,4-17.91,4.18c-9.32,0.25-20.03-4.58-20.03-4.58L77.57,101.27z"/>
		</g>
		<g>
			<path class="st35" d="M104.33,100.92l-13.09,5.57l0.09,3.38l15.96-1.4c0,0,0.67-2.44-0.14-5.11     C106.34,100.69,104.33,100.92,104.33,100.92z"/>
			<path class="st35" d="M91.24,106.5l-13.81-4.84c0,0-4.35,3.35-3.37,8.42l17.28-0.19L91.24,106.5z"/>
			
				<ellipse transform="matrix(0.9996 -0.0274 0.0274 0.9996 -2.9141 2.53)" class="st35" cx="90.89" cy="107.64" rx="2.75" ry="2.88"/>
			<path class="st53" d="M83.18,125.46c0.08-1.34,1.14-2.33,1.86-3.45c0.87-1.36,1.25-3,1.49-4.62c0.24-1.62,0.37-3.27,0.83-4.84     c0.45-1.57,1.28-3.09,2.6-3.97l0.05,0.25c2.57,4.53,2.95,10.33,1,15.18c-0.49,1.22-1.14,2.4-2.1,3.26s-2.29,1.34-3.52,1.04     C84.15,128,83.1,126.78,83.18,125.46z"/>
			<g>
				<path class="st35" d="M83.18,125.46c0.08-1.34,1.14-2.33,1.86-3.45c0.87-1.36,1.25-3,1.49-4.62c0.24-1.62,0.37-3.27,0.83-4.84      c0.45-1.57,1.28-3.09,2.6-3.97l0.05,0.25c2.57,4.53,2.95,10.33,1,15.18c-0.49,1.22-1.14,2.4-2.1,3.26s-2.29,1.34-3.52,1.04      C84.15,128,83.1,126.78,83.18,125.46z"/>
			</g>
			<path class="st35" d="M88.7,123.85c0.24-1.19,0.85-2.25,1.28-3.38c1.38-3.63,0.87-7.71,0.35-11.58l2.79-0.14     c2.81,3.78,3.56,8.82,3.49,13.6c-0.01,1.02-0.04,2.96-0.4,3.91c-0.36,0.95-0.87,2.18-1.81,2.43l0.08,0.94     c-0.84,0.01-1.69,0.03-2.53,0.04l-0.06-0.8c-0.53-0.34-1.79-1.3-2.28-1.69C88.67,126.44,88.46,125.04,88.7,123.85z"/>
		</g>
		<path class="st18" d="M77.3,66.72l29.17,32.63l-1.23,1.71l-30.36-33.9C74.88,67.17,75.83,65.88,77.3,66.72z"/>
		<g>
			<path class="st20" d="M68.74,87.22c-0.23,0.26-3.81,7.87-3.31,9.91c0.5,2.04,2.86,3.26,3.67,3.24     c0.81-0.02,5.88-13.32,5.88-13.32l-4.99-2.21L68.74,87.22z"/>
			<g>
				<polygon class="st3" points="72.78,97.63 81.57,97.39 82.98,96.08 68.88,78.51 60.86,79.5 59.73,80.58     "/>
				<polygon class="st50" points="60.01,82.23 71.62,97.31 78.49,96.86 79.55,95.78 66.58,80.44 60.68,81.34     "/>
				<polygon class="st54" points="79.25,96.07 66.4,80.8 60.85,81.54 60.39,82.12 66.06,81.39 78.61,96.66     "/>
				<polygon class="st54" points="82.67,96.37 68.45,78.93 61.02,79.81 60.27,80.51 67.82,79.74 81.96,97.03     "/>
			</g>
			<path class="st20" d="M68.52,96.09l1.76-0.43c0,0,0.38-2.74,0.96-3.09c0.58-0.35,5.71-0.49,6.24,0.13     c0.54,0.63,0.32,0.89,0.32,0.89s1.4-0.36,1.67,1.3c0,0,1.49,0.18,0.93,1.45c0,0,1.51,0.73,0.64,1.65c0,0,0.33,1.34-0.91,2.08     c-1.24,0.74-2.66,0.52-2.66,0.52l-8.39-0.22L68.52,96.09z"/>
		</g>
	</g>
</g>
</svg>