<?xml version="1.0" encoding="utf-8"?>
<!-- Generator: Adobe Illustrator 28.1.0, SVG Export Plug-In . SVG Version: 6.00 Build 0)  -->
<svg version="1.1" id="Layer_1" xmlns="http://www.w3.org/2000/svg" xmlns:xlink="http://www.w3.org/1999/xlink" x="0px" y="0px"
	 viewBox="0 0 216 216" style="enable-background:new 0 0 216 216;" xml:space="preserve">
<style type="text/css">
	.st0{fill:#FFFAEB;}
	.st1{fill:#FFE199;}
	.st2{fill:#FFB400;}
	.st3{fill:#646464;}
	.st4{fill:#FFCA4C;}
	.st5{fill:none;stroke:#FFB400;stroke-width:1.905;stroke-linecap:round;stroke-linejoin:round;stroke-miterlimit:10;}
	.st6{fill:#FFFFFF;}
	.st7{fill:#FFFFFF;stroke:#FFCA4C;stroke-width:1.905;stroke-linecap:round;stroke-linejoin:round;stroke-miterlimit:10;}
	.st8{fill:none;stroke:#FFE199;stroke-width:1.905;stroke-linecap:round;stroke-linejoin:round;stroke-miterlimit:10;}
	.st9{fill:#FDEDBF;}
	.st10{fill:#C5C5C5;}
	.st11{fill:#F2F2F2;}
	.st12{fill:#FFE8B2;}
	.st13{fill:#FFF0CC;}
	.st14{fill:#FFF7E5;}
	.st15{fill:#FFD166;}
	.st16{fill:#FFC233;}
	.st17{fill:#FFD980;}
	.st18{fill:#C1E6FA;}
	.st19{fill:#D4EDFB;}
	.st20{fill:#FDD094;}
	.st21{fill:#006EE8;}
	.st22{fill:#737373;}
	.st23{fill:#007CFF;}
	.st24{fill:#197DEA;}
	.st25{opacity:0.1;}
	.st26{opacity:0.2;}
	.st27{fill:#FFCC54;}
	.st28{fill:#E7DCEE;}
	.st29{fill:#7D39AD;}
	.st30{fill:#EBF9FF;}
	.st31{fill:#97D200;}
	.st32{fill:#E2EFD1;}
	.st33{fill:#00A0B5;}
	.st34{fill:#BEECF0;}
	.st35{fill:#FF4444;}
	.st36{fill:#FFE6E6;}
	.st37{fill:#C18300;}
	.st38{fill:#F3E6CF;}
	.st39{fill:#008000;}
	.st40{fill:#006EE9;}
	.st41{fill:#EAB888;}
	.st42{fill:#FFD296;}
	.st43{fill:#FF5757;}
	.st44{fill:#FF6969;}
	.st45{fill:#FABE82;}
	.st46{fill:#FAFAFA;}
	.st47{fill:#C8C8C8;}
	.st48{fill:#A1D619;}
	.st49{fill:#FF9C6A;}
	.st50{fill:#66B366;}
	.st51{fill:#FDB002;}
	.st52{fill:#FFB300;}
	.st53{fill:#FF735D;}
	.st54{fill:#E1E1E1;}
	.st55{opacity:0.15;fill:#FFFFFF;}
	.st56{fill:#F4F4F4;}
	.st57{fill:#ECDAB2;}
	.st58{fill:#33B3C4;}
</style>
<g>
	<path class="st0" d="M108,180L108,180c-39.76,0-72-32.24-72-72v0c0-39.76,32.24-72,72-72h0c39.76,0,72,32.24,72,72v0
		C180,147.76,147.76,180,108,180z"/>
	<g>
		<g>
			<g>
				<path class="st31" d="M141.36,132.03l4.58,0.22c-2.84-4.95-6.57-9.92-10.11-9.8c0,0-3.04,0.97,0.13,4.03
					C137.05,127.52,139.12,129.66,141.36,132.03z"/>
				<path class="st31" d="M144.14,134.09l0.2,1.09c1.8,1.92,3.49,3.73,4.67,4.98c0.06-0.11,0.13-0.21,0.18-0.35
					c0.07-0.2,0.18-0.38,0.32-0.53c-0.62-1.37-1.46-3.16-2.47-5.06L144.14,134.09z"/>
				<path class="st31" d="M145.17,139.63c0.94,0.39,1.88,0.82,2.82,1.31c0.12-0.04,0.23-0.09,0.34-0.14
					c-0.92-0.68-2.09-1.53-3.38-2.4L145.17,139.63z"/>
				<path class="st31" d="M134.65,134.29c0,0-0.15,0.1-0.3,0.26l0.37,1.58c0.07,0.04,0.14,0.08,0.22,0.12
					c1.18,0.57,4.56,1.25,8.4,2.65l-0.33-1.76C139.6,135.02,135.99,133.25,134.65,134.29z"/>
				<path class="st31" d="M149.79,132.42c-0.42-1.49-0.93-2.56-1.51-2.55c-0.57,0.01-0.52,1.04-0.18,2.47L149.79,132.42z"/>
				<path class="st31" d="M150.25,134.38l-1.59-0.08c0.49,1.52,1.12,3.15,1.63,4.42c0.21-0.1,0.43-0.17,0.64-0.23
					C150.77,137.28,150.54,135.79,150.25,134.38z"/>
			</g>
			<g>
				<path class="st41" d="M152.26,138.3c0,0-0.63,0.01-1.32,0.19c-0.21,0.06-0.43,0.13-0.64,0.23c-0.3,0.14-0.58,0.32-0.79,0.56
					c-0.14,0.15-0.25,0.33-0.32,0.53c-0.05,0.14-0.11,0.24-0.18,0.35c-0.18,0.3-0.42,0.5-0.68,0.64c-0.11,0.06-0.22,0.1-0.34,0.14
					c-0.58,0.2-1.22,0.25-1.61,0.64l2.68,3.12l5.27,0.04l-0.72-4.74C152.8,138.99,152.26,138.3,152.26,138.3z"/>
				<path class="st41" d="M155.7,142.65l0.32,2.11l1.35,0.01C156.83,144.08,156.26,143.36,155.7,142.65z"/>
			</g>
			<g>
				<path class="st37" d="M141.82,143.88c-1.4-1.57-3.84-2.64-5.13-1.64c-0.14,0.11-0.29,0.27-0.43,0.45l0.45,1.91l5.6,0.05
					C142.17,144.36,142.02,144.09,141.82,143.88z"/>
				<path class="st37" d="M107.56,121.83l-4.21-3.71c-0.48-0.42-1.21-0.38-1.63,0.1c-0.42,0.48-0.38,1.21,0.1,1.63l4.21,3.71
					c0.16,0.14,0.36,0.21,0.55,0.25c0.07,0.01,0.14,0.04,0.21,0.04c0.32,0,0.64-0.13,0.87-0.39c0.27-0.3,0.33-0.7,0.23-1.06
					C107.83,122.19,107.74,121.99,107.56,121.83z"/>
			</g>
			<path class="st2" d="M175.28,133.63l-25.5-1.21l-1.68-0.08l-2.16-0.1l-4.58-0.22l-27.17-1.29l-1.05-3.29
				c-0.05-0.16-0.14-0.3-0.26-0.41l-5-4.64c0.1,0.36,0.04,0.76-0.23,1.06c-0.23,0.26-0.55,0.39-0.87,0.39
				c-0.07,0-0.14-0.02-0.21-0.04l4.81,4.46l1.17,3.66c0,0.02,0.01,0.03,0.01,0.04l11.41,35.85l-7.34,6.02
				c-0.22,0.18-0.35,0.46-0.35,0.75v4.92c0.65-0.07,1.29-0.15,1.93-0.25v-4.22l7.26-5.95l23.19-1.68c0.88-0.6,1.75-1.22,2.59-1.86
				c0.13-0.09,0.25-0.2,0.37-0.29c1.78-1.36,3.5-2.8,5.15-4.32c0.06-0.05,0.11-0.11,0.17-0.16c0.44-0.41,0.88-0.83,1.31-1.25
				c0.73-0.71,1.44-1.44,2.14-2.18c0.54-0.57,1.07-1.15,1.58-1.73c0.73-0.82,1.44-1.66,2.13-2.52c0.52-0.64,1.03-1.29,1.53-1.95
				c1.12-1.49,2.16-3.04,3.17-4.61c0.35-0.55,0.7-1.1,1.04-1.66l-4.68-0.04l-0.74-9.79l7.9,0.37l0.28,4.38
				c0.51-1.04,1-2.1,1.47-3.17L174,135.5l0.54,0.03C174.8,134.9,175.04,134.27,175.28,133.63z M162.74,134.97l0.74,9.86l-6.11-0.05
				l-1.35-0.01l-0.32-2.11l-1.22-8.07L162.74,134.97z M144.14,134.09l2.89,0.14l1.63,0.08l1.59,0.08l2.52,0.12l0.83,5.51l0.72,4.74
				l-5.27-0.04l-2.95-0.02l-0.94-5.05l-0.23-1.22l-0.6-3.23L144.14,134.09z M142.42,134.01l0.58,3.14l0.33,1.76l1.07,5.76l-2.1-0.02
				l-5.6-0.05l-0.45-1.91l-1.54-6.56l-0.37-1.58l-0.22-0.94L142.42,134.01z M132.39,133.53l2.59,11.05l-7.38-0.06l-2.81-11.35
				L132.39,133.53z M114.82,132.7l8.22,0.39l2.83,11.42l-7.31-0.06L114.82,132.7z"/>
		</g>
		<g>
			<path class="st22" d="M68.75,168.35c4.56,2.97,9.46,5.45,14.65,7.34c0.64-8.8,1.59-21.11,2.44-31.9
				c1.01-12.87,1.87-23.59,1.87-23.59l-23.99-1.48C63.73,118.71,67.22,149.88,68.75,168.35z"/>
			<path class="st3" d="M68.75,168.35c0.81,0.53,1.62,1.04,2.45,1.54l14.64-26.1c1.01-12.87,1.87-23.59,1.87-23.59l-23.99-1.48
				C63.73,118.71,67.22,149.88,68.75,168.35z"/>
			<path class="st22" d="M57.72,129.63c-0.18,4.39-3.58,15.84-6.98,22c4.01,5.25,8.71,9.94,13.99,13.91
				c9.17-19.26,19.07-44.07,19.07-44.07l-24.69-7C59.1,114.47,57.94,124.54,57.72,129.63z"/>
			<g>
				<g id="man_00000016073045580525095070000006522079268794718629_">
					<path class="st42" d="M98.77,111l1.37,1.96c0,0,4.93,0.52,4.76,5.89c0,0-0.23,2.22-1.7,1.58c-1.47-0.64-0.8-0.61-2.89-1.46
						c-2.09-0.85-3.57-2.6-3.5-4.26l-0.68-1.73L98.77,111z"/>
					<path class="st42" d="M63.44,61.68c0,0,10.46,5.15,16.51,3.24c0,0-1.49-1.9-4.08-3.33c0.15-0.87,0.26-1.66,0.35-2.37
						c0.34-2.61,0.35-4.1,0.35-4.1l-2.48-2l-5.37-4.33c0.05,1.41-0.06,2.71-0.27,3.88v0c0,0,0,0,0,0c0,0,0,0,0,0
						C67.34,58.75,63.44,61.68,63.44,61.68z"/>
					<path class="st35" d="M98.4,113.21c1.34-1.37,2.33-3.15,2.33-3.15S89.37,95.96,88.45,94.5c-0.92-1.46-7.81-24.91-7.81-24.91
						l-17.43-3.53c0,0,14.55,30.01,16.96,33.67c3.98,6.05,15.9,15.04,15.9,15.04S97.35,114.29,98.4,113.21z"/>
					<path class="st43" d="M88.38,121.09c-0.18,0.15-0.39,0.24-0.64,0.24c-2.27-0.03-8.89,1.23-14.49,0.66
						c-4.72-0.45-8.9-1.85-13.39-3.87c-0.6-0.27-1.97-1-1.94-1.67c0.02-0.73,0.09-1.79,0.18-3.12c0.32-4.63,0.87-12.6,0.33-21.8
						c-0.1-1.71-0.15-3.41-0.15-5.08c-0.05-12.46,2.43-23.42,7.39-27.13c0.42-0.3,3.03,0.97,5.42,2.15
						c2.21,1.09,4.42,1.21,6.51,0.79l2.09,1.85c2.54,2.36,5.33,5.57,6.54,10.45c1.03,4.15,1.64,11.63,1.97,19.38
						c0.15,3.51,0.27,7.06,0.3,10.42v0.12c0.03,0.33,0.03,0.7,0.03,1.03C88.66,114.13,88.53,120.97,88.38,121.09z"/>
					<path class="st44" d="M58.11,113.34c0.32-4.63,0.87-12.6,0.33-21.8c-0.1-1.71-0.15-3.41-0.15-5.08
						c2.07-5.02,3.76-8.66,3.76-8.66h5.21C67.26,77.8,71.08,103.91,58.11,113.34z"/>
					<path class="st2" d="M106.81,90.91l-10.36,5.93c-0.97,0.56-1.89,0.3-2.04-0.58l-0.74-4.16c-0.16-0.87,0.51-2.03,1.48-2.59
						l10.36-5.93c0.97-0.56,1.89-0.3,2.04,0.58l0.74,4.16C108.44,89.19,107.78,90.35,106.81,90.91z"/>
					<path class="st42" d="M91.2,94.53l1.97-0.14c0,0,3.66-3.16,5.25-1.89c1.58,1.26-2.62,4.27-2.77,3.44
						c-0.14-0.77,7.82-3.44,8.22-2.88c1.87,2.6-6.02,7.24-10.73,5.07l-1.53-0.32L91.2,94.53z"/>
					<path class="st35" d="M92.57,99.85c1-1.63-0.62-7.28-0.62-7.28s-16.37-0.16-16.76-1.84c-0.39-1.68-3.04-13.7-5.52-18.42
						c-0.87-1.66-5.5-10.95-8.75-5.44c-5.14,8.69,3.5,31.02,4.15,33.62C66.83,107.52,91.79,101.13,92.57,99.85z"/>
					<path class="st45" d="M68.44,52.68C68.44,52.68,68.44,52.68,68.44,52.68C68.44,52.69,68.44,52.69,68.44,52.68
						c0.11,0.19,3.22,5.76,7.77,6.54c0.34-2.61,0.35-4.1,0.35-4.1l-2.48-2c-1.48-0.85-2.81-1.4-3.31-1.3
						C69.16,52.18,68.48,52.65,68.44,52.68L68.44,52.68C68.44,52.68,68.44,52.68,68.44,52.68z"/>
					<path class="st42" d="M79,54.95c0,0-11.3,1.88-12.36-5.18c-1.06-7.06-3.23-11.57,3.94-13.07c7.17-1.5,8.98,0.98,9.91,3.25
						C81.41,42.23,81.91,54.28,79,54.95z"/>
					<path class="st3" d="M66.62,49.1c0,0,1.16-0.19,0.97-1.79c-0.19-1.6-0.18-3.69,1.11-3.3c1.3,0.39,1.36,1.43,1.9,0.82
						c0.53-0.61,0.54-3.17,4.41-3.34c3.87-0.18,5.44,1.17,7.23,0.38c1.8-0.79,1.89-3.51,1.89-3.51s-0.51,0.97-1.28,1.28
						c0,0,3-4.1-0.47-6.91c-3.47-2.81-7.01-0.97-9.02-0.85c-4.43,0.27-7.29,0.53-8.73,3.44C63.19,38.22,63.78,46.3,66.62,49.1z"/>
				</g>
			</g>
		</g>
		<g>
			<g>
				<path class="st13" d="M110.2,80h64.16c-0.82-1.94-1.73-3.82-2.71-5.67h-2.71h-3.73h-9.17h-3.73h-9.17h-3.73h-9.17h-3.73h-9.17
					h-7.11c-0.78,0-1.49,0.32-2,0.83c-0.51,0.51-0.83,1.22-0.83,2C107.36,78.73,108.64,80,110.2,80z"/>
				<path class="st13" d="M176.13,110.72h-3.12h-8.15h-5.22h-3.12h-8.15h-5.22h-3.12h-8.15h-5.22h-3.12h-8.15h-5.2
					c-0.78,0-1.49,0.32-2,0.83c-0.51,0.51-0.83,1.22-0.83,2c0,1.56,1.27,2.83,2.83,2.83h69.3c0.22-1.87,0.36-3.76,0.43-5.67H176.13z
					"/>
			</g>
			<g>
				<polygon class="st1" points="123.17,90.56 119.91,90.56 119.91,92.18 123.55,95.69 123.55,110.72 126.67,110.72 126.67,95.51 
					123.17,92.01 				"/>
				<polygon class="st1" points="139.65,90.56 136.4,90.56 136.4,92.18 140.04,95.69 140.04,110.72 143.15,110.72 143.15,95.51 
					139.65,92.01 				"/>
				<polygon class="st1" points="156.14,90.56 152.89,90.56 152.89,92.18 156.52,95.69 156.52,110.72 159.64,110.72 159.64,95.51 
					156.14,92.01 				"/>
				<polygon class="st1" points="172.62,92.01 172.62,90.56 169.37,90.56 169.37,92.18 173.01,95.69 173.01,110.72 176.13,110.72 
					176.13,95.51 				"/>
			</g>
			<g>
				<path class="st12" d="M123.69,56.59c0.11-0.08,0.18-0.2,0.18-0.35c0-0.23-0.19-0.43-0.43-0.43h-3.1c-0.23,0-0.43,0.19-0.43,0.43
					c0,0.12,0.05,0.23,0.14,0.31c-1.62,0.69-2.75,2.29-2.75,4.15v13.63h9.17V60.86C126.48,58.95,125.33,57.31,123.69,56.59z"/>
				<path class="st12" d="M139.39,60.86c0-1.91-1.15-3.55-2.79-4.27c0.11-0.08,0.18-0.2,0.18-0.35c0-0.23-0.19-0.43-0.43-0.43h-3.1
					c-0.24,0-0.43,0.19-0.43,0.43c0,0.12,0.05,0.23,0.14,0.31c-1.62,0.69-2.75,2.29-2.75,4.15v13.63h9.17V60.86z"/>
				<path class="st12" d="M152.29,60.86c0-1.91-1.15-3.55-2.79-4.27c0.11-0.08,0.18-0.2,0.18-0.35c0-0.23-0.19-0.43-0.43-0.43h-3.1
					c-0.23,0-0.43,0.19-0.43,0.43c0,0.12,0.05,0.23,0.14,0.31c-1.62,0.69-2.75,2.29-2.75,4.15v13.63h9.17V60.86z"/>
				<path class="st12" d="M165.2,64.29c-2.06-2.69-4.29-5.22-6.7-7.59c-1.46,0.75-2.47,2.26-2.47,4.01v13.63h9.17V64.29z"/>
				<path class="st12" d="M168.93,69.66v4.67h2.71C170.8,72.74,169.89,71.18,168.93,69.66z"/>
				<polygon class="st12" points="119.91,90.56 119.11,90.56 118.96,92.18 115.4,95.69 115.4,110.72 123.55,110.72 123.55,95.69 
					119.91,92.18 				"/>
				<polygon class="st12" points="136.4,90.56 135.6,90.56 135.44,92.18 131.89,95.69 131.89,110.72 140.04,110.72 140.04,95.69 
					136.4,92.18 				"/>
				<polygon class="st12" points="152.89,90.56 152.08,90.56 151.93,92.18 148.37,95.69 148.37,110.72 156.52,110.72 156.52,95.69 
					152.89,92.18 				"/>
				<polygon class="st12" points="169.37,92.18 169.37,90.56 168.57,90.56 168.42,92.18 164.86,95.69 164.86,110.72 173.01,110.72 
					173.01,95.69 				"/>
			</g>
		</g>
	</g>
</g>
</svg>
