<?xml version="1.0" encoding="utf-8"?>
<!-- Generator: Adobe Illustrator 28.1.0, SVG Export Plug-In . SVG Version: 6.00 Build 0)  -->
<svg version="1.1" id="Layer_1" xmlns="http://www.w3.org/2000/svg" xmlns:xlink="http://www.w3.org/1999/xlink" x="0px" y="0px"
	 viewBox="0 0 216 216" style="enable-background:new 0 0 216 216;" xml:space="preserve">
<style type="text/css">
	.st0{fill:#FFFAEB;}
	.st1{fill:#FFE8B2;}
	.st2{fill:#FFF0CC;}
	.st3{fill:#FFE199;}
	.st4{opacity:0.15;fill:#FFFFFF;enable-background:new    ;}
	.st5{fill:#FFFFFF;}
	.st6{fill:#FF4444;}
	.st7{fill:#FFD296;}
	.st8{fill:#F4F4F4;}
	.st9{fill:#FABE82;}
	.st10{fill:#646464;}
	.st11{fill:#ECDAB2;}
	.st12{fill:#00A0B5;}
	.st13{fill:#33B3C4;}
	.st14{fill:#FFB400;}
</style>
<g>
	<path class="st0" d="M108,180L108,180c-39.76,0-72-32.24-72-72l0,0c0-39.76,32.24-72,72-72l0,0c39.76,0,72,32.24,72,72l0,0
		C180,147.76,147.76,180,108,180z"/>
	<g>
		<path class="st1" d="M70.99,108.55V85.31c-2.72,0-4.93-2.21-4.93-4.93H41.5c-2.03,4.89-3.53,10.04-4.45,15.4h29v1.58H36.79
			c-0.1,0.67-0.18,1.35-0.26,2.02h29.52v1.58h-29.7c-0.06,0.67-0.11,1.35-0.15,2.02h29.86v1.58H36.09C36.03,105.71,36,106.85,36,108
			l0,0c0,1.85,0.09,3.67,0.23,5.48h29.83C66.06,110.76,68.26,108.55,70.99,108.55z M49.84,92.64c-2.32,0-4.2-1.88-4.2-4.2
			s1.88-4.2,4.2-4.2s4.2,1.88,4.2,4.2S52.16,92.64,49.84,92.64z M57.92,108.17H41.75v-1.58h16.17V108.17z"/>
		<path class="st2" d="M66.76,77.83H42.63c-0.39,0.84-0.77,1.68-1.13,2.54h24.56c0,2.72,2.21,4.93,4.93,4.93v23.24
			c-2.72,0-4.93,2.21-4.93,4.93H36.23c0.06,0.85,0.13,1.7,0.23,2.54h30.3h6.77v-6.77V84.6v-6.77H66.76z"/>
		<g>
			<path class="st0" d="M37.05,95.78c-0.09,0.53-0.19,1.05-0.27,1.58h29.27v-1.58H37.05z"/>
			<path class="st0" d="M36.35,100.97h29.71v-1.58H36.53C36.47,99.91,36.4,100.43,36.35,100.97z"/>
			<path class="st0" d="M36.09,104.57h29.97v-1.58H36.19C36.16,103.51,36.11,104.04,36.09,104.57z"/>
			<rect x="41.75" y="106.59" class="st0" width="16.17" height="1.58"/>
			<path class="st0" d="M49.84,92.64c2.32,0,4.2-1.88,4.2-4.2s-1.88-4.2-4.2-4.2s-4.2,1.88-4.2,4.2S47.52,92.64,49.84,92.64z"/>
		</g>
	</g>
	<g>
		<g>
			<rect x="123.73" y="82.56" class="st3" width="42.88" height="33.11"/>
			<rect x="126.21" y="84.82" class="st2" width="37.91" height="28.6"/>
			<path class="st3" d="M156.01,98.09c0-1.24-0.63-2.34-1.59-2.99c0.22-0.25,0.35-0.57,0.35-0.92c0-0.71-0.52-1.28-1.2-1.38
				c0.04-0.13,0.07-0.27,0.07-0.41c0-0.77-0.63-1.39-1.4-1.39c-0.02,0-0.04,0-0.05,0c-0.37-0.8-1.17-1.35-2.11-1.35
				c-0.31,0-0.62,0.06-0.89,0.18c-0.12-0.68-0.71-1.19-1.42-1.19c-0.43,0-0.82,0.19-1.08,0.49c-0.29-0.6-0.9-1.03-1.62-1.03
				c-0.66,0-1.23,0.36-1.54,0.88c-0.3-0.33-0.72-0.53-1.2-0.53c-0.82,0-1.49,0.6-1.61,1.39c-0.32-0.12-0.67-0.19-1.04-0.19
				c-1.19,0-2.22,0.71-2.69,1.73c-0.24-0.1-0.52-0.13-0.82-0.04c-0.37,0.11-0.67,0.4-0.78,0.77c-0.07,0.22-0.07,0.43-0.04,0.62
				c-1.05,0.45-1.79,1.5-1.79,2.72c0,1.63,1.32,2.95,2.95,2.96c-0.07,0.15-0.11,0.3-0.11,0.45c0,0.45,0.3,0.88,0.78,1.01
				c0.51,0.14,1,0.21,1.43,0.24c0.63,0.04,1.09,0.54,1.19,1.16c0.03,0.22,0.12,0.45,0.29,0.67c0.69,0.9,2.84,0.57,3.79,1.51
				c0.94,0.95,1.07,1.3,1.19,2.18c0.09,0.63-0.45,1.87-0.75,2.72c-0.13,0.37,0.15,0.75,0.53,0.75c0.27,0,0.5-0.19,0.55-0.45
				c0.1-0.49,0.34-1.3,0.9-1.92c0.18-0.2,0.48-0.16,1.01-0.37c0.43-0.17,0.89-0.16,1.34-0.07c0.3,0.06,0.61,0.05,0.93-0.01
				c0.75-0.16,1.34-0.67,1.63-1.38c0.2-0.47,0.22-0.92,0.14-1.34c0.3,0.12,0.63,0.19,0.98,0.17c0.69-0.03,1.31-0.42,1.73-0.97
				c0.48-0.65,0.54-1.23,0.45-1.76C155.42,100.35,156.01,99.29,156.01,98.09z M139.79,94.61c-0.09-0.02-0.18-0.06-0.28-0.08
				c-0.1-0.01-0.2-0.03-0.3-0.05c-0.11,0-0.22-0.01-0.32,0c-0.11,0.01-0.22,0.02-0.32,0.05c-0.11,0.01-0.21,0.06-0.32,0.1
				c-0.1,0.04-0.2,0.09-0.29,0.15c-0.19,0.11-0.36,0.23-0.5,0.34c-0.29,0.23-0.48,0.41-0.48,0.41s0.05-0.26,0.27-0.6
				c0.11-0.16,0.26-0.35,0.47-0.51c0.11-0.07,0.22-0.15,0.34-0.22c0.11-0.04,0.22-0.09,0.33-0.12c-0.02-0.07-0.03-0.15-0.07-0.25
				c-0.04-0.13-0.11-0.28-0.2-0.43c-0.1-0.14-0.21-0.29-0.37-0.4c-0.3-0.23-0.69-0.34-0.98-0.36c-0.3-0.03-0.5,0.01-0.5,0.01
				s0.19-0.07,0.5-0.08c0.3-0.02,0.73,0.02,1.11,0.23c0.19,0.1,0.36,0.25,0.5,0.4c0.13,0.16,0.24,0.32,0.31,0.46
				c0.08,0.14,0.12,0.26,0.15,0.35h0.04c0.14-0.01,0.27,0.04,0.4,0.05c0.13,0.03,0.24,0.09,0.35,0.13s0.2,0.11,0.28,0.17
				c0.17,0.1,0.28,0.24,0.36,0.32c0.07,0.08,0.12,0.14,0.12,0.14s-0.07-0.02-0.18-0.06C140.11,94.72,139.97,94.65,139.79,94.61z
				 M143.24,96.27c0,0.07,0,0.15-0.02,0.24c-0.01,0.08-0.02,0.18-0.05,0.26c-0.03,0.09-0.04,0.19-0.08,0.28
				c-0.04,0.09-0.07,0.19-0.12,0.28c-0.18,0.37-0.45,0.69-0.68,0.89c-0.05,0.04-0.1,0.08-0.14,0.12c0.07,0.1,0.14,0.2,0.19,0.3
				c0.07,0.13,0.11,0.27,0.15,0.41c0.07,0.27,0.08,0.54,0.04,0.75c-0.04,0.22-0.11,0.38-0.16,0.49c-0.06,0.11-0.1,0.17-0.1,0.17
				s0-0.07,0.01-0.19c0-0.12,0.01-0.29-0.01-0.48c-0.03-0.19-0.08-0.4-0.17-0.61c-0.04-0.11-0.1-0.21-0.16-0.31
				c-0.07-0.11-0.12-0.19-0.21-0.29c-0.08-0.08-0.17-0.18-0.26-0.25c-0.09-0.08-0.19-0.15-0.28-0.22c-0.19-0.12-0.39-0.22-0.57-0.29
				c-0.36-0.13-0.65-0.15-0.65-0.15s0.26-0.15,0.7-0.13c0.22,0.01,0.48,0.07,0.73,0.19c0.15,0.07,0.3,0.18,0.44,0.3
				c0.06-0.03,0.12-0.07,0.2-0.12c0.23-0.15,0.51-0.39,0.72-0.7c0.06-0.07,0.1-0.15,0.15-0.23c0.05-0.08,0.08-0.16,0.12-0.24
				c0.04-0.08,0.05-0.17,0.08-0.24c0.03-0.08,0.04-0.15,0.05-0.22c0.04-0.14,0.04-0.26,0.05-0.34c0.01-0.08,0.01-0.13,0.01-0.13
				s0,0.05,0.01,0.13C143.24,96,143.25,96.12,143.24,96.27z M143.17,92.31c-0.03,0-0.05,0-0.08,0c0.01,0.07,0.02,0.13,0.04,0.19
				c0.01,0.15,0,0.31,0,0.45c-0.02,0.15-0.05,0.29-0.08,0.41c-0.03,0.13-0.08,0.24-0.12,0.35c-0.07,0.22-0.19,0.37-0.26,0.48
				c-0.07,0.11-0.12,0.17-0.12,0.17s0.01-0.07,0.03-0.2c0.01-0.13,0.07-0.3,0.08-0.52c0.01-0.11,0.03-0.22,0.04-0.34
				c0-0.12,0-0.24,0.01-0.37c-0.01-0.12-0.03-0.25-0.04-0.38c-0.04-0.12-0.04-0.26-0.09-0.38c-0.04-0.13-0.08-0.25-0.15-0.37
				c-0.05-0.12-0.12-0.22-0.18-0.34c-0.08-0.1-0.14-0.21-0.22-0.3c-0.07-0.09-0.15-0.18-0.22-0.25c-0.29-0.31-0.52-0.5-0.52-0.5
				s0.31,0.04,0.7,0.28c0.2,0.11,0.41,0.29,0.6,0.51c0.09,0.12,0.19,0.23,0.26,0.37c0.05,0.08,0.08,0.17,0.12,0.26
				c0.06,0.02,0.14,0.04,0.23,0.05c0.22,0.04,0.53,0.04,0.83-0.05c0.28-0.08,0.53-0.24,0.7-0.41c-0.06-0.05-0.12-0.09-0.17-0.14
				c-0.11-0.09-0.2-0.2-0.28-0.3c-0.16-0.22-0.26-0.45-0.29-0.67c-0.04-0.21-0.02-0.38,0-0.5c0.03-0.11,0.05-0.18,0.05-0.18
				s0.01,0.06,0.04,0.17s0.08,0.26,0.16,0.42c0.08,0.16,0.21,0.32,0.36,0.48c0.07,0.08,0.16,0.15,0.25,0.22
				c0.04,0.04,0.09,0.07,0.13,0.09c0.06,0.04,0.11,0.07,0.16,0.09c0.1,0.07,0.2,0.11,0.31,0.16c0.11,0.04,0.21,0.09,0.32,0.12
				c0.11,0.03,0.21,0.05,0.31,0.07c0.1,0.01,0.2,0.03,0.29,0.04c0.37,0.03,0.63-0.02,0.63-0.02s-0.2,0.19-0.61,0.29
				c-0.2,0.05-0.45,0.07-0.71,0.03c-0.13-0.03-0.26-0.05-0.4-0.1c-0.13-0.05-0.26-0.11-0.38-0.17c-0.04-0.02-0.07-0.04-0.1-0.06
				c-0.14,0.2-0.37,0.44-0.68,0.59C143.79,92.24,143.44,92.31,143.17,92.31z M150.51,101.54c-0.11,0.01-0.28,0-0.47,0.04
				c-0.09,0.01-0.19,0.02-0.3,0.04c-0.11,0.03-0.21,0.05-0.33,0.07c-0.11,0.04-0.21,0.07-0.33,0.11c-0.1,0.05-0.22,0.09-0.31,0.16
				c-0.21,0.11-0.38,0.27-0.55,0.43c-0.07,0.09-0.15,0.16-0.22,0.25c-0.07,0.08-0.13,0.16-0.18,0.24c-0.22,0.31-0.34,0.56-0.34,0.56
				s-0.04-0.28,0.09-0.68c0.05-0.2,0.17-0.42,0.32-0.64c0.09-0.1,0.16-0.22,0.28-0.31c0.05-0.04,0.11-0.07,0.16-0.11
				c-0.03-0.04-0.06-0.07-0.09-0.12c-0.15-0.22-0.32-0.53-0.37-0.88c-0.03-0.17-0.03-0.34,0-0.5c0-0.08,0.03-0.15,0.05-0.22
				s0.04-0.13,0.07-0.19c0.08-0.19,0.17-0.3,0.19-0.34c-0.01,0.04-0.08,0.17-0.12,0.37c-0.01,0.06-0.03,0.12-0.03,0.19
				s-0.02,0.14,0,0.21c0,0.15,0.03,0.3,0.08,0.44c0.1,0.28,0.29,0.52,0.45,0.67c0.06,0.06,0.11,0.1,0.15,0.14
				c0.07-0.03,0.14-0.05,0.21-0.08c0.13-0.05,0.27-0.07,0.41-0.1c0.13-0.01,0.26-0.01,0.38-0.01c0.12,0,0.23,0.03,0.34,0.04
				c0.21,0.02,0.37,0.11,0.48,0.14c0.11,0.04,0.17,0.07,0.17,0.07S150.63,101.53,150.51,101.54z M150.82,96.82
				c-0.09,0-0.21,0.01-0.36-0.01c-0.3-0.03-0.7-0.16-1.01-0.45c-0.32-0.29-0.5-0.68-0.6-0.99c-0.04-0.11-0.05-0.2-0.07-0.28
				c-0.14,0.03-0.27,0.05-0.41,0.05c-0.15,0-0.3,0-0.47-0.03c-0.03,0.06-0.06,0.14-0.09,0.22c-0.03,0.09-0.1,0.18-0.15,0.28
				c-0.07,0.1-0.12,0.22-0.22,0.31c-0.09,0.1-0.17,0.22-0.29,0.31c-0.07,0.06-0.15,0.12-0.23,0.19c0.05,0.05,0.1,0.11,0.16,0.18
				c0.17,0.22,0.34,0.56,0.39,0.91c0.02,0.18,0.01,0.36-0.01,0.52c-0.04,0.16-0.07,0.3-0.13,0.42c-0.04,0.12-0.1,0.21-0.13,0.27
				c-0.03,0.05-0.04,0.08-0.05,0.09c0-0.01,0.02-0.05,0.04-0.1c0.02-0.07,0.06-0.17,0.08-0.29c0.03-0.12,0.04-0.26,0.05-0.41
				c-0.01-0.15-0.02-0.31-0.07-0.45c-0.09-0.3-0.28-0.54-0.45-0.69c-0.08-0.07-0.16-0.13-0.22-0.16c-0.05-0.04-0.07-0.04-0.08-0.04
				l0.01-0.01c-0.04,0.02-0.08,0.04-0.12,0.05c-0.14,0.07-0.3,0.08-0.44,0.12c-0.15,0.02-0.29,0.05-0.44,0.04
				c-0.28,0.02-0.54-0.02-0.76-0.05c-0.38-0.07-0.64-0.16-0.7-0.19c0.06,0.02,0.33,0.08,0.71,0.11c0.22,0.01,0.48,0.02,0.74-0.03
				c0.14-0.01,0.27-0.06,0.41-0.08c0.13-0.05,0.27-0.08,0.39-0.15c0.12-0.06,0.24-0.13,0.35-0.22c0.12-0.07,0.2-0.18,0.3-0.27
				c0.1-0.08,0.15-0.2,0.22-0.29c0.07-0.09,0.11-0.2,0.16-0.29c0.04-0.09,0.09-0.17,0.11-0.26c0.02-0.07,0.04-0.13,0.05-0.19
				c-0.04-0.02-0.08-0.03-0.12-0.06c-0.16-0.08-0.3-0.19-0.42-0.31c-0.24-0.24-0.37-0.53-0.44-0.78s-0.07-0.46-0.07-0.61
				c0.01-0.15,0.03-0.22,0.03-0.22s0.08,0.33,0.3,0.73c0.11,0.2,0.27,0.41,0.47,0.57c0.1,0.09,0.22,0.15,0.34,0.22
				c0.06,0.04,0.13,0.05,0.19,0.07c0.03,0.01,0.07,0.03,0.09,0.03c0.04,0.01,0.08,0.03,0.11,0.03c0.12,0.03,0.28,0.04,0.42,0.04
				c0.15,0,0.29,0,0.43-0.02c0.28-0.03,0.53-0.09,0.74-0.18c0.21-0.09,0.36-0.2,0.47-0.29c0.11-0.09,0.16-0.15,0.16-0.15
				s-0.03,0.08-0.09,0.21c-0.04,0.06-0.08,0.14-0.15,0.22c-0.07,0.08-0.15,0.16-0.26,0.24c-0.1,0.08-0.22,0.16-0.36,0.22
				c-0.03,0.01-0.06,0.02-0.08,0.04c0,0.07,0,0.18,0.03,0.32c0.04,0.26,0.14,0.63,0.37,0.91c0.22,0.29,0.57,0.47,0.86,0.54
				c0.14,0.05,0.26,0.05,0.34,0.07c0.08,0.01,0.13,0.02,0.13,0.02S150.91,96.82,150.82,96.82z M151.3,92.25
				c-0.02-0.04-0.04-0.08-0.07-0.12c-0.03-0.05-0.06-0.08-0.08-0.12c-0.05-0.08-0.11-0.15-0.18-0.23c-0.07-0.07-0.13-0.14-0.19-0.2
				c-0.07-0.06-0.14-0.11-0.21-0.16s-0.14-0.09-0.21-0.13c-0.26-0.15-0.48-0.22-0.48-0.22s0.22-0.07,0.56,0
				c0.17,0.04,0.36,0.11,0.55,0.23c0.09,0.06,0.18,0.13,0.26,0.21s0.16,0.17,0.22,0.26c0.04,0.05,0.07,0.11,0.09,0.15
				c0.03,0.06,0.06,0.11,0.08,0.16c0.05,0.11,0.08,0.22,0.1,0.33c0.04,0.22,0.03,0.44-0.02,0.6c-0.04,0.17-0.12,0.3-0.18,0.37
				c-0.06,0.08-0.1,0.11-0.1,0.11s0.01-0.05,0.03-0.15c0.02-0.09,0.03-0.22,0.02-0.37c0-0.15-0.04-0.32-0.09-0.48
				C151.38,92.41,151.34,92.33,151.3,92.25z M153,95.44c-0.1,0.07-0.24,0.16-0.38,0.29s-0.28,0.3-0.41,0.49
				c-0.06,0.1-0.11,0.2-0.16,0.31c-0.05,0.12-0.08,0.21-0.11,0.34c-0.02,0.11-0.05,0.24-0.06,0.36s-0.02,0.24-0.01,0.35
				c0,0.23,0.04,0.45,0.09,0.63c0.1,0.37,0.25,0.62,0.25,0.62s-0.27-0.13-0.51-0.5c-0.12-0.19-0.22-0.43-0.26-0.71
				c-0.05-0.28-0.03-0.58,0.04-0.87c0.04-0.14,0.1-0.3,0.16-0.42c0.07-0.13,0.15-0.25,0.24-0.36c0.18-0.22,0.39-0.37,0.59-0.47
				s0.37-0.13,0.5-0.15c0.12-0.01,0.19-0.01,0.19-0.01S153.1,95.38,153,95.44z"/>
			<g>
				<g>
					<g>
						<path class="st3" d="M162.61,106.95H154c-0.16,0-0.29-0.13-0.29-0.29l0,0c0-0.16,0.13-0.29,0.29-0.29h8.61
							c0.16,0,0.29,0.13,0.29,0.29l0,0C162.9,106.82,162.77,106.95,162.61,106.95z"/>
					</g>
					<g>
						<path class="st3" d="M162.61,108.07H154c-0.16,0-0.29-0.13-0.29-0.29l0,0c0-0.16,0.13-0.29,0.29-0.29h8.61
							c0.16,0,0.29,0.13,0.29,0.29l0,0C162.9,107.94,162.77,108.07,162.61,108.07z"/>
					</g>
					<g>
						<path class="st3" d="M162.61,109.19H154c-0.16,0-0.29-0.13-0.29-0.29l0,0c0-0.16,0.13-0.29,0.29-0.29h8.61
							c0.16,0,0.29,0.13,0.29,0.29l0,0C162.9,109.06,162.77,109.19,162.61,109.19z"/>
					</g>
					<g>
						<path class="st3" d="M162.61,110.3H154c-0.16,0-0.29-0.13-0.29-0.29l0,0c0-0.16,0.13-0.29,0.29-0.29h8.61
							c0.16,0,0.29,0.13,0.29,0.29l0,0C162.9,110.18,162.77,110.3,162.61,110.3z"/>
					</g>
					<g>
						<path class="st3" d="M158.02,111.42H154c-0.16,0-0.29-0.13-0.29-0.29l0,0c0-0.16,0.13-0.29,0.29-0.29h4.02
							c0.16,0,0.29,0.13,0.29,0.29l0,0C158.3,111.29,158.18,111.42,158.02,111.42z"/>
					</g>
				</g>
			</g>
			<polygon class="st4" points="162.98,113.42 150.35,113.42 126.21,89.28 126.21,84.82 134.38,84.82 			"/>
			<polygon class="st4" points="164.12,103.81 164.12,111.36 137.58,84.82 145.14,84.82 			"/>
		</g>
	</g>
	<g>
		<path class="st2" d="M153.67,52.34c0.19,0.34,0.37,0.7,0.53,1.1c0.38,0.93,0.65,2.04,0.73,3.37c0.09,1.47-0.03,3-0.43,4.48
			c-0.21,0.79-0.51,1.57-0.89,2.31c-1.13,2.18-3.04,4.08-6.01,5.22c-0.36,0.14-0.71,0.24-1.06,0.33c-2.31,0.59-4.47,0.2-6.13-0.68
			c-0.7-0.37-1.56-0.19-2.02,0.44c-0.03,0.04-0.05,0.08-0.08,0.12c-0.56,0.8-1.71,0.93-2.42,0.27c-0.01-0.01-0.02-0.02-0.02-0.02
			c-0.59-0.55-0.66-1.47-0.2-2.13c0.36-0.52,0.75-0.99,1.12-1.39c0.29-0.31,0.42-0.74,0.34-1.15c-0.07-0.38-0.08-0.75-0.01-1.11
			c0.21-1.13,0.77-1.79,1.47-2.29c1.28-0.92,3.03-1.3,4.05-2.96c1.47-2.37-0.38-3.06,0-5.61c0.03-0.2,0.07-0.41,0.13-0.64
			c0.18-0.68,0.47-1.2,0.81-1.62c0.73-0.92,1.68-1.32,2.33-1.49c0.43-0.11,0.74-0.49,0.78-0.94l0.06-0.62
			c-1.64-1.05-3.32-2.04-5.05-2.96h-4.13h-3.2h-8.16v4.46v24.14h24.14h12.62h1.14v-2.06v-7.55v-0.45
			C161.01,59.04,157.51,55.5,153.67,52.34z M159.14,65.93h3.47c0.16,0,0.29,0.13,0.29,0.29s-0.13,0.29-0.29,0.29h-2.9h-3.2H154
			c-0.16,0-0.29-0.13-0.29-0.29s0.13-0.29,0.29-0.29h1.94H159.14z M162.61,67.63h-1.78h-3.2H154c-0.16,0-0.29-0.13-0.29-0.29
			s0.13-0.29,0.29-0.29h3.05h3.2h2.35c0.16,0,0.29,0.13,0.29,0.29C162.9,67.5,162.77,67.63,162.61,67.63z M162.9,68.46
			c0,0.16-0.13,0.29-0.29,0.29h-0.66h-3.2H154c-0.16,0-0.29-0.13-0.29-0.29s0.13-0.29,0.29-0.29h4.17h3.2h1.24
			C162.77,68.17,162.9,68.3,162.9,68.46z M158.02,70.98H154c-0.16,0-0.29-0.13-0.29-0.29s0.13-0.29,0.29-0.29h4.02
			c0.16,0,0.29,0.13,0.29,0.29S158.18,70.98,158.02,70.98z M162.61,69.86h-2.75H154c-0.16,0-0.29-0.13-0.29-0.29
			s0.13-0.29,0.29-0.29h5.29h3.2h0.12c0.16,0,0.29,0.13,0.29,0.29c0,0.03-0.02,0.05-0.03,0.08
			C162.82,69.77,162.73,69.86,162.61,69.86z"/>
		<g>
			<path class="st3" d="M164.12,62.91v0.45v7.55v2.06h-1.14h-12.62h-24.14V48.83v-4.46h8.16h3.2h4.13
				c-1.52-0.81-3.08-1.56-4.66-2.26h-13.31v33.11h42.88V66.2C165.81,65.08,164.98,63.98,164.12,62.91z"/>
			<path class="st3" d="M162.61,69.86c0.13,0,0.21-0.09,0.25-0.2c0.01-0.03,0.03-0.05,0.03-0.08c0-0.16-0.13-0.29-0.29-0.29h-0.12
				h-3.2H154c-0.16,0-0.29,0.13-0.29,0.29s0.13,0.29,0.29,0.29h5.86h2.75V69.86z"/>
			<path class="st3" d="M138.59,61.21c-0.7,0.5-1.25,1.17-1.47,2.29c-0.07,0.36-0.06,0.73,0.01,1.11c0.08,0.41-0.06,0.84-0.34,1.15
				c-0.37,0.4-0.76,0.87-1.12,1.39c-0.46,0.67-0.4,1.58,0.2,2.13c0.01,0.01,0.02,0.02,0.02,0.02c0.71,0.66,1.87,0.53,2.42-0.27
				c0.03-0.04,0.05-0.08,0.08-0.12c0.46-0.64,1.32-0.81,2.02-0.44c1.67,0.88,3.82,1.27,6.13,0.68c0.35-0.09,0.7-0.2,1.06-0.33
				c2.97-1.14,4.88-3.04,6.01-5.22c0.38-0.74,0.68-1.52,0.89-2.31c0.4-1.48,0.52-3.01,0.43-4.48c-0.08-1.33-0.35-2.44-0.73-3.37
				c-0.16-0.4-0.34-0.77-0.53-1.1c-0.87-0.71-1.75-1.41-2.65-2.08c-1.38-1.03-2.82-2-4.27-2.93l-0.06,0.62
				c-0.04,0.44-0.35,0.82-0.78,0.94c-0.65,0.17-1.6,0.58-2.33,1.49c-0.34,0.42-0.63,0.95-0.81,1.62c-0.06,0.23-0.1,0.44-0.13,0.64
				c-0.38,2.55,1.46,3.23,0,5.61C141.62,59.91,139.87,60.29,138.59,61.21z"/>
			<path class="st3" d="M153.71,66.22c0,0.16,0.13,0.29,0.29,0.29h2.51h3.2h2.9c0.16,0,0.29-0.13,0.29-0.29s-0.13-0.29-0.29-0.29
				h-3.47h-3.2H154C153.84,65.93,153.71,66.06,153.71,66.22z"/>
			<path class="st3" d="M154,70.41c-0.16,0-0.29,0.13-0.29,0.29s0.13,0.29,0.29,0.29h4.02c0.16,0,0.29-0.13,0.29-0.29
				s-0.13-0.29-0.29-0.29H154z"/>
			<path class="st3" d="M162.61,67.05h-2.35h-3.2H154c-0.16,0-0.29,0.13-0.29,0.29s0.13,0.29,0.29,0.29h3.63h3.2h1.78
				c0.16,0,0.29-0.13,0.29-0.29S162.77,67.05,162.61,67.05z"/>
			<path class="st3" d="M162.61,68.17h-1.24h-3.2H154c-0.16,0-0.29,0.13-0.29,0.29s0.13,0.29,0.29,0.29h4.75h3.2h0.66
				c0.16,0,0.29-0.13,0.29-0.29S162.77,68.17,162.61,68.17z"/>
		</g>
		<g>
			<polygon class="st4" points="159.29,69.29 158.75,68.74 158.17,68.17 157.63,67.63 157.05,67.05 156.51,66.51 155.94,65.93 
				153.62,63.61 142.65,52.65 134.38,44.37 126.21,44.37 126.21,48.83 138.59,61.21 146.55,69.17 150.35,72.97 162.98,72.97 
				159.86,69.86 			"/>
			<path class="st4" d="M154.21,53.45l-3.18-3.18c-1.38-1.03-2.82-2-4.27-2.93c-1.64-1.05-3.32-2.04-5.05-2.96h-4.13l6.01,6.01
				L154.5,61.3l4.63,4.63l0.57,0.57l0.54,0.54l0.57,0.57l0.54,0.54l0.57,0.57l0.54,0.54l0.37,0.37l1.26,1.26v-7.55L154.21,53.45z"/>
		</g>
	</g>
	<g>
		<path class="st5" d="M72.18,68.18c7.28-1.76,14.69-2.05,22.24-1.51c2.56,0.18,4.75,2.01,5.34,4.51c1.65,6.96,4.46,22.67,3.73,46.7
			l-30.48,1.09c-0.58-4.28,0.13-24.15-4.83-44.1C67.45,71.87,69.22,68.9,72.18,68.18z"/>
		<path class="st6" d="M90.48,72.12l-0.82,2.29c-0.08,0.23-0.28,0.4-0.52,0.44l-1.16,0.2c-0.21,0.04-0.42,0-0.6-0.11l-2.19-1.26
			l2.27-2.11L90.48,72.12z"/>
		<path class="st6" d="M87.86,74.44c0.83-0.43,1.35-0.27,1.35-0.27c1.35,3.23,3.55,12.73,4.17,16.97c-1.87,8.75-2.71,9.71-2.71,9.71
			l-2.68-9.94C87.98,90.91,88.38,80.38,87.86,74.44z"/>
		<path class="st7" d="M76.82,52.87c1.19,4.08,2.69,11.61,0.03,14.66c2.46,2.03,5.65,4.35,10.6,4.06s3.78-3.6,2.32-5.27
			c-4.73-0.67-4.92-4.12-4.41-7.42L76.82,52.87z"/>
		<path class="st8" d="M75.55,67.31c0.37-0.22,0.77-0.38,1.04-0.48c0.18-0.07,0.38-0.01,0.5,0.14c0.57,0.75,2.45,4.17,10.36,4.62
			c-1.18,0.9-2.6,3.45-3.19,4.65c-2.47-0.93-8.94-3.81-8.93-8.54C75.34,67.54,75.41,67.39,75.55,67.31z"/>
		<path class="st8" d="M89.75,66.51c-0.1-0.31,0.14-0.62,0.46-0.6c0.33,0.02,0.66,0.09,0.82,0.12c0.06,0.01,0.12,0.04,0.17,0.07
			c0.66,0.48,4.46,4.76,1.88,8.9c-0.8-0.94-3.24-3.02-5.63-3.42C89.51,70.34,90.37,68.38,89.75,66.51z"/>
		<path class="st9" d="M80.3,55.32l5.05,3.56c-0.12,0.78-0.21,1.57-0.19,2.33c-1.79-0.09-4.4-1.8-4.75-3.64
			C80.23,56.66,80.19,55.77,80.3,55.32z"/>
		<path class="st10" d="M84.54,39.18c4.11,1.06,4.76,4.26,4.8,7.85c0.04,3.58-4.05,1.7-5.17-0.4
			C83.05,44.52,78.84,37.71,84.54,39.18z"/>
		<path class="st7" d="M72.85,47.73c1.76,5.43,2.52,8.69,6.01,10.86c5.25,3.27,11.35-0.83,11.23-6.64
			c-0.11-5.22-2.96-13.22-8.88-14.15C75.37,36.88,71.09,42.3,72.85,47.73z"/>
		<path class="st10" d="M73.63,52.3c4.71-0.31,3.4-2.85,2.36-4.28c-1.03-1.42,0.4-4.15-0.89-5.32c2.12,0.56,4.16-0.36,6.63-2.56
			c1.92-1.71,5.24,3.81,7.44,0.58c2.08-3.06-0.66-6.95-6.53-6.93c-5.87,0.02-6.44,4.25-10.29,4.35c-3.85,0.09-2.15,3.06-1.33,3.61
			C67.87,42.35,66.49,45.61,73.63,52.3z"/>
		<path class="st10" d="M71.79,42.06c0,0-2.53-0.86-2.92-3.79C67.89,40.64,68.33,43.13,71.79,42.06z"/>
		<path class="st7" d="M85.34,52.25c-1.69,0.48-2.95-0.3-3.01-0.34c-0.06-0.04-0.08-0.12-0.04-0.19s0.12-0.08,0.19-0.04
			c0.01,0.01,1.48,0.92,3.31,0.11c0.07-0.03,0.15,0,0.18,0.07s0,0.15-0.07,0.18C85.71,52.13,85.52,52.2,85.34,52.25z"/>
		<path class="st7" d="M72.47,54.16c1.08,1.1,2.56,1.62,3.82,1.63c1.89,0.01,2.3-1.79,1.32-3.31c-0.88-1.37-2.92-3.03-4.6-2.31
			C71.35,50.87,71.23,52.9,72.47,54.16z"/>
		<path class="st11" d="M81.27,47.05c0.12,0.45,0.45,0.76,0.74,0.69s0.43-0.49,0.32-0.94s-0.45-0.76-0.74-0.69
			C81.3,46.18,81.15,46.6,81.27,47.05z"/>
		<path class="st11" d="M86.43,45.99c0.12,0.45,0.45,0.76,0.74,0.69s0.43-0.49,0.32-0.94c-0.12-0.45-0.45-0.76-0.74-0.69
			C86.45,45.13,86.31,45.55,86.43,45.99z"/>
		<path class="st7" d="M85.02,46.73c0,0,1.69,2.03,3.13,2.88c-0.59,0.79-2.02,0.76-2.02,0.76L85.02,46.73z"/>
		<g>
			<path class="st7" d="M87.68,44.91c1-0.22,1.91,0.1,2.07,0.82c0.22,0.7-0.41,1.44-1.38,1.75c-0.97,0.31-2.01-0.08-2.23-0.78
				C85.98,45.98,86.69,45.13,87.68,44.91z"/>
			<path class="st7" d="M81.72,46.31c1-0.22,1.91,0.1,2.07,0.82c0.22,0.7-0.41,1.44-1.38,1.75c-0.97,0.31-2.01-0.08-2.23-0.78
				C80.02,47.39,80.73,46.53,81.72,46.31z"/>
			<path class="st10" d="M82.04,49.11c0.11-0.01,0.23-0.03,0.34-0.06c0.51-0.13,0.95-0.4,1.25-0.75c0.31-0.37,0.42-0.79,0.32-1.19
				c0.04-0.04,0.38-0.22,0.99-0.38c0.62-0.16,1.01-0.16,1.08-0.11c0.18,0.76,1.22,1.19,2.28,0.92c0.51-0.13,0.95-0.4,1.25-0.75
				c0.31-0.37,0.42-0.79,0.32-1.19l-0.3,0.08c0.07,0.3-0.02,0.62-0.26,0.91c-0.26,0.31-0.64,0.54-1.09,0.65
				c-0.9,0.23-1.77-0.1-1.93-0.73c-0.09-0.35-0.83-0.24-1.43-0.09c-0.61,0.15-1.31,0.41-1.22,0.76c0.07,0.3-0.02,0.62-0.26,0.91
				c-0.26,0.31-0.64,0.54-1.09,0.65s-0.9,0.09-1.27-0.05c-0.35-0.14-0.59-0.38-0.66-0.68l-0.04-0.15l-7.76,1.96l0.08,0.3l7.47-1.89
				c0.13,0.33,0.41,0.59,0.8,0.74C81.26,49.11,81.64,49.16,82.04,49.11z"/>
		</g>
		<path class="st7" d="M79.03,45.29c-0.04,0-0.09,0-0.14-0.02c-0.14-0.06-0.2-0.22-0.15-0.36c0.57-1.37,1.8-1.58,1.85-1.59
			c0.15-0.02,0.29,0.08,0.32,0.22c0.03,0.15-0.07,0.29-0.21,0.31l0,0c-0.04,0.01-0.99,0.18-1.45,1.27
			C79.21,45.22,79.12,45.28,79.03,45.29z"/>
		<path class="st7" d="M87.83,43.5c-0.09,0.02-0.18-0.01-0.25-0.07c-0.87-0.84-1.82-0.65-1.86-0.64c-0.14,0.03-0.29-0.06-0.33-0.21
			c-0.04-0.15,0.05-0.29,0.2-0.32c0.05-0.01,1.26-0.27,2.36,0.78c0.11,0.1,0.12,0.28,0.01,0.38C87.93,43.46,87.88,43.49,87.83,43.5z
			"/>
		<path class="st7" d="M129.74,70.79l2.26-1.85c0.77-0.63,1.88-0.63,2.63-0.01l1.88,1.56c0.86,0.71,0.93,1.98,0.17,2.81l-1.07,1.16
			c-0.93,1.01-2.06,1.81-3.32,2.35l-3.48,1.5l-2.67-2.26C125.11,73.46,129.74,70.79,129.74,70.79z"/>
		<g>
			<g>
				<path class="st12" d="M93.13,73.98c1.16,2.08,2.27,4,3.48,5.96c1.2,1.94,2.41,3.89,3.72,5.8c1.3,1.91,2.69,3.8,4.22,5.67
					c0.77,0.93,1.59,1.86,2.51,2.77c0.93,0.91,1.93,1.83,3.3,2.69c0.69,0.43,1.49,0.85,2.53,1.17c0.28,0.07,0.54,0.15,0.85,0.2
					l0.46,0.07c0.17,0.02,0.47,0.04,0.69,0.04c0.96-0.01,1.7-0.22,2.31-0.45c1.19-0.48,1.88-1.03,2.52-1.53
					c0.63-0.51,1.13-1.01,1.6-1.51c1.83-1.98,3.15-3.92,4.44-5.89c1.27-1.96,2.46-3.93,3.59-5.92c1.14-2,2.21-3.95,3.3-6.03
					l-7.6-3.71c-1.78,3.82-3.88,7.69-6.14,11.19c-1.14,1.73-2.36,3.43-3.56,4.69c-0.29,0.31-0.58,0.58-0.82,0.77
					c-0.22,0.19-0.45,0.28-0.29,0.2c0.08-0.03,0.29-0.11,0.69-0.12c0.09-0.01,0.25,0.01,0.28,0.01c0.02,0,0.03,0,0.05,0
					c0.03,0.01,0.03,0,0.04,0.01c-0.02-0.01-0.21-0.1-0.45-0.26c-0.5-0.33-1.15-0.91-1.78-1.56c-0.63-0.66-1.27-1.41-1.89-2.19
					c-1.25-1.58-2.41-3.32-3.54-5.11c-1.12-1.79-2.21-3.63-3.24-5.52c-1.02-1.87-2.36-6.5-3.48-7.11L93.13,73.98z"/>
			</g>
		</g>
		<path class="st10" d="M70.68,169.59c4.07,2.47,8.41,4.54,12.95,6.18c0.18-1.01,0.35-1.96,0.49-2.83
			c2.91-17.16,7.8-56.93,7.8-56.93l-16.31,2.64C73.37,128.39,70.34,146.17,70.68,169.59z"/>
		<path class="st10" d="M104.85,172.88c-1.06-17.32-5.69-58.53-5.69-58.53l-23.54,3.36c0,0,11.03,38.47,15.01,54.78
			c-0.14,1.39-0.18,3.22-0.13,5.36c4.73,1.18,9.64,1.89,14.68,2.08C105.09,177.27,104.98,174.88,104.85,172.88z"/>
		<g>
			<path class="st13" d="M75.25,66.2c2.93,4.15,13.5,20.18,15.79,30.56c2.63-10-0.75-31.1-0.75-31.1c1.86-0.17,5.36,0.24,8.06,0.94
				c1.75,0.45,3.08,1.91,3.43,3.67c1.01,5.13,3.04,17.39,2.91,32.97c-0.17,20.93,1.2,53.28,1.2,53.28s-21.2,1.66-37.88,0.18
				c0.09-15.99,3.71-43.22,2.92-50.3c-1.01-9.11-3.36-26.88-4.54-34.27c-0.35-2.19,0.91-4.24,2.98-4.94
				C72.22,66.24,75.25,66.2,75.25,66.2z"/>
		</g>
		<path class="st0" d="M92.96,157.17c1.23-20.65-1.44-52.98-1.64-56.57l-0.33,0.02c0.19,3.6,0.8,35.98-0.44,56.62L92.96,157.17z"/>
		<g>
			<path class="st5" d="M88.45,118.67l19.45-2.34c0.76-0.09,1.45-0.81,1.52-1.59l2.87-31.01c0.07-0.78-0.49-1.35-1.26-1.26
				l-19.45,2.34c-0.76,0.09-1.45,0.81-1.52,1.59l-2.87,31.01C87.12,118.2,87.69,118.77,88.45,118.67z"/>
			<path class="st14" d="M89.09,118.88l19.77-2.38c0.78-0.09,1.47-0.82,1.54-1.62l2.92-31.53c0.07-0.8-0.5-1.37-1.28-1.28
				l-19.77,2.38c-0.78,0.09-1.47,0.82-1.54,1.62l-2.92,31.53C87.73,118.4,88.31,118.97,89.09,118.88z"/>
			<path class="st10" d="M92.11,90.09l3.86-0.46c0.15-0.02,0.29-0.16,0.3-0.32l0.34-3.62c0.01-0.16-0.1-0.27-0.25-0.25L92.5,85.9
				c-0.15,0.02-0.29,0.16-0.3,0.32l-0.34,3.62C91.85,90,91.96,90.11,92.11,90.09z"/>
			<circle class="st0" cx="94.35" cy="87.72" r="0.98"/>
		</g>
		<path class="st7" d="M84.73,101.78l4.9-0.78c0.59-0.09,1.19-0.06,1.77,0.09l2.66,0.72c1.09,0.29,1.7,1.41,1.36,2.46l-0.76,2.33
			c-0.3,0.93-1.24,1.52-2.23,1.39l-2.9-0.36c0,0-5.34,0.21-5.86-2.52L84.73,101.78z"/>
		<g>
			<g>
				<path class="st12" d="M66.97,69.1c-1,2.03-1.74,4.79-2.62,6.8c-0.88,1.99-1.73,4-2.51,6.06c-0.78,2.07-1.51,4.18-2.12,6.43
					c-0.3,1.13-0.57,2.3-0.75,3.58c-0.17,1.29-0.32,2.65-0.04,4.45l0.03,0.17l0.01,0.08c0,0.02,0.01,0.06,0.03,0.12
					c0.05,0.23,0.12,0.45,0.19,0.68c0.07,0.2,0.15,0.39,0.24,0.58s0.17,0.34,0.27,0.5c0.37,0.62,0.76,1.08,1.12,1.43
					c0.73,0.73,1.37,1.15,1.98,1.55c1.22,0.76,2.33,1.27,3.43,1.73c2.19,0.9,4.31,1.56,6.43,2.17c2.11,0.62,4.21,1.15,6.31,1.65
					c2.11,0.51,4.17,0.96,6.36,1.41l1.46-8.33c-1.95-0.3-4.01-0.7-5.99-1.12c-1.99-0.44-3.97-0.92-5.9-1.46
					c-1.92-0.55-3.81-1.18-5.5-1.89c-0.83-0.35-1.63-0.74-2.19-1.1c-0.27-0.17-0.49-0.36-0.49-0.38c-0.02-0.02,0.05,0.03,0.15,0.2
					c0.03,0.05,0.05,0.09,0.08,0.16c0.04,0.07,0.07,0.14,0.09,0.22c0.04,0.09,0.07,0.19,0.09,0.3c0.01,0.04,0.01,0.04,0.01,0.03
					v-0.01v-0.03c-0.04-0.28-0.01-1.04,0.13-1.82c0.14-0.8,0.35-1.68,0.62-2.57c0.53-1.79,1.24-3.64,2.02-5.47
					C70.76,69.34,66.97,69.1,66.97,69.1z"/>
			</g>
		</g>
		<path class="st10" d="M76.24,91.31c0.08-0.01,0.16-0.06,0.2-0.14c0.06-0.13,0.01-0.28-0.12-0.34l-1.07-0.51
			c-2.06-0.98-3.27-3.09-3.1-5.36l0.78-10.39c0.15-2.01,1.65-2.95,2.89-3.16c1.24-0.2,2.97,0.22,3.75,2.07l4.04,9.61
			c0.88,2.1,0.4,4.48-1.24,6.07l-0.85,0.83c-0.1,0.1-0.1,0.26-0.01,0.36c0.1,0.1,0.26,0.1,0.36,0.01l0.85-0.83
			c1.79-1.73,2.32-4.34,1.36-6.63l-4.04-9.61c-0.74-1.75-2.43-2.67-4.3-2.38c-1.87,0.31-3.18,1.73-3.32,3.62l-0.78,10.39
			c-0.19,2.48,1.14,4.79,3.39,5.86l1.07,0.51C76.15,91.31,76.2,91.32,76.24,91.31z"/>
		<path class="st10" d="M72.71,74.8h0.01l7.13-1.16c0.14-0.02,0.23-0.15,0.21-0.29c-0.02-0.14-0.16-0.22-0.29-0.21l-7.13,1.16
			c-0.14,0.02-0.23,0.15-0.21,0.29C72.45,74.72,72.57,74.81,72.71,74.8z"/>
		<path class="st10" d="M75.83,71.41c0.14-0.02,0.24-0.14,0.22-0.28c-0.12-1.25-0.02-3.54,1.12-4.17c0.12-0.07,0.17-0.22,0.1-0.35
			c-0.07-0.12-0.22-0.17-0.35-0.1c-1.68,0.94-1.41,4.29-1.38,4.67C75.56,71.32,75.69,71.42,75.83,71.41L75.83,71.41z"/>
		<path class="st10" d="M98.8,77.44c0.02,0,0.03-0.01,0.05-0.01c0.13-0.04,0.21-0.19,0.16-0.32c-1.34-4.09-5.63-10.3-8.93-11.86
			c-0.13-0.06-0.28-0.01-0.34,0.12c-0.06,0.13-0.01,0.28,0.12,0.34c3.19,1.52,7.35,7.56,8.66,11.56
			C98.56,77.39,98.68,77.46,98.8,77.44z"/>
		<path class="st5" d="M96.78,78.36c0.52,0.97,1.46,1.47,2.1,1.13c0.64-0.34,0.73-1.41,0.21-2.37c-0.52-0.97-1.46-1.47-2.1-1.13
			C96.36,76.33,96.26,77.39,96.78,78.36z"/>
		<path class="st5" d="M81.12,90.26c0.08,0.47,0.39,0.82,0.71,0.77c0.31-0.05,0.5-0.48,0.43-0.95c-0.08-0.47-0.39-0.82-0.71-0.77
			C81.24,89.36,81.05,89.79,81.12,90.26z"/>
		<path class="st5" d="M75.65,91.15c0.08,0.47,0.39,0.82,0.71,0.77c0.31-0.05,0.5-0.48,0.43-0.95c-0.08-0.47-0.39-0.82-0.71-0.77
			C75.76,90.25,75.57,90.68,75.65,91.15z"/>
	</g>
</g>
</svg>
