<svg xmlns="http://www.w3.org/2000/svg" xmlns:xlink="http://www.w3.org/1999/xlink" version="1.1" id="Layer_1" x="0px" y="0px" style="enable-background:new 0 0 216 216;" xml:space="preserve" viewBox="35.99 36 144.01 144">
<style type="text/css">
	.st0{fill:#FFFAEB;}
	.st1{fill:#FFE199;}
	.st2{fill:#FFB400;}
	.st3{fill:#646464;}
	.st4{fill:#FFCA4C;}
	.st5{fill:none;stroke:#FFB400;stroke-width:1.905;stroke-linecap:round;stroke-linejoin:round;stroke-miterlimit:10;}
	.st6{fill:#FFFFFF;}
	.st7{fill:#FFFFFF;stroke:#FFCA4C;stroke-width:1.905;stroke-linecap:round;stroke-linejoin:round;stroke-miterlimit:10;}
	.st8{fill:none;stroke:#FFE199;stroke-width:1.905;stroke-linecap:round;stroke-linejoin:round;stroke-miterlimit:10;}
	.st9{fill:#FDEDBF;}
	.st10{fill:#C5C5C5;}
	.st11{fill:#F2F2F2;}
	.st12{fill:#FFE8B2;}
	.st13{fill:#FFF0CC;}
	.st14{fill:#FFF7E5;}
	.st15{fill:#FFD166;}
	.st16{fill:#FFC233;}
	.st17{fill:#FFD980;}
	.st18{fill:#C1E6FA;}
	.st19{fill:#D4EDFB;}
	.st20{fill:#FDD094;}
	.st21{fill:#006EE8;}
	.st22{fill:#737373;}
	.st23{fill:#007CFF;}
	.st24{fill:#197DEA;}
	.st25{opacity:0.1;}
	.st26{opacity:0.2;}
	.st27{fill:#FFCC54;}
	.st28{fill:#E7DCEE;}
	.st29{fill:#7D39AD;}
	.st30{fill:#EBF9FF;}
	.st31{fill:#97D200;}
	.st32{fill:#E2EFD1;}
	.st33{fill:#00A0B5;}
	.st34{fill:#BEECF0;}
	.st35{fill:#FF4444;}
	.st36{fill:#FFE6E6;}
	.st37{fill:#C18300;}
	.st38{fill:#F3E6CF;}
	.st39{fill:#008000;}
	.st40{fill:#006EE9;}
	.st41{fill:#EAB888;}
	.st42{fill:#FFD296;}
	.st43{fill:#FF5757;}
	.st44{fill:#FF6969;}
	.st45{fill:#FABE82;}
	.st46{fill:#FAFAFA;}
	.st47{fill:#C8C8C8;}
	.st48{fill:#A1D619;}
	.st49{fill:#FF9C6A;}
	.st50{fill:#66B366;}
	.st51{fill:#FDB002;}
	.st52{fill:#FFB300;}
	.st53{fill:#FF735D;}
	.st54{fill:#E1E1E1;}
	.st55{opacity:0.15;fill:#FFFFFF;}
	.st56{fill:#F4F4F4;}
	.st57{fill:#ECDAB2;}
	.st58{fill:#33B3C4;}
</style>
<g>
	<path class="st0" d="M108,180L108,180c-39.76,0-72-32.24-72-72v0c0-39.76,32.24-72,72-72h0c39.76,0,72,32.24,72,72v0   C180,147.76,147.76,180,108,180z"/>
	<g>
		<g>
			<path class="st1" d="M60.66,116.34c0.12-0.02,0.25-0.04,0.38-0.04s0.26,0.01,0.38,0.04l0-0.8l-0.77-0.01L60.66,116.34z"/>
			<path class="st1" d="M61.99,118.29c0,0.53-0.43,0.96-0.96,0.96s-0.96-0.43-0.96-0.96c0-0.39,0.24-0.73,0.58-0.87l0-1.07     c-0.91,0.18-1.61,0.98-1.61,1.95c0,1.1,0.89,1.99,1.98,1.99c1.1,0,1.99-0.89,1.99-1.98c0-0.97-0.69-1.77-1.6-1.95l0,1.07     C61.76,117.56,61.99,117.9,61.99,118.29z"/>
			<path class="st1" d="M60.66,116.34l0,1.07c0.12-0.05,0.25-0.08,0.38-0.08s0.27,0.03,0.38,0.08l0-1.07     c-0.12-0.02-0.25-0.04-0.38-0.04S60.78,116.31,60.66,116.34z"/>
			<path class="st12" d="M60.08,118.29c0,0.53,0.43,0.96,0.96,0.96s0.96-0.43,0.96-0.96c0-0.39-0.24-0.73-0.57-0.88l0,0.7l-0.77,0     l0-0.7C60.32,117.56,60.08,117.9,60.08,118.29z"/>
			<path class="st12" d="M61.42,118.11l0-0.7c-0.12-0.05-0.25-0.08-0.38-0.08s-0.27,0.03-0.38,0.08l0,0.7L61.42,118.11z"/>
			<path class="st1" d="M65.94,116.35c0.12-0.02,0.25-0.04,0.38-0.04s0.26,0.01,0.38,0.04l0-0.74l-0.77-0.01L65.94,116.35z"/>
			<path class="st1" d="M67.28,118.3c0,0.53-0.43,0.96-0.96,0.96s-0.96-0.43-0.96-0.96c0-0.39,0.24-0.73,0.58-0.87l0-1.07     c-0.91,0.18-1.61,0.98-1.61,1.95c0,1.1,0.89,1.99,1.98,1.99c1.1,0,1.99-0.89,1.99-1.98c0-0.97-0.69-1.77-1.6-1.95l0,1.07     C67.04,117.57,67.28,117.91,67.28,118.3z"/>
			<path class="st1" d="M65.94,116.35l0,1.07c0.12-0.05,0.25-0.08,0.38-0.08c0.14,0,0.27,0.03,0.38,0.08l0-1.07     c-0.12-0.02-0.25-0.04-0.38-0.04S66.06,116.32,65.94,116.35z"/>
			<path class="st12" d="M65.36,118.3c0,0.53,0.43,0.96,0.96,0.96s0.96-0.43,0.96-0.96c0-0.39-0.24-0.73-0.57-0.88l0,0.7l-0.77,0     l0-0.7C65.6,117.57,65.36,117.9,65.36,118.3z"/>
			<path class="st12" d="M66.7,118.12l0-0.7c-0.12-0.05-0.25-0.08-0.38-0.08c-0.14,0-0.27,0.03-0.38,0.08l0,0.7L66.7,118.12z"/>
			<path class="st13" d="M73.26,115.29c-0.45,0.03-0.89,0.06-1.31,0.09C72.37,115.35,72.81,115.32,73.26,115.29z"/>
			<path class="st13" d="M74.65,115.18c-0.47,0.04-0.93,0.08-1.38,0.11C73.71,115.25,74.17,115.22,74.65,115.18z"/>
			<path class="st13" d="M87.52,109.55c-0.23-0.24-0.54-0.49-0.94-0.75l-2.04-1.28l-0.02-0.02l-4.81,0.06l0,0.09l-0.43,0l0-0.09     l-3.15,0.04l1.73-1.73c0.34-0.34,0.8-0.53,1.28-0.53l0.14,0l0-0.14l0.43,0l0,0.14l2.35,0c-0.24-0.23-0.79-0.71-1.69-1.24     c-1.71-1.01-4.66-2.23-9.17-2.36l-0.03,0l-34.86-0.37c-0.2,2.18-0.32,4.39-0.32,6.63v0c0,0.45,0.03,0.9,0.03,1.35     c4.31,1.27,5.15,2.59,5.27,2.87c3.75,0.04,5.98,0.07,5.98,0.09h0l28.36,0.19c3.67-0.06,8.92-1.06,12.49-1.83     c-0.02-0.15-0.06-0.3-0.14-0.46C87.9,109.99,87.74,109.77,87.52,109.55z M37.04,106.81c0,0.24-0.2,0.44-0.45,0.44     c-0.25,0-0.45-0.2-0.45-0.44l0-0.66c0-0.24,0.2-0.44,0.45-0.44c0.25,0,0.45,0.2,0.45,0.44L37.04,106.81z M38.7,106.81     c0,0.24-0.2,0.44-0.45,0.44c-0.25,0-0.45-0.2-0.45-0.44l0-0.66c0-0.24,0.2-0.44,0.45-0.44c0.25,0,0.45,0.2,0.45,0.44L38.7,106.81     z M40.35,106.81c0,0.24-0.2,0.44-0.45,0.44c-0.25,0-0.45-0.2-0.45-0.44l0-0.66c0-0.24,0.2-0.44,0.45-0.44     c0.25,0,0.45,0.2,0.45,0.44L40.35,106.81z M42,106.82c0,0.24-0.2,0.44-0.45,0.44c-0.25,0-0.45-0.2-0.45-0.44l0-0.66     c0-0.24,0.2-0.44,0.45-0.44c0.25,0,0.45,0.2,0.45,0.44L42,106.82z M43.65,106.82c0,0.24-0.2,0.44-0.45,0.44s-0.45-0.2-0.45-0.44     l0-0.66c0-0.24,0.2-0.44,0.45-0.44c0.25,0,0.45,0.2,0.45,0.44L43.65,106.82z M45.3,106.82c0,0.24-0.2,0.44-0.45,0.44     c-0.25,0-0.45-0.2-0.45-0.44l0-0.66c0-0.24,0.2-0.44,0.45-0.44c0.25,0,0.45,0.2,0.45,0.44L45.3,106.82z M46.95,106.82     c0,0.24-0.2,0.44-0.45,0.44c-0.25,0-0.45-0.2-0.45-0.44l0-0.66c0-0.24,0.2-0.44,0.45-0.44c0.25,0,0.45,0.2,0.45,0.44     L46.95,106.82z M48.6,106.83c0,0.24-0.2,0.44-0.45,0.44c-0.25,0-0.45-0.2-0.45-0.44l0-0.66c0-0.24,0.2-0.44,0.45-0.44     c0.25,0,0.45,0.2,0.45,0.44L48.6,106.83z M50.25,106.83c0,0.24-0.2,0.44-0.45,0.44s-0.45-0.2-0.45-0.44l0-0.66     c0-0.24,0.2-0.44,0.45-0.44s0.45,0.2,0.45,0.44L50.25,106.83z M51.91,106.83c0,0.24-0.2,0.44-0.45,0.44     c-0.25,0-0.45-0.2-0.45-0.44l0-0.66c0-0.24,0.2-0.44,0.45-0.44s0.45,0.2,0.45,0.44L51.91,106.83z M53.56,106.84     c0,0.24-0.2,0.44-0.45,0.44c-0.25,0-0.45-0.2-0.45-0.44l0-0.66c0-0.24,0.2-0.44,0.45-0.44c0.25,0,0.45,0.2,0.45,0.44     L53.56,106.84z M55.21,106.84c0,0.24-0.2,0.44-0.45,0.44c-0.25,0-0.45-0.2-0.45-0.44l0-0.66c0-0.24,0.2-0.44,0.45-0.44     c0.25,0,0.45,0.2,0.45,0.44L55.21,106.84z M56.86,106.84c0,0.24-0.2,0.44-0.45,0.44c-0.25,0-0.45-0.2-0.45-0.44l0-0.66     c0-0.24,0.2-0.44,0.45-0.44c0.25,0,0.45,0.2,0.45,0.44L56.86,106.84z M58.51,106.84c0,0.24-0.2,0.44-0.45,0.44     c-0.25,0-0.45-0.2-0.45-0.44l0-0.66c0-0.24,0.2-0.44,0.45-0.44c0.25,0,0.45,0.2,0.45,0.44L58.51,106.84z M60.16,106.85     c0,0.24-0.2,0.44-0.45,0.44c-0.25,0-0.45-0.2-0.45-0.44l0-0.66c0-0.24,0.2-0.44,0.45-0.44c0.25,0,0.45,0.2,0.45,0.44     L60.16,106.85z M61.81,106.85c0,0.24-0.2,0.44-0.45,0.44s-0.45-0.2-0.45-0.44l0-0.66c0-0.24,0.2-0.44,0.45-0.44     c0.25,0,0.45,0.2,0.45,0.44L61.81,106.85z M63.46,106.85c0,0.24-0.2,0.44-0.45,0.44c-0.25,0-0.45-0.2-0.45-0.44l0-0.66     c0-0.24,0.2-0.44,0.45-0.44s0.45,0.2,0.45,0.44L63.46,106.85z M65.03,106.86c0,0.24-0.2,0.44-0.45,0.44     c-0.25,0-0.45-0.2-0.45-0.44l0-0.66c0-0.24,0.2-0.44,0.45-0.44c0.25,0,0.45,0.2,0.45,0.44L65.03,106.86z M66.68,106.86     c0,0.24-0.2,0.44-0.45,0.44c-0.25,0-0.45-0.2-0.45-0.44l0-0.66c0-0.24,0.2-0.44,0.45-0.44c0.25,0,0.45,0.2,0.45,0.44     L66.68,106.86z"/>
			<path class="st13" d="M71.95,115.38c-0.42,0.03-0.83,0.05-1.21,0.07C71.12,115.43,71.53,115.41,71.95,115.38z"/>
			<path class="st13" d="M70.18,115.48c-0.36,0.02-0.7,0.04-1.01,0.05C69.48,115.52,69.82,115.5,70.18,115.48z"/>
			<path class="st13" d="M76.8,114.97c-0.48,0.05-0.97,0.1-1.44,0.14C75.83,115.07,76.32,115.02,76.8,114.97z"/>
			<path class="st13" d="M80.38,114.51c-0.46,0.07-0.93,0.14-1.41,0.2C79.44,114.65,79.92,114.58,80.38,114.51z"/>
			<path class="st13" d="M87.91,111.61c0.03-0.05,0.06-0.1,0.09-0.15c0.03-0.06,0.04-0.12,0.06-0.18c-0.02,0.06-0.03,0.12-0.06,0.18     C87.98,111.51,87.94,111.56,87.91,111.61z"/>
			<path class="st13" d="M67.04,115.62c0.01,0,0.01,0,0.03,0c0.01,0,0.02,0,0.03,0c-0.01,0-0.02,0-0.03,0     C67.05,115.62,67.05,115.62,67.04,115.62z"/>
			<path class="st13" d="M88.14,110.96c0.01-0.05,0.02-0.11,0.01-0.17c0-0.02,0-0.04,0-0.06c0,0.02,0,0.04,0,0.06     C88.16,110.85,88.14,110.9,88.14,110.96z"/>
			<path class="st13" d="M78.97,114.71c-0.48,0.06-0.96,0.12-1.44,0.18C78.01,114.83,78.49,114.77,78.97,114.71z"/>
			<path class="st1" d="M58.06,107.28c0.25,0,0.45-0.2,0.45-0.44l0-0.66c0-0.24-0.2-0.44-0.45-0.44c-0.25,0-0.45,0.2-0.45,0.44     l0,0.66C57.61,107.09,57.82,107.28,58.06,107.28z"/>
			<path class="st1" d="M54.76,107.28c0.25,0,0.45-0.2,0.45-0.44l0-0.66c0-0.24-0.2-0.44-0.45-0.44c-0.25,0-0.45,0.2-0.45,0.44     l0,0.66C54.31,107.08,54.51,107.28,54.76,107.28z"/>
			<path class="st1" d="M56.41,107.28c0.25,0,0.45-0.2,0.45-0.44l0-0.66c0-0.24-0.2-0.44-0.45-0.44c-0.25,0-0.45,0.2-0.45,0.44     l0,0.66C55.96,107.08,56.16,107.28,56.41,107.28z"/>
			<path class="st1" d="M63.02,107.29c0.25,0,0.45-0.2,0.45-0.44l0-0.66c0-0.24-0.2-0.44-0.45-0.44s-0.45,0.2-0.45,0.44l0,0.66     C62.57,107.1,62.77,107.29,63.02,107.29z"/>
			<path class="st1" d="M59.71,107.29c0.25,0,0.45-0.2,0.45-0.44l0-0.66c0-0.24-0.2-0.44-0.45-0.44c-0.25,0-0.45,0.2-0.45,0.44     l0,0.66C59.27,107.09,59.47,107.29,59.71,107.29z"/>
			<path class="st1" d="M61.36,107.29c0.25,0,0.45-0.2,0.45-0.44l0-0.66c0-0.24-0.2-0.44-0.45-0.44c-0.25,0-0.45,0.2-0.45,0.44     l0,0.66C60.92,107.09,61.12,107.29,61.36,107.29z"/>
			<path class="st1" d="M48.15,107.27c0.25,0,0.45-0.2,0.45-0.44l0-0.66c0-0.24-0.2-0.44-0.45-0.44c-0.25,0-0.45,0.2-0.45,0.44     l0,0.66C47.71,107.07,47.91,107.27,48.15,107.27z"/>
			<path class="st1" d="M44.85,107.26c0.25,0,0.45-0.2,0.45-0.44l0-0.66c0-0.24-0.2-0.44-0.45-0.44c-0.25,0-0.45,0.2-0.45,0.44     l0,0.66C44.4,107.06,44.61,107.26,44.85,107.26z"/>
			<path class="st1" d="M46.5,107.26c0.25,0,0.45-0.2,0.45-0.44l0-0.66c0-0.24-0.2-0.44-0.45-0.44c-0.25,0-0.45,0.2-0.45,0.44     l0,0.66C46.06,107.07,46.26,107.26,46.5,107.26z"/>
			<path class="st1" d="M53.11,107.28c0.25,0,0.45-0.2,0.45-0.44l0-0.66c0-0.24-0.2-0.44-0.45-0.44c-0.25,0-0.45,0.2-0.45,0.44     l0,0.66C52.66,107.08,52.86,107.28,53.11,107.28z"/>
			<path class="st1" d="M49.81,107.27c0.25,0,0.45-0.2,0.45-0.44l0-0.66c0-0.24-0.2-0.44-0.45-0.44s-0.45,0.2-0.45,0.44l0,0.66     C49.36,107.07,49.56,107.27,49.81,107.27z"/>
			<path class="st1" d="M51.46,107.27c0.25,0,0.45-0.2,0.45-0.44l0-0.66c0-0.24-0.2-0.44-0.45-0.44s-0.45,0.2-0.45,0.44l0,0.66     C51.01,107.08,51.21,107.27,51.46,107.27z"/>
			<path class="st1" d="M38.25,107.25c0.25,0,0.45-0.2,0.45-0.44l0-0.66c0-0.24-0.2-0.44-0.45-0.44c-0.25,0-0.45,0.2-0.45,0.44     l0,0.66C37.8,107.05,38,107.25,38.25,107.25z"/>
			<path class="st1" d="M36.6,107.25c0.25,0,0.45-0.2,0.45-0.44l0-0.66c0-0.24-0.2-0.44-0.45-0.44c-0.25,0-0.45,0.2-0.45,0.44     l0,0.66C36.15,107.05,36.35,107.25,36.6,107.25z"/>
			<path class="st1" d="M43.2,107.26c0.25,0,0.45-0.2,0.45-0.44l0-0.66c0-0.24-0.2-0.44-0.45-0.44c-0.25,0-0.45,0.2-0.45,0.44     l0,0.66C42.75,107.06,42.95,107.26,43.2,107.26z"/>
			<path class="st1" d="M39.9,107.25c0.25,0,0.45-0.2,0.45-0.44l0-0.66c0-0.24-0.2-0.44-0.45-0.44c-0.25,0-0.45,0.2-0.45,0.44     l0,0.66C39.45,107.06,39.65,107.25,39.9,107.25z"/>
			<path class="st1" d="M41.55,107.26c0.25,0,0.45-0.2,0.45-0.44l0-0.66c0-0.24-0.2-0.44-0.45-0.44c-0.25,0-0.45,0.2-0.45,0.44     l0,0.66C41.1,107.06,41.3,107.26,41.55,107.26z"/>
			<path class="st1" d="M66.23,107.3c0.25,0,0.45-0.2,0.45-0.44l0-0.66c0-0.24-0.2-0.44-0.45-0.44c-0.25,0-0.45,0.2-0.45,0.44     l0,0.66C65.78,107.1,65.98,107.3,66.23,107.3z"/>
			<path class="st1" d="M64.58,107.3c0.25,0,0.45-0.2,0.45-0.44l0-0.66c0-0.24-0.2-0.44-0.45-0.44c-0.25,0-0.45,0.2-0.45,0.44     l0,0.66C64.13,107.1,64.33,107.3,64.58,107.3z"/>
			<polygon class="st12" points="66.71,115.61 66.98,115.62 66.71,115.61    "/>
			<path class="st12" d="M88.15,110.74C88.15,110.73,88.15,110.73,88.15,110.74c0-0.03,0-0.05-0.01-0.07     C88.14,110.69,88.15,110.71,88.15,110.74C88.15,110.73,88.15,110.73,88.15,110.74z"/>
			<path class="st12" d="M66.98,115.62C66.98,115.62,66.99,115.62,66.98,115.62l0.03,0L66.98,115.62     C66.99,115.62,66.98,115.62,66.98,115.62z"/>
			<path class="st12" d="M88.14,110.96c0,0.05,0,0.1-0.01,0.15c-0.01,0.06-0.04,0.12-0.06,0.18c0.02-0.06,0.05-0.11,0.06-0.18     C88.14,111.06,88.13,111.01,88.14,110.96z"/>
			<path class="st12" d="M67.1,115.62c0.01,0,0.02,0,0.03,0c0.02,0,0.03,0,0.05,0c-0.02,0-0.04,0-0.05,0     C67.13,115.61,67.12,115.61,67.1,115.62z"/>
			<path class="st12" d="M87.01,112.5c0.31-0.21,0.62-0.48,0.84-0.8c0.02-0.03,0.04-0.06,0.05-0.09c-0.02,0.03-0.03,0.06-0.05,0.09     C87.64,112.02,87.32,112.29,87.01,112.5z"/>
			<polygon class="st12" points="40.74,115.23 40.68,115.23 40.74,115.23 60.66,115.52 60.66,115.52    "/>
			<path class="st12" d="M67.01,115.62c0,0,0.02,0,0.03,0C67.03,115.62,67.01,115.62,67.01,115.62L67.01,115.62z"/>
			<rect x="63.68" y="113.31" class="st12" width="0" height="4.52"/>
			<rect x="61.04" y="115.15" class="st12" width="0" height="0.77"/>
			<rect x="66.32" y="115.23" class="st12" width="0" height="0.77"/>
			<path class="st12" d="M88.15,110.73c0-0.02,0-0.04-0.01-0.06c-3.58,0.78-8.82,1.77-12.49,1.83l-28.36-0.19     c0,0.03-4.35,0.02-11.15,0c0.06,0.96,0.12,1.91,0.22,2.86l0.68,0.01l3.64,0.05l0.05,0l19.92,0.29l0-1.43l0.77,0l0,1.44l4.52,0.07     l0-1.5l0.77,0l0,1.51l0.28,0c0,0,0,0,0.01,0l0.02,0c0,0,0.02,0,0.03,0c0.01,0,0.01,0,0.03,0c0.01,0,0.02,0,0.03,0     c0.01,0,0.02,0,0.03,0c0.02,0,0.03,0,0.05,0c0.04,0,0.08,0,0.13,0c0.03,0,0.06,0,0.09,0c0.37-0.01,0.98-0.03,1.76-0.07     c0.31-0.01,0.65-0.03,1.01-0.05c0.18-0.01,0.37-0.02,0.56-0.03c0.38-0.02,0.79-0.05,1.21-0.07c0.42-0.03,0.86-0.06,1.31-0.09     c0.45-0.03,0.91-0.07,1.38-0.11c0.24-0.02,0.47-0.04,0.71-0.06c0.48-0.04,0.96-0.09,1.44-0.14c0.24-0.03,0.48-0.05,0.73-0.08     c0.48-0.06,0.97-0.11,1.44-0.18c0.48-0.06,0.95-0.13,1.41-0.2c2.31-0.36,4.37-0.84,5.64-1.46c0,0,0.49-0.19,1-0.55     c0.31-0.21,0.62-0.48,0.84-0.8c0.02-0.03,0.04-0.06,0.05-0.09c0.03-0.05,0.06-0.1,0.09-0.15c0.03-0.06,0.04-0.12,0.06-0.18     c0.02-0.06,0.05-0.11,0.06-0.18c0.01-0.05,0.01-0.1,0.01-0.15c0.01-0.05,0.02-0.11,0.01-0.17     C88.15,110.78,88.15,110.76,88.15,110.73C88.15,110.73,88.15,110.73,88.15,110.73z"/>
			<polygon class="st12" points="61.42,114.09 60.66,114.09 60.66,115.52 61.42,115.54    "/>
			<polygon class="st12" points="66.71,114.1 65.94,114.1 65.94,115.6 66.71,115.61    "/>
			<path class="st12" d="M36.03,109.35c0.02,0.94,0.04,1.88,0.09,2.82c1.94,0.02,3.68,0.03,5.18,0.05     C41.18,111.95,40.34,110.62,36.03,109.35z"/>
			<path class="st1" d="M41.31,112.22c0.02,0.03,0.02,0.05,0.02,0.05h0l5.96,0.04h0C47.29,112.29,45.06,112.26,41.31,112.22z"/>
			<path class="st1" d="M82.21,105.49l2.32,2l0.1,0l-2.57-2.15C82.16,105.44,82.21,105.49,82.21,105.49z"/>
			<path class="st1" d="M79.15,105.34c-0.48,0-0.94,0.19-1.28,0.53l-1.73,1.73l3.15-0.04l0-2.22L79.15,105.34z"/>
			<path class="st1" d="M79.71,107.55l4.81-0.06l-2.32-2c0,0-0.05-0.05-0.15-0.15l-2.35,0L79.71,107.55z"/>
			
				<rect x="79.45" y="107.39" transform="matrix(1.711349e-03 -1 1 1.711349e-03 -28.2407 186.9155)" class="st13" width="0.09" height="0.43"/>
			
				<rect x="79.43" y="105.06" transform="matrix(1.853697e-03 -1 1 1.853697e-03 -25.9159 184.5764)" class="st13" width="0.14" height="0.43"/>
			
				<rect x="78.39" y="106.23" transform="matrix(1.705309e-03 -1 1 1.705309e-03 -27.084 185.7659)" class="st13" width="2.22" height="0.43"/>
		</g>
		<path class="st13" d="M121.66,37.31v112.25h29.67V50.5C142.74,44.01,132.64,39.42,121.66,37.31z"/>
		<g>
			<path class="st12" d="M49.3,149.66c0.05,0.07,0.1,0.14,0.15,0.21c14.66,0.02,38.13,0.02,75.69,0.02c18.5,0,31.86,0,41.4-0.01     c0.06-0.08,0.12-0.17,0.18-0.25c-9.55,0-22.96-0.01-41.58-0.01C87.44,149.64,63.94,149.65,49.3,149.66z"/>
			<path class="st12" d="M179.87,112.22c0-0.04,0.01-0.08,0.01-0.12c-12.31-0.02-34.5-0.03-71.87-0.03c-22.26,0-38.13,0-49.41,0.01     c0-7.82,0.01-16.9,0.01-27.33c0-1.22,0-2.41,0-3.57c11.66,0.02,27.19,0.02,47.4,0.02c36.9,0,58.22-0.03,68.8-0.08     c-0.02-0.06-0.05-0.12-0.07-0.18c-10.6-0.05-31.91-0.08-68.73-0.08c-20.21,0-35.74,0.01-47.4,0.02c0-10.91,0-19.09-0.01-25.26     c-0.05,0.05-0.11,0.1-0.16,0.15c-0.01,6.15-0.01,14.28-0.01,25.1c-7.1,0.01-12.76,0.02-17.15,0.04     c-0.03,0.07-0.05,0.14-0.08,0.21c4.4,0.01,10.08,0.03,17.23,0.04c0,1.16,0,2.35,0,3.57c0,10.42,0,19.5,0.01,27.33     c-11.83,0.01-18.57,0.02-22.3,0.03c0,0.03,0.01,0.06,0.01,0.09c3.74,0.01,10.47,0.03,22.3,0.03c0.01,25.23,0.05,37.13,0.08,37.13     s0.07-11.89,0.08-37.13c11.28,0.01,27.15,0.01,49.41,0.01C145.37,112.25,167.55,112.24,179.87,112.22z"/>
		</g>
		<g>
			<path class="st17" d="M112.58,58.37H73.29c-0.82,0-1.48-0.66-1.48-1.48v-7.42c0-0.82,0.66-1.48,1.48-1.48h39.28     c0.82,0,1.48,0.66,1.48,1.48v7.42C114.06,57.71,113.4,58.37,112.58,58.37z"/>
		</g>
		<g>
			<path class="st17" d="M77.74,43.9c0,2.4,0.03,4.35,0.06,4.35c0.03,0,0.06-1.95,0.06-4.35c0-0.45,0-0.88,0-1.29     c-0.04,0.02-0.08,0.03-0.11,0.05C77.74,43.06,77.74,43.47,77.74,43.9z"/>
			<g>
				<g>
					<g>
						<g>
							<path class="st17" d="M107.1,48.38c-0.03,0-0.06-2.77-0.06-6.19c0-3.42,0.03-6.19,0.06-6.19c0.03,0,0.06,2.77,0.06,6.19         C107.16,45.61,107.13,48.38,107.1,48.38z"/>
						</g>
					</g>
				</g>
			</g>
			<g>
				<g>
					<g>
						<g>
							<path class="st46" d="M85.01,52.25h0.85c0.67,0,1.12,0.43,1.12,1.04c0,0.61-0.45,1.04-1.12,1.04h-0.85V52.25z M85.85,54.15         c0.55,0,0.91-0.35,0.91-0.85c0-0.5-0.36-0.85-0.91-0.85h-0.62v1.7H85.85z"/>
						</g>
					</g>
					<g>
						<g>
							<path class="st46" d="M88.79,53.62h-1.31c0.02,0.33,0.27,0.55,0.62,0.55c0.19,0,0.36-0.07,0.48-0.21l0.12,0.14         c-0.14,0.17-0.36,0.26-0.61,0.26c-0.49,0-0.82-0.33-0.82-0.8s0.32-0.8,0.77-0.8c0.44,0,0.76,0.32,0.76,0.8         C88.8,53.57,88.79,53.6,88.79,53.62z M87.48,53.46h1.11c-0.03-0.31-0.25-0.52-0.56-0.52C87.73,52.94,87.51,53.16,87.48,53.46         z"/>
						</g>
					</g>
					<g>
						<g>
							<path class="st46" d="M90.82,53.56c0,0.48-0.33,0.8-0.78,0.8c-0.25,0-0.47-0.11-0.6-0.31v0.87h-0.21v-2.15h0.2v0.31         c0.13-0.21,0.35-0.32,0.61-0.32C90.48,52.76,90.82,53.08,90.82,53.56z M90.61,53.56c0-0.36-0.25-0.61-0.58-0.61         c-0.33,0-0.58,0.25-0.58,0.61c0,0.37,0.25,0.61,0.58,0.61C90.35,54.17,90.61,53.92,90.61,53.56z"/>
						</g>
					</g>
					<g>
						<g>
							<path class="st46" d="M92.42,53.37v0.97h-0.2V54.1c-0.1,0.16-0.28,0.26-0.54,0.26c-0.35,0-0.57-0.18-0.57-0.46         c0-0.24,0.15-0.44,0.6-0.44h0.5v-0.1c0-0.27-0.15-0.41-0.44-0.41c-0.2,0-0.39,0.07-0.52,0.18l-0.1-0.16         c0.16-0.13,0.39-0.21,0.64-0.21C92.19,52.76,92.42,52.96,92.42,53.37z M92.21,53.87v-0.26h-0.49c-0.3,0-0.4,0.12-0.4,0.28         c0,0.18,0.15,0.3,0.4,0.3C91.95,54.19,92.13,54.08,92.21,53.87z"/>
						</g>
					</g>
					<g>
						<g>
							<path class="st46" d="M93.79,52.76v0.21c-0.02,0-0.04,0-0.05,0c-0.33,0-0.53,0.21-0.53,0.58v0.8H93v-1.57h0.2v0.31         C93.3,52.87,93.5,52.76,93.79,52.76z"/>
						</g>
					</g>
					<g>
						<g>
							<path class="st46" d="M95.07,54.24c-0.08,0.07-0.21,0.11-0.33,0.11c-0.3,0-0.46-0.17-0.46-0.46v-0.95H94v-0.18h0.28v-0.34         h0.21v0.34h0.48v0.18h-0.48v0.94c0,0.18,0.1,0.29,0.27,0.29c0.09,0,0.17-0.03,0.23-0.08L95.07,54.24z"/>
						</g>
					</g>
					<g>
						<g>
							<path class="st46" d="M96.86,52.77v1.57h-0.2v-0.29c-0.11,0.19-0.31,0.3-0.56,0.3c-0.4,0-0.66-0.22-0.66-0.67v-0.91h0.21         v0.89c0,0.33,0.17,0.5,0.47,0.5c0.33,0,0.53-0.21,0.53-0.57v-0.82H96.86z"/>
						</g>
					</g>
					<g>
						<g>
							<path class="st46" d="M98.25,52.76v0.21c-0.02,0-0.04,0-0.05,0c-0.33,0-0.53,0.21-0.53,0.58v0.8h-0.21v-1.57h0.2v0.31         C97.76,52.87,97.96,52.76,98.25,52.76z"/>
						</g>
					</g>
					<g>
						<g>
							<path class="st46" d="M99.98,53.62h-1.31c0.02,0.33,0.27,0.55,0.62,0.55c0.19,0,0.36-0.07,0.48-0.21l0.12,0.14         c-0.14,0.17-0.36,0.26-0.61,0.26c-0.49,0-0.82-0.33-0.82-0.8s0.32-0.8,0.77-0.8c0.44,0,0.76,0.32,0.76,0.8         C99.98,53.57,99.98,53.6,99.98,53.62z M98.67,53.46h1.11c-0.03-0.31-0.25-0.52-0.56-0.52         C98.92,52.94,98.69,53.16,98.67,53.46z"/>
						</g>
					</g>
					<g>
						<g>
							<path class="st46" d="M100.2,54.16l0.1-0.17c0.13,0.1,0.34,0.18,0.56,0.18c0.3,0,0.42-0.1,0.42-0.26         c0-0.41-1.02-0.09-1.02-0.71c0-0.26,0.22-0.45,0.62-0.45c0.2,0,0.42,0.06,0.55,0.15l-0.09,0.17c-0.14-0.1-0.3-0.13-0.46-0.13         c-0.28,0-0.41,0.11-0.41,0.26c0,0.42,1.02,0.1,1.02,0.71c0,0.27-0.24,0.45-0.65,0.45C100.57,54.36,100.32,54.27,100.2,54.16z         "/>
						</g>
					</g>
				</g>
				<g>
					<g>
						<g>
							<path class="st46" d="M106.88,52.22L106.88,52.22c-0.09,0.09-0.09,0.23,0,0.32l0.99,1l-2.83-0.01c-0.12,0-0.23,0.1-0.23,0.22         l0,0c0,0.12,0.1,0.23,0.22,0.23l2.83,0.01l-1,0.99c-0.09,0.09-0.09,0.23,0,0.32l0,0c0.09,0.09,0.23,0.09,0.32,0l1.55-1.53         l-1.53-1.55C107.11,52.14,106.97,52.14,106.88,52.22z"/>
						</g>
					</g>
				</g>
				<g>
					<g>
						<g>
							<g>
								<rect x="75.01" y="55.02" class="st46" width="5.84" height="0.42"/>
							</g>
						</g>
					</g>
					<g>
						<g>
							<g>
								<path class="st46" d="M81.49,51.38c-0.03-0.05-0.07-0.08-0.12-0.11c0,0-0.6-0.21-0.93-0.21c-0.51,0-0.89,0.2-1.31,0.45          c-0.16,0.09-0.33,0.2-0.52,0.31c0,0,0,0-0.01,0l-1.83-0.32c-0.03-0.01-0.06,0-0.09,0.01l-0.29,0.13          c-0.07,0.03-0.07,0.13,0,0.17l1.21,0.59c0.01,0,0.01,0.01,0,0.02c-0.68,0.4-1.26,0.75-1.26,0.75          c-0.01,0-0.01,0.01-0.02,0.01c-0.24,0.14-0.52,0.18-0.79,0.12l-0.65-0.15c-0.03-0.01-0.07-0.01-0.1,0          c-0.12,0.04-0.15,0.19-0.06,0.28l0.73,0.67c0.11,0.1,0.28,0.13,0.42,0.08l0.36-0.15l2.06-0.87l2.91-1.23          C81.51,51.81,81.62,51.57,81.49,51.38z"/>
							</g>
						</g>
					</g>
					<g>
						<g>
							<g>
								<path class="st46" d="M78.86,53.18L78,53.54l-0.16,0.71c-0.01,0.04,0.02,0.08,0.06,0.08l0.08,0c0.12,0,0.22-0.06,0.29-0.16          L78.86,53.18z"/>
							</g>
						</g>
					</g>
				</g>
			</g>
		</g>
		<g>
			<g>
				<g>
					<g>
						<g>
							<g>
								<g>
									<polygon class="st47" points="104.41,126 102.64,126 102.64,92.42 95.08,92.42 95.08,126 93.31,126 93.31,90.65            104.41,90.65          "/>
								</g>
							</g>
						</g>
					</g>
					<g>
						<g>
							<path class="st22" d="M92.81,93.95v-2.57c0-0.61,0.49-1.1,1.1-1.1h9.91c0.61,0,1.1,0.49,1.1,1.1v2.57h-2.71v-1.38h-6.65v1.38         H92.81z"/>
						</g>
					</g>
					<g>
						<g>
							<g>
								<path class="st22" d="M94.82,110.03c0,0.05-0.29,0.09-0.64,0.09c-0.35,0-0.64-0.04-0.64-0.09c0-0.05,0.29-0.09,0.64-0.09          C94.54,109.93,94.82,109.98,94.82,110.03z"/>
							</g>
						</g>
					</g>
					<g>
						<g>
							<g>
								<path class="st22" d="M94.82,112.12c0,0.05-0.29,0.09-0.64,0.09c-0.35,0-0.64-0.04-0.64-0.09c0-0.05,0.29-0.09,0.64-0.09          C94.54,112.02,94.82,112.06,94.82,112.12z"/>
							</g>
						</g>
					</g>
					<g>
						<g>
							<path class="st22" d="M94.39,109.47c0,0.1-0.08,0.19-0.19,0.19s-0.19-0.08-0.19-0.19c0-0.1,0.08-0.19,0.19-0.19         S94.39,109.36,94.39,109.47z"/>
						</g>
					</g>
					<g>
						<g>
							<g>
								<path class="st22" d="M104.15,110.03c0,0.05-0.29,0.09-0.64,0.09c-0.35,0-0.64-0.04-0.64-0.09c0-0.05,0.29-0.09,0.64-0.09          C103.86,109.93,104.15,109.98,104.15,110.03z"/>
							</g>
						</g>
					</g>
					<g>
						<g>
							<g>
								<path class="st22" d="M104.15,112.12c0,0.05-0.29,0.09-0.64,0.09c-0.35,0-0.64-0.04-0.64-0.09c0-0.05,0.29-0.09,0.64-0.09          C103.86,112.02,104.15,112.06,104.15,112.12z"/>
							</g>
						</g>
					</g>
					<g>
						<g>
							<path class="st22" d="M103.71,109.47c0,0.1-0.08,0.19-0.19,0.19c-0.1,0-0.19-0.08-0.19-0.19c0-0.1,0.08-0.19,0.19-0.19         C103.62,109.28,103.71,109.36,103.71,109.47z"/>
						</g>
					</g>
				</g>
				<g>
					<g>
						<g>
							<path class="st22" d="M104.93,119.14c-0.14,0.08-0.53-0.54-1.37-1.23c-0.82-0.69-2.2-1.44-3.81-1.47         c-1.61-0.02-3.01,0.69-3.85,1.36c-0.86,0.67-1.26,1.27-1.4,1.19c-0.11-0.05,0.06-0.82,0.9-1.74c0.41-0.46,1-0.92,1.75-1.28         c0.74-0.36,1.65-0.6,2.62-0.59c0.97,0.02,1.87,0.28,2.6,0.66c0.73,0.38,1.31,0.86,1.71,1.33         C104.9,118.31,105.05,119.09,104.93,119.14z"/>
						</g>
					</g>
				</g>
				<g>
					<g>
						<g>
							<path class="st34" d="M109.12,161.19H88.45c-2.29,0-4.15-1.86-4.15-4.15v-33.96c0-2.29,1.86-4.15,4.15-4.15h20.67         c2.29,0,4.15,1.86,4.15,4.15v33.96C113.28,159.33,111.42,161.19,109.12,161.19z"/>
						</g>
					</g>
				</g>
				<g>
					<g>
						<path class="st22" d="M92.02,163.45c0,1.01-0.82,1.83-1.83,1.83c-1.01,0-1.83-0.82-1.83-1.83c0-1.01,0.82-1.83,1.83-1.83        C91.2,161.62,92.02,162.44,92.02,163.45z"/>
					</g>
				</g>
				<g>
					<g>
						<polygon class="st22" points="89.02,161.19 89.53,163.88 90.8,163.88 91.36,161.19       "/>
					</g>
				</g>
				<g>
					<g>
						<path class="st22" d="M91.12,163.45c0,0.52-0.42,0.93-0.93,0.93c-0.52,0-0.93-0.42-0.93-0.93s0.42-0.93,0.93-0.93        C90.7,162.51,91.12,162.93,91.12,163.45z"/>
					</g>
				</g>
				<g>
					<g>
						<path class="st22" d="M110.41,163.45c0,1.01-0.82,1.83-1.83,1.83c-1.01,0-1.83-0.82-1.83-1.83c0-1.01,0.82-1.83,1.83-1.83        C109.59,161.62,110.41,162.44,110.41,163.45z"/>
					</g>
				</g>
				<g>
					<g>
						<polygon class="st22" points="107.41,161.19 107.92,163.88 109.19,163.88 109.74,161.19       "/>
					</g>
				</g>
				<g>
					<g>
						<path class="st22" d="M109.51,163.45c0,0.52-0.42,0.93-0.93,0.93s-0.93-0.42-0.93-0.93s0.42-0.93,0.93-0.93        S109.51,162.93,109.51,163.45z"/>
					</g>
				</g>
				<g class="st26">
					<g>
						<rect x="84.3" y="126.76" width="28.98" height="0.69"/>
					</g>
				</g>
				<g class="st26">
					<g>
						<rect x="84.3" y="135.07" width="28.98" height="0.69"/>
					</g>
				</g>
				<g class="st26">
					<g>
						<rect x="84.3" y="143.36" width="28.98" height="0.69"/>
					</g>
				</g>
				<g class="st26">
					<g>
						<rect x="84.3" y="151.65" width="28.98" height="0.69"/>
					</g>
				</g>
			</g>
			<g>
				<path class="st37" d="M114.52,130.78c-1.73-0.88,0.33-7.96,0.35-8.04c2.09-6.68,8.55-17.5,28.3-14.84l-0.27,2.01      c-9.79-1.32-17.16,0.69-21.91,5.96c-4.81,5.33-5.35,12.55-5.09,13.61c-0.02-0.09-0.14-0.36-0.45-0.51L114.52,130.78z"/>
			</g>
			<g>
				
					<rect x="153.62" y="129.88" transform="matrix(-1 -1.224647e-16 1.224647e-16 -1 312.4143 286.2782)" class="st47" width="5.17" height="26.52"/>
			</g>
			<g>
				<path class="st37" d="M180,108c0-6.71-0.94-13.2-2.65-19.36l-30.7,0.02l-8.44,38.51l-24.19,0.02l0,3.2l62,0.09l3.89-18.76      C179.97,110.48,180,109.24,180,108L180,108z"/>
				<g>
					<g>
						<g>
							<g>
								<g>
									<g>
										<g>
											<g>
												<g>
													<g>
														<g>
															<g>
																<g>
																	<g>
																		<g>
																			<g>
																				<g>
																					<g>
																						<path class="st22" d="M95.97,138.09l-7.1,6.82c0,0-8.52-5.78-12.31-3.89c-0.45,0.23-0.53,0.84-0.15,1.18                        l14.06,12.52c0.17,0.15,0.43,0.14,0.58-0.03l10.54-11.71L95.97,138.09z"/>
																					</g>
																				</g>
																			</g>
																		</g>
																	</g>
																</g>
															</g>
														</g>
													</g>
												</g>
											</g>
										</g>
									</g>
								</g>
							</g>
						</g>
						<g>
							<g>
								<path class="st22" d="M107.53,122.51c0,0.74-3.29,34.6-3.29,34.6l11.12,1.29c0,0,2.77-17.08,3.2-20.23          c0.43-3.15,1.87-8.79,1.87-8.79l23.73-2.35c0,0-11.64-16.28-12.77-16.35C130.26,110.61,107.53,122.51,107.53,122.51z"/>
							</g>
						</g>
						<path class="st26" d="M106.09,138.01l-0.21,2.22c2.91-2.17,11.75-14.23,16.64-13.32c5.86,1.08,7.17-1.88,7.17-1.88l-9.05-5.14        l-12.55,5.02L106.09,138.01z"/>
						<g>
							<g>
								<path class="st22" d="M88.3,141.22c0,0,19.92-27,21.07-28.42c1.15-1.41,2.48-2.92,6.63-2.92c4.15,0,15.39,0.8,15.39,0.8          l5.94-2.7l21.55,3.32c0,0,0.8,10.25-0.62,12.64c-1.41,2.39-9.82,2.87-11.58,3.09c-4.95,0.63-29.15-3.63-29.15-3.63l0,0          c0,0-5.37,7.45-7.94,10.31c-1.84,2.04-11.64,14.62-11.64,14.62L88.3,141.22z"/>
							</g>
						</g>
						<g>
							<g>
								<g>
									<g>
										<g>
											<g>
												<g>
													<g>
														<g>
															<g>
																<g>
																	<g>
																		<g>
																			<g>
																				<g>
																					<g>
																						<path class="st22" d="M107.19,150.43l-0.58,9.83c0,0-10.18,1.54-11.67,5.5c-0.18,0.47,0.18,0.98,0.69,0.97                        l18.82-0.35c0.23,0,0.41-0.19,0.41-0.42l-0.22-15.75L107.19,150.43z"/>
																					</g>
																				</g>
																			</g>
																		</g>
																	</g>
																</g>
															</g>
														</g>
													</g>
												</g>
											</g>
										</g>
									</g>
								</g>
							</g>
						</g>
					</g>
					<g>
						<g>
							<g>
								<path class="st48" d="M145.76,84.62l0.7,6.46l-8.11,16.26c0,0-4.79,1.6-6.49,3.34l3.88,0.17          c5.57,0.24,10.96,2.18,15.41,5.65c1.92,1.5,3.46,3.11,3.75,4.59c0.84,4.33,3.52,4.63,3.52,4.63l3.53-7.29l3.44-6.84          l6.91-26.8l-6.67-3.66l-1.5-2.18l-9.86,1.37l-1.97,1.94L145.76,84.62z"/>
							</g>
						</g>
						<g>
							<g>
								<path class="st31" d="M129.39,101.94l4.14-1.73l6.51-9.13c0,0,3.02-6.03,5.72-6.46c2.71-0.42,0.7,6.46,0.7,6.46l-4.17,11.85          l-6.73,4.71l-4.64-0.4l-3-2.56L129.39,101.94z"/>
							</g>
						</g>
					</g>
					<g>
						<g>
							<g>
								<g>
									<g>
										<g>
											<g>
												<g>
													<g>
														<g>
															<g>
																<g>
																	<g>
																		<g>
																			<g>
																				<g>
																					<g>
																						<path class="st20" d="M164.41,79.79l0.67-13.7c0.43-4.29-1.71-8.11-6.01-8.42l-0.4-0.01                        c-4.02-0.05-7.4,2.99-7.77,6.98c-0.35,3.72-0.69,7.83-0.69,9.83c0,4.14,4.13,4.83,4.13,4.83                        c0.01,0-0.11,2.51-0.18,3.72l0,0l0.87,3.15L164.41,79.79z"/>
																					</g>
																				</g>
																			</g>
																		</g>
																	</g>
																</g>
															</g>
														</g>
													</g>
												</g>
											</g>
										</g>
										<g class="st25">
											<g>
												<g>
													<g>
														<g>
															<g>
																<g>
																	<g>
																		<g>
																			<g>
																				<g>
																					<g>
																						<path d="M154.33,79.33c0,0,2.6,0.19,5.41-1.52c0,0-1.34,3.09-5.46,2.67L154.33,79.33z"/>
																					</g>
																				</g>
																			</g>
																		</g>
																	</g>
																</g>
															</g>
														</g>
													</g>
												</g>
											</g>
										</g>
										<g>
											<g>
												<g>
													<g>
														<g>
															<g>
																<g>
																	<g>
																		<g>
																			<g>
																				<g>
																					<path class="st20" d="M164.71,69.01c0.07-0.03,2.85-0.8,2.73,2.02c-0.13,2.83-2.94,2.12-2.94,2.03                       C164.49,72.98,164.71,69.01,164.71,69.01z"/>
																				</g>
																			</g>
																		</g>
																	</g>
																</g>
															</g>
														</g>
													</g>
												</g>
											</g>
										</g>
										<g>
											<g>
												<g>
													<g>
														<g>
															<g>
																<g>
																	<g>
																		<g>
																			<g>
																				<g>
																					<path class="st49" d="M165.4,72.03c0.01-0.01,0.05,0.04,0.13,0.08c0.08,0.04,0.22,0.07,0.37,0.02                       c0.3-0.1,0.58-0.56,0.61-1.07c0.02-0.26-0.02-0.5-0.11-0.71c-0.08-0.21-0.2-0.36-0.35-0.39                       c-0.15-0.04-0.26,0.04-0.3,0.12c-0.04,0.08-0.03,0.13-0.04,0.14c-0.01,0.01-0.06-0.05-0.03-0.17                       c0.01-0.06,0.05-0.12,0.12-0.17c0.07-0.05,0.17-0.08,0.28-0.06c0.22,0.02,0.4,0.23,0.49,0.46                       c0.1,0.23,0.16,0.51,0.14,0.8c-0.04,0.57-0.36,1.09-0.77,1.19c-0.2,0.04-0.36-0.02-0.45-0.09                       C165.41,72.1,165.39,72.04,165.4,72.03z"/>
																				</g>
																			</g>
																		</g>
																	</g>
																</g>
															</g>
														</g>
													</g>
												</g>
											</g>
										</g>
									</g>
									<g>
										<g>
											<g>
												<g>
													<g>
														<g>
															<g>
																<g>
																	<g>
																		<path class="st3" d="M145.4,60.48c0.05-0.16,0.18-0.3,0.33-0.38c0.33-0.18,0.7-0.14,1.06-0.13                    c0.9,0.02,1.8-0.17,2.61-0.54c-0.27-0.15-0.53-0.34-0.74-0.57c-0.44-0.48-0.67-1.18-0.43-1.79                    c0.04-0.11,0.12-0.23,0.23-0.26c0.19-0.05,0.34,0.14,0.46,0.29c0.4,0.49,0.78,0.71,1.41,0.67                    c0.39-0.02,0.77-0.09,1.09-0.27c0.01-0.01,0.02-0.03,0.04-0.04c0.15-0.15,0.3-0.28,0.45-0.42c0,0,0,0,0,0l0,0                    c1.11-1.01,2.05-1.7,3.01-2.04c1.4-0.5,3.72-0.62,5.14-0.18c1.42,0.44,2.66,1.66,2.8,3.14                    c0.84-0.65,2.05-0.59,3.01-0.15l0.03-0.01c1.08,0.44,1.65,1.62,1.92,2.75c0.01,0.06,0.03,0.12,0.04,0.19                    c0.34,0.6,0.83,1.13,1.41,1.5c0.1,0.07,0.22,0.15,0.23,0.27c0.01,0.12-0.1,0.22-0.2,0.28                    c-0.27,0.18-0.58,0.29-0.9,0.33c0.09,0.27,0.19,0.53,0.33,0.78c0.11,0.21,0.25,0.47,0.13,0.68                    c-0.09,0.16-0.31,0.22-0.49,0.19c-0.18-0.04-0.35-0.15-0.5-0.25c0.11,0.3,0.22,0.6,0.33,0.89                    c-0.4,0.05-0.81,0-1.19-0.13c-0.28,1.03-0.54,2.96-0.83,3.66c-0.75-0.02-0.93-0.11-1.31,0                    c-0.5,0.14-0.35,1.02-0.97,0.74c-0.32-0.14-0.76-1.39-0.86-1.72c-0.63-2.22-0.76-4.58-0.41-6.86                    c-0.43-0.5-0.96-0.92-1.55-1.22l0.05,0.05c-1.14-0.45-2.43-0.9-3.55-0.41c-0.87,0.38-1.41,1.25-2.07,1.92                    c-1.26,1.28-2.66,1.94-4.46,1.94c-0.22,1.24-0.35,3.28-0.46,4.44l-0.89-2.37l0,0.01                    c-0.07-0.14-0.13-0.28-0.19-0.42L149.49,65l0-0.01c-0.09-0.23-0.18-0.45-0.3-0.68c0,0-0.01,0.01-0.01,0.01                    c-0.65,0.53-1.55-0.36-1.02-1.02c0.1-0.13,0.23-0.25,0.37-0.34c-0.3,0.26-0.74,0.37-1.11,0.24                    c-0.37-0.13-0.65-0.53-0.6-0.92c0.03-0.27,0.24-0.5,0.48-0.6c-0.51,0.02-1.03-0.12-1.46-0.39                    C145.56,61.13,145.28,60.84,145.4,60.48z"/>
																	</g>
																</g>
															</g>
														</g>
													</g>
												</g>
											</g>
										</g>
									</g>
								</g>
							</g>
						</g>
					</g>
					<g>
						<g>
							<g>
								<g>
									<polygon class="st20" points="153.13,103.48 147.82,103.87 147.82,108.95 153.82,109.66          "/>
								</g>
							</g>
						</g>
						<g>
							<g>
								<g>
									<path class="st31" d="M169.97,83.58c2.62,1.08,5.05,3.4,4.89,6.42c-0.24,4.47-1.28,14.05-1.53,16.52           c-0.32,3.22-1.41,5.94-6.15,6.12c-4.74,0.18-11.72-0.97-11.72-0.97s-2.51,1.27-3.21-0.13c-0.18-0.37-1.43-7.88-1.43-7.88           c0-0.1,0.62-0.81,1.49-1.25c1-0.5,2.21-0.12,2.76,0.85l0,0l9.25-0.3l1.83-8.7"/>
								</g>
							</g>
						</g>
						<g>
							<g>
								<polygon class="st17" points="118.59,91.73 118.8,91.3 135.98,92.82 149.71,104.85 129.8,102.64         "/>
							</g>
						</g>
						<g>
							<g>
								<polygon class="st2" points="118.23,92.09 118.44,91.66 135.62,93.18 149.35,105.21 129.44,103         "/>
							</g>
						</g>
						<g>
							<g>
								<polygon class="st22" points="132.8,93.47 132.83,93.4 135.52,93.64 137.68,95.52 134.55,95.18         "/>
							</g>
						</g>
						<g>
							<g>
								<g>
									<path class="st20" d="M125.63,97.01c-0.04,0-1.23-0.11-1.51,0.4c-0.29,0.52-0.32,0.8-0.2,1.11           c0.12,0.31,0.69,0.96,0.69,0.96l0.19,0.36c0,0-0.38,0.77-0.19,1.41c0.19,0.63,0.77,1.02,0.77,1.02s0.1,1.55,1.04,1.56           c0,0,0.24,0.88,1.11,0.86c0.87-0.02,1.3,0.2,2.26-0.3c0.96-0.5,2.08-0.99,2.32-1.49c0.25-0.5-0.61-0.55-0.61-0.55           s0.47-1.28-1.04-1.11c0,0,0.17-1.32-0.79-1.48c-0.96-0.16-2.92-0.04-2.92-0.04l-0.77-0.93c0,0,0.56-0.16,0.59-0.66           C126.61,97.64,126.08,97.03,125.63,97.01z"/>
								</g>
							</g>
						</g>
						<g>
							<g>
								<g>
									<path class="st20" d="M145.26,102.06c-0.1,0.03-1.25,0.55-2.02,0.45c-0.77-0.1-6.75-3.37-7.61-3.63           c-0.87-0.26-2.35,0-1.28,1.12c1.06,1.12,4.34,2.96,4.4,3.05c0.06,0.1,0.19,0.62,0.19,0.62l-3.34-1.26           c0,0-2.44-1.22-2.83-0.48c-0.39,0.74,0.19,1.16,0.8,1.35c0.61,0.19,1.28,0.4,1.28,0.4s0.71,1.31,1.41,1.82           c0.71,0.51,3.92,2.57,4.47,2.79c0.55,0.22,7.13,0.74,7.26,0.64c0.05-0.03,2.21-2.94,2.21-3.72c0-1.45-2.21-1.19-2.21-1.19           l-2.31-2.09L145.26,102.06z"/>
								</g>
							</g>
						</g>
					</g>
				</g>
				<g>
					<path class="st37" d="M150.51,128.78c-1.73-0.89,0.33-7.97,0.35-8.04c2.09-6.68,8.56-17.49,28.3-14.83l-0.27,2.01       c-9.79-1.32-17.16,0.69-21.91,5.96c-4.81,5.33-5.35,12.54-5.09,13.61c-0.02-0.09-0.14-0.36-0.45-0.51L150.51,128.78z"/>
				</g>
			</g>
			<path class="st37" d="M179.94,110.44l-3.68,16.81l-24.19,0.02l0,3.19l24.35-0.03C178.49,124.11,179.71,117.4,179.94,110.44z"/>
		</g>
	</g>
</g>
</svg>