<?xml version="1.0" encoding="utf-8"?>
<!-- Generator: Adobe Illustrator 28.1.0, SVG Export Plug-In . SVG Version: 6.00 Build 0)  -->
<svg version="1.1" id="Layer_1" xmlns="http://www.w3.org/2000/svg" xmlns:xlink="http://www.w3.org/1999/xlink" x="0px" y="0px"
	 viewBox="0 0 216 216" style="enable-background:new 0 0 216 216;" xml:space="preserve">
<style type="text/css">
	.st0{fill:#FFFAEB;}
	.st1{fill:#FFE199;}
	.st2{fill:#FFB400;}
	.st3{fill:#646464;}
	.st4{fill:#FFCA4C;}
	.st5{fill:none;stroke:#FFB400;stroke-width:1.905;stroke-linecap:round;stroke-linejoin:round;stroke-miterlimit:10;}
	.st6{fill:#FFFFFF;}
	.st7{fill:#FFFFFF;stroke:#FFCA4C;stroke-width:1.905;stroke-linecap:round;stroke-linejoin:round;stroke-miterlimit:10;}
	.st8{fill:none;stroke:#FFE199;stroke-width:1.905;stroke-linecap:round;stroke-linejoin:round;stroke-miterlimit:10;}
	.st9{fill:#FDEDBF;}
	.st10{fill:#C5C5C5;}
	.st11{fill:#F2F2F2;}
	.st12{fill:#FFE8B2;}
	.st13{fill:#FFF0CC;}
	.st14{fill:#FFF7E5;}
	.st15{fill:#FFD166;}
	.st16{fill:#FFC233;}
	.st17{fill:#FFD980;}
	.st18{fill:#C1E6FA;}
	.st19{fill:#D4EDFB;}
	.st20{fill:#FDD094;}
	.st21{fill:#006EE8;}
	.st22{fill:#737373;}
	.st23{fill:#007CFF;}
	.st24{fill:#197DEA;}
	.st25{opacity:0.1;}
	.st26{opacity:0.2;}
	.st27{fill:#FFCC54;}
	.st28{fill:#E7DCEE;}
	.st29{fill:#7D39AD;}
	.st30{fill:#EBF9FF;}
	.st31{fill:#97D200;}
	.st32{fill:#E2EFD1;}
	.st33{fill:#00A0B5;}
	.st34{fill:#BEECF0;}
	.st35{fill:#FF4444;}
	.st36{fill:#FFE6E6;}
	.st37{fill:#C18300;}
	.st38{fill:#F3E6CF;}
	.st39{fill:#008000;}
	.st40{fill:#006EE9;}
	.st41{fill:#EAB888;}
	.st42{fill:#FFD296;}
	.st43{fill:#FF5757;}
	.st44{fill:#FF6969;}
	.st45{fill:#FABE82;}
	.st46{fill:#FAFAFA;}
	.st47{fill:#C8C8C8;}
	.st48{fill:#A1D619;}
	.st49{fill:#FF9C6A;}
	.st50{fill:#66B366;}
	.st51{fill:#FDB002;}
	.st52{fill:#FFB300;}
	.st53{fill:#FF735D;}
	.st54{fill:#E1E1E1;}
	.st55{opacity:0.15;fill:#FFFFFF;}
	.st56{fill:#F4F4F4;}
	.st57{fill:#ECDAB2;}
	.st58{fill:#33B3C4;}
</style>
<g>
	<path class="st0" d="M108,180L108,180c-39.76,0-72-32.24-72-72v0c0-39.76,32.24-72,72-72h0c39.76,0,72,32.24,72,72v0
		C180,147.76,147.76,180,108,180z"/>
	<g>
		<g>
			<path class="st12" d="M89.69,41.31c-0.69,0-1.25,0.56-1.25,1.25v2.17h2.5v-2.17C90.94,41.86,90.38,41.31,89.69,41.31z
				 M89.69,43.13c-0.22,0-0.39-0.18-0.39-0.39c0-0.22,0.18-0.39,0.39-0.39s0.39,0.18,0.39,0.39C90.08,42.96,89.91,43.13,89.69,43.13
				z"/>
		</g>
		<path class="st12" d="M39.84,84.8h56.91v-40.9H75.23C58.71,52.36,45.9,67.01,39.84,84.8z"/>
		<path class="st13" d="M40.47,82.99h54.48V45.7H71.93C57.55,54.04,46.32,67.21,40.47,82.99z"/>
		<path class="st12" d="M39.31,86.38h58.66v-2.85H40.27C39.93,84.47,39.61,85.42,39.31,86.38z"/>
		<g>
			<g>
				<rect x="86.83" y="51.45" class="st14" width="3.12" height="28.28"/>
				<rect x="82.47" y="51.45" class="st14" width="3.12" height="28.28"/>
				<rect x="78.1" y="51.45" class="st14" width="3.12" height="28.28"/>
				<rect x="73.74" y="51.45" class="st14" width="3.12" height="28.28"/>
				<rect x="69.37" y="51.45" class="st14" width="3.12" height="28.28"/>
			</g>
		</g>
		<g>
			<rect x="86.83" y="56.65" class="st15" width="3.12" height="23.08"/>
			<rect x="82.47" y="63.73" class="st16" width="3.12" height="15.99"/>
			<rect x="78.1" y="61.14" class="st15" width="3.12" height="18.59"/>
			<rect x="73.74" y="58.02" class="st17" width="3.12" height="21.71"/>
			<rect x="69.37" y="62.82" class="st1" width="3.12" height="16.91"/>
		</g>
		<g>
			<path class="st17" d="M55.01,68.87v-9.59c-3.85,4.19-7.2,8.84-9.99,13.85c1.66,3.88,5.5,6.6,9.99,6.6c3.13,0,5.94-1.33,7.92-3.45
				L55.01,68.87z"/>
			<path class="st15" d="M60.11,59.29l-5.11,9.58h10.86C65.86,64.72,63.53,61.12,60.11,59.29z"/>
			<path class="st1" d="M56.15,58.09c-0.38,0.4-0.77,0.79-1.14,1.19v9.59l5.11-9.58C58.91,58.65,57.57,58.24,56.15,58.09z"/>
			<path class="st16" d="M65.57,71.36c0.19-0.8,0.3-1.63,0.3-2.49H55.01L65.57,71.36z"/>
			<path class="st12" d="M55.01,68.87l7.92,7.41c1.27-1.36,2.2-3.05,2.64-4.92L55.01,68.87z"/>
		</g>
	</g>
	<g>
		<g>
			<g>
				<path class="st18" d="M180,108L180,108c0-6.31-0.82-12.44-2.35-18.27c-7.63,0.01-16.8,0.02-17.77,0
					c-0.75-0.01-1.51,0.32-2.01,1.16c-8.72,14.51-12.34,31.67-10.48,48.43c-9.33-0.03-23.64-0.07-28.35,0.04
					c-6.13,0.15-12.25,0.99-18.21,2.51c-4.26,1.09-2.83,7.33,1.12,7.15c0.14-0.01,19.29,0,37.83,0v23.59
					c1.8-0.89,3.55-1.84,5.26-2.86c0,0,0,0,0,0v-20.72c8.62,0,16.68,0,22.11,0C175.25,137.38,180,123.25,180,108z"/>
				<path class="st19" d="M171.91,141.15c-12.36-2.65-25.32-2.41-37.57,0.71c-4.55,1.16-2.61,8.19,1.94,7.03
					c10.35-2.64,21.23-3,31.72-1.09C169.42,145.66,170.72,143.44,171.91,141.15z"/>
			</g>
			<g>
				<path class="st3" d="M138.34,59.9c0,0-4.4-0.43-3.03-6.97c1.37-6.54,1.25-12.76,10.97-12.05c0,0,7.7-1.93,9.87,5.31
					c2.18,7.24,5.41,12.36,0.25,14.49c-6.45,2.66-8.07-3.26-8.07-3.26l-9.43,0.91L138.34,59.9z"/>
				<path class="st20" d="M136.9,69.48c-5.62-0.8-2.86,18.64-7.89,22.13c-2.76,1.92-16.68-3.23-16.68-3.23l-1.96-6.28
					c-0.1-0.33-0.34-0.59-0.65-0.71l-2.9-1.15c-0.83-0.33-1.68,0.42-1.48,1.31l1.04,4.63c0.05,0.2,0.14,0.38,0.28,0.53L110.7,91
					c0,0,16.59,8.05,20.64,6.71c4.69-1.55,6.43-10.09,7.59-15.18C139.79,78.74,141.15,70.08,136.9,69.48z"/>
				<path class="st21" d="M129.68,90.99c0,0,2.44,2.08,5.12,3.74c3.71-4.65,8.35-24.46,2.1-25.26
					C130.98,69.48,132.79,87.63,129.68,90.99z"/>
				<path class="st22" d="M146.81,107.2h-7.68c0,0-2.02,5.24-2.43,10.7c-0.4,5.46,10.11,1.42,10.11,1.42l0.92-7.49L146.81,107.2z"/>
				<path class="st20" d="M89.32,177.54c1.56,0.42,3.13,0.78,4.73,1.1l3.78-11.05l-5.87-2.02L89.32,177.54z"/>
				<path class="st22" d="M162.13,106.5c0,0,7.83,13.09,6.48,24.02c-1.35,10.93-11.46,16.71-50.32-1.91c0,0-7.97,8.25-21.19,43.6
					l-6.75-2.02c0,0,7.62-40.87,14.44-52.49c6.88-11.74,37.11,2.02,39.4-0.27c2.04-2.04,0.27-10.12,0.27-10.12L162.13,106.5z"/>
				<path class="st23" d="M163.88,71.39l-26.13-1.93c-1.67-0.12-3.05,1.28-2.89,2.94c0,0,0.56,3.46,0.47,4.62
					c-0.24,2.92-1.81,7.29-1.29,9.28c0.42,1.6,2.1,3.41,2.76,5.2c1.44,3.89,1.67,16.51,1.67,16.51c8.91,1.44,24.74-0.7,24.74-0.7
					c-3.55-12.81,1.49-26.81,3.12-32.98C166.57,73.43,164.8,71.46,163.88,71.39z"/>
				<path class="st24" d="M163.88,71.39l-26.13-1.93c-1.67-0.12-3.05,1.28-2.89,2.94c0,0,0.56,3.46,0.47,4.62
					c-0.24,2.92-1.81,7.29-1.29,9.28c0.42,1.6,2.1,3.41,2.76,5.2c1.44,3.89,1.67,16.51,1.67,16.51c8.91,1.44,24.74-0.7,24.74-0.7
					c-3.55-12.81,1.26-26,2.89-32.17C166.34,74.25,164.8,71.46,163.88,71.39z"/>
				<path class="st25" d="M161.19,86.64l-9.51,9.74l-13.56,2.73l-0.09,0.02c0.13,1.5,0.22,3,0.28,4.33
					c3.76-0.01,16.01-0.27,19.54-3.34c1.75-1.53,3.21-3.81,4.31-5.96c0.17-2.24,0.47-4.43,0.85-6.52L161.19,86.64z"/>
				<path class="st26" d="M113.85,132.27l-2.13-1.64c0,0-7.49,4.05-3.76,15.6c0,0,0,0,0,0c2.71-5.65,4.93-9.63,6.61-12.36
					L113.85,132.27z"/>
				<path class="st22" d="M118.29,128.6c0,0-9.12,0.12-9.73,6.9c-0.43,4.75,7.29,29.18,11.95,43.39c3.31-0.58,6.53-1.38,9.67-2.39
					c-1.36-14.03-3.54-35.52-4.22-37.15h20.34C139.25,137.66,130.11,134.27,118.29,128.6z"/>
				<path class="st26" d="M118.29,128.6c0,0-1.39,0.02-3.12,0.45c1.67,1.48,7.56,6.38,16.48,10.3h14.67
					C139.25,137.66,130.11,134.27,118.29,128.6z"/>
				<path class="st20" d="M152.29,58.7l-6.01,5.9c1.01,4.85-2.55,5.31-2.55,5.31s0.29,1.71,4.64,1.47c4.36-0.23,5.78-0.69,5.78-0.69
					C151.53,68.59,151.91,62.21,152.29,58.7z"/>
				<path class="st25" d="M146.34,67.33c0.16-0.71,0.18-1.59-0.05-2.73l5.36-5.27l0.53,0.61C152.17,59.94,151.09,66.65,146.34,67.33
					z"/>
				<path class="st20" d="M152.79,50.88c0.44,5.79,0.75,8.23-1.74,11.57c-3.75,5.03-10.95,4.31-13.11-1.23
					c-1.95-4.98-2.34-13.6,2.96-16.66c3.77-2.21,8.62-0.93,10.83,2.84C152.35,48.46,152.71,49.65,152.79,50.88z"/>
				<path class="st20" d="M140.98,56.73c-0.27,1.12-0.69,2.21-1.25,3.21c0.53,0.28,1.15,0.31,1.71,0.09L140.98,56.73z"/>
				<path class="st20" d="M145.36,52.78c0.04-0.01,0.07-0.04,0.1-0.07c0.08-0.1,0.07-0.24-0.03-0.32c0,0,0,0,0,0
					c-0.66-0.58-1.56-0.8-2.41-0.6c-0.12,0.04-0.19,0.17-0.15,0.29c0.04,0.12,0.16,0.19,0.28,0.15c0.71-0.16,1.44,0.03,1.99,0.51
					C145.2,52.8,145.29,52.81,145.36,52.78z"/>
				<path class="st20" d="M136.81,53.58c0.04-0.01,0.07-0.04,0.1-0.07c0.46-0.55,1.16-0.84,1.88-0.79c0.13,0.02,0.24-0.06,0.26-0.19
					c0,0,0,0,0,0c0.02-0.13-0.07-0.24-0.2-0.26c-0.87-0.08-1.73,0.27-2.3,0.94c-0.09,0.09-0.09,0.24,0.01,0.33
					C136.63,53.6,136.73,53.61,136.81,53.58L136.81,53.58z"/>
				<g>
					<path class="st20" d="M144.18,55.5c0.07,0.46-0.13,0.88-0.44,0.92c-0.31,0.05-0.6-0.3-0.66-0.77
						c-0.06-0.47,0.13-0.88,0.43-0.92C143.81,54.69,144.11,55.03,144.18,55.5z"/>
					<path class="st20" d="M138.89,56.23c0.07,0.46-0.13,0.88-0.43,0.92c-0.3,0.04-0.6-0.3-0.67-0.77
						c-0.07-0.47,0.13-0.88,0.43-0.92C138.53,55.42,138.83,55.76,138.89,56.23z"/>
					<path class="st20" d="M138.36,55.47l-1.17-0.17C137.2,55.31,137.9,56.1,138.36,55.47z"/>
					<path class="st20" d="M143.64,54.74l-1.17-0.17C142.48,54.58,143.18,55.37,143.64,54.74z"/>
				</g>
				<path class="st20" d="M144.54,60.24c0.09-0.16,0.17-0.34,0.24-0.51c0.02-0.06,0-0.12-0.06-0.15c0,0,0,0,0,0
					c-0.06-0.02-0.12,0.01-0.15,0.07c-0.32,0.91-1.06,1.62-1.99,1.9c-0.06,0.01-0.1,0.07-0.09,0.13c0.01,0.06,0.07,0.1,0.13,0.09
					C143.45,61.54,144.14,60.99,144.54,60.24z"/>
				<path class="st3" d="M148.34,42.45c-3.72-0.92-7.56,1.02-7.56,1.02s-4.3,3.82-3.32,7.52c0,0,0.49-0.42,1.52-0.73
					c-0.06-1,0.02-2.76,1.09-3.93c0,0-0.42,2.01,0.14,3.67c1.29-0.17,3.04-0.1,5.31,0.63c0,0,0.74-1.53,0-4.86
					c0,0,1.43,2.23,1.48,5.67c0.05,3.44,4.45,4.27,4.45,4.27s2.76-0.3,2.73-4C154.15,48.02,152.05,43.38,148.34,42.45z"/>
				<path class="st20" d="M154.78,55.23c-0.17,1.11-0.78,2.1-1.68,2.77c-1.21,0.87-2.32-0.09-2.41-1.49
					c-0.08-1.26,0.44-3.24,1.86-3.55c1.04-0.2,2.04,0.49,2.24,1.53C154.83,54.73,154.83,54.98,154.78,55.23z"/>
				<path class="st20" d="M164.23,72.48c-2.74-0.93-5.08,8.46-6.66,11.73c-0.65,1.35-1.69,4.37-2.47,6.77
					c-0.69,2.1-2.34,3.7-4.41,4.29l-14.67,4.16l-5.96-1.79c-0.45-0.13-0.93-0.06-1.31,0.21l-3,2.04c-0.44,0.3-0.71,0.81-0.71,1.36
					l0,0c0,0.95,0.78,1.69,1.7,1.62l8.86-0.7c0,0,14.29,0.83,20.56-2.67C162.43,95.98,168.99,74.1,164.23,72.48z"/>
				<path class="st21" d="M154.48,92.33c0,0,3.39,0.77,5.46,3.14c1.3-1.1,10.42-21.4,4.68-24C160.33,70.29,155.1,90.2,154.48,92.33z
					"/>
			</g>
		</g>
		<g>
			<path class="st22" d="M154.61,107.31h-51.55c-0.78,0-1.41,0.63-1.41,1.41s0.63,1.41,1.41,1.41h51.55c0.78,0,1.41-0.63,1.41-1.41
				S155.38,107.31,154.61,107.31z"/>
			<path class="st27" d="M154.61,107.31h-51.55c-0.78,0-1.41,0.63-1.41,1.41s0.63,1.41,1.41,1.41h51.55c0.78,0,1.41-0.63,1.41-1.41
				S155.38,107.31,154.61,107.31z"/>
			<g>
				<g>
					<path class="st27" d="M103.82,109.27h17.62c0.46,0,0.78-0.45,0.63-0.89l-9.66-27.6c-0.27-0.76-0.98-1.27-1.79-1.27H93
						c-0.46,0-0.78,0.45-0.63,0.89l9.66,27.6C102.3,108.76,103.02,109.27,103.82,109.27z"/>
				</g>
			</g>
			<g>
				<path class="st2" d="M102.97,109.27h17.62c0.46,0,0.78-0.45,0.63-0.89l-9.66-27.6c-0.27-0.76-0.98-1.27-1.79-1.27H92.15
					c-0.46,0-0.78,0.45-0.63,0.89l9.66,27.6C101.45,108.76,102.17,109.27,102.97,109.27z"/>
			</g>
			<path class="st6" d="M104.94,94.39c0.22,1.06,0.96,1.92,1.63,1.92c0.68,0,1.04-0.86,0.82-1.92c-0.22-1.06-0.96-1.92-1.63-1.92
				C105.09,92.47,104.72,93.33,104.94,94.39z"/>
			<path class="st2" d="M123.71,110.13c-0.78,0-1.41-0.63-1.41-1.41s0.63-1.41,1.41-1.41h30.9c0.78,0,1.41,0.63,1.41,1.41
				s-0.63,1.41-1.41,1.41H123.71z"/>
		</g>
		<path class="st12" d="M63.61,115.11h116.04c0.16-1.68,0.25-3.39,0.3-5.1h-5.96H36.05c0.05,1.72,0.14,3.42,0.3,5.1h22.9l3.29,48.72
			c1.2,0.98,2.44,1.91,3.71,2.82L63.61,115.11z"/>
	</g>
</g>
</svg>
