<svg xmlns="http://www.w3.org/2000/svg" id="Layer_1" viewBox="36 36 144 144"><rect x="36" y="36" width="144" height="144" rx="72" ry="72" fill="#fffaeb" stroke-width="0"/><path d="M78.75,72.95c-.53,0-.95-.43-.95-.95v-9c0-.53.43-.95.95-.95s.95.43.95.95v9c0,.53-.43.95-.95.95Z" fill="#646464" stroke-width="0"/><path d="M118.8,63h32.4c.99,0,1.8.81,1.8,1.8v97.2h-36v-97.2c0-.99.81-1.8,1.8-1.8Z" fill="#ffe199" stroke-width="0"/><path d="M64.8,72h27.9c.99,0,1.8.81,1.8,1.8v88.2h-31.5v-88.2c0-.99.81-1.8,1.8-1.8Z" fill="#ffe199" stroke-width="0"/><rect x="126" y="76.5" width="4.5" height="9" rx=".9" ry=".9" fill="#fffaeb" stroke-width="0"/><rect x="139.5" y="76.5" width="4.5" height="9" rx=".9" ry=".9" fill="#fffaeb" stroke-width="0"/><rect x="139.5" y="94.5" width="4.5" height="9" rx=".9" ry=".9" fill="#fffaeb" stroke-width="0"/><rect x="126" y="94.5" width="4.5" height="9" rx=".9" ry=".9" fill="#fffaeb" stroke-width="0"/><rect x="139.5" y="112.5" width="4.5" height="9" rx=".9" ry=".9" fill="#fffaeb" stroke-width="0"/><rect x="126" y="112.5" width="4.5" height="9" rx=".9" ry=".9" fill="#fffaeb" stroke-width="0"/><rect x="139.5" y="130.5" width="4.5" height="9" rx=".9" ry=".9" fill="#fffaeb" stroke-width="0"/><rect x="126" y="130.5" width="4.5" height="9" rx=".9" ry=".9" fill="#fffaeb" stroke-width="0"/><path d="M94.5,76.5h-31.5s0-3.6,0-3.6c0-.5.4-.9.9-.9h29.7c.5,0,.9.4.9.9v3.6Z" fill="#ffca4c" stroke-width="0"/><line x1="69.75" y1="83.25" x2="87.75" y2="83.25" fill="#fff" stroke="#ffca4c" stroke-linecap="round" stroke-linejoin="round" stroke-width="1.9"/><line x1="69.75" y1="92.25" x2="87.75" y2="92.25" fill="#fff" stroke="#ffca4c" stroke-linecap="round" stroke-linejoin="round" stroke-width="1.9"/><line x1="69.75" y1="101.25" x2="87.75" y2="101.25" fill="#fff" stroke="#ffca4c" stroke-linecap="round" stroke-linejoin="round" stroke-width="1.9"/><line x1="69.75" y1="110.25" x2="87.75" y2="110.25" fill="#fff" stroke="#ffca4c" stroke-linecap="round" stroke-linejoin="round" stroke-width="1.9"/><line x1="69.75" y1="119.25" x2="87.75" y2="119.25" fill="#fff" stroke="#ffca4c" stroke-linecap="round" stroke-linejoin="round" stroke-width="1.9"/><line x1="69.75" y1="128.25" x2="87.75" y2="128.25" fill="#fff" stroke="#ffca4c" stroke-linecap="round" stroke-linejoin="round" stroke-width="1.9"/><line x1="69.75" y1="137.25" x2="87.75" y2="137.25" fill="#fff" stroke="#ffca4c" stroke-linecap="round" stroke-linejoin="round" stroke-width="1.9"/><line x1="69.75" y1="146.25" x2="87.75" y2="146.25" fill="#fff" stroke="#ffca4c" stroke-linecap="round" stroke-linejoin="round" stroke-width="1.9"/><polygon points="87.75 99 126 90 126 162 87.75 162 87.75 99" fill="#ffb400" stroke-width="0"/><line x1="96.19" y1="103.76" x2="96.19" y2="162" fill="none" stroke="#ffe199" stroke-linecap="round" stroke-linejoin="round" stroke-width="1.9"/><line x1="103.5" y1="102.04" x2="103.5" y2="162" fill="none" stroke="#ffe199" stroke-linecap="round" stroke-linejoin="round" stroke-width="1.9"/><line x1="110.81" y1="100.32" x2="110.81" y2="162" fill="none" stroke="#ffe199" stroke-linecap="round" stroke-linejoin="round" stroke-width="1.9"/><line x1="118.12" y1="98.6" x2="118.12" y2="162" fill="none" stroke="#ffe199" stroke-linecap="round" stroke-linejoin="round" stroke-width="1.9"/><path d="M162,163.27H54c-.7,0-1.27-.57-1.27-1.27s.57-1.27,1.27-1.27h108c.7,0,1.27.57,1.27,1.27s-.57,1.27-1.27,1.27Z" stroke-width="0"/><path d="M124.89,85.76l-36.45,8.58c-.41.1-.69.46-.69.88v6.04l38.25-9v-5.61c0-.58-.54-1.01-1.11-.88Z" fill="#646464" stroke-width="0"/></svg>