<svg xmlns="http://www.w3.org/2000/svg" id="Layer_1" viewBox="65.47 73.45 85.07 69.1"><path d="M92.06,83.35v-1.04c0-4.89,3.97-8.86,8.86-8.86h14.17c4.89,0,8.86,3.97,8.86,8.86v1.04h-5.31v-1.04c0-1.96-1.59-3.54-3.54-3.54h-14.17c-1.96,0-3.54,1.59-3.54,3.54v1.04h-5.31ZM136.35,116.7h-56.69c-5.99,0-11.23-3.18-14.17-7.94v26.7c0,3.91,3.17,7.09,7.09,7.09h70.87c3.91,0,7.09-3.17,7.09-7.09v-26.7c-2.94,4.75-8.19,7.94-14.17,7.94ZM143.43,85.85h-70.87c-3.91,0-7.09,3.17-7.09,7.09v7.09c0,7.83,6.35,14.17,14.17,14.17h56.69c7.83,0,14.17-6.35,14.17-14.17v-7.09c0-3.91-3.17-7.09-7.09-7.09" fill="#ffb400" stroke-width="0"/></svg>