<svg xmlns="http://www.w3.org/2000/svg" id="Layer_1" viewBox="52.35 52.35 111.3 111.3"><path d="M108,52.35c-30.69,0-55.65,24.96-55.65,55.65s24.96,55.65,55.65,55.65,55.65-24.96,55.65-55.65-24.97-55.65-55.65-55.65ZM108,158.65c-27.93,0-50.65-22.72-50.65-50.65s22.72-50.65,50.65-50.65,50.65,22.72,50.65,50.65-22.72,50.65-50.65,50.65Z" stroke-width="0"/><path d="M108,88.78c-.25,0-.5-.05-.73-.13-.22-.1-.42-.25-.6-.42-.18-.17-.32-.37-.4-.6-.1-.22-.15-.47-.15-.72,0-.48.2-.98.55-1.33.17-.17.37-.3.6-.4.48-.2.98-.2,1.45,0,.23.1.42.23.6.4.35.35.55.85.55,1.33,0,.25-.05.5-.15.72-.1.23-.22.43-.4.6s-.37.32-.6.42c-.25.08-.47.13-.73.13ZM120.6,76.96c.73-.73.73-1.92,0-2.65-6.95-6.95-18.25-6.95-25.2,0-.73.73-.73,1.92,0,2.65.73.73,1.92.73,2.65,0,5.49-5.49,14.41-5.49,19.9,0,.37.37.84.55,1.33.55s.96-.18,1.33-.55ZM103.69,82.6c2.38-2.38,6.25-2.37,8.62,0,.73.73,1.92.73,2.65,0s.73-1.92,0-2.65c-3.84-3.84-10.09-3.84-13.93,0-.73.73-.73,1.92,0,2.65.37.37.84.55,1.33.55s.96-.18,1.33-.55Z" stroke-width="0"/><path d="M138.12,94c0,2.94-2.38,5.31-5.31,5.31s-5.31-2.38-5.31-5.31,2.38-5.31,5.31-5.31,5.31,2.38,5.31,5.31ZM132.8,100.63c-5.87,0-10.63,4.76-10.63,10.63h0c0,2.94,1.19,5.59,3.11,7.52l7.52,7.51,7.52-7.51c1.92-1.92,3.11-4.58,3.11-7.52h0c0-5.87-4.76-10.63-10.63-10.63h0ZM88.51,94c0,2.94-2.38,5.31-5.31,5.31s-5.31-2.38-5.31-5.31,2.38-5.31,5.31-5.31,5.31,2.38,5.31,5.31ZM83.2,100.63c-5.87,0-10.63,4.76-10.63,10.63h0c0,2.94,1.19,5.59,3.11,7.52l7.52,7.51,7.52-7.51c1.92-1.92,3.11-4.58,3.11-7.52h0c0-5.87-4.76-10.63-10.63-10.63h0Z" stroke-width="0"/><path d="M115.09,102.85c0,3.91-3.17,7.09-7.09,7.09s-7.09-3.17-7.09-7.09,3.17-7.09,7.09-7.09,7.09,3.17,7.09,7.09ZM108,111.7c-7.83,0-14.17,6.35-14.17,14.17h0c0,3.91,1.59,7.46,4.15,10.02l10.02,10.02,10.02-10.02c2.57-2.56,4.15-6.11,4.15-10.02h0c0-7.83-6.35-14.17-14.17-14.17h0Z" fill="#ffb400" stroke-width="0"/></svg>