<?xml version="1.0" encoding="UTF-8"?><svg id="Layer_1" xmlns="http://www.w3.org/2000/svg" viewBox="0 0 216 216"><path d="M108,61.81c-8.81,0-15.94,7.14-15.94,15.94s7.14,15.94,15.94,15.94,15.94-7.14,15.94-15.94-7.14-15.94-15.94-15.94ZM123.39,101.62v12.21c2.28.56,3.99,2.61,3.99,5.07,0,2.89-2.35,5.23-5.24,5.23s-5.24-2.35-5.24-5.23c0-2.46,1.7-4.51,3.99-5.07v-13.44c-1.42-.63-2.89-1.14-4.4-1.56l-7.01,10.72c-.7,1.07-2.27,1.07-2.97,0l-7.01-10.72c-1.51.42-2.99.93-4.4,1.56v9.42c4.49.62,7.97,4.44,7.97,9.1,0,2.89-2.35,5.23-5.24,5.23-.69,0-1.25-.56-1.25-1.25s.56-1.25,1.25-1.25c1.51,0,2.74-1.23,2.74-2.73,0-3.71-3.02-6.72-6.72-6.72s-6.72,3.02-6.72,6.72c0,1.51,1.23,2.73,2.74,2.73.69,0,1.25.56,1.25,1.25s-.56,1.25-1.25,1.25c-2.89,0-5.24-2.35-5.24-5.23,0-4.66,3.48-8.48,7.97-9.1v-8.19c-9.83,5.43-16.5,15.9-16.5,27.92v14.02c0,5.87,4.76,10.63,10.63,10.63h42.53c5.87,0,10.63-4.76,10.63-10.63v-14.02c0-12.03-6.66-22.49-16.5-27.92ZM129.26,139.5h-4.06v4.06c0,.69-.56,1.25-1.25,1.25s-1.25-.56-1.25-1.25v-4.06h-4.06c-.69,0-1.25-.56-1.25-1.25s.56-1.25,1.25-1.25h4.06v-4.08c0-.69.56-1.25,1.25-1.25s1.25.56,1.25,1.25v4.08h4.06c.69,0,1.25.56,1.25,1.25s-.56,1.25-1.25,1.25ZM122.14,116.17c1.51,0,2.74,1.23,2.74,2.74s-1.23,2.73-2.74,2.73-2.74-1.23-2.74-2.73,1.23-2.74,2.74-2.74Z" fill="#ffb400" stroke-width="0"/></svg>