<?xml version="1.0" encoding="UTF-8"?><svg id="Layer_1" xmlns="http://www.w3.org/2000/svg" viewBox="0 0 216 216"><path d="M150.52,93.38h-19.49v-25.69c0-.98-.79-1.77-1.77-1.77h-42.52c-.98,0-1.77.79-1.77,1.77v25.69h-19.49c-.98,0-1.77.79-1.77,1.77v54.92h31.89v-15.94c0-.98.79-1.77,1.77-1.77h3.54c.98,0,1.77.79,1.77,1.77v15.94h10.63v-15.94c0-.98.79-1.77,1.77-1.77h3.54c.98,0,1.77.79,1.77,1.77v15.94h31.89v-54.92c0-.98-.79-1.77-1.77-1.77ZM77.88,137.68c0,.98-.79,1.77-1.77,1.77h-3.54c-.98,0-1.77-.79-1.77-1.77v-3.54c0-.98.79-1.77,1.77-1.77h3.54c.98,0,1.77.79,1.77,1.77v3.54ZM77.88,123.5c0,.98-.79,1.77-1.77,1.77h-3.54c-.98,0-1.77-.79-1.77-1.77v-3.54c0-.98.79-1.77,1.77-1.77h3.54c.98,0,1.77.79,1.77,1.77v3.54ZM77.88,109.33c0,.98-.79,1.77-1.77,1.77h-3.54c-.98,0-1.77-.79-1.77-1.77v-3.54c0-.98.79-1.77,1.77-1.77h3.54c.98,0,1.77.79,1.77,1.77v3.54ZM102.69,123.5c0,.98-.79,1.77-1.77,1.77h-3.54c-.98,0-1.77-.79-1.77-1.77v-3.54c0-.98.79-1.77,1.77-1.77h3.54c.98,0,1.77.79,1.77,1.77v3.54ZM102.69,109.33c0,.98-.79,1.77-1.77,1.77h-3.54c-.98,0-1.77-.79-1.77-1.77v-3.54c0-.98.79-1.77,1.77-1.77h3.54c.98,0,1.77.79,1.77,1.77v3.54ZM102.69,95.16c0,.98-.79,1.77-1.77,1.77h-3.54c-.98,0-1.77-.79-1.77-1.77v-3.54c0-.98.79-1.77,1.77-1.77h3.54c.98,0,1.77.79,1.77,1.77v3.54ZM102.69,80.98c0,.98-.79,1.77-1.77,1.77h-3.54c-.98,0-1.77-.79-1.77-1.77v-3.54c0-.98.79-1.77,1.77-1.77h3.54c.98,0,1.77.79,1.77,1.77v3.54ZM120.4,123.5c0,.98-.79,1.77-1.77,1.77h-3.54c-.98,0-1.77-.79-1.77-1.77v-3.54c0-.98.79-1.77,1.77-1.77h3.54c.98,0,1.77.79,1.77,1.77v3.54ZM120.4,109.33c0,.98-.79,1.77-1.77,1.77h-3.54c-.98,0-1.77-.79-1.77-1.77v-3.54c0-.98.79-1.77,1.77-1.77h3.54c.98,0,1.77.79,1.77,1.77v3.54ZM120.4,95.16c0,.98-.79,1.77-1.77,1.77h-3.54c-.98,0-1.77-.79-1.77-1.77v-3.54c0-.98.79-1.77,1.77-1.77h3.54c.98,0,1.77.79,1.77,1.77v3.54ZM120.4,80.98c0,.98-.79,1.77-1.77,1.77h-3.54c-.98,0-1.77-.79-1.77-1.77v-3.54c0-.98.79-1.77,1.77-1.77h3.54c.98,0,1.77.79,1.77,1.77v3.54ZM145.2,137.68c0,.98-.79,1.77-1.77,1.77h-3.54c-.98,0-1.77-.79-1.77-1.77v-3.54c0-.98.79-1.77,1.77-1.77h3.54c.98,0,1.77.79,1.77,1.77v3.54ZM145.2,123.5c0,.98-.79,1.77-1.77,1.77h-3.54c-.98,0-1.77-.79-1.77-1.77v-3.54c0-.98.79-1.77,1.77-1.77h3.54c.98,0,1.77.79,1.77,1.77v3.54ZM145.2,109.33c0,.98-.79,1.77-1.77,1.77h-3.54c-.98,0-1.77-.79-1.77-1.77v-3.54c0-.98.79-1.77,1.77-1.77h3.54c.98,0,1.77.79,1.77,1.77v3.54Z" fill="#ffb400" stroke-width="0"/></svg>