<?xml version="1.0" encoding="UTF-8"?><svg id="Layer_1" xmlns="http://www.w3.org/2000/svg" viewBox="0 0 216 216"><path d="M115.09,77.75c0,8.81-7.14,15.94-15.94,15.94s-15.94-7.14-15.94-15.94,7.14-15.94,15.94-15.94,15.94,7.14,15.94,15.94ZM131.03,104.59c-9.78,0-17.72,7.93-17.72,17.72s7.93,17.72,17.72,17.72,17.72-7.93,17.72-17.72-7.93-17.72-17.72-17.72ZM133.53,131.16c0,1.38-1.12,2.5-2.5,2.5s-2.5-1.12-2.5-2.5v-8.86c0-1.38,1.12-2.5,2.5-2.5s2.5,1.12,2.5,2.5v8.86ZM133.53,114.33c0,1.38-1.12,2.5-2.5,2.5s-2.5-1.12-2.5-2.5v-.88c0-1.38,1.12-2.5,2.5-2.5s2.5,1.12,2.5,2.5v.88ZM110.81,122.3c0-7.06,3.64-13.27,9.14-16.89-5.59-4.82-12.85-7.76-20.81-7.76h0c-17.61,0-31.89,14.28-31.89,31.89v14.02c0,5.87,4.76,10.63,10.63,10.63h42.52c5.87,0,10.63-4.76,10.63-10.63v-1.05c-11.15,0-20.22-9.07-20.22-20.22Z" fill="#ffb400" stroke-width="0"/></svg>