<?xml version="1.0" encoding="UTF-8"?><svg id="Layer_1" xmlns="http://www.w3.org/2000/svg" viewBox="0 0 216 216"><path d="M157.61,146.98c0,1.96-1.59,3.54-3.54,3.54H54.85c-1.96,0-3.54-1.59-3.54-3.54s1.59-3.54,3.54-3.54h99.21c1.96,0,3.54,1.59,3.54,3.54ZM163.76,71.98c-5.91-3.96-13.4-4.7-19.97-1.98l-10.77,4.46-33.81-8.36c-4.41-1.09-9.04-.74-13.24,1l-7.6,3.15c-1.46.6-1.46,2.67,0,3.27l33.08,13.7-39.07,20.02-11.59-1.76c-1.28-.19-2.58-.04-3.78.46l-1.66.69c-1.31.54-1.48,2.32-.31,3.11l15.33,10.27c1.97,1.32,4.47,1.57,6.66.66l74.88-31.02c6.57-2.72,11.34-8.54,12.72-15.52.16-.83-.19-1.68-.89-2.15Z" fill="#ffb400" stroke-width="0"/></svg>