<svg xmlns="http://www.w3.org/2000/svg" id="Layer_1" viewBox="52.35 52.35 111.3 111.3"><path d="M108,52.35c-30.69,0-55.65,24.96-55.65,55.65s24.96,55.65,55.65,55.65,55.65-24.96,55.65-55.65-24.96-55.65-55.65-55.65ZM108,158.65c-27.93,0-50.65-22.72-50.65-50.65s22.72-50.65,50.65-50.65,50.65,22.72,50.65,50.65-22.72,50.65-50.65,50.65Z" stroke-width="0"/><path d="M118.63,86.06c0,5.87-4.76,10.63-10.63,10.63s-10.63-4.76-10.63-10.63,4.76-10.63,10.63-10.63,10.63,4.76,10.63,10.63ZM129.26,120.59c0-11.74-9.52-21.26-21.26-21.26h0c-11.74,0-21.26,9.52-21.26,21.26v9.35c0,3.91,3.17,7.09,7.09,7.09h28.35c3.91,0,7.09-3.17,7.09-7.09v-9.35Z" fill="#ffb400" stroke-width="0"/><path d="M137.67,107.35c-.73-.73-1.92-.73-2.65,0l-12.85,12.85-5.76-5.76c-.73-.73-1.92-.73-2.65,0s-.73,1.92,0,2.65l7.09,7.09c.37.37.84.55,1.33.55s.96-.18,1.33-.55l14.17-14.17c.73-.73.73-1.92,0-2.65Z" stroke-width="0"/></svg>