<svg xmlns="http://www.w3.org/2000/svg" id="Layer_1" viewBox="81.42 65.47 53.16 85.05"><path d="M127.49,150.52h-38.98c-3.91,0-7.09-3.17-7.09-7.09v-70.87c0-3.91,3.17-7.09,7.09-7.09h38.98c3.91,0,7.09,3.17,7.09,7.09v70.87c0,3.91-3.17,7.09-7.09,7.09ZM127.49,95.6v-21.26c0-.98-.79-1.77-1.77-1.77h-35.43c-.98,0-1.77.79-1.77,1.77v21.26c0,.98.79,1.77,1.77,1.77h35.43c.98,0,1.77-.79,1.77-1.77ZM95.6,141.66v-3.54c0-.98-.79-1.77-1.77-1.77h-3.54c-.98,0-1.77.79-1.77,1.77v3.54c0,.98.79,1.77,1.77,1.77h3.54c.98,0,1.77-.79,1.77-1.77ZM106.23,141.66v-3.54c0-.98-.79-1.77-1.77-1.77h-3.54c-.98,0-1.77.79-1.77,1.77v3.54c0,.98.79,1.77,1.77,1.77h3.54c.98,0,1.77-.79,1.77-1.77ZM116.86,141.66v-3.54c0-.98-.79-1.77-1.77-1.77h-3.54c-.98,0-1.77.79-1.77,1.77v3.54c0,.98.79,1.77,1.77,1.77h3.54c.98,0,1.77-.79,1.77-1.77ZM127.49,141.66v-3.54c0-.98-.79-1.77-1.77-1.77h-3.54c-.98,0-1.77.79-1.77,1.77v3.54c0,.98.79,1.77,1.77,1.77h3.54c.98,0,1.77-.79,1.77-1.77ZM95.6,131.03v-3.54c0-.98-.79-1.77-1.77-1.77h-3.54c-.98,0-1.77.79-1.77,1.77v3.54c0,.98.79,1.77,1.77,1.77h3.54c.98,0,1.77-.79,1.77-1.77ZM106.23,131.03v-3.54c0-.98-.79-1.77-1.77-1.77h-3.54c-.98,0-1.77.79-1.77,1.77v3.54c0,.98.79,1.77,1.77,1.77h3.54c.98,0,1.77-.79,1.77-1.77ZM116.86,131.03v-3.54c0-.98-.79-1.77-1.77-1.77h-3.54c-.98,0-1.77.79-1.77,1.77v3.54c0,.98.79,1.77,1.77,1.77h3.54c.98,0,1.77-.79,1.77-1.77ZM127.49,131.03v-3.54c0-.98-.79-1.77-1.77-1.77h-3.54c-.98,0-1.77.79-1.77,1.77v3.54c0,.98.79,1.77,1.77,1.77h3.54c.98,0,1.77-.79,1.77-1.77ZM95.6,120.4v-3.54c0-.98-.79-1.77-1.77-1.77h-3.54c-.98,0-1.77.79-1.77,1.77v3.54c0,.98.79,1.77,1.77,1.77h3.54c.98,0,1.77-.79,1.77-1.77ZM106.23,120.4v-3.54c0-.98-.79-1.77-1.77-1.77h-3.54c-.98,0-1.77.79-1.77,1.77v3.54c0,.98.79,1.77,1.77,1.77h3.54c.98,0,1.77-.79,1.77-1.77ZM116.86,120.4v-3.54c0-.98-.79-1.77-1.77-1.77h-3.54c-.98,0-1.77.79-1.77,1.77v3.54c0,.98.79,1.77,1.77,1.77h3.54c.98,0,1.77-.79,1.77-1.77ZM127.49,120.4v-3.54c0-.98-.79-1.77-1.77-1.77h-3.54c-.98,0-1.77.79-1.77,1.77v3.54c0,.98.79,1.77,1.77,1.77h3.54c.98,0,1.77-.79,1.77-1.77ZM95.6,109.77v-3.54c0-.98-.79-1.77-1.77-1.77h-3.54c-.98,0-1.77.79-1.77,1.77v3.54c0,.98.79,1.77,1.77,1.77h3.54c.98,0,1.77-.79,1.77-1.77ZM106.23,109.77v-3.54c0-.98-.79-1.77-1.77-1.77h-3.54c-.98,0-1.77.79-1.77,1.77v3.54c0,.98.79,1.77,1.77,1.77h3.54c.98,0,1.77-.79,1.77-1.77ZM116.86,109.77v-3.54c0-.98-.79-1.77-1.77-1.77h-3.54c-.98,0-1.77.79-1.77,1.77v3.54c0,.98.79,1.77,1.77,1.77h3.54c.98,0,1.77-.79,1.77-1.77ZM127.49,109.77v-3.54c0-.98-.79-1.77-1.77-1.77h-3.54c-.98,0-1.77.79-1.77,1.77v3.54c0,.98.79,1.77,1.77,1.77h3.54c.98,0,1.77-.79,1.77-1.77ZM121.23,76.95c-.52-.46-1.31-.41-1.76.1l-14.17,15.94c-.46.52-.41,1.31.1,1.77.24.21.53.31.83.31.34,0,.69-.14.93-.42l14.17-15.94c.46-.52.41-1.31-.1-1.77ZM120.4,85.49c-2.64,0-4.79,2.15-4.79,4.79s2.15,4.79,4.79,4.79,4.79-2.15,4.79-4.79-2.15-4.79-4.79-4.79ZM120.4,92.58c-1.26,0-2.29-1.03-2.29-2.29s1.03-2.29,2.29-2.29,2.29,1.03,2.29,2.29-1.03,2.29-2.29,2.29ZM111.02,81.43c0-2.64-2.15-4.79-4.79-4.79s-4.79,2.15-4.79,4.79,2.15,4.79,4.79,4.79,4.79-2.15,4.79-4.79ZM103.94,81.43c0-1.26,1.03-2.29,2.29-2.29s2.29,1.03,2.29,2.29-1.03,2.29-2.29,2.29-2.29-1.03-2.29-2.29Z" fill="#ffb400" stroke-width="0"/></svg>