<svg xmlns="http://www.w3.org/2000/svg" id="Layer_1" viewBox="52.35 52.35 111.3 111.3"><path d="M108,52.35c-30.69,0-55.65,24.96-55.65,55.65s24.96,55.65,55.65,55.65,55.65-24.96,55.65-55.65-24.96-55.65-55.65-55.65ZM108,158.65c-27.93,0-50.65-22.72-50.65-50.65s22.72-50.65,50.65-50.65,50.65,22.72,50.65,50.65-22.72,50.65-50.65,50.65Z" stroke-width="0"/><path d="M127.34,118.53c-.05-.09-.16-.15-.23-.23-.13-.16-.25-.33-.43-.44l-17.71-10.63c-.59-.36-1.34-.36-1.93,0l-17.72,10.63c-.19.11-.31.29-.44.45-.07.08-.17.13-.22.22-.16.28-.25.6-.25.93v17.72c0,.66.35,1.27.91,1.61l17.72,10.63s.02,0,.02,0c0,0,.01.01.02.02.29.16.61.24.92.24s.64-.08.92-.24c0,0,.01-.01.02-.02,0,0,.02,0,.02,0l17.71-10.63c.56-.34.91-.95.91-1.61v-17.72c0-.33-.09-.65-.25-.93ZM106.13,144.49l-13.97-8.38v-13.34l13.97,8.38v13.34ZM108.8,127.42l-.8.48-14.07-8.44,14.07-8.44,14.07,8.44-13.27,7.96ZM123.84,136.11l-13.96,8.38v-13.34l13.96-8.38v13.34Z" stroke-width="0"/><path d="M123.03,104.43l-15.03,15.03-15.03-15.03c-8.3-8.3-8.3-21.76,0-30.07h0c8.3-8.3,21.76-8.3,30.07,0h0c8.3,8.3,8.3,21.76,0,30.07ZM108,78.93c-5.53,0-10.02,4.49-10.02,10.02s4.49,10.02,10.02,10.02,10.02-4.49,10.02-10.02-4.49-10.02-10.02-10.02Z" fill="#ffb400" stroke-width="0"/></svg>