<svg xmlns="http://www.w3.org/2000/svg" id="Layer_1" viewBox="37.41 18 151.08 180.01"><path d="M177.73,180.63h-13.72c.12,1.4.61,2.49,1.47,3.29.86.79,1.92,1.19,3.18,1.19,1.63,0,2.84-.63,3.63-1.89.18-.28.49-.46.82-.46h4.01c.35,0,.6.36.47.69-.6,1.56-1.6,2.86-2.98,3.91-1.58,1.2-3.53,1.8-5.84,1.8-1.86,0-3.54-.41-5.02-1.24-1.48-.83-2.63-2-3.46-3.51-.83-1.52-1.24-3.26-1.24-5.24s.41-3.76,1.22-5.28c.82-1.52,1.96-2.68,3.43-3.5,1.47-.82,3.16-1.22,5.07-1.22s3.49.4,4.95,1.19c1.46.79,2.59,1.92,3.39,3.37.8,1.46,1.2,3.13,1.2,5.02,0,.52-.03,1-.08,1.45-.03.25-.25.44-.5.44ZM173.24,177.34c-.02-1.26-.48-2.27-1.36-3.02-.88-.76-1.97-1.14-3.25-1.14-1.21,0-2.23.37-3.06,1.1-.83.73-1.33,1.75-1.52,3.06h9.2Z" fill="#fdb002" stroke-width="0"/><path d="M44.16,170.17c1.17-.61,2.48-.91,3.95-.91,1.68,0,3.21.41,4.6,1.24,1.39.83,2.48,1.99,3.27,3.48.79,1.49,1.19,3.2,1.19,5.14s-.4,3.67-1.19,5.19c-.79,1.53-1.88,2.72-3.27,3.57-1.39.85-2.92,1.28-4.6,1.28-1.47,0-2.77-.3-3.91-.89-1.14-.59-2.07-1.33-2.8-2.22v11.46c0,.27-.22.5-.5.5h-2.99c-.27,0-.5-.22-.5-.5v-27.43c0-.27.22-.5.5-.5h2.99c.27,0,.5.22.5.5v2.33c.68-.89,1.6-1.63,2.76-2.24ZM52.28,175.68c-.55-.97-1.27-1.7-2.17-2.2-.9-.5-1.86-.75-2.88-.75s-1.95.26-2.85.77c-.9.51-1.62,1.26-2.17,2.24-.55.98-.82,2.13-.82,3.46s.27,2.49.82,3.48c.55.99,1.27,1.74,2.17,2.25.9.51,1.85.77,2.85.77s1.99-.26,2.88-.79c.9-.52,1.62-1.29,2.17-2.29.55-1,.82-2.17.82-3.5s-.27-2.48-.82-3.44Z" stroke-width="0"/><path d="M95.7,170.21c1.2.63,2.14,1.56,2.81,2.8.68,1.24,1.01,2.73,1.01,4.47v10.86c0,.27-.22.5-.5.5h-2.96c-.27,0-.5-.22-.5-.5v-10.27c0-1.72-.43-3.05-1.29-3.97-.86-.92-2.04-1.38-3.53-1.38s-2.67.46-3.55,1.38c-.87.92-1.31,2.24-1.31,3.97v10.27c0,.27-.22.5-.5.5h-2.99c-.27,0-.5-.22-.5-.5v-18.27c0-.27.22-.5.5-.5h2.99c.27,0,.5.22.5.5v1.71c.65-.79,1.49-1.41,2.5-1.85,1.01-.44,2.09-.66,3.23-.66,1.52,0,2.87.31,4.07.94Z" stroke-width="0"/><path d="M77.88,180.69h-14.28c.12,1.54.69,2.77,1.71,3.71,1.03.93,2.28,1.4,3.78,1.4,1.95,0,3.37-.74,4.28-2.22.16-.26.53-.48.84-.48h3.01c.36,0,.6.37.46.7-.61,1.46-1.58,2.68-2.9,3.66-1.53,1.13-3.42,1.7-5.68,1.7-1.84,0-3.49-.41-4.95-1.24-1.46-.83-2.6-1.99-3.43-3.5-.83-1.5-1.24-3.24-1.24-5.23s.4-3.72,1.21-5.23c.8-1.5,1.93-2.66,3.39-3.48,1.46-.82,3.13-1.22,5.02-1.22s3.44.4,4.86,1.19c1.42.79,2.53,1.91,3.32,3.34.79,1.43,1.19,3.08,1.19,4.95,0,.54-.03,1.05-.08,1.51-.03.25-.24.45-.5.45ZM74.29,177.48c-.02-1.47-.55-2.64-1.57-3.53-1.03-.89-2.3-1.33-3.81-1.33-1.38,0-2.55.44-3.53,1.31-.98.87-1.56,2.06-1.75,3.55h10.66Z" stroke-width="0"/><path d="M107.73,188.21c-1.36-.58-2.44-1.42-3.23-2.52-.7-.96-1.1-2.08-1.2-3.34-.02-.29.22-.54.51-.54h3.88c.45,0,.84.3.95.73.16.66.48,1.21.95,1.64.64.58,1.52.87,2.64.87s2.04-.27,2.69-.82.98-1.26.98-2.15c0-.72-.22-1.32-.66-1.78-.44-.47-1-.83-1.66-1.1-.66-.27-1.58-.56-2.74-.89-1.59-.47-2.87-.93-3.86-1.38-.99-.45-1.84-1.14-2.55-2.06-.71-.92-1.07-2.15-1.07-3.69,0-1.44.36-2.7,1.08-3.78.72-1.07,1.74-1.89,3.04-2.46,1.31-.57,2.8-.86,4.47-.86,2.52,0,4.56.61,6.13,1.84,1.44,1.12,2.28,2.64,2.55,4.56.04.3-.2.56-.5.56h-4.01c-.43,0-.81-.29-.94-.7-.16-.53-.48-.99-.94-1.38-.66-.55-1.54-.82-2.64-.82-.96,0-1.72.24-2.29.73-.57.49-.86,1.2-.86,2.13,0,.65.21,1.19.65,1.63.43.43.97.78,1.61,1.05.64.27,1.54.58,2.71.93,1.58.47,2.88.93,3.88,1.4,1,.47,1.86,1.17,2.59,2.1.72.93,1.08,2.16,1.08,3.67,0,1.31-.34,2.52-1.01,3.64-.68,1.12-1.67,2.01-2.97,2.67-1.31.66-2.85,1-4.65,1s-3.23-.29-4.6-.87Z" fill="#fdb002" stroke-width="0"/><path d="M124.88,173.88c.78-1.51,1.84-2.68,3.18-3.5,1.34-.82,2.84-1.22,4.49-1.22,1.44,0,2.71.29,3.79.87,1.08.58,1.95,1.32,2.6,2.2v-2.27c0-.27.22-.5.5-.5h3.94c.27,0,.5.22.5.5v18.38c0,.27-.22.5-.5.5h-3.94c-.27,0-.5-.22-.5-.5v-2.34c-.63.91-1.5,1.66-2.6,2.25-1.11.59-2.38.89-3.83.89-1.63,0-3.12-.42-4.46-1.26-1.34-.84-2.4-2.02-3.18-3.55-.78-1.53-1.17-3.28-1.17-5.26s.39-3.69,1.17-5.21ZM138.25,176.1c-.47-.85-1.1-1.5-1.89-1.96-.79-.45-1.64-.68-2.55-.68s-1.75.22-2.52.66c-.77.44-1.39,1.09-1.87,1.94s-.72,1.86-.72,3.02.24,2.18.72,3.06c.48.87,1.11,1.54,1.89,2.01.78.47,1.61.7,2.5.7s1.76-.23,2.55-.68c.79-.45,1.42-1.11,1.89-1.96.47-.85.7-1.87.7-3.06s-.23-2.21-.7-3.06Z" fill="#fdb002" stroke-width="0"/><path d="M157.07,173.49h-2.9v14.85c0,.27-.22.5-.5.5h-3.97c-.27,0-.5-.22-.5-.5v-14.85h-1.71c-.27,0-.5-.22-.5-.5v-3.03c0-.27.22-.5.5-.5h1.71v-.98c0-2.38.68-4.13,2.03-5.24,1.27-1.05,3.14-1.57,5.61-1.58.27,0,.51.23.51.5v3.14c0,.27-.22.48-.49.49-.93.04-1.59.23-1.99.59-.47.42-.7,1.18-.7,2.27v.8h2.9c.27,0,.5.22.5.5v3.03c0,.27-.22.5-.5.5Z" fill="#fdb002" stroke-width="0"/><path d="M182.12,159.34v.68h-1.35v4.38h-.83v-4.38h-1.36v-.68h3.53Z" stroke-width="0"/><path d="M188.49,159.34v5.06h-.83v-3.47l-1.54,3.47h-.58l-1.55-3.47v3.47h-.83v-5.06h.89l1.78,3.97,1.77-3.97h.89Z" stroke-width="0"/><rect x="46.58" y="18" width="122.84" height="122.84" rx="61.42" ry="61.42" fill="#fffaeb" stroke-width="0"/><path d="M93.28,139.06v-11.37c0-.51.42-.93.93-.93h27.59c.51,0,.93.42.93.93v11.37c3.65-.9,7.16-2.12,10.52-3.64v-69.65h-14.72c0,5.81-4.71,10.52-10.52,10.52s-10.52-4.71-10.52-10.52h-14.72v69.65c3.36,1.52,6.87,2.74,10.52,3.64ZM118.51,83.65c0-.58.47-1.05,1.05-1.05h6.31c.58,0,1.05.47,1.05,1.05v6.31c0,.58-.47,1.05-1.05,1.05h-6.31c-.58,0-1.05-.47-1.05-1.05v-6.31ZM118.51,98.37c0-.58.47-1.05,1.05-1.05h6.31c.58,0,1.05.47,1.05,1.05v6.31c0,.58-.47,1.05-1.05,1.05h-6.31c-.58,0-1.05-.47-1.05-1.05v-6.31ZM118.51,113.09c0-.58.47-1.05,1.05-1.05h6.31c.58,0,1.05.47,1.05,1.05v6.31c0,.58-.47,1.05-1.05,1.05h-6.31c-.58,0-1.05-.47-1.05-1.05v-6.31ZM103.79,83.65c0-.58.47-1.05,1.05-1.05h6.31c.58,0,1.05.47,1.05,1.05v6.31c0,.58-.47,1.05-1.05,1.05h-6.31c-.58,0-1.05-.47-1.05-1.05v-6.31ZM103.79,98.37c0-.58.47-1.05,1.05-1.05h6.31c.58,0,1.05.47,1.05,1.05v6.31c0,.58-.47,1.05-1.05,1.05h-6.31c-.58,0-1.05-.47-1.05-1.05v-6.31ZM103.79,113.09c0-.58.47-1.05,1.05-1.05h6.31c.58,0,1.05.47,1.05,1.05v6.31c0,.58-.47,1.05-1.05,1.05h-6.31c-.58,0-1.05-.47-1.05-1.05v-6.31ZM89.07,83.65c0-.58.47-1.05,1.05-1.05h6.31c.58,0,1.05.47,1.05,1.05v6.31c0,.58-.47,1.05-1.05,1.05h-6.31c-.58,0-1.05-.47-1.05-1.05v-6.31ZM89.07,98.37c0-.58.47-1.05,1.05-1.05h6.31c.58,0,1.05.47,1.05,1.05v6.31c0,.58-.47,1.05-1.05,1.05h-6.31c-.58,0-1.05-.47-1.05-1.05v-6.31ZM89.07,113.09c0-.58.47-1.05,1.05-1.05h6.31c.58,0,1.05.47,1.05,1.05v6.31c0,.58-.47,1.05-1.05,1.05h-6.31c-.58,0-1.05-.47-1.05-1.05v-6.31Z" fill="#ffca4c" stroke-width="0"/><path d="M68.9,126.8c.06-.01.12-.04.19-.04h6.31c.58,0,1.05.47,1.05,1.05v4.32c2.03,1.22,4.14,2.31,6.31,3.29v-44.41h-21.03v28.79c2.2,2.52,4.59,4.87,7.17,7ZM68.04,98.37c0-.58.47-1.05,1.05-1.05h6.31c.58,0,1.05.47,1.05,1.05v6.31c0,.58-.47,1.05-1.05,1.05h-6.31c-.58,0-1.05-.47-1.05-1.05v-6.31ZM68.04,113.09c0-.58.47-1.05,1.05-1.05h6.31c.58,0,1.05.47,1.05,1.05v6.31c0,.58-.47,1.05-1.05,1.05h-6.31c-.58,0-1.05-.47-1.05-1.05v-6.31Z" fill="#ffe199" stroke-width="0"/><path d="M108,55.26c-5.81,0-10.52,4.71-10.52,10.52s4.71,10.52,10.52,10.52,10.52-4.71,10.52-10.52-4.71-10.52-10.52-10.52ZM114.31,67.88h-4.21v4.21h-4.21v-4.21h-4.21v-4.21h4.21v-4.21h4.21v4.21h4.21v4.21Z" fill="#ffe199" stroke-width="0"/><path d="M133.23,91.01v44.41c2.17-.98,4.28-2.07,6.31-3.29v-4.32c0-.58.47-1.05,1.05-1.05h6.31c.07,0,.13.03.19.04,2.58-2.13,4.97-4.48,7.17-7v-28.79h-21.03ZM147.96,119.4c0,.58-.47,1.05-1.05,1.05h-6.31c-.58,0-1.05-.47-1.05-1.05v-6.31c0-.58.47-1.05,1.05-1.05h6.31c.58,0,1.05.47,1.05,1.05v6.31ZM147.96,104.68c0,.58-.47,1.05-1.05,1.05h-6.31c-.58,0-1.05-.47-1.05-1.05v-6.31c0-.58.47-1.05,1.05-1.05h6.31c.58,0,1.05.47,1.05,1.05v6.31Z" fill="#ffe199" stroke-width="0"/><path d="M167.85,23.57h-1.61c-4.1,0-8.07-1.2-11.48-3.48l-2.74-1.83c-.53-.35-1.22-.35-1.74,0l-2.74,1.83c-3.41,2.28-7.38,3.48-11.48,3.48h-1.61c-.87,0-1.57.7-1.57,1.57v13.14c0,7.99,3.97,15.41,10.62,19.84l6.79,4.52c.26.18.57.26.87.26s.61-.09.87-.26l6.79-4.52c6.65-4.43,10.62-11.85,10.62-19.84v-13.14c0-.87-.7-1.57-1.57-1.57Z" stroke-width="0"/><path d="M156.16,35.45c0-2.77-2.24-5.01-5.01-5.01s-5.01,2.24-5.01,5.01c0,2.17,1.39,4,3.32,4.7l-2.07,10.34h7.52l-2.07-10.34c1.93-.7,3.32-2.53,3.32-4.7Z" fill="#ffb400" stroke-width="0"/></svg>