<?xml version="1.0" encoding="UTF-8"?><svg id="Layer_1" xmlns="http://www.w3.org/2000/svg" viewBox="0 0 216 216"><path d="M113.58,110.29h-18.03v-18.76h18.03v18.76ZM150.26,72.57v63.78c0,7.83-6.35,14.17-14.17,14.17h-62.01c5.87,0,10.63-4.76,10.63-10.63v-67.32c0-3.91,3.17-7.09,7.09-7.09h51.38c3.91,0,7.09,3.17,7.09,7.09ZM93.04,111.54c0,.69.56,1.25,1.25,1.25h20.53c.69,0,1.25-.56,1.25-1.25v-21.26c0-.69-.56-1.25-1.25-1.25h-20.53c-.69,0-1.25.56-1.25,1.25v21.26ZM144.42,132.8c0-.69-.56-1.25-1.25-1.25h-48.88c-.69,0-1.25.56-1.25,1.25s.56,1.25,1.25,1.25h48.88c.69,0,1.25-.56,1.25-1.25ZM144.42,122.17c0-.69-.56-1.25-1.25-1.25h-48.88c-.69,0-1.25.56-1.25,1.25s.56,1.25,1.25,1.25h48.88c.69,0,1.25-.56,1.25-1.25ZM144.42,111.54c0-.69-.56-1.25-1.25-1.25h-20.53c-.69,0-1.25.56-1.25,1.25s.56,1.25,1.25,1.25h20.53c.69,0,1.25-.56,1.25-1.25ZM144.42,100.91c0-.69-.56-1.25-1.25-1.25h-20.53c-.69,0-1.25.56-1.25,1.25s.56,1.25,1.25,1.25h20.53c.69,0,1.25-.56,1.25-1.25ZM144.42,90.28c0-.69-.56-1.25-1.25-1.25h-20.53c-.69,0-1.25.56-1.25,1.25s.56,1.25,1.25,1.25h20.53c.69,0,1.25-.56,1.25-1.25ZM144.42,79.65c0-.69-.56-1.25-1.25-1.25h-48.88c-.69,0-1.25.56-1.25,1.25s.56,1.25,1.25,1.25h48.88c.69,0,1.25-.56,1.25-1.25ZM82.41,139.89v-67.32c0-.69-.56-1.25-1.25-1.25s-1.25.56-1.25,1.25v67.32c0,3.22-2.62,5.84-5.84,5.84s-5.84-2.62-5.84-5.84v-35.95h5.84c.69,0,1.25-.56,1.25-1.25s-.56-1.25-1.25-1.25h-7.09c-.69,0-1.25.56-1.25,1.25v37.2c0,4.6,3.74,8.34,8.34,8.34s8.34-3.74,8.34-8.34ZM74.08,141.14c-.69,0-1.25-.56-1.25-1.25v-30.12c0-.69.56-1.25,1.25-1.25s1.25.56,1.25,1.25v30.12c0,.69-.56,1.25-1.25,1.25Z" fill="#ffb400" stroke-width="0"/></svg>