<?xml version="1.0" encoding="UTF-8"?><svg id="Layer_1" xmlns="http://www.w3.org/2000/svg" viewBox="0 0 216 216"><path d="M154.06,63.27h-4.44c-11.67,0-22.97-3.42-32.68-9.9l-7.56-5.04c-.84-.56-1.93-.56-2.77,0l-7.56,5.04c-9.71,6.47-21.01,9.9-32.68,9.9h-4.44c-1.38,0-2.5,1.12-2.5,2.5v36.23c0,21.42,10.64,41.3,28.46,53.18l18.71,12.48c.42.28.9.42,1.39.42s.97-.14,1.39-.42l18.72-12.48c17.82-11.88,28.46-31.76,28.46-53.18v-36.23c0-1.38-1.12-2.5-2.5-2.5ZM151.56,102c0,19.74-9.81,38.07-26.24,49.02l-17.33,11.55-17.33-11.55c-16.43-10.95-26.24-29.28-26.24-49.02v-33.73h1.94c12.66,0,24.92-3.71,35.45-10.73l6.17-4.11,6.17,4.11c10.53,7.02,22.79,10.73,35.45,10.73h1.94v33.73Z" stroke-width="0"/><path d="M129.26,90.13l12.4,21.26h-24.8l12.4-21.26M129.26,87.63c-.89,0-1.71.47-2.16,1.24l-12.4,21.26c-.45.77-.45,1.73,0,2.5.45.78,1.27,1.25,2.17,1.25h24.8c.9,0,1.72-.48,2.17-1.25.45-.78.44-1.73,0-2.5l-12.4-21.26c-.45-.77-1.27-1.24-2.16-1.24h0ZM129.26,104.49c-.69,0-1.25-.56-1.25-1.25v-7.09c0-.69.56-1.25,1.25-1.25s1.25.56,1.25,1.25v7.09c0,.69-.56,1.25-1.25,1.25ZM130.51,107.85v-1.06c0-.69-.56-1.25-1.25-1.25s-1.25.56-1.25,1.25v1.06c0,.69.56,1.25,1.25,1.25s1.25-.56,1.25-1.25Z" stroke-width="0"/><path d="M97.37,86.06c0-2.78,1.09-5.29,2.84-7.19h-.04l-.67-4.49s4.2-2.6,8.5-2.6,8.5,2.6,8.5,2.6l-.68,4.49h-.04c1.75,1.89,2.84,4.4,2.84,7.19,0,5.87-4.76,10.63-10.63,10.63s-10.63-4.76-10.63-10.63ZM116.86,113.89c-.9,0-1.72-.48-2.17-1.25-.45-.78-.44-1.73,0-2.5l4.44-7.62c-3.24-2-7.05-3.18-11.14-3.18-11.74,0-21.26,9.52-21.26,21.26v9.35c0,3.91,3.17,7.09,7.09,7.09h28.35c3.91,0,7.09-3.17,7.09-7.09v-9.35c0-2.34-.39-4.59-1.09-6.7h-11.31Z" fill="#ffb400" stroke-width="0"/></svg>