<?xml version="1.0" encoding="UTF-8"?><svg id="Layer_1" xmlns="http://www.w3.org/2000/svg" viewBox="0 0 216 216"><path d="M84.97,84.47c0,6.85-5.55,12.4-12.4,12.4s-12.4-5.55-12.4-12.4,5.55-12.4,12.4-12.4,12.4,5.55,12.4,12.4ZM155.83,84.47c0,6.85-5.55,12.4-12.4,12.4s-12.4-5.55-12.4-12.4,5.55-12.4,12.4-12.4,12.4,5.55,12.4,12.4ZM123.94,77.75c0,8.81-7.14,15.94-15.94,15.94s-15.94-7.14-15.94-15.94,7.14-15.94,15.94-15.94,15.94,7.14,15.94,15.94ZM73.61,143.56v-14.02c0-10.35,4.62-19.62,11.87-25.93-3.77-2.31-8.18-3.66-12.92-3.66h0c-13.7,0-24.8,11.1-24.8,24.8v10.91c0,4.56,3.7,8.27,8.27,8.27h17.62c0-.12-.04-.24-.04-.36ZM143.43,99.96c-4.74,0-9.15,1.35-12.92,3.66,7.26,6.31,11.87,15.58,11.87,25.93v14.02c0,.12-.03.24-.04.36h17.62c4.56,0,8.27-3.7,8.27-8.27v-10.91c0-13.7-11.1-24.8-24.8-24.8ZM112.46,98c-.03.2-.03.41-.13.59l-2.39,4.79,3.9,26.72c.06.43-.02.86-.25,1.24l-3.99,6.64c-.34.56-.95.91-1.61.91s-1.27-.35-1.61-.91l-3.99-6.64c-.22-.37-.31-.81-.25-1.24l3.9-26.72-2.39-4.79c-.09-.19-.1-.39-.13-.59-15.49,2.17-27.43,15.45-27.43,31.54v14.02c0,5.87,4.76,10.63,10.63,10.63h42.52c5.87,0,10.63-4.76,10.63-10.63v-14.02c0-16.09-11.93-29.37-27.43-31.54Z" fill="#ffb400" stroke-width="0"/></svg>