<?xml version="1.0" encoding="UTF-8"?><svg id="Layer_1" xmlns="http://www.w3.org/2000/svg" viewBox="0 0 216 216"><path d="M48.25,170.32c1.16-.6,2.47-.9,3.93-.9,1.67,0,3.19.41,4.57,1.23,1.38.82,2.46,1.98,3.25,3.46.79,1.48,1.18,3.19,1.18,5.11s-.39,3.65-1.18,5.16c-.79,1.52-1.87,2.7-3.25,3.55-1.38.85-2.9,1.27-4.57,1.27-1.46,0-2.76-.3-3.89-.89-1.14-.59-2.06-1.33-2.78-2.21v11.4c0,.27-.22.49-.49.49h-2.97c-.27,0-.49-.22-.49-.49v-27.28c0-.27.22-.49.49-.49h2.97c.27,0,.49.22.49.49v2.32c.67-.88,1.59-1.62,2.75-2.23ZM56.33,175.8c-.54-.96-1.26-1.69-2.16-2.19-.89-.5-1.85-.75-2.87-.75s-1.94.26-2.83.77c-.89.51-1.61,1.25-2.16,2.23-.54.97-.82,2.12-.82,3.44s.27,2.47.82,3.46c.54.99,1.26,1.73,2.16,2.24.89.51,1.84.77,2.83.77s1.98-.26,2.87-.78c.89-.52,1.61-1.28,2.16-2.28.54-1,.82-2.16.82-3.48s-.27-2.46-.82-3.43Z" stroke-width="0"/><path d="M99.51,170.35c1.19.63,2.13,1.55,2.8,2.78.67,1.23,1.01,2.71,1.01,4.45v10.81c0,.27-.22.49-.49.49h-2.94c-.27,0-.49-.22-.49-.49v-10.22c0-1.72-.43-3.03-1.29-3.95-.86-.92-2.03-1.37-3.51-1.37s-2.66.46-3.53,1.37-1.3,2.23-1.3,3.95v10.22c0,.27-.22.49-.49.49h-2.97c-.27,0-.49-.22-.49-.49v-18.17c0-.27.22-.49.49-.49h2.97c.27,0,.49.22.49.49v1.7c.65-.79,1.48-1.4,2.49-1.84,1.01-.44,2.08-.66,3.22-.66,1.51,0,2.86.31,4.05.94Z" stroke-width="0"/><path d="M81.79,180.79h-14.2c.12,1.53.68,2.76,1.7,3.69,1.02.93,2.27,1.39,3.76,1.39,1.93,0,3.35-.73,4.26-2.2.16-.26.53-.47.83-.47h2.99c.36,0,.6.36.46.69-.61,1.45-1.57,2.66-2.89,3.64-1.52,1.12-3.4,1.69-5.65,1.69-1.83,0-3.47-.41-4.92-1.23-1.45-.82-2.59-1.98-3.41-3.48-.82-1.5-1.23-3.23-1.23-5.2s.4-3.7,1.2-5.2,1.92-2.65,3.37-3.46c1.45-.81,3.11-1.22,4.99-1.22s3.42.39,4.83,1.18c1.41.79,2.52,1.9,3.3,3.32.79,1.43,1.18,3.07,1.18,4.92,0,.54-.03,1.04-.08,1.5-.03.25-.24.44-.49.44ZM78.22,177.59c-.02-1.46-.54-2.63-1.57-3.51-1.02-.88-2.28-1.32-3.79-1.32-1.37,0-2.54.43-3.51,1.3-.97.87-1.55,2.05-1.74,3.53h10.61Z" stroke-width="0"/><path d="M127.94,188.89h-3.85c-.33,0-.64-.17-.82-.44l-10.73-16.21v16.16c0,.27-.22.49-.49.49h-3.88c-.27,0-.49-.22-.49-.49v-23.32c0-.27.22-.49.49-.49h3.84c.33,0,.64.17.82.44l10.73,16.25v-16.2c0-.27.22-.49.49-.49h3.88c.27,0,.49.22.49.49v23.32c0,.27-.22.49-.49.49Z" fill="#fdb002" stroke-width="0"/><path d="M133.25,174.01c.78-1.51,1.83-2.67,3.17-3.48,1.33-.81,2.82-1.22,4.47-1.22,1.44,0,2.69.29,3.77.87,1.08.58,1.94,1.31,2.59,2.19v-2.25c0-.27.22-.49.49-.49h3.92c.27,0,.49.22.49.49v18.28c0,.27-.22.49-.49.49h-3.92c-.27,0-.49-.22-.49-.49v-2.32c-.63.9-1.49,1.65-2.59,2.24-1.1.59-2.37.89-3.81.89-1.62,0-3.1-.42-4.43-1.25-1.33-.83-2.39-2.01-3.17-3.53-.78-1.52-1.16-3.26-1.16-5.23s.39-3.67,1.16-5.18ZM146.56,176.22c-.46-.85-1.09-1.49-1.88-1.95-.79-.45-1.64-.68-2.54-.68s-1.74.22-2.5.66c-.77.44-1.39,1.08-1.86,1.93s-.71,1.85-.71,3.01.24,2.17.71,3.04c.48.87,1.1,1.54,1.88,2,.78.46,1.61.7,2.49.7s1.75-.23,2.54-.68c.79-.45,1.41-1.1,1.88-1.95.46-.85.69-1.86.69-3.04s-.23-2.2-.69-3.04Z" fill="#fdb002" stroke-width="0"/><path d="M164.63,184.4l4.64-14.1c.13-.4.51-.68.94-.68h3.76c.34,0,.58.34.46.66l-6.64,17.96c-.14.39-.51.64-.92.64h-4.54c-.41,0-.78-.26-.93-.65l-6.61-17.96c-.12-.32.12-.66.46-.66h3.8c.43,0,.8.27.94.68l4.65,14.1Z" fill="#fdb002" stroke-width="0"/><path d="M178.26,159.55v.67h-1.34v4.36h-.83v-4.36h-1.35v-.67h3.51Z" stroke-width="0"/><path d="M184.59,159.55v5.04h-.83v-3.45l-1.54,3.45h-.57l-1.54-3.45v3.45h-.83v-5.04h.89l1.77,3.95,1.76-3.95h.88Z" stroke-width="0"/><rect x="46.58" y="18" width="122.85" height="122.85" rx="61.42" ry="61.42" fill="#fffaeb" stroke-width="0"/><polygon points="114 85.57 107.98 91.58 119.96 103.56 130.84 114.45 130.84 93.91 118.25 81.31 114 85.57" fill="#ffecbf" stroke-width="0"/><path d="M106.27,86.47v-1.07c0-.96.78-1.73,1.73-1.73.31,0,.58.1.83.24l2.34-2.34,1.36-1.36h-2.8c0,.95-.78,1.73-1.73,1.73s-1.73-.77-1.73-1.73h-9.66l7.96,7.96,1.7-1.7Z" fill="#ffecbf" stroke-width="0"/><polygon points="108.83 83.91 111.17 81.57 108.83 83.91 108.83 83.91" fill="#ffe199" stroke-width="0"/><rect x="104.21" y="87.32" width="2.4" height="0" transform="translate(-30.87 100.12) rotate(-45)" fill="#ffe199" stroke-width="0"/><polygon points="101.15 91.58 89.78 80.21 85.15 80.21 85.15 107.58 90.88 101.85 101.15 91.58" fill="#ffe199" stroke-width="0"/><polygon points="90.88 108.68 85.15 114.41 85.15 134.94 101.15 118.95 90.88 108.68" fill="#ffecbf" stroke-width="0"/><polygon points="85.15 114.41 85.15 114.41 90.88 108.68 85.15 114.41" fill="#ffe199" stroke-width="0"/><polygon points="94.3 105.26 104.57 115.53 107.98 118.95 107.98 118.95 115.84 126.8 115.84 126.8 118.25 129.22 128.52 118.95 116.54 106.97 104.57 94.99 94.3 105.26" fill="#ffe199" stroke-width="0"/><polygon points="104.57 115.53 104.57 115.53 94.3 105.26 104.57 115.53" fill="#ffe199" stroke-width="0"/><polygon points="104.57 115.53 107.98 118.95 107.98 118.95 104.57 115.53" fill="#ffe199" stroke-width="0"/><path d="M126.9,137.87c1.34-.43,2.65-.91,3.94-1.43v-12.99l-9.18,9.18,5.24,5.24Z" fill="#ffecbf" stroke-width="0"/><path d="M120.66,138.46v1.08c.29-.06.58-.14.88-.2l-.88-.88Z" fill="#ffe199" stroke-width="0"/><path d="M108,140.85c2.66,0,5.27-.19,7.84-.51v-6.7l-1-1-.39-.39-9.87-9.88-15.5,15.5c5.97,1.93,12.32,2.99,18.93,2.99h0Z" fill="#ffe199" stroke-width="0"/><polygon points="104.57 122.36 104.57 122.36 114.44 132.23 104.57 122.36" fill="#ffe199" stroke-width="0"/><polygon points="130.84 80.21 123.97 80.21 130.84 87.08 130.84 80.21" fill="#ffe199" stroke-width="0"/><path d="M117.18,129.11c-.68-.68-1.77-.68-2.45,0-.68.68-.68,1.77,0,2.45l1.84,1.84c.34.34.78.51,1.23.51s.89-.17,1.23-.51c.68-.68.68-1.77,0-2.45l-1.84-1.84Z" fill="#ffca4c" stroke-width="0"/><path d="M119.98,137.19c0-.96-.78-1.73-1.73-1.73s-1.73.78-1.73,1.73v2.6c0,.16.05.3.09.45,1.14-.16,2.26-.34,3.38-.56v-2.48Z" fill="#ffca4c" stroke-width="0"/><path d="M102.59,95.3c.44,0,.89-.17,1.23-.51l1.84-1.84c.68-.68.68-1.77,0-2.45-.68-.68-1.77-.68-2.45,0l-1.84,1.84c-.68.68-.68,1.77,0,2.45.34.34.78.51,1.23.51Z" fill="#ffca4c" stroke-width="0"/><path d="M111.67,123.59c-.68-.68-1.77-.68-2.45,0-.68.68-.68,1.77,0,2.45l1.84,1.84c.34.34.78.51,1.23.51s.89-.17,1.23-.51c.68-.68.68-1.77,0-2.45l-1.84-1.84Z" fill="#ffca4c" stroke-width="0"/><path d="M106.15,118.08c-.68-.68-1.77-.68-2.45,0s-.68,1.77,0,2.45l1.84,1.84c.34.34.78.51,1.23.51s.89-.17,1.23-.51c.68-.68.68-1.77,0-2.45l-1.84-1.84Z" fill="#ffca4c" stroke-width="0"/><path d="M97.07,100.81c.44,0,.89-.17,1.23-.51l1.84-1.84c.68-.68.68-1.77,0-2.45s-1.77-.68-2.45,0l-1.84,1.84c-.68.68-.68,1.77,0,2.45.34.34.78.51,1.23.51Z" fill="#ffca4c" stroke-width="0"/><path d="M106.27,88c0,.96.78,1.73,1.73,1.73s1.73-.78,1.73-1.73v-2.6c0-.65-.37-1.2-.91-1.49l-2.56,2.56v1.53Z" fill="#ffca4c" stroke-width="0"/><path d="M94.62,103.98c.68-.68.68-1.77,0-2.45-.68-.68-1.78-.68-2.45,0l-1.84,1.84c-.68.68-.68,1.77,0,2.45.34.34.78.51,1.23.51s.89-.17,1.23-.51l1.84-1.84Z" fill="#ffca4c" stroke-width="0"/><path d="M95.12,107.05c-.68-.68-1.77-.68-2.45,0s-.68,1.77,0,2.45l1.84,1.84c.34.34.78.51,1.23.51s.89-.17,1.23-.51c.68-.68.68-1.77,0-2.45l-1.84-1.84Z" fill="#ffca4c" stroke-width="0"/><path d="M102.47,116.85c.68-.68.68-1.77,0-2.45l-1.84-1.84c-.68-.68-1.77-.68-2.45,0s-.68,1.77,0,2.45l1.84,1.84c.34.34.78.51,1.23.51s.89-.17,1.23-.51Z" fill="#ffca4c" stroke-width="0"/><path d="M130.6,72.59h-45.21c-3.12,0-5.65,2.15-5.65,4.81v56.56c1.76.91,3.56,1.74,5.41,2.48v-22.03h0v-34.2h45.69v56.23c1.85-.74,3.65-1.57,5.41-2.48v-56.56c0-2.66-2.53-4.81-5.65-4.81Z" fill="#ffca4c" stroke-width="0"/><path d="M108,83.67c-.96,0-1.73.78-1.73,1.73v1.07l2.56-2.56c-.25-.14-.52-.24-.83-.24Z" fill="#ffca4c" stroke-width="0"/><path d="M108,81.94c.96,0,1.73-.77,1.73-1.73h-3.47c0,.95.78,1.73,1.73,1.73Z" fill="#ffca4c" stroke-width="0"/><rect x="105.74" y="85.19" width="3.62" height="0" fill="#ffca4c" stroke-width="0"/><path d="M169.28,60.67l-19.25-41.84c-.51-1.12-2.35-1.12-2.86,0l-19.25,41.84c-.27.59-.15,1.29.31,1.76.46.47,1.16.6,1.75.34l18.63-8.1,18.63,8.1c.2.09.42.13.63.13.41,0,.82-.16,1.13-.47.46-.47.58-1.17.31-1.76ZM146.31,51.47l-12.39,5.38,12.39-26.92v21.54Z" stroke-width="0"/><polygon points="133.92 56.85 146.31 51.47 146.31 29.93 133.92 56.85" fill="#ffb400" stroke-width="0"/></svg>