<?xml version="1.0" encoding="UTF-8"?><svg id="Layer_1" xmlns="http://www.w3.org/2000/svg" viewBox="0 0 216 216"><path d="M123.95,77.75c0,8.81-7.14,15.94-15.94,15.94s-15.94-7.14-15.94-15.94,7.14-15.94,15.94-15.94,15.94,7.14,15.94,15.94ZM108,97.66c-17.61,0-31.89,14.28-31.89,31.89v14.02c0,5.87,4.76,10.63,10.63,10.63h42.53c5.87,0,10.63-4.76,10.63-10.63v-14.02c0-17.61-14.28-31.89-31.89-31.89ZM98.25,132.13c.49.49.49,1.28,0,1.77-.24.24-.56.37-.88.37s-.64-.12-.88-.37l-7.09-7.09c-.49-.49-.49-1.28,0-1.77l7.09-7.09c.49-.49,1.28-.49,1.77,0s.49,1.28,0,1.77l-6.2,6.2,6.2,6.2ZM112.73,115.69l-7.09,21.26c-.17.52-.66.85-1.19.85-.13,0-.26-.02-.4-.06-.65-.22-1.01-.93-.79-1.58l7.09-21.26c.22-.65.92-1.01,1.58-.79.65.22,1.01.93.79,1.58ZM126.6,126.81l-7.09,7.09c-.24.24-.56.37-.88.37s-.64-.12-.88-.37c-.49-.49-.49-1.28,0-1.77l6.2-6.2-6.2-6.2c-.49-.49-.49-1.28,0-1.77s1.28-.49,1.77,0l7.09,7.09c.49.49.49,1.28,0,1.77Z" fill="#ffb400" stroke-width="0"/></svg>