<?xml version="1.0" encoding="UTF-8"?><svg id="Layer_1" xmlns="http://www.w3.org/2000/svg" viewBox="0 0 216 216"><rect x="36" y="36" width="144" height="144" rx="72" ry="72" fill="#fffaeb" stroke-width="0"/><rect x="72" y="72" width="9" height="76.5" fill="#ffe199" stroke-width="0"/><path d="M90,162h-27v-11.7c0-.99.81-1.8,1.8-1.8h25.2v13.5Z" fill="#ffe199" stroke-width="0"/><rect x="90" y="112.5" width="63" height="49.5" fill="#ffb400" stroke-width="0"/><path d="M76.5,72.95c-.53,0-.95-.43-.95-.95v-9c0-.53.43-.95.95-.95s.95.43.95.95v9c0,.53-.43.95-.95.95Z" fill="#646464" stroke-width="0"/><path d="M81,90h-9l-3.94-15.76c-.28-1.14.58-2.24,1.75-2.24h13.39c1.17,0,2.03,1.1,1.75,2.24l-3.94,15.76Z" fill="#646464" stroke-width="0"/><rect x="99" y="144" width="9" height="9" rx=".9" ry=".9" fill="#fffaeb" stroke-width="0"/><rect x="117" y="144" width="9" height="9" rx=".9" ry=".9" fill="#fffaeb" stroke-width="0"/><rect x="135" y="144" width="9" height="9" rx=".9" ry=".9" fill="#fffaeb" stroke-width="0"/><rect x="99" y="126" width="9" height="9" rx=".9" ry=".9" fill="#fffaeb" stroke-width="0"/><rect x="117" y="126" width="9" height="9" rx=".9" ry=".9" fill="#fffaeb" stroke-width="0"/><rect x="135" y="126" width="9" height="9" rx=".9" ry=".9" fill="#fffaeb" stroke-width="0"/><rect x="85.5" y="112.5" width="72" height="4.5" rx=".9" ry=".9" fill="#ffca4c" stroke-width="0"/><path d="M142.78,74.21l-5.27,2.18-16.53-4.09c-2.15-.53-4.42-.36-6.47.49l-3.72,1.54c-.71.3-.71,1.31,0,1.6l16.18,6.7-19.11,9.79-5.67-.86c-.62-.1-1.26-.02-1.85.22l-.81.34c-.64.26-.73,1.14-.15,1.52l7.5,5.02c.96.64,2.18.77,3.25.32l36.62-15.17c3.21-1.33,5.55-4.18,6.22-7.59h0c.08-.41-.09-.82-.44-1.05h0c-2.89-1.93-6.55-2.3-9.76-.97Z" fill="#ffb400" stroke-width="0"/><path d="M162,163.27H54c-.7,0-1.27-.57-1.27-1.27s.57-1.27,1.27-1.27h108c.7,0,1.27.57,1.27,1.27s-.57,1.27-1.27,1.27Z" stroke-width="0"/></svg>