<svg xmlns="http://www.w3.org/2000/svg" id="Layer_1" viewBox="54.85 58.39 106.29 99.24"><path d="M58.39,83.2c0-5.87,4.76-10.63,10.63-10.63.06,0,.12.02.18.02.84-5.03,5.18-8.88,10.45-8.88,2.15,0,4.14.65,5.81,1.74,2.24-3.19,5.94-5.29,10.13-5.29,2.38,0,4.59.71,6.48,1.87,2.51-2.26,5.82-3.64,9.46-3.64,7.83,0,14.17,6.35,14.17,14.17s-6.35,14.17-14.17,14.17c-3.64,0-6.95-1.39-9.46-3.64-1.89,1.17-4.1,1.87-6.48,1.87-3.21,0-6.11-1.25-8.31-3.25-1.93,2-4.63,3.25-7.63,3.25-.06,0-.12-.02-.18-.02-.44,2.64-1.86,4.93-3.86,6.54-.35-.09-.71-.16-1.09-.16h-11c-.38,0-.73.06-1.08.16-2.45-1.95-4.05-4.92-4.05-8.29ZM159.38,108h-7.39c-.94,0-1.84.37-2.51,1.04l-16.68,16.68v-15.94c0-.98-.79-1.77-1.77-1.77h-7.39c-.94,0-1.84.37-2.51,1.04l-16.68,16.68v-15.94c0-.98-.79-1.77-1.77-1.77h-7.16c-1.08,0-2.09.49-2.77,1.33l-10.9,13.63,3.82,34.37.03.28h75.44v-47.83c0-.98-.79-1.77-1.77-1.77ZM74.52,93.83h-11c-.9,0-1.66.68-1.76,1.58l-6.91,62.2h28.35l-6.91-62.2c-.1-.9-.86-1.58-1.76-1.58" fill="#ffb400" stroke-width="0"/></svg>