<?xml version="1.0" encoding="UTF-8"?><svg id="Layer_1" xmlns="http://www.w3.org/2000/svg" viewBox="0 0 216 216"><path d="M154.06,63.27h-4.43c-11.67,0-22.97-3.42-32.68-9.9l-7.56-5.04c-.84-.56-1.93-.56-2.77,0l-7.56,5.04c-9.71,6.47-21.01,9.9-32.68,9.9h-4.44c-1.38,0-2.5,1.12-2.5,2.5v36.23c0,21.42,10.64,41.3,28.46,53.18l18.71,12.48c.42.28.9.42,1.39.42s.97-.14,1.39-.42l18.71-12.48c17.82-11.88,28.46-31.76,28.46-53.18v-36.23c0-1.38-1.12-2.5-2.5-2.5ZM151.56,102c0,19.74-9.81,38.07-26.24,49.02l-17.33,11.55-17.33-11.55c-16.43-10.95-26.24-29.28-26.24-49.02v-33.73h1.94c12.66,0,24.92-3.71,35.45-10.73l6.17-4.11,6.17,4.11c10.53,7.02,22.8,10.73,35.46,10.73h1.93v33.73Z" stroke-width="0"/><path d="M122.22,120.57v-14.35c0-2.17-.5-4.22-1.37-6.06-3.06,3.67-7.66,6.01-12.8,6.01s-9.74-2.34-12.8-6.01c-.87,1.84-1.37,3.89-1.37,6.06v3.64c3.09,3.05,8.66,4.39,14.46,5.77,5.08,1.21,10.24,2.45,13.88,4.93Z" fill="#ffb400" stroke-width="0"/><path d="M107.75,118.07c-5.08-1.21-10.24-2.45-13.88-4.93v14.35c0,7.83,6.35,14.17,14.17,14.17h0c7.83,0,14.17-6.35,14.17-14.17v-3.64c-3.09-3.05-8.66-4.39-14.46-5.77Z" fill="#ffb400" stroke-width="0"/><path d="M108.04,103.68c-7.83,0-14.17-6.35-14.17-14.17s6.35-14.17,14.17-14.17,14.17,6.35,14.17,14.17-6.35,14.17-14.17,14.17Z" fill="#ffb400" stroke-width="0"/><path d="M109.45,80.13c-2.64,0-4.79-2.15-4.79-4.79s2.15-4.79,4.79-4.79c.69,0,1.25.56,1.25,1.25s-.56,1.25-1.25,1.25c-1.26,0-2.29,1.03-2.29,2.29s1.03,2.29,2.29,2.29c.69,0,1.25.56,1.25,1.25s-.56,1.25-1.25,1.25ZM111.43,96.15c.49-.49.49-1.28,0-1.77-.49-.49-1.28-.49-1.77,0-.86.86-2.37.87-3.24,0-.49-.49-1.28-.49-1.77,0s-.49,1.28,0,1.77c.91.91,2.11,1.41,3.39,1.41s2.49-.5,3.39-1.41ZM106.12,90.1c.49-.49.49-1.28,0-1.77-1.8-1.81-4.96-1.82-6.78,0-.49.49-.49,1.28,0,1.77s1.28.49,1.77,0c.87-.87,2.38-.87,3.24,0,.24.25.56.37.88.37s.64-.12.88-.36ZM116.75,90.1c.49-.49.49-1.28,0-1.77-1.8-1.81-4.96-1.82-6.78,0-.49.49-.49,1.28,0,1.77s1.28.49,1.77,0c.87-.87,2.38-.87,3.24,0,.24.25.56.37.88.37s.64-.12.88-.36Z" stroke-width="0"/></svg>