<svg xmlns="http://www.w3.org/2000/svg" id="Layer_1" viewBox="28.36 18 169.45 180.01"><path d="M35.11,170.17c1.17-.61,2.48-.91,3.95-.91,1.68,0,3.21.41,4.6,1.24,1.39.83,2.48,1.99,3.27,3.48.79,1.49,1.19,3.2,1.19,5.14s-.4,3.67-1.19,5.19c-.79,1.53-1.88,2.72-3.27,3.57-1.39.85-2.92,1.28-4.6,1.28-1.47,0-2.77-.3-3.91-.89-1.14-.59-2.08-1.33-2.8-2.22v11.46c0,.27-.22.5-.5.5h-2.99c-.27,0-.5-.22-.5-.5v-27.43c0-.27.22-.5.5-.5h2.99c.27,0,.5.22.5.5v2.33c.68-.89,1.6-1.63,2.76-2.24ZM43.24,175.68c-.55-.97-1.27-1.7-2.17-2.2-.9-.5-1.86-.75-2.88-.75s-1.95.26-2.85.77c-.9.51-1.62,1.26-2.17,2.24-.55.98-.82,2.13-.82,3.46s.27,2.49.82,3.48c.55.99,1.27,1.74,2.17,2.25.9.51,1.85.77,2.85.77s1.99-.26,2.88-.79c.9-.52,1.62-1.29,2.17-2.29.55-1,.82-2.17.82-3.5s-.27-2.48-.82-3.44Z" stroke-width="0"/><path d="M86.65,170.21c1.2.63,2.14,1.56,2.81,2.8.68,1.24,1.01,2.73,1.01,4.47v10.86c0,.27-.22.5-.5.5h-2.96c-.27,0-.5-.22-.5-.5v-10.27c0-1.72-.43-3.05-1.29-3.97-.86-.92-2.04-1.38-3.53-1.38s-2.67.46-3.55,1.38c-.87.92-1.31,2.24-1.31,3.97v10.27c0,.27-.22.5-.5.5h-2.99c-.27,0-.5-.22-.5-.5v-18.27c0-.27.22-.5.5-.5h2.99c.27,0,.5.22.5.5v1.71c.65-.79,1.49-1.41,2.5-1.85,1.01-.44,2.09-.66,3.23-.66,1.52,0,2.87.31,4.07.94Z" stroke-width="0"/><path d="M68.83,180.69h-14.28c.12,1.54.69,2.77,1.71,3.71,1.03.93,2.28,1.4,3.78,1.4,1.95,0,3.37-.74,4.28-2.22.16-.26.53-.48.84-.48h3.01c.36,0,.6.37.46.7-.61,1.46-1.58,2.68-2.9,3.66-1.53,1.13-3.42,1.7-5.68,1.7-1.84,0-3.49-.41-4.95-1.24-1.46-.83-2.6-1.99-3.43-3.5-.83-1.5-1.24-3.25-1.24-5.23s.4-3.72,1.21-5.23c.8-1.5,1.93-2.66,3.39-3.48,1.46-.82,3.13-1.22,5.02-1.22s3.44.4,4.86,1.19c1.42.79,2.53,1.91,3.32,3.34.79,1.43,1.19,3.08,1.19,4.95,0,.54-.03,1.05-.08,1.51-.03.25-.24.45-.5.45ZM65.25,177.48c-.02-1.47-.55-2.64-1.57-3.53-1.03-.89-2.3-1.33-3.81-1.33-1.38,0-2.55.44-3.53,1.31-.98.87-1.56,2.06-1.75,3.55h10.66Z" stroke-width="0"/><path d="M111.46,164.94v2.96c0,.27-.22.5-.5.5h-6.01v19.96c0,.27-.22.5-.5.5h-3.9c-.27,0-.5-.22-.5-.5v-19.96h-6.01c-.27,0-.5-.22-.5-.5v-2.96c0-.27.22-.5.5-.5h16.91c.27,0,.5.22.5.5Z" fill="#fdb002" stroke-width="0"/><path d="M119.66,170.07c.88-.5,1.86-.79,2.96-.86.28-.02.52.22.52.5v4.62h-1.29c-1.54,0-2.7.36-3.48,1.08-.78.72-1.17,1.98-1.17,3.78v9.15c0,.27-.22.5-.5.5h-3.9c-.27,0-.5-.22-.5-.5v-18.38c0-.27.22-.5.5-.5h3.9c.27,0,.5.22.5.5v2.51c.63-1.03,1.45-1.83,2.47-2.41Z" fill="#fdb002" stroke-width="0"/><path d="M126.01,173.88c.78-1.51,1.84-2.68,3.18-3.5,1.34-.82,2.84-1.22,4.49-1.22,1.44,0,2.71.29,3.79.87,1.08.58,1.95,1.32,2.6,2.2v-2.27c0-.27.22-.5.5-.5h3.94c.27,0,.5.22.5.5v18.38c0,.27-.22.5-.5.5h-3.94c-.27,0-.5-.22-.5-.5v-2.34c-.63.91-1.5,1.66-2.6,2.25-1.11.59-2.38.89-3.83.89-1.63,0-3.12-.42-4.46-1.26-1.34-.84-2.4-2.02-3.18-3.55-.78-1.53-1.17-3.28-1.17-5.26s.39-3.69,1.17-5.21ZM139.38,176.1c-.47-.85-1.1-1.5-1.89-1.96-.79-.45-1.64-.68-2.55-.68s-1.75.22-2.52.66c-.77.44-1.39,1.09-1.87,1.94s-.72,1.86-.72,3.02.24,2.18.72,3.06c.48.87,1.11,1.54,1.89,2.01.78.47,1.61.7,2.5.7s1.76-.23,2.55-.68c.79-.45,1.42-1.11,1.89-1.96.47-.85.7-1.87.7-3.06s-.23-2.21-.7-3.06Z" fill="#fdb002" stroke-width="0"/><path d="M149.63,173.9c.82-1.5,1.95-2.67,3.39-3.5,1.45-.83,3.1-1.24,4.96-1.24,2.4,0,4.39.6,5.96,1.8,1.41,1.08,2.41,2.55,2.99,4.41.1.32-.15.64-.48.64h-3.97c-.39,0-.71-.25-.89-.6-.28-.56-.67-1.02-1.17-1.38-.66-.48-1.49-.72-2.47-.72-1.4,0-2.5.51-3.32,1.52-.82,1.01-1.22,2.45-1.22,4.32s.41,3.27,1.22,4.28c.82,1.01,1.92,1.52,3.32,1.52,1.74,0,2.95-.68,3.63-2.05.18-.36.51-.61.91-.61h3.95c.33,0,.59.33.48.65-.58,1.79-1.58,3.24-2.99,4.35-1.59,1.24-3.57,1.85-5.94,1.85-1.86,0-3.52-.41-4.96-1.24-1.45-.83-2.58-1.99-3.39-3.5-.82-1.5-1.22-3.26-1.22-5.26s.41-3.76,1.22-5.26Z" fill="#fdb002" stroke-width="0"/><path d="M181.59,188.47l-6.28-7.88v7.75c0,.27-.22.5-.5.5h-3.9c-.27,0-.5-.22-.5-.5v-24.88c0-.27.22-.5.5-.5h3.9c.27,0,.5.22.5.5v14.22l6.21-7.84c.19-.24.47-.38.78-.38h4.79c.43,0,.65.5.37.82l-7.81,8.9,7.86,8.82c.28.32.06.83-.37.83h-4.78c-.3,0-.59-.14-.78-.37Z" fill="#fdb002" stroke-width="0"/><path d="M191.45,159.34v.68h-1.35v4.38h-.83v-4.38h-1.35v-.68h3.53Z" stroke-width="0"/><path d="M197.81,159.34v5.06h-.83v-3.47l-1.55,3.47h-.58l-1.55-3.47v3.47h-.83v-5.06h.9l1.78,3.97,1.77-3.97h.89Z" stroke-width="0"/><rect x="46.58" y="18" width="122.85" height="122.85" rx="61.42" ry="61.42" fill="#fffaeb" stroke-width="0"/><path d="M144.87,94.36v-6.83h-28.25c-1.48,0-2.69,1.2-2.69,2.69v23.48h11.6s.05.01.07.01c.3-4.46,1.99-8.54,4.67-11.79,2.12-2.57,4.84-4.61,7.95-5.93,2.07-.87,4.31-1.4,6.66-1.56,0-.03-.01-.05-.01-.07Z" fill="#ffca4c" stroke-width="0"/><path d="M147.75,94.43c-.47-.03-.95-.07-1.43-.07h0c-.48,0-.96.04-1.43.07-2.35.16-4.59.69-6.66,1.56-3.11,1.31-5.83,3.36-7.95,5.93-2.68,3.25-4.37,7.33-4.67,11.79-.03.47-.07.95-.07,1.43s.04.96.07,1.43c.51,7.46,4.95,13.83,11.27,17.07,12.01-6.41,21.64-16.71,27.22-29.2-3.4-5.64-9.4-9.53-16.35-10ZM146.32,122.06c-3.83,0-6.93-3.1-6.93-6.93s3.1-6.93,6.93-6.93,6.93,3.1,6.93,6.93-3.1,6.93-6.93,6.93Z" fill="#ffe199" stroke-width="0"/><path d="M118.42,122.21c-.46-.1-.93-.15-1.42-.15s-.96.05-1.42.15c-3.15.65-5.51,3.44-5.51,6.78,0,3.83,3.1,6.93,6.93,6.93s6.93-3.1,6.93-6.93c0-3.34-2.36-6.13-5.51-6.78Z" fill="#ffe199" stroke-width="0"/><path d="M125.61,113.71s-.05-.01-.07-.01h-15.46c-.51,0-.98.27-1.24.71l-3.7,6.26v5.67l5.77-9.75h4.66v5.48c0,.05.02.1.03.15.46-.09.93-.15,1.42-.15s.96.05,1.42.15c0-.05.03-.09.03-.15v-5.48h7.09s.05-.01.07-.01c-.03-.47-.07-.95-.07-1.43s.04-.96.07-1.43c0,0,0,0,0,0Z" fill="#646464" stroke-width="0"/><path d="M158.99,74.44h-12.68c-1.2,0-2.17.97-2.17,2.17,0,.64.29,1.19.72,1.59v16.16s.01.05.01.07c.47-.03.95-.07,1.43-.07h0c.48,0,.96.04,1.43.07,0-.03.01-.05.01-.07v-15.58h11.23c1.2,0,2.17-.97,2.17-2.17s-.97-2.17-2.17-2.17Z" fill="#646464" stroke-width="0"/><path d="M94.86,91.15h-31.05c-5.67,0-10.27,6.41-10.27,14.33v2.35c9.84,18.83,29.14,31.92,51.6,32.95v-35.3c0-7.91-4.6-14.33-10.27-14.33Z" fill="#ffca4c" stroke-width="0"/><path d="M101.82,79.51l-4.85-17.53c-.85-3.06-2.42-5.83-4.5-8.08l-.37,2.47h-25.52l-.37-2.47c-2.08,2.25-3.66,5.02-4.5,8.07l-4.85,17.53c-.53,2.3,1.22,4.48,3.57,4.48h7.32c1.9,1.37,4.05,2.41,6.37,3.05v4.1h9.65v-3.89c2.63-.6,5.06-1.73,7.18-3.26h7.32c2.36,0,4.1-2.19,3.57-4.48Z" fill="#ffe199" stroke-width="0"/><path d="M79.34,43.16c-8.02,0-14.02,4.84-14.02,4.84l.89,5.91.37,2.47h25.52l.37-2.47.89-5.9s-6-4.84-14.02-4.84ZM81.33,50.85h-.91v.91c0,.6-.49,1.08-1.08,1.08s-1.08-.49-1.08-1.08v-.91h-.91c-.6,0-1.08-.49-1.08-1.08s.49-1.08,1.08-1.08h.91v-.91c0-.6.49-1.08,1.08-1.08s1.08.49,1.08,1.08v.91h.91c.6,0,1.08.49,1.08,1.08s-.49,1.08-1.08,1.08Z" fill="#ffca4c" stroke-width="0"/><path d="M81.33,48.68h-.91v-.91c0-.6-.49-1.08-1.08-1.08s-1.08.49-1.08,1.08v.91h-.91c-.6,0-1.08.49-1.08,1.08s.49,1.08,1.08,1.08h.91v.91c0,.6.49,1.08,1.08,1.08s1.08-.49,1.08-1.08v-.91h.91c.6,0,1.08-.49,1.08-1.08s-.49-1.08-1.08-1.08Z" fill="#646464" stroke-width="0"/><path d="M163.9,23.52c-7.36-7.36-19.33-7.36-26.69,0-3.57,3.56-5.53,8.3-5.53,13.34s1.96,9.78,5.53,13.34l12.23,12.23c.31.31.71.46,1.11.46s.8-.15,1.11-.46l12.23-12.23c7.36-7.36,7.36-19.33,0-26.69Z" stroke-width="0"/><circle cx="150.56" cy="36.51" r="8.16" fill="#ffb400" stroke-width="0"/></svg>