<?xml version="1.0" encoding="UTF-8"?><svg id="Layer_1" xmlns="http://www.w3.org/2000/svg" viewBox="0 0 216 216"><rect x="36" y="36" width="144" height="144" rx="72" ry="72" fill="#fffaeb" stroke-width="0"/><rect x="63" y="108" width="90" height="54" fill="#ffe199" stroke-width="0"/><path d="M157.5,108H58.5l8.47-12.7c.33-.5.9-.8,1.5-.8h79.07c.6,0,1.16.3,1.5.8l8.47,12.7Z" fill="#ffca4c" stroke-width="0"/><polygon points="126 162 90 162 90 87.75 108 78.75 126 87.75 126 162" fill="#ffb400" stroke-width="0"/><path d="M108,75.2c-.53,0-.95-.43-.95-.95v-13.5c0-.53.43-.95.95-.95s.95.43.95.95v13.5c0,.53-.43.95-.95.95Z" fill="#646464" stroke-width="0"/><path d="M99,162h18v-27c0-4.97-4.03-9-9-9h0c-4.97,0-9,4.03-9,9v27Z" fill="#ffe199" stroke-width="0"/><rect x="72" y="130.5" width="9" height="9" rx=".9" ry=".9" fill="#fffaeb" stroke-width="0"/><rect x="135" y="130.5" width="9" height="9" rx=".9" ry=".9" fill="#fffaeb" stroke-width="0"/><rect x="72" y="144" width="9" height="9" rx=".9" ry=".9" fill="#fffaeb" stroke-width="0"/><rect x="135" y="144" width="9" height="9" rx=".9" ry=".9" fill="#fffaeb" stroke-width="0"/><rect x="72" y="117" width="9" height="9" rx=".9" ry=".9" fill="#fffaeb" stroke-width="0"/><rect x="135" y="117" width="9" height="9" rx=".9" ry=".9" fill="#fffaeb" stroke-width="0"/><rect x="99" y="92.25" width="18" height="18" rx="9" ry="9" fill="#646464" stroke-width="0"/><path d="M107.05,59.35v10.09l10.7-4.21c.76-.3.76-1.38,0-1.68l-10.7-4.21Z" fill="#ffb300" stroke-width="0"/><path d="M130,85.25l-21.6-10.8c-.25-.13-.55-.13-.8,0l-21.6,10.8c-.3.15-.5.46-.5.8v2.49c0,.67.7,1.1,1.3.8l21.2-10.6,21.2,10.6c.6.3,1.3-.14,1.3-.8v-2.49c0-.34-.19-.65-.5-.8Z" fill="#ffca4c" stroke-width="0"/><path d="M162,163.27H54c-.7,0-1.27-.57-1.27-1.27s.57-1.27,1.27-1.27h108c.7,0,1.27.57,1.27,1.27s-.57,1.27-1.27,1.27Z" stroke-width="0"/></svg>