<svg xmlns="http://www.w3.org/2000/svg" id="Layer_1" viewBox="36 36 144 144"><rect x="36" y="36" width="144" height="144" rx="72" ry="72" fill="#fffaeb" stroke-width="0"/><path d="M135,162h-54v-90.45c0-.99.81-1.8,1.8-1.8h50.4c.99,0,1.8.81,1.8,1.8v90.45Z" fill="#ffb400" stroke-width="0"/><path d="M81,162h-18v-61.2c0-.99.81-1.8,1.8-1.8h16.2v63Z" fill="#ffe199" stroke-width="0"/><path d="M153,162h-18v-63h16.2c.99,0,1.8.81,1.8,1.8v61.2Z" fill="#ffe199" stroke-width="0"/><rect x="90" y="51.75" width="36" height="36" rx="18" ry="18" fill="#ffca4c" stroke-width="0"/><path d="M116.1,66.38h-3.83c-.5,0-.9-.4-.9-.9v-3.83c0-.5-.4-.9-.9-.9h-4.95c-.5,0-.9.4-.9.9v3.83c0,.5-.4.9-.9.9h-3.82c-.5,0-.9.4-.9.9v4.95c0,.5.4.9.9.9h3.82c.5,0,.9.4.9.9v3.82c0,.5.4.9.9.9h4.95c.5,0,.9-.4.9-.9v-3.82c0-.5.4-.9.9-.9h3.83c.5,0,.9-.4.9-.9v-4.95c0-.5-.4-.9-.9-.9Z" fill="#646464" stroke-width="0"/><rect x="87.75" y="94.5" width="9" height="9" rx=".9" ry=".9" fill="#fffaeb" stroke-width="0"/><rect x="67.5" y="110.25" width="9" height="9" rx=".9" ry=".9" fill="#fffaeb" stroke-width="0"/><rect x="67.5" y="126" width="9" height="9" rx=".9" ry=".9" fill="#fffaeb" stroke-width="0"/><rect x="67.5" y="141.75" width="9" height="9" rx=".9" ry=".9" fill="#fffaeb" stroke-width="0"/><rect x="139.5" y="110.25" width="9" height="9" rx=".9" ry=".9" fill="#fffaeb" stroke-width="0"/><rect x="139.5" y="126" width="9" height="9" rx=".9" ry=".9" fill="#fffaeb" stroke-width="0"/><rect x="139.5" y="141.75" width="9" height="9" rx=".9" ry=".9" fill="#fffaeb" stroke-width="0"/><rect x="103.5" y="94.5" width="9" height="9" rx=".9" ry=".9" fill="#fffaeb" stroke-width="0"/><rect x="119.25" y="94.5" width="9" height="9" rx=".9" ry=".9" fill="#fffaeb" stroke-width="0"/><rect x="87.75" y="110.25" width="9" height="9" rx=".9" ry=".9" fill="#fffaeb" stroke-width="0"/><rect x="103.5" y="110.25" width="9" height="9" rx=".9" ry=".9" fill="#fffaeb" stroke-width="0"/><rect x="119.25" y="110.25" width="9" height="9" rx=".9" ry=".9" fill="#fffaeb" stroke-width="0"/><rect x="87.75" y="126" width="9" height="9" rx=".9" ry=".9" fill="#fffaeb" stroke-width="0"/><rect x="103.5" y="126" width="9" height="9" rx=".9" ry=".9" fill="#fffaeb" stroke-width="0"/><rect x="119.25" y="126" width="9" height="9" rx=".9" ry=".9" fill="#fffaeb" stroke-width="0"/><path d="M94.05,141.75h27.9c.99,0,1.8.81,1.8,1.8v18.45h-31.5v-18.45c0-.99.81-1.8,1.8-1.8Z" fill="#ffe199" stroke-width="0"/><path d="M162,163.27H54c-.7,0-1.27-.57-1.27-1.27s.57-1.27,1.27-1.27h108c.7,0,1.27.57,1.27,1.27s-.57,1.27-1.27,1.27Z" stroke-width="0"/></svg>