<svg xmlns="http://www.w3.org/2000/svg" id="Layer_1" viewBox="63.68 76.64 88.62 62.72"><path d="M129.01,110.99c-.3.3-.67.52-1.08.64l-10.54,3.02c-.23.07-.46.1-.69.1-.65,0-1.29-.26-1.77-.73-.64-.64-.89-1.58-.64-2.46l3.02-10.54c.12-.41.34-.78.64-1.08l15.63-15.63c-1.67-3.68-5.36-6.24-9.66-6.24h-49.61c-5.87,0-10.63,4.76-10.63,10.63v28.35c0,5.87,4.76,10.63,10.63,10.63h3.54v9.9c0,1.58,1.91,2.37,3.02,1.25l11.15-11.15h31.89c5.87,0,10.63-4.76,10.63-10.63v-11.6l-5.55,5.55ZM70.79,90.99h44.24c.69,0,1.25.56,1.25,1.25s-.56,1.25-1.25,1.25h-44.24c-.69,0-1.25-.56-1.25-1.25s.56-1.25,1.25-1.25ZM106.08,114.75h-35.29c-.69,0-1.25-.56-1.25-1.25s.56-1.25,1.25-1.25h35.29c.69,0,1.25.56,1.25,1.25s-.56,1.25-1.25,1.25ZM108.77,104.12h-37.98c-.69,0-1.25-.56-1.25-1.25s.56-1.25,1.25-1.25h37.98c.69,0,1.25.56,1.25,1.25s-.56,1.25-1.25,1.25ZM144.78,76.65l7.52,7.52-25.06,25.05-10.54,3.02,3.02-10.54,25.05-25.06" fill="#ffb400" stroke-width="0"/></svg>