<svg xmlns="http://www.w3.org/2000/svg" id="Layer_1" viewBox="36 36 144 144"><rect x="36" y="36" width="144" height="144" rx="72" ry="72" fill="#fffaeb" stroke-width="0"/><path d="M121.5,63.9c-4.85,0-9.05,2.74-11.16,6.76-1.65-1.93-4.1-3.16-6.84-3.16-3.36,0-6.28,1.84-7.83,4.57-1.32-1.69-3.36-2.77-5.67-2.77-3.98,0-7.2,3.22-7.2,7.2,0,.13.01.26.02.39-.56-.25-1.17-.39-1.82-.39-2.49,0-4.5,2.01-4.5,4.5-2.49,0-4.5,2.01-4.5,4.5s2.01,4.5,4.5,4.5,4.5-2.01,4.5-4.5c2.13,0,3.91-1.49,4.38-3.49,1.25,1.05,2.86,1.69,4.62,1.69,2.31,0,4.35-1.09,5.67-2.77,1.55,2.73,4.47,4.57,7.83,4.57,2.74,0,5.19-1.23,6.84-3.16,2.11,4.02,6.31,6.76,11.16,6.76,6.96,0,12.6-5.64,12.6-12.6s-5.64-12.6-12.6-12.6Z" fill="#646464" stroke-width="0"/><path d="M90,162h-27l6.59-65.88c.09-.92.87-1.62,1.79-1.62h10.24c.92,0,1.7.7,1.79,1.62l6.59,65.88Z" fill="#ffe199" stroke-width="0"/><path d="M105.75,126h-13.5l6.53-17.42c.13-.35.47-.58.84-.58h5.23c.5,0,.9.4.9.9v17.1Z" fill="#ffe199" stroke-width="0"/><path d="M126,126h-13.5l6.53-17.42c.13-.35.47-.58.84-.58h5.23c.5,0,.9.4.9.9v17.1Z" fill="#ffe199" stroke-width="0"/><path d="M146.25,126h-13.5l6.53-17.42c.13-.35.47-.58.84-.58h5.23c.5,0,.9.4.9.9v17.1Z" fill="#ffe199" stroke-width="0"/><rect x="83.25" y="126" width="69.75" height="36" fill="#ffb400" stroke-width="0"/><rect x="78.75" y="126" width="78.75" height="4.5" rx=".9" ry=".9" fill="#ffca4c" stroke-width="0"/><rect x="90" y="139.5" width="9" height="9" rx=".9" ry=".9" fill="#fffaeb" stroke-width="0"/><rect x="105.75" y="139.5" width="9" height="9" rx=".9" ry=".9" fill="#fffaeb" stroke-width="0"/><rect x="121.5" y="139.5" width="9" height="9" rx=".9" ry=".9" fill="#fffaeb" stroke-width="0"/><path d="M137.25,162h9v-21.6c0-.5-.4-.9-.9-.9h-7.2c-.5,0-.9.4-.9.9v21.6Z" fill="#ffe199" stroke-width="0"/><path d="M162,163.27H54c-.7,0-1.27-.57-1.27-1.27s.57-1.27,1.27-1.27h108c.7,0,1.27.57,1.27,1.27s-.57,1.27-1.27,1.27Z" stroke-width="0"/></svg>