<svg xmlns="http://www.w3.org/2000/svg" id="Layer_1" viewBox="54.87 70.07 106.28 75.86"><path d="M161.15,92.65v4.11c0,1.13-.92,2.05-2.05,2.05h-2.47c-.53,2.62-1.57,5.06-3,7.21l1.75,1.75c.8.8.8,2.1,0,2.9l-2.9,2.9c-.8.8-2.1.8-2.9,0l-1.75-1.75c-2.15,1.43-4.59,2.46-7.21,3v2.47c0,1.13-.92,2.05-2.05,2.05h-4.11c-1.13,0-2.05-.92-2.05-2.05v-2.47c-2.62-.53-5.06-1.57-7.21-3l-1.75,1.75c-.8.8-2.1.8-2.9,0l-2.9-2.9c-.8-.8-.8-2.1,0-2.9l1.75-1.75c-1.43-2.15-2.46-4.59-3-7.21h-2.47c-1.13,0-2.05-.92-2.05-2.05v-4.11c0-1.13.92-2.05,2.05-2.05h2.47c.53-2.62,1.57-5.06,3-7.21l-1.75-1.75c-.8-.8-.8-2.1,0-2.9l2.9-2.9c.8-.8,2.1-.8,2.9,0l1.75,1.75c2.15-1.43,4.59-2.46,7.21-3v-2.47c0-1.13.92-2.05,2.05-2.05h4.11c1.13,0,2.05.92,2.05,2.05v2.47c2.62.53,5.06,1.57,7.21,3l1.75-1.75c.8-.8,2.1-.8,2.9,0l2.9,2.9c.8.8.8,2.1,0,2.9l-1.75,1.75c1.43,2.15,2.46,4.59,3,7.21h2.47c1.13,0,2.05.92,2.05,2.05ZM136.51,82.38c-6.8,0-12.32,5.52-12.32,12.32,0,6.8,5.52,12.32,12.32,12.32s12.32-5.52,12.32-12.32c0-6.8-5.52-12.32-12.32-12.32ZM113.49,126.43l-1.57,3.79c-.43,1.05-1.63,1.55-2.68,1.11l-3.18-1.32c-2.14,3.47-5.01,6.28-8.33,8.33l1.31,3.17c.43,1.05-.06,2.25-1.11,2.68l-3.79,1.57c-1.05.43-2.25-.06-2.68-1.11l-1.31-3.17c-3.8.9-7.82.94-11.78,0l-1.32,3.18c-.43,1.05-1.63,1.55-2.68,1.11l-3.79-1.57c-1.05-.43-1.55-1.63-1.11-2.68l1.32-3.18c-3.47-2.14-6.28-5.01-8.33-8.33l-3.17,1.31c-1.05.43-2.25-.06-2.68-1.11l-1.57-3.79c-.43-1.05.06-2.25,1.11-2.68l3.17-1.31c-.9-3.8-.94-7.82,0-11.78l-3.18-1.32c-1.05-.43-1.55-1.63-1.11-2.68l1.57-3.79c.43-1.05,1.63-1.55,2.68-1.11l3.18,1.32c2.14-3.47,5.01-6.28,8.33-8.33l-1.31-3.17c-.43-1.05.06-2.25,1.11-2.68l3.79-1.57c1.05-.43,2.25.06,2.68,1.11l1.31,3.17c3.8-.9,7.82-.94,11.78,0l1.32-3.18c.43-1.05,1.63-1.55,2.68-1.11l3.79,1.57c1.05.43,1.55,1.63,1.11,2.68l-1.32,3.18c3.47,2.14,6.28,5.01,8.33,8.33l3.17-1.31c1.05-.43,2.25.06,2.68,1.11l1.57,3.79c.43,1.05-.06,2.25-1.11,2.68l-3.17,1.31c.9,3.8.94,7.82,0,11.78l3.18,1.32c1.05.43,1.55,1.63,1.11,2.68ZM90.53,101.37c-8.38-3.47-17.99.51-21.46,8.89-3.47,8.38.51,17.99,8.89,21.46,8.38,3.47,17.99-.51,21.46-8.89,3.47-8.38-.51-17.99-8.89-21.46Z" fill="#ffb400" stroke-width="0"/></svg>