<svg xmlns="http://www.w3.org/2000/svg" id="Layer_1" viewBox="61.94 44.22 92.13 127.56"><path d="M76.11,51.31v92.13s70.87,0,70.87,0V51.31s-70.87,0-70.87,0ZM76.11,44.22h70.87c3.91,0,7.09,3.17,7.09,7.09v92.13c0,3.91-3.17,7.09-7.09,7.09h-70.87c-3.91,0-7.09-3.17-7.09-7.09V51.31c0-3.91,3.17-7.09,7.09-7.09Z" stroke-width="0"/><rect x="90.28" y="154.06" width="42.52" height="17.72" stroke-width="0"/><polygon points="111.54 99.11 96.87 131 111.54 124.63 126.22 131 111.54 99.11" fill="#ffb400" stroke-width="0"/><rect x="61.94" y="58.39" width="56.69" height="28.35" rx="7.09" ry="7.09" fill="#ffb400" stroke-width="0"/><path d="M76.69,78.13h4.88v1.48h-6.7v-13.94h1.82v12.46ZM83.57,66.51c-.24-.24-.36-.53-.36-.88s.12-.64.36-.88c.24-.24.53-.36.88-.36s.62.12.85.36c.23.24.35.53.35.88s-.12.64-.35.88c-.23.24-.52.36-.85.36-.35,0-.64-.12-.88-.36ZM85.33,68.65v10.96h-1.82v-10.96h1.82ZM90.65,70.15v6.46c0,.53.11.91.34,1.13s.62.33,1.18.33h1.34v1.54h-1.64c-1.02,0-1.77-.23-2.28-.7-.51-.47-.76-1.23-.76-2.3v-6.46h-1.42v-1.5h1.42v-2.76h1.82v2.76h2.86v1.5h-2.86ZM105.65,74.81h-8.76c.07,1.08.44,1.92,1.11,2.53.67.61,1.49.91,2.45.91.79,0,1.44-.18,1.97-.55.53-.37.9-.86,1.11-1.47h1.96c-.29,1.05-.88,1.91-1.76,2.57-.88.66-1.98.99-3.28.99-1.04,0-1.97-.23-2.79-.7s-1.46-1.13-1.93-1.99c-.47-.86-.7-1.86-.7-2.99s.23-2.13.68-2.98c.45-.85,1.09-1.51,1.91-1.97.82-.46,1.76-.69,2.83-.69s1.96.23,2.76.68c.8.45,1.42,1.08,1.85,1.87.43.79.65,1.69.65,2.69,0,.35-.02.71-.06,1.1ZM103.37,71.54c-.31-.5-.72-.88-1.25-1.14s-1.11-.39-1.75-.39c-.92,0-1.7.29-2.35.88-.65.59-1.02,1.4-1.11,2.44h6.92c0-.69-.15-1.29-.46-1.79Z" fill="#fff" stroke-width="0"/></svg>