<?xml version="1.0" encoding="UTF-8"?><svg id="Layer_1" xmlns="http://www.w3.org/2000/svg" viewBox="0 0 216 216"><rect x="36" y="36" width="144" height="144" rx="72" ry="72" fill="#fffaeb" stroke-width="0"/><rect x="63" y="108" width="90" height="54" fill="#ffb400" stroke-width="0"/><rect x="108" y="126" width="31.5" height="18" rx="1.8" ry="1.8" fill="#ffe199" stroke-width="0"/><path d="M78.3,126h18.9c.99,0,1.8.81,1.8,1.8v34.2h-22.5v-34.2c0-.99.81-1.8,1.8-1.8Z" fill="#ffe199" stroke-width="0"/><polygon points="148.5 81 67.5 81 54 108 162 108 148.5 81" fill="#ffe199" stroke-width="0"/><path d="M54,108h18c0,4.97-4.03,9-9,9h0c-4.97,0-9-4.03-9-9h0Z" fill="#ffca4c" stroke-width="0"/><path d="M72,108h18c0,4.97-4.03,9-9,9h0c-4.97,0-9-4.03-9-9h0Z" fill="#ffca4c" stroke-width="0"/><path d="M90,108h18c0,4.97-4.03,9-9,9h0c-4.97,0-9-4.03-9-9h0Z" fill="#ffca4c" stroke-width="0"/><path d="M108,108h18c0,4.97-4.03,9-9,9h0c-4.97,0-9-4.03-9-9h0Z" fill="#ffca4c" stroke-width="0"/><path d="M126,108h18c0,4.97-4.03,9-9,9h0c-4.97,0-9-4.03-9-9h0Z" fill="#ffca4c" stroke-width="0"/><path d="M144,108h18c0,4.97-4.03,9-9,9h0c-4.97,0-9-4.03-9-9h0Z" fill="#ffca4c" stroke-width="0"/><line x1="108" y1="112.5" x2="108" y2="81" fill="none" stroke="#ffb400" stroke-linecap="round" stroke-linejoin="round" stroke-width="1.9"/><line x1="126" y1="112.5" x2="121.5" y2="81" fill="none" stroke="#ffb400" stroke-linecap="round" stroke-linejoin="round" stroke-width="1.9"/><line x1="144" y1="112.5" x2="135" y2="81" fill="none" stroke="#ffb400" stroke-linecap="round" stroke-linejoin="round" stroke-width="1.9"/><line x1="90" y1="112.5" x2="94.5" y2="81" fill="none" stroke="#ffb400" stroke-linecap="round" stroke-linejoin="round" stroke-width="1.9"/><line x1="72" y1="112.5" x2="81" y2="81" fill="none" stroke="#ffb400" stroke-linecap="round" stroke-linejoin="round" stroke-width="1.9"/><path d="M94.5,144.95c-.53,0-.95-.43-.95-.95v-4.5c0-.53.43-.95.95-.95s.95.43.95.95v4.5c0,.53-.43.95-.95.95Z" fill="#646464" stroke-width="0"/><path d="M68.4,76.51h79.2c.5,0,.9.4.9.9v3.59h-81v-3.59c0-.5.4-.9.9-.9Z" fill="#ffb400" stroke-width="0"/><rect x="81" y="69.76" width="4.5" height="6.74" fill="#ffe199" stroke-width="0"/><rect x="130.5" y="69.76" width="4.5" height="6.74" fill="#ffe199" stroke-width="0"/><rect x="76.5" y="56.26" width="63" height="13.49" rx="1.8" ry="1.8" fill="#646464" stroke-width="0"/><path d="M162,163.27H54c-.7,0-1.27-.57-1.27-1.27s.57-1.27,1.27-1.27h108c.7,0,1.27.57,1.27,1.27s-.57,1.27-1.27,1.27Z" stroke-width="0"/></svg>