<svg xmlns="http://www.w3.org/2000/svg" id="Layer_1" viewBox="65.54 76.66 84.92 62.67"><path d="M143.38,96.51c3.91,0,7.08,3.17,7.08,7.08s-3.17,7.08-7.08,7.08v-14.16ZM80.04,117.58h7.25l7.25,21.75h7.25v-21.75s0,0,0,0v-29s-21.75,0-21.75,0c-8.01,0-14.5,6.49-14.5,14.5h0c0,8.01,6.49,14.5,14.5,14.5ZM140.88,125.87v-45.58c0-2.7-2.84-4.45-5.25-3.24l-16.95,8.48c-4.03,2.01-8.47,3.06-12.97,3.06h-1.42v28.98h1.42c4.5,0,8.94,1.05,12.97,3.06l16.95,8.48c2.41,1.21,5.25-.55,5.25-3.24Z" fill="#ffb400" stroke-width="0"/></svg>