<?xml version="1.0" encoding="UTF-8"?><svg id="Layer_1" xmlns="http://www.w3.org/2000/svg" viewBox="0 0 216 216"><path d="M76.11,168.24V47.76c0-3.91,3.17-7.09,7.09-7.09h56.69c3.91,0,7.09,3.17,7.09,7.09v120.47c0,3.91-3.17,7.09-7.09,7.09h-56.69c-3.91,0-7.09-3.17-7.09-7.09ZM143.43,164.69V51.31h-63.78v113.39h63.78Z" stroke-width="0"/><polygon points="111.54 120.37 96.87 152.26 111.54 145.89 126.22 152.26 111.54 120.37" fill="#ffb400" stroke-width="0"/><rect x="69.02" y="61.94" width="56.69" height="28.35" rx="7.09" ry="7.09" fill="#ffb400" stroke-width="0"/><path d="M92.09,73.53c0-.88-.19-1.66-.58-2.34s-.97-1.21-1.74-1.6c-.77-.39-1.72-.58-2.84-.58h-5.54v14.04h3.42v-5.04h2.12c1.15,0,2.11-.21,2.88-.62.77-.41,1.35-.96,1.72-1.63.37-.67.56-1.42.56-2.23ZM86.67,75.29h-1.86v-3.52h1.86c.65,0,1.14.15,1.46.46.32.31.48.74.48,1.3s-.16.99-.48,1.3c-.32.31-.81.46-1.46.46ZM97.29,73.75v-1.86h-3.42v11.16h3.42v-5.18c0-.92.21-1.56.64-1.93.43-.37,1.07-.55,1.92-.55h.94v-3.62c-.73,0-1.4.18-2,.53-.6.35-1.1.84-1.5,1.45ZM107.51,83.21c1.09,0,2.08-.23,2.97-.7.89-.47,1.59-1.14,2.1-2.01.51-.87.77-1.88.77-3.03s-.25-2.16-.76-3.03c-.51-.87-1.2-1.54-2.08-2.01-.88-.47-1.87-.7-2.96-.7s-2.08.23-2.96.7c-.88.47-1.57,1.14-2.08,2.01-.51.87-.76,1.88-.76,3.03s.25,2.17.75,3.04c.5.87,1.19,1.53,2.06,2,.87.47,1.86.7,2.95.7ZM107.51,80.25c-.65,0-1.2-.24-1.63-.72-.43-.48-.65-1.17-.65-2.06s.22-1.6.66-2.07c.44-.47.99-.71,1.66-.71s1.2.24,1.65.72c.45.48.67,1.17.67,2.06s-.23,1.58-.69,2.06c-.46.48-1.02.72-1.67.72Z" fill="#fff" stroke-width="0"/></svg>