<svg xmlns="http://www.w3.org/2000/svg" id="Layer_1" viewBox="18 31.94 325.26 296.12"><circle cx="188.51" cy="180" r="148.06" fill="#fffaeb" stroke-width="0"/><path d="M219.82,193.01c-.78-.85-.73-2.17.13-2.96h0c.85-.79,2.17-.74,2.96.12h0c.78.85.73,2.18-.12,2.96h0c-.4.38-.91.55-1.42.55h0c-.56,0-1.12-.23-1.54-.67ZM224.81,188.41c-.78-.85-.73-2.18.12-2.96h0c.85-.79,2.18-.73,2.97.12h0c.78.85.73,2.18-.13,2.96h0c-.4.38-.91.56-1.42.56h0c-.56,0-1.13-.23-1.54-.68ZM229.79,183.81c-.79-.85-.73-2.18.12-2.96h0c.85-.79,2.18-.73,2.97.12h0c.78.85.73,2.17-.13,2.96h0c-.4.38-.91.55-1.42.55h0c-.57,0-1.13-.23-1.54-.67ZM234.78,179.21c-.78-.85-.73-2.18.12-2.96h0c.85-.79,2.18-.73,2.97.12h0c.78.85.73,2.18-.13,2.96h0c-.4.38-.91.55-1.42.55h0c-.57,0-1.13-.23-1.54-.67ZM239.77,174.61c-.79-.85-.73-2.17.12-2.96h0c.85-.79,2.18-.73,2.96.12h0c.79.85.74,2.18-.12,2.96h0c-.4.38-.91.56-1.42.56h0c-.57,0-1.13-.23-1.54-.68ZM244.75,170.01c-.79-.85-.73-2.18.12-2.96h0c.85-.79,2.18-.74,2.96.12h0c.79.85.74,2.18-.12,2.96h0c-.4.38-.91.56-1.42.55h0c-.57,0-1.13-.23-1.54-.67ZM249.74,165.41c-.79-.85-.74-2.18.12-2.96h0c.85-.79,2.18-.73,2.96.12h0c.79.85.73,2.18-.12,2.96h0c-.4.38-.91.56-1.42.56h0c-.56,0-1.12-.23-1.53-.68ZM254.73,160.81c-.79-.85-.74-2.18.12-2.96h0c.85-.79,2.17-.73,2.96.12h0c.79.85.73,2.18-.12,2.96h0c-.4.38-.91.56-1.42.56h0c-.56,0-1.12-.23-1.53-.68ZM259.71,156.21c-.79-.85-.74-2.18.12-2.96h0c.85-.79,2.17-.73,2.96.12h0c.79.85.73,2.18-.12,2.96h0c-.4.38-.91.56-1.42.56h0c-.57,0-1.13-.23-1.54-.68ZM264.69,151.61c-.78-.85-.73-2.17.13-2.96h0c.85-.79,2.17-.74,2.96.12h0c.79.85.73,2.18-.12,2.96h0c-.4.38-.91.56-1.42.56h0c-.56,0-1.12-.23-1.54-.68ZM269.68,147.01c-.78-.85-.73-2.17.12-2.96h0c.85-.79,2.18-.73,2.97.12h0c.78.85.73,2.18-.12,2.96h0c-.4.38-.91.56-1.42.56h0c-.56,0-1.12-.23-1.54-.68ZM274.66,142.41c-.78-.85-.73-2.18.12-2.96h0c.85-.79,2.18-.73,2.97.12h0c.78.85.73,2.18-.12,2.96h0c-.41.38-.91.56-1.42.56h0c-.56,0-1.12-.23-1.54-.68ZM279.65,137.81c-.78-.85-.73-2.18.12-2.96h0c.85-.79,2.18-.73,2.97.12h0c.78.85.73,2.18-.13,2.96h0c-.4.38-.91.56-1.42.56h0c-.56,0-1.13-.23-1.54-.68ZM284.63,133.2c-.79-.85-.73-2.17.12-2.96h0c.85-.79,2.18-.73,2.96.12h0c.79.85.74,2.18-.12,2.96h0c-.4.38-.9.56-1.42.56h0c-.56,0-1.13-.23-1.54-.68ZM289.62,128.6c-.79-.85-.73-2.17.12-2.96h0c.85-.79,2.18-.73,2.96.12h0c.79.85.74,2.18-.12,2.96h0c-.4.38-.91.56-1.42.56h0c-.57,0-1.13-.23-1.54-.68ZM294.61,124c-.79-.85-.73-2.18.12-2.96h0c.85-.79,2.18-.73,2.96.12h0c.79.85.74,2.18-.12,2.96h0c-.4.38-.91.56-1.42.56h0c-.57,0-1.13-.23-1.54-.68ZM299.59,119.4c-.79-.85-.73-2.18.12-2.96h0c.85-.79,2.18-.73,2.96.12h0c.79.85.73,2.18-.12,2.96h0c-.4.38-.91.56-1.42.56h0c-.57,0-1.13-.23-1.54-.68ZM304.58,114.8c-.79-.85-.74-2.18.12-2.96h0c.85-.79,2.18-.73,2.96.12h0c.79.85.73,2.18-.12,2.96h0c-.4.38-.91.56-1.42.56h0c-.57,0-1.13-.23-1.54-.68ZM309.56,110.2c-.78-.85-.73-2.17.13-2.96h0c.85-.79,2.17-.73,2.96.12h0c.79.85.73,2.18-.12,2.96h0c-.4.38-.91.56-1.42.56h0c-.56,0-1.12-.23-1.54-.68ZM314.54,105.6c-.78-.85-.73-2.17.13-2.96h0c.85-.79,2.17-.74,2.96.12h0c.79.85.73,2.18-.12,2.96h0c-.4.38-.91.56-1.42.56h0c-.56,0-1.12-.23-1.54-.68ZM319.53,101c-.78-.85-.73-2.17.13-2.96h0c.85-.79,2.17-.73,2.96.12h0c.79.85.73,2.18-.12,2.96h0c-.4.38-.91.56-1.42.56h0c-.56,0-1.12-.23-1.54-.68ZM324.52,96.4c-.78-.85-.73-2.18.12-2.96h0c.85-.79,2.18-.73,2.97.12h0c.78.85.73,2.18-.13,2.96h0c-.4.38-.91.56-1.42.56h0c-.56,0-1.13-.23-1.54-.68ZM329.5,91.8c-.78-.85-.73-2.18.12-2.96h0c.85-.79,2.18-.73,2.97.12h0c.78.85.73,2.18-.12,2.96h0c-.4.38-.91.56-1.42.56h0c-.56,0-1.12-.23-1.54-.68Z" fill="#646464" stroke-width="0"/><path d="M216.38,198.29c-.55,0-1.09-.23-1.48-.62-.09-.09-.18-.2-.26-.32-.08-.11-.13-.23-.19-.36-.05-.13-.09-.26-.12-.39-.03-.13-.04-.27-.04-.4,0-.55.23-1.1.61-1.48.1-.1.21-.18.32-.26.12-.08.23-.14.37-.19.13-.06.25-.09.39-.13.27-.05.55-.05.82,0,.13.03.27.07.39.13.13.05.24.12.36.19.12.08.22.16.32.26.39.39.61.93.61,1.48,0,.13-.02.27-.04.4-.03.13-.07.27-.12.39s-.12.25-.19.36c-.08.12-.17.23-.26.32-.1.1-.2.18-.32.26s-.23.14-.36.19c-.13.06-.26.09-.39.13-.13.03-.28.04-.41.04Z" fill="#646464" stroke-width="0"/><path d="M210.13,192.91c-.81-.81-.81-2.15,0-2.96h0c.82-.82,2.15-.82,2.97,0h0c.82.81.82,2.15,0,2.96h0c-.41.41-.95.61-1.48.61h0c-.54,0-1.07-.2-1.48-.61ZM205.37,188.15c-.81-.81-.81-2.15,0-2.96h0c.82-.82,2.15-.82,2.97,0h0c.81.81.81,2.15,0,2.96h0c-.41.41-.95.61-1.48.61h0c-.54,0-1.07-.2-1.48-.61ZM200.61,183.39c-.82-.82-.82-2.15,0-2.96h0c.82-.82,2.15-.82,2.97,0h0c.81.81.81,2.14,0,2.96h0c-.41.41-.95.61-1.48.61h0c-.54,0-1.07-.2-1.48-.61ZM195.86,178.63c-.82-.82-.82-2.14,0-2.96h0c.82-.82,2.15-.82,2.97,0h0c.81.81.81,2.14,0,2.96h0c-.41.41-.95.61-1.48.61h0c-.54,0-1.07-.2-1.48-.61ZM191.1,173.87c-.82-.82-.82-2.15,0-2.97h0c.82-.81,2.15-.81,2.96,0h0c.82.82.82,2.15,0,2.97h0c-.4.41-.94.61-1.48.61h0c-.54,0-1.07-.2-1.48-.61ZM186.34,169.11c-.82-.82-.82-2.15,0-2.97h0c.82-.81,2.14-.81,2.96,0h0c.82.82.82,2.15,0,2.97h0c-.4.41-.94.61-1.48.61h0c-.54,0-1.07-.2-1.48-.61ZM181.58,164.35c-.82-.82-.82-2.14,0-2.97h0c.81-.81,2.15-.81,2.96,0h0c.82.82.82,2.14,0,2.97h0c-.4.41-.94.61-1.47.61h0c-.54,0-1.07-.2-1.48-.61ZM176.82,159.59c-.82-.82-.82-2.15,0-2.97h0c.81-.82,2.15-.82,2.96,0h0c.82.82.82,2.15,0,2.97h0c-.4.41-.94.61-1.48.61h0c-.54,0-1.07-.2-1.48-.61ZM172.06,154.83c-.82-.82-.82-2.15,0-2.97h0c.81-.82,2.14-.82,2.96,0h0c.82.82.82,2.15,0,2.97h0c-.41.41-.95.61-1.48.61h0c-.54,0-1.07-.2-1.47-.61ZM167.3,150.07c-.82-.81-.82-2.14,0-2.96h0c.81-.82,2.15-.82,2.96,0h0c.82.82.82,2.15,0,2.96h0c-.41.41-.95.62-1.48.62h0c-.54,0-1.07-.21-1.47-.62ZM162.54,145.31c-.82-.81-.82-2.14,0-2.96h0c.81-.82,2.14-.82,2.96,0h0c.82.82.82,2.15,0,2.96h0c-.41.41-.95.62-1.48.62h0c-.54,0-1.07-.21-1.48-.62ZM157.78,140.55c-.82-.81-.82-2.14,0-2.96h0c.81-.82,2.14-.82,2.96,0h0c.82.82.82,2.15,0,2.96h0c-.41.41-.95.62-1.48.62h0c-.54,0-1.07-.21-1.47-.62ZM153.01,135.79c-.81-.81-.81-2.14,0-2.96h0c.82-.82,2.14-.82,2.97,0h0c.82.82.82,2.15,0,2.96h0c-.41.41-.95.62-1.48.62h0c-.54,0-1.07-.21-1.48-.62Z" fill="#646464" stroke-width="0"/><path d="M149.73,131.65c-.13,0-.28-.02-.41-.04-.13-.03-.26-.07-.39-.13-.13-.05-.24-.12-.36-.19-.11-.08-.22-.16-.32-.26-.39-.39-.61-.93-.61-1.48s.23-1.1.61-1.48c.49-.49,1.22-.71,1.89-.58.13.03.27.07.39.13.13.05.24.12.36.19.12.08.22.16.32.26.39.39.61.93.61,1.48s-.23,1.09-.61,1.48c-.1.1-.2.18-.32.26-.12.08-.23.14-.36.19-.13.06-.26.09-.39.13-.13.02-.28.04-.41.04Z" fill="#646464" stroke-width="0"/><path d="M110.96,168.33c-.82-.82-.82-2.15,0-2.97h0c.82-.82,2.15-.82,2.97,0h0c.81.82.81,2.15,0,2.97h0c-.41.4-.95.61-1.48.61h0c-.54,0-1.07-.21-1.48-.61ZM115.62,163.66c-.81-.81-.81-2.15,0-2.96h0c.82-.82,2.15-.82,2.97,0h0c.82.81.82,2.15,0,2.96h0c-.41.41-.95.62-1.48.62h0c-.54,0-1.07-.21-1.48-.62ZM120.28,159c-.82-.82-.82-2.15,0-2.96h0c.81-.82,2.14-.82,2.96,0h0c.82.81.82,2.14,0,2.96h0c-.41.41-.95.61-1.48.61h0c-.54,0-1.07-.2-1.48-.61ZM124.94,154.34c-.82-.82-.82-2.15,0-2.97h0c.82-.81,2.15-.81,2.96,0h0c.82.82.82,2.15,0,2.97h0c-.4.41-.94.61-1.47.61h0c-.54,0-1.07-.2-1.48-.61ZM129.6,149.67c-.82-.81-.82-2.15,0-2.96h0c.82-.82,2.15-.82,2.97,0h0c.81.81.81,2.15,0,2.96h0c-.41.41-.95.62-1.48.62h0c-.54,0-1.07-.21-1.48-.62ZM134.26,145.01c-.81-.81-.81-2.15,0-2.96h0c.82-.82,2.15-.82,2.97,0h0c.82.81.82,2.15,0,2.96h0c-.41.41-.95.61-1.48.61h0c-.54,0-1.07-.2-1.48-.61ZM138.93,140.35c-.82-.82-.82-2.15,0-2.97h0c.81-.81,2.15-.81,2.96,0h0c.82.82.82,2.15,0,2.97h0c-.41.41-.95.61-1.48.61h0c-.54,0-1.06-.2-1.48-.61ZM143.59,135.69c-.82-.82-.82-2.15,0-2.97h0c.82-.82,2.15-.82,2.97,0h0c.81.82.81,2.15,0,2.97h0c-.41.4-.95.61-1.48.61h0c-.54,0-1.07-.21-1.48-.61Z" fill="#646464" stroke-width="0"/><path d="M107.78,173.6c-.55,0-1.1-.23-1.48-.61s-.61-.93-.61-1.48c0-.13,0-.28.03-.41.03-.13.07-.26.13-.39.05-.13.12-.25.19-.37.08-.11.16-.22.26-.32.49-.49,1.21-.7,1.89-.57.13.03.27.07.39.12.13.05.25.12.36.19.12.08.23.17.32.26.39.39.61.93.61,1.48s-.22,1.09-.61,1.48c-.09.09-.2.18-.32.26-.11.08-.23.14-.36.19-.13.05-.26.09-.39.12-.13.02-.27.04-.4.04Z" fill="#646464" stroke-width="0"/><path d="M68.39,184.56v-22.38c10.97.66,20.94,5.03,28.67,11.88l-15.82,15.83c-3.61-2.87-8.02-4.78-12.85-5.32Z" fill="#fff0cc" stroke-width="0"/><path d="M62.63,234.82v22.38c-23.99-1.43-43.19-20.63-44.63-44.63h22.38c1.32,11.67,10.58,20.92,22.25,22.25Z" fill="#ffd266" stroke-width="0"/><path d="M40.38,206.81h-22.38c1.43-23.99,20.63-43.19,44.63-44.63v22.38c-11.67,1.32-20.92,10.58-22.25,22.25Z" fill="#ffb400" stroke-width="0"/><path d="M90.81,209.69c0-5.95-2.06-11.41-5.49-15.73l15.82-15.83c7.45,8.4,11.97,19.45,11.97,31.55,0,25.32-19.77,46.02-44.72,47.51v-22.38c12.61-1.43,22.42-12.13,22.42-25.13Z" fill="#ffe8b2" stroke-width="0"/><path d="M218.23,275.02h-35.63v-136.59c0-3.28,2.66-5.94,5.94-5.94h23.75c3.28,0,5.94,2.66,5.94,5.94v136.59Z" fill="#ffe199" stroke-width="0"/><path d="M263.96,275.02h-35.63V114.67c0-3.28,2.66-5.94,5.94-5.94h23.75c3.28,0,5.94,2.66,5.94,5.94v160.34Z" fill="#ffe8b2" stroke-width="0"/><path d="M172.5,275.02h-35.63v-100.96c0-3.28,2.66-5.94,5.94-5.94h23.75c3.28,0,5.94,2.66,5.94,5.94v100.96Z" fill="#ffd980" stroke-width="0"/><path d="M341.45,276.28H35.57c-.69,0-1.26-.56-1.26-1.26s.56-1.26,1.26-1.26h305.88c.69,0,1.26.56,1.26,1.26s-.56,1.26-1.26,1.26Z" stroke-width="0"/><path d="M255.02,153.83c-.02,13.92,11.25,25.23,25.17,25.25,13.92.02,25.23-11.25,25.25-25.17.02-13.92-11.25-25.23-25.17-25.25-13.92-.02-25.23,11.25-25.25,25.17Z" fill="#ffb400" stroke-width="0"/><path d="M251.99,153.83c-.02,13.92,11.25,25.23,25.17,25.25,13.92.02,25.23-11.25,25.25-25.17.02-13.92-11.25-25.23-25.17-25.25-13.92-.02-25.23,11.25-25.25,25.17Z" fill="#ffc333" stroke-width="0"/><path d="M255.18,153.83c-.02,12.16,9.83,22.04,21.99,22.06,12.16.02,22.04-9.83,22.06-21.99.02-12.16-9.83-22.04-21.99-22.06-12.16-.02-22.04,9.83-22.06,21.99Z" fill="#ffe8b2" stroke-width="0"/><path d="M286.18,157.87c.74,4.17-2.13,6.96-7.29,7.41l-.08,3.45h-3.14s.08-3.45.08-3.45c-3.03-.28-5.83-1.21-7.64-2.4l1.41-3.89c1.88,1.22,4.12,2,6.32,2.22l.13-5.3c-3.07-.87-6.48-2.03-7.15-5.82-.74-4.17,2.18-7,7.45-7.38l.08-3.45h3.14s-.08,3.48-.08,3.48c2.27.21,4.41.84,6.09,1.78l-1.23,3.89c-1.51-.91-3.23-1.44-4.96-1.62l-.12,5.52c3.03.84,6.34,1.97,6.97,5.57ZM276.07,151.42l.11-4.52c-1.73.35-2.56,1.32-2.38,2.51.17.97,1.05,1.53,2.27,2ZM281.24,158.69c-.16-.91-.98-1.47-2.15-1.88l-.09,4.3c1.63-.35,2.45-1.23,2.24-2.42Z" fill="#ffb400" stroke-width="0"/><path d="M141.62,286.9h-39.2c-3.94,0-7.13-3.19-7.13-7.13v-71.26c0-3.94,3.19-7.13,7.13-7.13h39.2c3.94,0,7.13,3.19,7.13,7.13v71.26c0,3.94-3.19,7.13-7.13,7.13Z" fill="#ffb400" stroke-width="0"/><rect x="109.55" y="201.38" width="24.94" height="39.2" rx="1.78" ry="1.78" transform="translate(343 98.95) rotate(90)" fill="#fffaeb" stroke-width="0"/><path d="M120.24,231.14c-.3,0-.6-.1-.83-.32-.52-.46-.57-1.26-.1-1.77l14.25-16.03c.46-.52,1.26-.57,1.77-.1.52.46.57,1.26.1,1.77l-14.25,16.03c-.25.28-.59.42-.94.42Z" fill="#ffca4c" stroke-width="0"/><path d="M134.49,231.14c-2.66,0-4.82-2.16-4.82-4.82s2.16-4.82,4.82-4.82,4.82,2.16,4.82,4.82-2.16,4.82-4.82,4.82ZM134.49,224.02c-1.27,0-2.31,1.03-2.31,2.31s1.03,2.31,2.31,2.31,2.31-1.03,2.31-2.31-1.03-2.31-2.31-2.31Z" fill="#ffca4c" stroke-width="0"/><path d="M120.24,222.23c-2.66,0-4.82-2.16-4.82-4.82s2.16-4.82,4.82-4.82,4.82,2.16,4.82,4.82-2.16,4.82-4.82,4.82ZM120.24,215.11c-1.27,0-2.31,1.03-2.31,2.31s1.03,2.31,2.31,2.31,2.31-1.03,2.31-2.31-1.03-2.31-2.31-2.31Z" fill="#ffca4c" stroke-width="0"/><rect x="102.42" y="272.64" width="7.13" height="7.13" rx="1.78" ry="1.78" transform="translate(382.19 170.22) rotate(90)" fill="#fffaeb" stroke-width="0"/><rect x="113.11" y="272.64" width="7.13" height="7.13" rx="1.78" ry="1.78" transform="translate(392.88 159.53) rotate(90)" fill="#fffaeb" stroke-width="0"/><rect x="123.8" y="272.64" width="7.13" height="7.13" rx="1.78" ry="1.78" transform="translate(403.57 148.84) rotate(90)" fill="#fffaeb" stroke-width="0"/><rect x="134.49" y="272.64" width="7.13" height="7.13" rx="1.78" ry="1.78" transform="translate(414.26 138.15) rotate(90)" fill="#fffaeb" stroke-width="0"/><rect x="102.42" y="261.95" width="7.13" height="7.13" rx="1.78" ry="1.78" transform="translate(371.5 159.53) rotate(90)" fill="#fffaeb" stroke-width="0"/><rect x="113.11" y="261.95" width="7.13" height="7.13" rx="1.78" ry="1.78" transform="translate(382.19 148.84) rotate(90)" fill="#fffaeb" stroke-width="0"/><rect x="123.8" y="261.95" width="7.13" height="7.13" rx="1.78" ry="1.78" transform="translate(392.88 138.15) rotate(90)" fill="#fffaeb" stroke-width="0"/><rect x="134.49" y="261.95" width="7.13" height="7.13" rx="1.78" ry="1.78" transform="translate(403.57 127.46) rotate(90)" fill="#fffaeb" stroke-width="0"/><rect x="102.42" y="251.26" width="7.13" height="7.13" rx="1.78" ry="1.78" transform="translate(360.82 148.84) rotate(90)" fill="#fffaeb" stroke-width="0"/><rect x="113.11" y="251.26" width="7.13" height="7.13" rx="1.78" ry="1.78" transform="translate(371.5 138.15) rotate(90)" fill="#fffaeb" stroke-width="0"/><rect x="123.8" y="251.26" width="7.13" height="7.13" rx="1.78" ry="1.78" transform="translate(382.19 127.46) rotate(90)" fill="#fffaeb" stroke-width="0"/><rect x="134.49" y="251.26" width="7.13" height="7.13" rx="1.78" ry="1.78" transform="translate(392.88 116.77) rotate(90)" fill="#fffaeb" stroke-width="0"/><rect x="102.42" y="240.57" width="7.13" height="7.13" rx="1.78" ry="1.78" transform="translate(350.13 138.15) rotate(90)" fill="#fffaeb" stroke-width="0"/><rect x="113.11" y="240.57" width="7.13" height="7.13" rx="1.78" ry="1.78" transform="translate(360.82 127.46) rotate(90)" fill="#fffaeb" stroke-width="0"/><rect x="123.8" y="240.57" width="7.13" height="7.13" rx="1.78" ry="1.78" transform="translate(371.5 116.77) rotate(90)" fill="#fffaeb" stroke-width="0"/><rect x="134.49" y="240.57" width="7.13" height="7.13" rx="1.78" ry="1.78" transform="translate(382.19 106.08) rotate(90)" fill="#fffaeb" stroke-width="0"/><path d="M307.82,282.26c0,3.74-11.96,6.77-26.72,6.77-14.76,0-26.72-3.03-26.72-6.77,0-3.74,11.96-6.77,26.72-6.77,14.76,0,26.72,3.03,26.72,6.77Z" fill="#ffe199" stroke-width="0"/><path d="M304.42,282c0,.22-.1.48-.25.66-1.69-2.27-11.39-3.97-23.07-3.97-11.71,0-21.41,1.7-23.07,3.97-.16-.17-.25-.44-.26-.66,0-2.53,10.43-4.63,23.32-4.63,12.86,0,23.32,2.09,23.32,4.63Z" fill="#ffb400" stroke-width="0"/><path d="M304.42,282c0,.22-.1.48-.25.66-1.69-2.27-11.39-3.97-23.07-3.97-11.71,0-21.41,1.7-23.07,3.97-.16-.17-.25-.44-.26-.66,0-2.53,10.43-4.63,23.32-4.63,12.86,0,23.32,2.09,23.32,4.63Z" fill="#ffb400" stroke-width="0"/><path d="M304.16,282.66c-1.69,2.27-11.39,3.97-23.07,3.97-11.71,0-21.41-1.7-23.07-3.97,1.66-2.27,11.36-3.97,23.07-3.97,11.68,0,21.38,1.7,23.07,3.97Z" fill="#ffca4c" stroke-width="0"/><path d="M307.82,282.26c0,3.74-11.96,6.77-26.72,6.77-14.76,0-26.72-3.03-26.72-6.77h0v6.77c0,3.74,11.96,6.77,26.72,6.77s26.72-3.03,26.72-6.77v-6.77Z" fill="#ffb400" stroke-width="0"/><path d="M310.32,272.11c0,3.74-11.96,6.77-26.72,6.77-14.76,0-26.72-3.03-26.72-6.77,0-3.74,11.96-6.77,26.72-6.77,14.76,0,26.72,3.03,26.72,6.77Z" fill="#ffe199" stroke-width="0"/><path d="M306.92,271.85c0,.22-.1.48-.25.66-1.69-2.27-11.39-3.97-23.07-3.97-11.71,0-21.41,1.7-23.07,3.97-.16-.17-.25-.44-.26-.66,0-2.53,10.43-4.63,23.32-4.63,12.86,0,23.32,2.09,23.32,4.63Z" fill="#ffb400" stroke-width="0"/><path d="M306.92,271.85c0,.22-.1.48-.25.66-1.69-2.27-11.39-3.97-23.07-3.97-11.71,0-21.41,1.7-23.07,3.97-.16-.17-.25-.44-.26-.66,0-2.53,10.43-4.63,23.32-4.63,12.86,0,23.32,2.09,23.32,4.63Z" fill="#ffb400" stroke-width="0"/><path d="M306.67,272.5c-1.69,2.27-11.39,3.97-23.07,3.97-11.71,0-21.41-1.7-23.07-3.97,1.66-2.27,11.36-3.97,23.07-3.97,11.68,0,21.38,1.7,23.07,3.97Z" fill="#ffca4c" stroke-width="0"/><path d="M310.32,272.11c0,3.74-11.96,6.77-26.72,6.77-14.76,0-26.72-3.03-26.72-6.77h0v6.77c0,3.74,11.96,6.77,26.72,6.77s26.72-3.03,26.72-6.77v-6.77Z" fill="#ffb400" stroke-width="0"/><path d="M304.34,261.35c0,3.74-11.96,6.77-26.72,6.77-14.76,0-26.72-3.03-26.72-6.77,0-3.74,11.96-6.77,26.72-6.77,14.76,0,26.72,3.03,26.72,6.77Z" fill="#ffe199" stroke-width="0"/><path d="M300.94,261.09c0,.22-.1.48-.25.66-1.69-2.27-11.39-3.97-23.07-3.97-11.71,0-21.41,1.7-23.07,3.97-.16-.17-.25-.44-.26-.66,0-2.53,10.43-4.63,23.32-4.63,12.86,0,23.32,2.09,23.32,4.63Z" fill="#ffb400" stroke-width="0"/><path d="M300.94,261.09c0,.22-.1.48-.25.66-1.69-2.27-11.39-3.97-23.07-3.97-11.71,0-21.41,1.7-23.07,3.97-.16-.17-.25-.44-.26-.66,0-2.53,10.43-4.63,23.32-4.63,12.86,0,23.32,2.09,23.32,4.63Z" fill="#ffb400" stroke-width="0"/><path d="M300.69,261.74c-1.69,2.27-11.39,3.97-23.07,3.97-11.71,0-21.41-1.7-23.07-3.97,1.66-2.27,11.36-3.97,23.07-3.97,11.68,0,21.38,1.7,23.07,3.97Z" fill="#ffca4c" stroke-width="0"/><path d="M304.34,261.35c0,3.74-11.96,6.77-26.72,6.77-14.76,0-26.72-3.03-26.72-6.77h0v6.77c0,3.74,11.96,6.77,26.72,6.77s26.72-3.03,26.72-6.77v-6.77Z" fill="#ffb400" stroke-width="0"/><path d="M311.36,250.66c0,3.74-11.96,6.77-26.72,6.77-14.76,0-26.72-3.03-26.72-6.77,0-3.74,11.96-6.77,26.72-6.77,14.76,0,26.72,3.03,26.72,6.77Z" fill="#ffe199" stroke-width="0"/><path d="M307.96,250.4c0,.22-.1.48-.25.66-1.69-2.27-11.39-3.97-23.07-3.97-11.71,0-21.41,1.7-23.07,3.97-.16-.17-.25-.44-.26-.66,0-2.53,10.43-4.63,23.32-4.63,12.86,0,23.32,2.09,23.32,4.63Z" fill="#ffb400" stroke-width="0"/><path d="M307.96,250.4c0,.22-.1.48-.25.66-1.69-2.27-11.39-3.97-23.07-3.97-11.71,0-21.41,1.7-23.07,3.97-.16-.17-.25-.44-.26-.66,0-2.53,10.43-4.63,23.32-4.63,12.86,0,23.32,2.09,23.32,4.63Z" fill="#ffb400" stroke-width="0"/><path d="M307.7,251.05c-1.69,2.27-11.39,3.97-23.07,3.97-11.71,0-21.41-1.7-23.07-3.97,1.66-2.27,11.36-3.97,23.07-3.97,11.68,0,21.38,1.7,23.07,3.97Z" fill="#ffca4c" stroke-width="0"/><path d="M311.36,250.66c0,3.74-11.96,6.77-26.72,6.77-14.76,0-26.72-3.03-26.72-6.77h0v6.77c0,3.74,11.96,6.77,26.72,6.77s26.72-3.03,26.72-6.77v-6.77Z" fill="#ffb400" stroke-width="0"/><path d="M307.82,240.01c0,3.74-11.96,6.77-26.72,6.77-14.76,0-26.72-3.03-26.72-6.77,0-3.74,11.96-6.77,26.72-6.77,14.76,0,26.72,3.03,26.72,6.77Z" fill="#ffe199" stroke-width="0"/><path d="M304.42,239.75c0,.22-.1.48-.25.66-1.69-2.27-11.39-3.97-23.07-3.97-11.71,0-21.41,1.7-23.07,3.97-.16-.17-.25-.44-.26-.66,0-2.53,10.43-4.63,23.32-4.63,12.86,0,23.32,2.09,23.32,4.63Z" fill="#ffb400" stroke-width="0"/><path d="M304.42,239.75c0,.22-.1.48-.25.66-1.69-2.27-11.39-3.97-23.07-3.97-11.71,0-21.41,1.7-23.07,3.97-.16-.17-.25-.44-.26-.66,0-2.53,10.43-4.63,23.32-4.63,12.86,0,23.32,2.09,23.32,4.63Z" fill="#ffb400" stroke-width="0"/><path d="M304.16,240.4c-1.69,2.27-11.39,3.97-23.07,3.97-11.71,0-21.41-1.7-23.07-3.97,1.66-2.27,11.36-3.97,23.07-3.97,11.68,0,21.38,1.7,23.07,3.97Z" fill="#ffca4c" stroke-width="0"/><path d="M307.82,240.01c0,3.74-11.96,6.77-26.72,6.77-14.76,0-26.72-3.03-26.72-6.77h0v6.77c0,3.74,11.96,6.77,26.72,6.77s26.72-3.03,26.72-6.77v-6.77Z" fill="#ffb400" stroke-width="0"/><path d="M309.19,229.18c0,3.74-11.96,6.77-26.72,6.77-14.76,0-26.72-3.03-26.72-6.77,0-3.74,11.96-6.77,26.72-6.77,14.76,0,26.72,3.03,26.72,6.77Z" fill="#ffe199" stroke-width="0"/><path d="M305.79,228.92c0,.22-.1.48-.25.66-1.69-2.27-11.39-3.97-23.07-3.97-11.71,0-21.41,1.7-23.07,3.97-.16-.17-.25-.44-.26-.66,0-2.53,10.43-4.63,23.32-4.63,12.86,0,23.32,2.09,23.32,4.63Z" fill="#ffb400" stroke-width="0"/><path d="M305.79,228.92c0,.22-.1.48-.25.66-1.69-2.27-11.39-3.97-23.07-3.97-11.71,0-21.41,1.7-23.07,3.97-.16-.17-.25-.44-.26-.66,0-2.53,10.43-4.63,23.32-4.63,12.86,0,23.32,2.09,23.32,4.63Z" fill="#ffb400" stroke-width="0"/><path d="M305.53,229.57c-1.69,2.27-11.39,3.97-23.07,3.97-11.71,0-21.41-1.7-23.07-3.97,1.66-2.27,11.36-3.97,23.07-3.97,11.68,0,21.38,1.7,23.07,3.97Z" fill="#ffca4c" stroke-width="0"/><path d="M309.19,229.18c0,3.74-11.96,6.77-26.72,6.77-14.76,0-26.72-3.03-26.72-6.77h0v6.77c0,3.74,11.96,6.77,26.72,6.77s26.72-3.03,26.72-6.77v-6.77Z" fill="#ffb400" stroke-width="0"/><path d="M310.33,218.49c0,3.74-11.96,6.77-26.72,6.77-14.76,0-26.72-3.03-26.72-6.77,0-3.74,11.96-6.77,26.72-6.77,14.76,0,26.72,3.03,26.72,6.77Z" fill="#ffe199" stroke-width="0"/><path d="M306.93,218.23c0,.22-.1.48-.25.66-1.69-2.27-11.39-3.97-23.07-3.97-11.71,0-21.41,1.7-23.07,3.97-.16-.17-.25-.44-.26-.66,0-2.53,10.43-4.63,23.32-4.63,12.86,0,23.32,2.09,23.32,4.63Z" fill="#ffb400" stroke-width="0"/><path d="M306.93,218.23c0,.22-.1.48-.25.66-1.69-2.27-11.39-3.97-23.07-3.97-11.71,0-21.41,1.7-23.07,3.97-.16-.17-.25-.44-.26-.66,0-2.53,10.43-4.63,23.32-4.63,12.86,0,23.32,2.09,23.32,4.63Z" fill="#ffb400" stroke-width="0"/><path d="M306.67,218.88c-1.69,2.27-11.39,3.97-23.07,3.97-11.71,0-21.41-1.7-23.07-3.97,1.66-2.27,11.36-3.97,23.07-3.97,11.68,0,21.38,1.7,23.07,3.97Z" fill="#ffca4c" stroke-width="0"/><path d="M310.33,218.49c0,3.74-11.96,6.77-26.72,6.77-14.76,0-26.72-3.03-26.72-6.77h0v6.77c0,3.74,11.96,6.77,26.72,6.77s26.72-3.03,26.72-6.77v-6.77Z" fill="#ffb400" stroke-width="0"/><path d="M307.82,207.8c0,3.74-11.96,6.77-26.72,6.77-14.76,0-26.72-3.03-26.72-6.77,0-3.74,11.96-6.77,26.72-6.77,14.76,0,26.72,3.03,26.72,6.77Z" fill="#ffe199" stroke-width="0"/><path d="M304.42,207.54c0,.22-.1.48-.25.66-1.69-2.27-11.39-3.97-23.07-3.97-11.71,0-21.41,1.7-23.07,3.97-.16-.17-.25-.44-.26-.66,0-2.53,10.43-4.63,23.32-4.63,12.86,0,23.32,2.09,23.32,4.63Z" fill="#ffb400" stroke-width="0"/><path d="M304.42,207.54c0,.22-.1.48-.25.66-1.69-2.27-11.39-3.97-23.07-3.97-11.71,0-21.41,1.7-23.07,3.97-.16-.17-.25-.44-.26-.66,0-2.53,10.43-4.63,23.32-4.63,12.86,0,23.32,2.09,23.32,4.63Z" fill="#ffb400" stroke-width="0"/><path d="M304.16,208.19c-1.69,2.27-11.39,3.97-23.07,3.97-11.71,0-21.41-1.7-23.07-3.97,1.66-2.27,11.36-3.97,23.07-3.97,11.68,0,21.38,1.7,23.07,3.97Z" fill="#ffca4c" stroke-width="0"/><path d="M307.82,207.8c0,3.74-11.96,6.77-26.72,6.77-14.76,0-26.72-3.03-26.72-6.77h0v6.77c0,3.74,11.96,6.77,26.72,6.77s26.72-3.03,26.72-6.77v-6.77Z" fill="#ffb400" stroke-width="0"/><path d="M311.25,197.11c0,3.74-11.96,6.77-26.72,6.77-14.76,0-26.72-3.03-26.72-6.77,0-3.74,11.96-6.77,26.72-6.77,14.76,0,26.72,3.03,26.72,6.77Z" fill="#ffe199" stroke-width="0"/><path d="M307.85,196.85c0,.22-.1.48-.25.66-1.69-2.27-11.39-3.97-23.07-3.97-11.71,0-21.41,1.7-23.07,3.97-.16-.17-.25-.44-.26-.66,0-2.53,10.43-4.63,23.32-4.63,12.86,0,23.32,2.09,23.32,4.63Z" fill="#ffb400" stroke-width="0"/><path d="M307.85,196.85c0,.22-.1.48-.25.66-1.69-2.27-11.39-3.97-23.07-3.97-11.71,0-21.41,1.7-23.07,3.97-.16-.17-.25-.44-.26-.66,0-2.53,10.43-4.63,23.32-4.63,12.86,0,23.32,2.09,23.32,4.63Z" fill="#ffb400" stroke-width="0"/><path d="M307.59,197.5c-1.69,2.27-11.39,3.97-23.07,3.97-11.71,0-21.41-1.7-23.07-3.97,1.66-2.27,11.36-3.97,23.07-3.97,11.68,0,21.38,1.7,23.07,3.97Z" fill="#ffca4c" stroke-width="0"/><path d="M311.25,197.11c0,3.74-11.96,6.77-26.72,6.77-14.76,0-26.72-3.03-26.72-6.77h0v6.77c0,3.74,11.96,6.77,26.72,6.77s26.72-3.03,26.72-6.77v-6.77Z" fill="#ffb400" stroke-width="0"/><path d="M342,78.55h-11.94c-.51,0-.97.31-1.16.78-.19.47-.09,1.01.27,1.37l4.8,4.8c-.01.1-.03.19-.03.29,0,.55.23,1.09.61,1.47.39.39.93.62,1.48.62.09,0,.19-.02.29-.03l4.79,4.79c.24.24.56.37.89.37.16,0,.33-.03.48-.1.47-.19.78-.65.78-1.16v-11.94c0-.69-.56-1.26-1.26-1.26Z" fill="#646464" stroke-width="0"/></svg>