<?xml version="1.0" encoding="UTF-8"?><svg id="Layer_1" xmlns="http://www.w3.org/2000/svg" viewBox="0 0 216 216"><path d="M143.95,142.55c0,2.94-2.38,5.32-5.31,5.32s-5.31-2.38-5.31-5.32,2.38-5.31,5.31-5.31,5.31,2.38,5.31,5.31ZM93.46,137.23c-2.94,0-5.31,2.38-5.31,5.31s2.38,5.32,5.31,5.32,5.31-2.38,5.31-5.32-2.38-5.31-5.31-5.31ZM89.03,119.52h52.55c1.43,0,2.73-.86,3.27-2.19l12.48-30.12c.97-2.33-.75-4.9-3.27-4.9h-70.62l-4.96-11.99c-.55-1.32-1.84-2.19-3.27-2.19h-13.27c-1.96,0-3.54,1.59-3.54,3.54s1.59,3.54,3.54,3.54h10.8l15.41,37.2h0c-5.38,0-9.74,4.36-9.74,9.74v1.77c0,5.38,4.36,9.74,9.74,9.74h54.92c1.96,0,3.54-1.59,3.54-3.54s-1.59-3.54-3.54-3.54h-54.04c-1.96,0-3.54-1.59-3.54-3.54s1.59-3.54,3.54-3.54Z" fill="#ffb400" stroke-width="0"/></svg>