<?xml version="1.0" encoding="UTF-8"?><svg id="Layer_1" xmlns="http://www.w3.org/2000/svg" viewBox="0 0 216 216"><path d="M154.06,63.27h-4.44c-11.67,0-22.97-3.42-32.68-9.9l-7.56-5.04c-.84-.56-1.93-.56-2.77,0l-7.56,5.04c-9.71,6.47-21.01,9.9-32.68,9.9h-4.44c-1.38,0-2.5,1.12-2.5,2.5v36.23c0,21.42,10.64,41.3,28.46,53.18l18.71,12.48c.42.28.9.42,1.39.42s.97-.14,1.39-.42l18.71-12.48c17.82-11.88,28.46-31.76,28.46-53.18v-36.23c0-1.38-1.12-2.5-2.5-2.5ZM151.56,102c0,19.74-9.81,38.07-26.24,49.02l-17.33,11.55-17.33-11.55c-16.43-10.95-26.24-29.28-26.24-49.02v-33.73h1.94c12.66,0,24.92-3.71,35.45-10.73l6.17-4.11,6.17,4.11c10.53,7.02,22.8,10.73,35.46,10.73h1.94v33.73Z" stroke-width="0"/><path d="M85.93,105.26c-.61,0-1.2.24-1.64.68-.74.74-.89,1.9-.36,2.81l8.5,19.48c2.4,4.09,6.54,7.13,11.31,8.2h0c5.27,1.19,10.71-.06,14.93-3.43,4.22-3.37,6.64-8.4,6.64-13.8v-25.24c0-1.52-1.24-2.76-2.77-2.76s-2.77,1.24-2.77,2.76v12.05c0,.69-.56,1.25-1.25,1.25s-1.25-.56-1.25-1.25v-20.08c0-1.52-1.24-2.77-2.77-2.77s-2.76,1.24-2.76,2.77v20.08c0,.69-.56,1.25-1.25,1.25s-1.25-.56-1.25-1.25v-24.09c0-1.52-1.24-2.76-2.77-2.76s-2.77,1.24-2.77,2.76v24.09c0,.69-.56,1.25-1.25,1.25s-1.25-.56-1.25-1.25v-20.08c0-1.52-1.24-2.77-2.77-2.77s-2.77,1.24-2.77,2.77v28.11c0,.55-.36,1.04-.89,1.2-.53.16-1.1-.05-1.4-.51l-5.53-8.43c-.38-.57-1-.94-1.69-1.01-.08,0-.16-.01-.23-.01Z" fill="#ffb400" stroke-width="0"/><path d="M129.36,128.17c0,1.04-.84,1.88-1.88,1.88h-5.21v5.21c0,1.04-.84,1.88-1.88,1.88s-1.88-.84-1.88-1.88v-5.21h-5.21c-1.04,0-1.88-.84-1.88-1.88s.84-1.88,1.88-1.88h5.21v-5.21c0-1.04.84-1.88,1.88-1.88s1.88.84,1.88,1.88v5.21h5.21c1.04,0,1.88.84,1.88,1.88Z" stroke-width="0"/></svg>