<?xml version="1.0" encoding="UTF-8"?><svg id="Layer_1" xmlns="http://www.w3.org/2000/svg" viewBox="0 0 216 216"><path d="M154.06,63.27h-4.44c-11.67,0-22.97-3.42-32.68-9.9l-7.56-5.04c-.84-.56-1.93-.56-2.77,0l-7.56,5.04c-9.71,6.47-21.01,9.9-32.68,9.9h-4.44c-1.38,0-2.5,1.12-2.5,2.5v36.23c0,21.42,10.64,41.3,28.46,53.18l18.72,12.48c.42.28.9.42,1.39.42s.97-.14,1.39-.42l18.71-12.48c17.82-11.88,28.46-31.76,28.46-53.18v-36.23c0-1.38-1.12-2.5-2.5-2.5ZM151.56,102c0,19.74-9.81,38.07-26.24,49.02l-17.33,11.55-17.33-11.55c-16.43-10.95-26.24-29.28-26.24-49.02v-33.73h1.94c12.66,0,24.92-3.71,35.46-10.73l6.17-4.11,6.17,4.11c10.53,7.02,22.79,10.73,35.45,10.73h1.94v33.73Z" stroke-width="0"/><path d="M107.44,81.62c0-3.04,2.57-5.51,5.73-5.51s5.73,2.47,5.73,5.51-2.57,5.51-5.73,5.51-5.73-2.47-5.73-5.51ZM116.63,96.9c-3.79-5.86-5.82-9.86-10.62-9.86-5.81,0-8.88,5.12-10.44,11.02-2.65,10.03-1.92,24.66-1.51,27.04.11.61,1.4,1.02,3.26,1.26v10.13c0,1.27.83,2.67,2.4,2.67s2.4-1.39,2.4-2.67v-9.88c.85,0,1.72-.03,2.57-.07v10.48c0,1.36.89,2.86,2.57,2.86s2.57-1.49,2.57-2.86v-11.02c1.86-.34,3.14-.8,3.19-1.38.19-2.22-1.98-25.94-1.98-25.94,4.03,6.2,7.21,11.76,10.17,9.72,2.48-1.71-1.45-6.67-4.58-11.51Z" fill="#ffb400" stroke-width="0"/><path d="M121.21,108.42c-.67.46-1.35.52-2.05.28v29.02c0,.69.56,1.25,1.25,1.25s1.25-.56,1.25-1.25v-29.3c0-.12-.04-.23-.07-.35-.1.13-.23.24-.38.35Z" stroke-width="0"/></svg>