<svg xmlns="http://www.w3.org/2000/svg" xmlns:xlink="http://www.w3.org/1999/xlink" version="1.1" id="Layer_1" x="0px" y="0px" style="enable-background:new 0 0 216 216;" xml:space="preserve" viewBox="37.41 14.84 151.08 183.17">
<style type="text/css">
	.st0{fill:#FFB400;}
	.st1{fill:#FDEDBF;}
	.st2{fill:#FDF7E8;}
	.st3{fill:#646464;}
	.st4{fill:#C5C5C5;}
	.st5{fill:#F2F2F2;}
	.st6{fill:#FFFAEB;}
	.st7{fill:#FFCA4C;}
	.st8{fill:#FFE199;}
	.st9{fill:#FFECBF;}
	.st10{fill:#FFD980;}
	.st11{fill:#00A0B4;}
	.st12{fill:#AAD200;}
	.st13{fill:#F04646;}
</style>
<g>
	<g>
		<g>
			<g>
				<path class="st0" d="M177.73,180.63h-13.72c0.12,1.4,0.61,2.49,1.47,3.29c0.86,0.79,1.92,1.19,3.18,1.19      c1.63,0,2.84-0.63,3.63-1.89c0.18-0.28,0.49-0.46,0.82-0.46l4.01,0c0.35,0,0.6,0.36,0.47,0.69c-0.6,1.56-1.6,2.86-2.98,3.91      c-1.58,1.2-3.53,1.8-5.84,1.8c-1.87,0-3.54-0.41-5.02-1.24c-1.48-0.83-2.63-2-3.46-3.51c-0.83-1.52-1.24-3.26-1.24-5.24      c0-2,0.41-3.76,1.22-5.28c0.82-1.52,1.96-2.68,3.43-3.5c1.47-0.82,3.16-1.22,5.07-1.22c1.84,0,3.49,0.4,4.95,1.19      c1.46,0.79,2.59,1.92,3.39,3.37c0.8,1.46,1.2,3.13,1.2,5.02c0,0.52-0.03,1-0.08,1.45C178.2,180.44,177.98,180.63,177.73,180.63z       M173.24,177.34c-0.02-1.26-0.48-2.27-1.36-3.02c-0.88-0.76-1.97-1.14-3.25-1.14c-1.21,0-2.23,0.37-3.06,1.1      c-0.83,0.73-1.33,1.75-1.52,3.06H173.24z"/>
				<path d="M44.16,170.17c1.17-0.61,2.48-0.91,3.95-0.91c1.68,0,3.21,0.41,4.6,1.24c1.39,0.83,2.48,1.99,3.27,3.48      c0.79,1.49,1.19,3.2,1.19,5.14s-0.4,3.67-1.19,5.19c-0.79,1.53-1.88,2.72-3.27,3.57c-1.39,0.85-2.92,1.28-4.6,1.28      c-1.47,0-2.77-0.3-3.91-0.89c-1.14-0.59-2.07-1.33-2.8-2.22v11.46c0,0.27-0.22,0.5-0.5,0.5h-2.99c-0.27,0-0.5-0.22-0.5-0.5      v-27.43c0-0.27,0.22-0.5,0.5-0.5h2.99c0.27,0,0.5,0.22,0.5,0.5v2.33C42.07,171.52,42.99,170.78,44.16,170.17z M52.28,175.68      c-0.55-0.97-1.27-1.7-2.17-2.2c-0.9-0.5-1.86-0.75-2.88-0.75c-1,0-1.95,0.26-2.85,0.77c-0.9,0.51-1.62,1.26-2.17,2.24      c-0.55,0.98-0.82,2.13-0.82,3.46s0.27,2.49,0.82,3.48c0.55,0.99,1.27,1.74,2.17,2.25c0.9,0.51,1.85,0.77,2.85,0.77      c1.03,0,1.99-0.26,2.88-0.79c0.9-0.52,1.62-1.29,2.17-2.29c0.55-1,0.82-2.17,0.82-3.5C53.11,177.79,52.83,176.65,52.28,175.68z"/>
				<path d="M95.7,170.21c1.2,0.63,2.14,1.56,2.81,2.8c0.68,1.24,1.01,2.73,1.01,4.47v10.86c0,0.27-0.22,0.5-0.5,0.5h-2.96      c-0.27,0-0.5-0.22-0.5-0.5v-10.27c0-1.72-0.43-3.05-1.29-3.97c-0.86-0.92-2.04-1.38-3.53-1.38c-1.49,0-2.67,0.46-3.55,1.38      c-0.87,0.92-1.31,2.24-1.31,3.97v10.27c0,0.27-0.22,0.5-0.5,0.5H82.4c-0.27,0-0.5-0.22-0.5-0.5v-18.27c0-0.27,0.22-0.5,0.5-0.5      h2.99c0.27,0,0.5,0.22,0.5,0.5v1.71c0.65-0.79,1.49-1.41,2.5-1.85c1.01-0.44,2.09-0.66,3.23-0.66      C93.14,169.26,94.5,169.58,95.7,170.21z"/>
				<path d="M77.88,180.69H63.6c0.12,1.54,0.69,2.77,1.71,3.71c1.03,0.93,2.28,1.4,3.78,1.4c1.95,0,3.37-0.74,4.28-2.22      c0.16-0.26,0.53-0.48,0.84-0.48h3.01c0.36,0,0.6,0.37,0.46,0.7c-0.61,1.46-1.58,2.68-2.9,3.66c-1.53,1.13-3.42,1.7-5.68,1.7      c-1.84,0-3.49-0.41-4.95-1.24c-1.46-0.83-2.6-1.99-3.43-3.5c-0.83-1.5-1.24-3.24-1.24-5.23c0-1.98,0.4-3.72,1.21-5.23      c0.8-1.5,1.93-2.66,3.39-3.48c1.46-0.82,3.13-1.22,5.02-1.22c1.82,0,3.44,0.4,4.86,1.19c1.42,0.79,2.53,1.91,3.32,3.34      c0.79,1.43,1.19,3.08,1.19,4.95c0,0.54-0.03,1.05-0.08,1.51C78.35,180.5,78.13,180.69,77.88,180.69z M74.29,177.48      c-0.02-1.47-0.55-2.64-1.57-3.53c-1.03-0.89-2.3-1.33-3.81-1.33c-1.38,0-2.55,0.44-3.53,1.31c-0.98,0.87-1.56,2.06-1.75,3.55      H74.29z"/>
				<path class="st0" d="M107.73,188.21c-1.36-0.58-2.44-1.42-3.23-2.52c-0.7-0.96-1.1-2.08-1.2-3.34      c-0.02-0.29,0.22-0.54,0.51-0.54l3.88,0c0.45,0,0.84,0.3,0.95,0.73c0.16,0.66,0.48,1.21,0.95,1.64      c0.64,0.58,1.52,0.87,2.64,0.87c1.14,0,2.04-0.27,2.69-0.82s0.98-1.26,0.98-2.15c0-0.72-0.22-1.32-0.66-1.78      c-0.44-0.47-1-0.83-1.66-1.1s-1.58-0.56-2.74-0.89c-1.59-0.47-2.87-0.93-3.86-1.38c-0.99-0.45-1.84-1.14-2.55-2.06      c-0.71-0.92-1.07-2.15-1.07-3.69c0-1.44,0.36-2.7,1.08-3.78c0.72-1.07,1.74-1.89,3.04-2.46c1.31-0.57,2.8-0.86,4.47-0.86      c2.52,0,4.56,0.61,6.13,1.84c1.44,1.12,2.28,2.64,2.55,4.56c0.04,0.3-0.2,0.56-0.5,0.56l-4.01,0c-0.43,0-0.81-0.29-0.94-0.7      c-0.16-0.53-0.48-0.99-0.94-1.38c-0.66-0.55-1.54-0.82-2.64-0.82c-0.96,0-1.72,0.24-2.29,0.73c-0.57,0.49-0.86,1.2-0.86,2.13      c0,0.65,0.21,1.19,0.65,1.63c0.43,0.43,0.97,0.78,1.61,1.05c0.64,0.27,1.54,0.58,2.71,0.93c1.58,0.47,2.88,0.93,3.88,1.4      c1,0.47,1.86,1.17,2.59,2.1c0.72,0.93,1.08,2.16,1.08,3.67c0,1.31-0.34,2.52-1.01,3.64s-1.67,2.01-2.97,2.67      c-1.31,0.66-2.85,1-4.65,1C110.62,189.09,109.09,188.79,107.73,188.21z"/>
				<path class="st0" d="M124.88,173.88c0.78-1.51,1.84-2.68,3.18-3.5c1.34-0.82,2.84-1.22,4.49-1.22c1.44,0,2.71,0.29,3.79,0.87      c1.08,0.58,1.95,1.32,2.6,2.2v-2.27c0-0.27,0.22-0.5,0.5-0.5h3.94c0.27,0,0.5,0.22,0.5,0.5v18.38c0,0.27-0.22,0.5-0.5,0.5h-3.94      c-0.27,0-0.5-0.22-0.5-0.5v-2.34c-0.63,0.91-1.5,1.66-2.6,2.25s-2.38,0.89-3.83,0.89c-1.63,0-3.12-0.42-4.46-1.26      c-1.34-0.84-2.4-2.02-3.18-3.55c-0.78-1.53-1.17-3.28-1.17-5.26C123.71,177.13,124.1,175.39,124.88,173.88z M138.25,176.1      c-0.47-0.85-1.1-1.5-1.89-1.96c-0.79-0.45-1.64-0.68-2.55-0.68s-1.75,0.22-2.52,0.66c-0.77,0.44-1.39,1.09-1.87,1.94      s-0.72,1.86-0.72,3.02c0,1.17,0.24,2.18,0.72,3.06c0.48,0.87,1.11,1.54,1.89,2.01c0.78,0.47,1.61,0.7,2.5,0.7      c0.91,0,1.76-0.23,2.55-0.68c0.79-0.45,1.42-1.11,1.89-1.96c0.47-0.85,0.7-1.87,0.7-3.06S138.72,176.95,138.25,176.1z"/>
				<path class="st0" d="M157.07,173.49h-2.9v14.85c0,0.27-0.22,0.5-0.5,0.5h-3.97c-0.27,0-0.5-0.22-0.5-0.5v-14.85h-1.71      c-0.27,0-0.5-0.22-0.5-0.5v-3.03c0-0.27,0.22-0.5,0.5-0.5h1.71v-0.98c0-2.38,0.68-4.13,2.03-5.24c1.27-1.05,3.14-1.57,5.61-1.58      c0.27,0,0.51,0.23,0.51,0.5v3.14c0,0.27-0.22,0.48-0.49,0.49c-0.93,0.04-1.59,0.23-1.99,0.59c-0.47,0.42-0.7,1.18-0.7,2.27v0.8      h2.9c0.27,0,0.5,0.22,0.5,0.5V173C157.57,173.27,157.35,173.49,157.07,173.49z"/>
			</g>
			<g>
				<path d="M182.12,159.34v0.68h-1.35v4.38h-0.83v-4.38h-1.36v-0.68H182.12z"/>
				<path d="M188.49,159.34v5.06h-0.83v-3.47l-1.54,3.47h-0.58l-1.55-3.47v3.47h-0.83v-5.06h0.89l1.78,3.97l1.77-3.97H188.49z"/>
			</g>
		</g>
	</g>
	<g>
		<g>
			<path class="st6" d="M107.96,140.85L107.96,140.85c-34.02,0-61.59-27.58-61.59-61.59v0c0-34.02,27.58-61.59,61.59-61.59h0     c34.02,0,61.59,27.58,61.59,61.59v0C169.55,113.27,141.97,140.85,107.96,140.85z"/>
		</g>
		<g>
			<g>
				<g>
					<path class="st13" d="M47.05,69.55c-1.7-0.36-2.78-2.03-2.42-3.72l0,0c0.36-1.7,2.03-2.78,3.72-2.42l0,0       c1.7,0.36,2.79,2.03,2.42,3.72l0,0c-0.31,1.49-1.62,2.49-3.07,2.49l0,0C47.49,69.62,47.27,69.6,47.05,69.55z M165.22,67.08       L165.22,67.08c-0.36-1.69,0.72-3.36,2.42-3.73l0,0c1.69-0.36,3.36,0.73,3.73,2.42l0,0l0,0l0,0c0.36,1.69-0.73,3.36-2.42,3.72       l0,0c-0.22,0.05-0.43,0.07-0.65,0.07l0,0C166.84,69.57,165.53,68.56,165.22,67.08z M50.4,57.1c-1.58-0.71-2.3-2.56-1.59-4.15       l0,0l0,0l0,0c0.71-1.58,2.56-2.3,4.15-1.59l0,0c1.58,0.71,2.3,2.56,1.58,4.15h0.01c-0.52,1.16-1.67,1.86-2.88,1.86l0,0       C51.25,57.37,50.82,57.28,50.4,57.1z M161.43,55.46c-0.7-1.58,0.01-3.44,1.59-4.15l0,0c1.58-0.71,3.44,0,4.15,1.58l0,0       c0.71,1.58,0,3.44-1.58,4.15l0,0c-0.42,0.18-0.85,0.27-1.29,0.27l0,0C163.1,57.32,161.95,56.64,161.43,55.46z M56.28,45.61       c-1.4-1.02-1.71-2.98-0.69-4.39l0,0c1.02-1.4,2.98-1.71,4.39-0.69l0,0c1.4,1.02,1.7,2.99,0.69,4.39l0,0       c-0.62,0.84-1.57,1.29-2.55,1.29l0,0C57.49,46.21,56.84,46.02,56.28,45.61z M64.42,35.6c-1.16-1.3-1.05-3.28,0.23-4.44l0,0l0,0       l0,0c1.29-1.16,3.28-1.06,4.43,0.24l0,0c1.16,1.29,1.06,3.28-0.23,4.43l0,0c-0.6,0.55-1.36,0.81-2.1,0.81l0,0       C65.9,36.64,65.04,36.29,64.42,35.6z M74.45,27.49c-0.87-1.5-0.36-3.42,1.15-4.29l0,0l0,0l0,0c1.5-0.87,3.42-0.36,4.29,1.15       l0,0c0.87,1.49,0.36,3.42-1.15,4.28l0,0c-0.49,0.29-1.03,0.43-1.57,0.43l0,0C76.09,29.06,75.03,28.49,74.45,27.49z        M85.95,21.64c-0.54-1.65,0.36-3.42,2.02-3.96l0,0c1.64-0.53,3.42,0.37,3.95,2.02l0,0c0.54,1.65-0.36,3.42-2.02,3.96l0,0       c-0.32,0.1-0.65,0.16-0.97,0.16l0,0C87.61,23.82,86.37,22.97,85.95,21.64z M126.06,23.64c-1.65-0.53-2.56-2.3-2.03-3.95l0,0       c0.54-1.65,2.31-2.55,3.96-2.03l0,0c1.65,0.54,2.55,2.31,2.02,3.96l0,0c-0.43,1.32-1.66,2.17-2.99,2.17l0,0       C126.7,23.8,126.38,23.75,126.06,23.64z M98.41,18.32c-0.18-1.72,1.07-3.27,2.8-3.45l0,0c1.72-0.18,3.27,1.07,3.45,2.8l0,0       c0.17,1.73-1.08,3.27-2.8,3.45l0,0c-0.11,0.01-0.23,0.02-0.33,0.02l0,0C99.94,21.14,98.57,19.94,98.41,18.32z M114.09,21.12       L114.09,21.12c-1.72-0.18-2.97-1.73-2.8-3.45l0,0c0.18-1.73,1.72-2.98,3.45-2.81l0,0l0,0l0,0c1.72,0.18,2.98,1.72,2.8,3.45l0,0       c-0.17,1.62-1.53,2.82-3.12,2.82l0,0C114.31,21.14,114.2,21.13,114.09,21.12z"/>
				</g>
			</g>
		</g>
		<g>
			<path d="M164.87,22.92h-1.52c-3.92,0-7.72-1.15-10.98-3.32l-2.59-1.73c-0.41-0.27-0.95-0.27-1.36,0l-2.59,1.73     c-3.26,2.18-7.06,3.32-10.98,3.32h-1.52c-0.68,0-1.23,0.55-1.23,1.23v12.4c0,7.46,3.7,14.38,9.91,18.51l6.41,4.27     c0.21,0.14,0.44,0.21,0.68,0.21s0.47-0.07,0.68-0.21l6.41-4.27c6.2-4.14,9.91-11.06,9.91-18.51v-12.4     C166.1,23.47,165.55,22.92,164.87,22.92z"/>
			<g>
				<path class="st13" d="M153.83,33.87c0-2.61-2.12-4.73-4.73-4.73c-2.61,0-4.73,2.12-4.73,4.73c0,2.05,1.31,3.79,3.13,4.45      l-1.95,9.74h7.1l-1.95-9.74C152.52,37.67,153.83,35.93,153.83,33.87z"/>
			</g>
		</g>
		<g>
			<g>
				<g>
					<g>
						<path d="M46.44,83.78c-1.16,0-2.32-0.49-3.16-1.29c-0.8-0.84-1.29-2-1.29-3.16c0-0.58,0.09-1.16,0.31-1.69        c0.27-0.53,0.58-1.03,0.98-1.47c0.4-0.4,0.89-0.71,1.46-0.93c1.07-0.44,2.27-0.44,3.38,0c0.53,0.22,1.02,0.53,1.42,0.93        c0.45,0.44,0.76,0.93,0.98,1.47c0.22,0.53,0.36,1.11,0.36,1.69c0,1.16-0.49,2.32-1.34,3.16        C48.75,83.29,47.6,83.78,46.44,83.78z"/>
					</g>
				</g>
			</g>
			<g>
				<g>
					<g>
						<path d="M169.56,83.78c-1.16,0-2.32-0.49-3.16-1.29c-0.8-0.84-1.29-2-1.29-3.16c0-0.58,0.09-1.16,0.31-1.69        c0.27-0.53,0.58-1.03,0.98-1.47c0.4-0.4,0.89-0.71,1.46-0.93c1.07-0.44,2.27-0.44,3.38,0c0.53,0.22,1.02,0.53,1.42,0.93        c0.45,0.44,0.76,0.93,0.98,1.47c0.22,0.53,0.36,1.11,0.36,1.69c0,1.16-0.49,2.32-1.34,3.16        C171.87,83.29,170.71,83.78,169.56,83.78z"/>
					</g>
				</g>
			</g>
		</g>
		<g>
			<path class="st7" d="M133.26,65.57H118.5l0,0c0,5.82-4.72,10.54-10.54,10.54c-5.82,0-10.54-4.72-10.54-10.54l0,0H82.65v25.31     v44.53c3.37,1.52,6.89,2.75,10.54,3.65v-11.4c0-0.51,0.42-0.93,0.93-0.93h27.66c0.51,0,0.93,0.42,0.93,0.93v11.4     c3.66-0.9,7.18-2.13,10.54-3.65V90.87V65.57z M97.41,119.34c0,0.58-0.47,1.05-1.05,1.05h-6.33c-0.58,0-1.05-0.47-1.05-1.05v-6.33     c0-0.58,0.47-1.05,1.05-1.05h6.33c0.58,0,1.05,0.47,1.05,1.05V119.34z M97.41,104.58c0,0.58-0.47,1.05-1.05,1.05h-6.33     c-0.58,0-1.05-0.47-1.05-1.05v-6.33c0-0.58,0.47-1.05,1.05-1.05h6.33c0.58,0,1.05,0.47,1.05,1.05V104.58z M97.41,89.82     c0,0.58-0.47,1.05-1.05,1.05h-6.33c-0.58,0-1.05-0.47-1.05-1.05v-6.33c0-0.58,0.47-1.05,1.05-1.05h6.33     c0.58,0,1.05,0.47,1.05,1.05V89.82z M112.18,119.34c0,0.58-0.47,1.05-1.05,1.05h-6.33c-0.58,0-1.05-0.47-1.05-1.05v-6.33     c0-0.58,0.47-1.05,1.05-1.05h6.33c0.58,0,1.05,0.47,1.05,1.05V119.34z M112.18,104.58c0,0.58-0.47,1.05-1.05,1.05h-6.33     c-0.58,0-1.05-0.47-1.05-1.05v-6.33c0-0.58,0.47-1.05,1.05-1.05h6.33c0.58,0,1.05,0.47,1.05,1.05V104.58z M112.18,89.82     c0,0.58-0.47,1.05-1.05,1.05h-6.33c-0.58,0-1.05-0.47-1.05-1.05v-6.33c0-0.58,0.47-1.05,1.05-1.05h6.33     c0.58,0,1.05,0.47,1.05,1.05V89.82z M126.94,119.34c0,0.58-0.47,1.05-1.05,1.05h-6.33c-0.58,0-1.05-0.47-1.05-1.05v-6.33     c0-0.58,0.47-1.05,1.05-1.05h6.33c0.58,0,1.05,0.47,1.05,1.05V119.34z M126.94,104.58c0,0.58-0.47,1.05-1.05,1.05h-6.33     c-0.58,0-1.05-0.47-1.05-1.05v-6.33c0-0.58,0.47-1.05,1.05-1.05h6.33c0.58,0,1.05,0.47,1.05,1.05V104.58z M126.94,89.82     c0,0.58-0.47,1.05-1.05,1.05h-6.33c-0.58,0-1.05-0.47-1.05-1.05v-6.33c0-0.58,0.47-1.05,1.05-1.05h6.33     c0.58,0,1.05,0.47,1.05,1.05V89.82z"/>
			<g>
				<path class="st8" d="M61.56,119.74c2.21,2.53,4.6,4.88,7.19,7.02c0.06-0.01,0.12-0.04,0.19-0.04h6.33      c0.58,0,1.05,0.47,1.05,1.05v4.33c2.03,1.22,4.15,2.32,6.33,3.3V90.87H61.56V119.74z M67.89,98.25c0-0.58,0.47-1.05,1.05-1.05      h6.33c0.58,0,1.05,0.47,1.05,1.05v6.33c0,0.58-0.47,1.05-1.05,1.05h-6.33c-0.58,0-1.05-0.47-1.05-1.05V98.25z M67.89,113.02      c0-0.58,0.47-1.05,1.05-1.05h6.33c0.58,0,1.05,0.47,1.05,1.05v6.33c0,0.58-0.47,1.05-1.05,1.05h-6.33      c-0.58,0-1.05-0.47-1.05-1.05V113.02z"/>
				<path class="st8" d="M107.96,55.02c-5.82,0-10.54,4.72-10.54,10.54c0,5.82,4.72,10.54,10.54,10.54      c5.82,0,10.54-4.72,10.54-10.54C118.5,59.74,113.78,55.02,107.96,55.02z M114.28,65.57v2.11h-4.22v4.22h-4.22v-4.22h-4.22v-2.11      v-2.11h4.22v-4.22h4.22v4.22h4.22V65.57z"/>
				<path class="st8" d="M133.26,90.87v44.53c2.18-0.98,4.29-2.08,6.33-3.3v-4.33c0-0.58,0.47-1.05,1.05-1.05h6.33      c0.07,0,0.13,0.03,0.19,0.04c2.59-2.14,4.98-4.49,7.19-7.02V90.87H133.26z M148.03,119.34c0,0.58-0.47,1.05-1.05,1.05h-6.33      c-0.58,0-1.05-0.47-1.05-1.05v-6.33c0-0.58,0.47-1.05,1.05-1.05h6.33c0.58,0,1.05,0.47,1.05,1.05V119.34z M148.03,104.58      c0,0.58-0.47,1.05-1.05,1.05h-6.33c-0.58,0-1.05-0.47-1.05-1.05v-6.33c0-0.58,0.47-1.05,1.05-1.05h6.33      c0.58,0,1.05,0.47,1.05,1.05V104.58z"/>
			</g>
		</g>
	</g>
</g>
</svg>