<?xml version="1.0" encoding="utf-8"?>
<!-- Generator: Adobe Illustrator 28.1.0, SVG Export Plug-In . SVG Version: 6.00 Build 0)  -->
<svg version="1.1" id="Layer_1" xmlns="http://www.w3.org/2000/svg" xmlns:xlink="http://www.w3.org/1999/xlink" x="0px" y="0px"
	 viewBox="0 0 216 216" style="enable-background:new 0 0 216 216;" xml:space="preserve">
<style type="text/css">
	.st0{fill:#FFB400;}
	.st1{fill:#FDEDBF;}
	.st2{fill:#FDF7E8;}
	.st3{fill:#646464;}
	.st4{fill:#C5C5C5;}
	.st5{fill:#F2F2F2;}
	.st6{fill:#FFFAEB;}
	.st7{fill:#FFCA4C;}
	.st8{fill:#FFE199;}
	.st9{fill:#FFECBF;}
	.st10{fill:#FFD980;}
	.st11{fill:#00A0B4;}
	.st12{fill:#AAD200;}
	.st13{fill:#F04646;}
</style>
<g>
	<g>
		<path d="M48.25,170.32c1.16-0.6,2.47-0.9,3.93-0.9c1.67,0,3.19,0.41,4.57,1.23c1.38,0.82,2.46,1.98,3.25,3.46
			c0.79,1.48,1.18,3.19,1.18,5.11s-0.39,3.65-1.18,5.16c-0.79,1.52-1.87,2.7-3.25,3.55c-1.38,0.85-2.9,1.27-4.57,1.27
			c-1.46,0-2.76-0.3-3.89-0.89c-1.14-0.59-2.06-1.33-2.78-2.21v11.4c0,0.27-0.22,0.49-0.49,0.49h-2.97c-0.27,0-0.49-0.22-0.49-0.49
			v-27.28c0-0.27,0.22-0.49,0.49-0.49H45c0.27,0,0.49,0.22,0.49,0.49v2.32C46.17,171.66,47.09,170.92,48.25,170.32z M56.33,175.8
			c-0.54-0.96-1.26-1.69-2.16-2.19c-0.89-0.5-1.85-0.75-2.87-0.75c-1,0-1.94,0.26-2.83,0.77c-0.89,0.51-1.61,1.25-2.16,2.23
			c-0.54,0.97-0.82,2.12-0.82,3.44s0.27,2.47,0.82,3.46c0.54,0.99,1.26,1.73,2.16,2.24c0.89,0.51,1.84,0.77,2.83,0.77
			c1.02,0,1.98-0.26,2.87-0.78c0.89-0.52,1.61-1.28,2.16-2.28c0.54-1,0.82-2.16,0.82-3.48C57.15,177.9,56.88,176.76,56.33,175.8z"/>
		<path d="M99.51,170.35c1.19,0.63,2.13,1.55,2.8,2.78c0.67,1.23,1.01,2.71,1.01,4.45v10.81c0,0.27-0.22,0.49-0.49,0.49h-2.94
			c-0.27,0-0.49-0.22-0.49-0.49v-10.22c0-1.72-0.43-3.03-1.29-3.95c-0.86-0.92-2.03-1.37-3.51-1.37c-1.48,0-2.66,0.46-3.53,1.37
			c-0.87,0.92-1.3,2.23-1.3,3.95v10.22c0,0.27-0.22,0.49-0.49,0.49h-2.97c-0.27,0-0.49-0.22-0.49-0.49v-18.17
			c0-0.27,0.22-0.49,0.49-0.49h2.97c0.27,0,0.49,0.22,0.49,0.49v1.7c0.65-0.79,1.48-1.4,2.49-1.84c1.01-0.44,2.08-0.66,3.22-0.66
			C96.97,169.42,98.32,169.73,99.51,170.35z"/>
		<path d="M81.79,180.79h-14.2c0.12,1.53,0.68,2.76,1.7,3.69c1.02,0.93,2.27,1.39,3.76,1.39c1.93,0,3.35-0.73,4.26-2.2
			c0.16-0.26,0.53-0.47,0.83-0.47h2.99c0.36,0,0.6,0.36,0.46,0.69c-0.61,1.45-1.57,2.66-2.89,3.64c-1.52,1.12-3.4,1.69-5.65,1.69
			c-1.83,0-3.47-0.41-4.92-1.23c-1.45-0.82-2.59-1.98-3.41-3.48c-0.82-1.5-1.23-3.23-1.23-5.2c0-1.97,0.4-3.7,1.2-5.2
			c0.8-1.5,1.92-2.65,3.37-3.46c1.45-0.81,3.11-1.22,4.99-1.22c1.81,0,3.42,0.39,4.83,1.18c1.41,0.79,2.52,1.9,3.3,3.32
			c0.79,1.43,1.18,3.07,1.18,4.92c0,0.54-0.03,1.04-0.08,1.5C82.25,180.6,82.04,180.79,81.79,180.79z M78.22,177.59
			c-0.02-1.46-0.54-2.63-1.57-3.51c-1.02-0.88-2.28-1.32-3.79-1.32c-1.37,0-2.54,0.43-3.51,1.3c-0.97,0.87-1.55,2.05-1.74,3.53
			H78.22z"/>
		<path class="st0" d="M127.94,188.89h-3.85c-0.33,0-0.64-0.17-0.82-0.44l-10.73-16.21v16.16c0,0.27-0.22,0.49-0.49,0.49h-3.88
			c-0.27,0-0.49-0.22-0.49-0.49v-23.32c0-0.27,0.22-0.49,0.49-0.49h3.84c0.33,0,0.64,0.17,0.82,0.44l10.73,16.25v-16.2
			c0-0.27,0.22-0.49,0.49-0.49h3.88c0.27,0,0.49,0.22,0.49,0.49v23.32C128.43,188.67,128.21,188.89,127.94,188.89z"/>
		<path class="st0" d="M133.25,174.01c0.78-1.51,1.83-2.67,3.17-3.48c1.33-0.81,2.82-1.22,4.47-1.22c1.44,0,2.69,0.29,3.77,0.87
			c1.08,0.58,1.94,1.31,2.59,2.19v-2.25c0-0.27,0.22-0.49,0.49-0.49h3.92c0.27,0,0.49,0.22,0.49,0.49v18.28
			c0,0.27-0.22,0.49-0.49,0.49h-3.92c-0.27,0-0.49-0.22-0.49-0.49v-2.32c-0.63,0.9-1.49,1.65-2.59,2.24
			c-1.1,0.59-2.37,0.89-3.81,0.89c-1.62,0-3.1-0.42-4.43-1.25c-1.33-0.83-2.39-2.01-3.17-3.53c-0.78-1.52-1.16-3.26-1.16-5.23
			C132.09,177.24,132.48,175.51,133.25,174.01z M146.56,176.22c-0.46-0.85-1.09-1.49-1.88-1.95c-0.79-0.45-1.64-0.68-2.54-0.68
			s-1.74,0.22-2.5,0.66c-0.77,0.44-1.39,1.08-1.86,1.93c-0.48,0.85-0.71,1.85-0.71,3.01s0.24,2.17,0.71,3.04
			c0.48,0.87,1.1,1.54,1.88,2c0.78,0.46,1.61,0.7,2.49,0.7c0.9,0,1.75-0.23,2.54-0.68c0.79-0.45,1.41-1.1,1.88-1.95
			c0.46-0.85,0.69-1.86,0.69-3.04S147.02,177.06,146.56,176.22z"/>
		<path class="st0" d="M164.63,184.4l4.64-14.1c0.13-0.4,0.51-0.68,0.94-0.68h3.76c0.34,0,0.58,0.34,0.46,0.66l-6.64,17.96
			c-0.14,0.39-0.51,0.64-0.92,0.64h-4.54c-0.41,0-0.78-0.26-0.93-0.65l-6.61-17.96c-0.12-0.32,0.12-0.66,0.46-0.66h3.8
			c0.43,0,0.8,0.27,0.94,0.68L164.63,184.4z"/>
	</g>
	<g>
		<path d="M178.26,159.55v0.67h-1.34v4.36h-0.83v-4.36h-1.35v-0.67H178.26z"/>
		<path d="M184.59,159.55v5.04h-0.83v-3.45l-1.54,3.45h-0.57l-1.54-3.45v3.45h-0.83v-5.04h0.89l1.77,3.95l1.76-3.95H184.59z"/>
	</g>
</g>
<g>
	<g>
		<path class="st6" d="M107.96,140.85L107.96,140.85c-34.02,0-61.6-27.58-61.6-61.6v0c0-34.02,27.58-61.6,61.6-61.6h0
			c34.02,0,61.6,27.58,61.6,61.6v0C169.55,113.27,141.98,140.85,107.96,140.85z"/>
	</g>
	<g>
		<g>
			<path class="st7" d="M130.62,72.4H85.29c-3.13,0-5.67,2.16-5.67,4.82v56.71c1.76,0.91,3.57,1.74,5.42,2.49v-1.5v0v-20.6v-3.42
				v-3.42V80.04h4.64h0h3.42h3.42h9.69c0,0.96,0.78,1.73,1.74,1.73c0.96,0,1.74-0.78,1.74-1.73h2.8h3.42h1.21h2.21h1.21h3.42h5.96h0
				h0.93v2.49v3.42v0.98v3.42v3.42v20.6v2.18v1.24v2.18v1.24v2.18v0v13.03c1.86-0.74,3.66-1.57,5.43-2.49V77.22
				C136.29,74.56,133.75,72.4,130.62,72.4z"/>
			<path class="st7" d="M109.69,87.86v-1.59v-1.01c0-0.65-0.36-1.21-0.9-1.51c-0.25-0.14-0.53-0.23-0.84-0.23
				c-0.96,0-1.74,0.78-1.74,1.74v1.07v0v1.54c0,0.52,0.23,0.98,0.59,1.29c0.31,0.27,0.71,0.44,1.15,0.44
				C108.91,89.59,109.69,88.82,109.69,87.86z"/>
			<path class="st7" d="M96.99,100.7c0.44,0,0.89-0.17,1.23-0.51l1.84-1.84c0.68-0.68,0.68-1.78,0-2.46c0,0,0,0,0,0
				c-0.68-0.68-1.78-0.68-2.46,0l-1.84,1.84c-0.68,0.68-0.68,1.78,0,2.46c0,0,0,0,0,0C96.1,100.53,96.55,100.7,96.99,100.7z"/>
			<path class="st7" d="M102.53,95.17c0.44,0,0.89-0.17,1.23-0.51l0.27-0.27l1.57-1.57c0.05-0.05,0.09-0.1,0.13-0.16
				c0.54-0.68,0.5-1.67-0.13-2.3c0,0,0,0,0,0c-0.63-0.63-1.62-0.67-2.3-0.13c-0.05,0.04-0.11,0.08-0.16,0.13l-1.57,1.57l-0.27,0.27
				c-0.68,0.68-0.68,1.78,0,2.46c0,0,0,0,0,0C101.64,95,102.08,95.17,102.53,95.17z"/>
			<path class="st7" d="M95.04,106.95c-0.68-0.68-1.78-0.68-2.46,0c0,0,0,0,0,0c-0.68,0.68-0.68,1.78,0,2.46l1.84,1.84
				c0.34,0.34,0.78,0.51,1.23,0.51s0.89-0.17,1.23-0.51c0,0,0,0,0,0c0.68-0.68,0.68-1.78,0-2.46L95.04,106.95z"/>
			<path class="st7" d="M100.57,112.48c-0.68-0.68-1.78-0.68-2.46,0c0,0,0,0,0,0c-0.68,0.68-0.68,1.78,0,2.46l1.84,1.84
				c0.34,0.34,0.78,0.51,1.23,0.51s0.89-0.17,1.23-0.51h0c0,0,0,0,0,0c0.68-0.68,0.68-1.78,0-2.46L100.57,112.48z"/>
			<path class="st7" d="M93.73,104.68l0.8-0.8c0.68-0.68,0.68-1.78,0-2.46c0,0,0,0,0,0c-0.68-0.68-1.78-0.68-2.46,0l-0.8,0.8
				l-1.04,1.04c-0.68,0.68-0.68,1.78,0,2.46c0,0,0,0,0,0c0.34,0.34,0.78,0.51,1.23,0.51c0.12,0,0.24-0.01,0.36-0.04
				c0.32-0.07,0.62-0.22,0.87-0.47L93.73,104.68z"/>
			<path class="st7" d="M107.45,119.37l-1.35-1.35c-0.68-0.68-1.78-0.68-2.46,0c0,0,0,0,0,0v0c-0.55,0.55-0.65,1.38-0.3,2.04
				c0.08,0.15,0.17,0.29,0.3,0.42l1.35,1.35l0.49,0.49c0.34,0.34,0.78,0.51,1.23,0.51s0.89-0.17,1.23-0.51h0c0,0,0,0,0,0
				c0.68-0.68,0.68-1.78,0-2.46L107.45,119.37z"/>
			<path class="st7" d="M111.63,123.55c-0.68-0.68-1.78-0.68-2.46,0c0,0,0,0,0,0v0c-0.68,0.68-0.68,1.78,0,2.46l1.84,1.84
				c0.34,0.34,0.78,0.51,1.23,0.51s0.89-0.17,1.23-0.51c0,0,0,0,0,0c0.68-0.68,0.68-1.78,0-2.46L111.63,123.55z"/>
			<path class="st7" d="M118.74,135.52c-0.16-0.05-0.33-0.08-0.51-0.08c0,0,0,0,0,0c-0.18,0-0.35,0.03-0.51,0.08
				c-0.71,0.22-1.23,0.87-1.23,1.65v2.61c0,0.16,0.03,0.31,0.07,0.45c0.56-0.08,1.12-0.17,1.67-0.26c0.58-0.1,1.16-0.2,1.74-0.31
				v-1.9v-0.59C119.97,136.39,119.45,135.74,118.74,135.52z"/>
			<path class="st7" d="M117.78,133.89c0.15,0,0.31-0.03,0.46-0.07c0.28-0.08,0.55-0.22,0.77-0.44c0,0,0,0,0,0
				c0.52-0.52,0.64-1.28,0.37-1.91c-0.08-0.2-0.21-0.39-0.37-0.55l-1.25-1.25l-0.59-0.59c-0.37-0.37-0.86-0.53-1.35-0.5
				c-0.4,0.03-0.8,0.19-1.11,0.5c0,0,0,0,0,0c-0.68,0.68-0.68,1.78,0,2.46l0.59,0.59l0.52,0.52l0.73,0.73
				C116.89,133.72,117.33,133.89,117.78,133.89z"/>
		</g>
		<polygon class="st10" points="130.86,80.04 123.97,80.04 130.86,86.93 		"/>
		<polygon class="st8" points="123.53,86.44 118.23,81.15 113.97,85.41 107.93,91.44 130.86,114.37 130.86,93.78 126.95,89.86 		"/>
		<path class="st10" d="M104.51,88.02l1.7-1.7v-1.07c0-0.96,0.78-1.74,1.74-1.74c0.31,0,0.59,0.09,0.84,0.23l2.34-2.34l1.36-1.36
			h-2.8c0,0.96-0.78,1.73-1.74,1.73c-0.96,0-1.74-0.78-1.74-1.73h-9.69l0.74,0.74L104.51,88.02z"/>
		<polygon class="st10" points="87.37,105.16 88.53,104.01 90.79,101.74 90.79,101.74 101.09,91.44 93.84,84.2 89.68,80.04 
			85.05,80.04 85.05,107.49 87.37,105.16 		"/>
		<polygon class="st8" points="90.79,108.59 85.84,113.54 85.05,114.33 85.05,134.93 101.09,118.89 		"/>
		<polygon class="st10" points="94.21,105.16 104.51,115.46 107.93,118.89 115.81,126.76 115.81,126.76 118.23,129.18 
			123.38,124.03 128.53,118.89 104.51,94.87 102.42,96.96 		"/>
		<path class="st8" d="M126.8,127.46l-5.15,5.15l5.26,5.26c1.34-0.43,2.66-0.91,3.95-1.43V123.4L126.8,127.46z"/>
		<path class="st10" d="M120.65,139.53c0.29-0.06,0.58-0.14,0.88-0.2l-0.88-0.88V139.53z"/>
		<path class="st8" d="M114.81,132.61l-10.3-10.3l-15.54,15.54c5.98,1.94,12.36,3,18.99,3h0c2.66,0,5.28-0.19,7.86-0.52v-6.72
			L114.81,132.61z"/>
	</g>
	<g>
		<g>
			<g>
				<path class="st11" d="M47.05,69.51c-1.7-0.36-2.78-2.03-2.43-3.72l0,0c0.36-1.69,2.03-2.78,3.72-2.42l0,0
					c1.69,0.36,2.78,2.02,2.43,3.73l0,0c-0.31,1.47-1.62,2.49-3.07,2.49l0,0C47.48,69.58,47.27,69.56,47.05,69.51z M165.14,67.04
					c-0.36-1.7,0.73-3.36,2.43-3.72l0,0c1.7-0.36,3.36,0.72,3.72,2.42l0,0l0,0l0,0c0.36,1.7-0.72,3.36-2.42,3.73l0,0
					c-0.23,0.04-0.44,0.07-0.66,0.07l0,0C166.75,69.53,165.45,68.52,165.14,67.04z M50.39,57.06c-1.58-0.7-2.29-2.55-1.59-4.15l0,0
					c0.7-1.58,2.56-2.3,4.15-1.58l0,0c1.58,0.7,2.29,2.56,1.59,4.15l0,0c-0.52,1.16-1.67,1.86-2.87,1.86l0,0
					C51.25,57.34,50.81,57.25,50.39,57.06z M56.27,45.58c-1.4-1.02-1.7-2.98-0.69-4.38l0,0c1.02-1.41,2.98-1.71,4.38-0.7l0,0
					c1.41,1.02,1.71,2.98,0.7,4.38l0,0c-0.62,0.85-1.57,1.3-2.54,1.3l0,0C57.48,46.18,56.84,45.99,56.27,45.58z M64.41,35.58
					c-1.16-1.29-1.06-3.27,0.23-4.43l0,0c1.3-1.16,3.28-1.06,4.44,0.23l0,0c1.16,1.29,1.05,3.27-0.23,4.43l0,0
					c-0.6,0.54-1.35,0.81-2.1,0.81l0,0C65.88,36.62,65.02,36.27,64.41,35.58z M74.43,27.48c-0.87-1.5-0.36-3.42,1.15-4.29l0,0l0,0
					l0,0c1.49-0.87,3.42-0.36,4.28,1.15l0,0c0.87,1.5,0.36,3.42-1.14,4.28v0.01c-0.49,0.29-1.03,0.42-1.57,0.42l0,0
					C76.06,29.04,75.01,28.49,74.43,27.48z M137.17,28.6L137.17,28.6c-1.5-0.87-2.02-2.78-1.15-4.29l0,0
					c0.87-1.5,2.78-2.02,4.29-1.15l0,0l0,0l0,0c1.5,0.87,2.02,2.79,1.15,4.28l0,0c-0.58,1.01-1.63,1.57-2.72,1.57l0,0
					C138.2,29.03,137.65,28.89,137.17,28.6z M85.91,21.63c-0.53-1.64,0.37-3.42,2.02-3.95l0,0c1.65-0.53,3.42,0.36,3.96,2.02l0,0
					c0.53,1.65-0.37,3.42-2.02,3.95l0,0c-0.32,0.1-0.65,0.16-0.97,0.16l0,0C87.58,23.8,86.34,22.96,85.91,21.63z M126.01,23.63
					c-1.65-0.53-2.56-2.3-2.03-3.95l0,0c0.54-1.65,2.3-2.55,3.95-2.03l0,0l0,0l0,0c1.65,0.54,2.56,2.31,2.03,3.96l0,0
					c-0.43,1.33-1.67,2.17-2.99,2.17l0,0C126.65,23.79,126.33,23.74,126.01,23.63z M98.37,18.32c-0.18-1.73,1.07-3.27,2.8-3.45l0,0
					c1.72-0.18,3.26,1.08,3.44,2.8l0,0c0.18,1.73-1.07,3.27-2.8,3.45l0,0c-0.1,0.01-0.22,0.02-0.32,0.02l0,0
					C99.9,21.13,98.54,19.93,98.37,18.32z M114.05,21.11c-1.72-0.17-2.98-1.72-2.8-3.44l0,0c0.17-1.73,1.72-2.98,3.44-2.8l0,0
					c1.73,0.17,2.98,1.72,2.8,3.44l0,0c-0.17,1.62-1.53,2.82-3.11,2.82l0,0C114.26,21.13,114.16,21.12,114.05,21.11z"/>
			</g>
		</g>
	</g>
	<g>
		<path d="M169.44,57.8l-18.14-39.42c-0.2-0.44-0.64-0.71-1.11-0.71s-0.91,0.28-1.11,0.71L130.92,57.8
			c-0.21,0.46-0.12,1.01,0.24,1.37c0.36,0.36,0.9,0.47,1.37,0.27l17.65-7.67l17.65,7.67c0.16,0.07,0.32,0.1,0.49,0.1
			c0.32,0,0.64-0.13,0.88-0.37C169.55,58.81,169.65,58.26,169.44,57.8z"/>
		<g>
			<polygon class="st11" points="136.35,54.09 148.03,49.01 148.03,28.72 			"/>
		</g>
	</g>
	<g>
		<g>
			<g>
				<g>
					<path d="M46.44,83.78c-1.16,0-2.32-0.49-3.16-1.29c-0.8-0.84-1.29-2-1.29-3.16c0-0.58,0.09-1.16,0.31-1.69
						c0.27-0.53,0.58-1.03,0.98-1.47c0.4-0.4,0.89-0.71,1.46-0.93c1.07-0.44,2.27-0.44,3.39,0c0.53,0.22,1.02,0.53,1.42,0.93
						c0.45,0.44,0.76,0.93,0.98,1.47c0.22,0.53,0.36,1.11,0.36,1.69c0,1.16-0.49,2.32-1.34,3.16C48.75,83.29,47.6,83.78,46.44,83.78
						z"/>
				</g>
			</g>
		</g>
		<g>
			<g>
				<g>
					<path d="M169.56,83.78c-1.16,0-2.32-0.49-3.16-1.29c-0.8-0.84-1.29-2-1.29-3.16c0-0.58,0.09-1.16,0.31-1.69
						c0.27-0.53,0.58-1.03,0.98-1.47c0.4-0.4,0.89-0.71,1.46-0.93c1.07-0.44,2.27-0.44,3.39,0c0.53,0.22,1.02,0.53,1.42,0.93
						c0.45,0.44,0.76,0.93,0.98,1.47c0.22,0.53,0.36,1.11,0.36,1.69c0,1.16-0.49,2.32-1.34,3.16
						C171.87,83.29,170.72,83.78,169.56,83.78z"/>
				</g>
			</g>
		</g>
	</g>
</g>
</svg>
