<svg xmlns="http://www.w3.org/2000/svg" xmlns:xlink="http://www.w3.org/1999/xlink" version="1.1" id="Layer_1" x="0px" y="0px" style="enable-background:new 0 0 216 216;" xml:space="preserve" viewBox="28.36 14.84 169.45 183.17">
<style type="text/css">
	.st0{fill:#FFB400;}
	.st1{fill:#FDEDBF;}
	.st2{fill:#FDF7E8;}
	.st3{fill:#646464;}
	.st4{fill:#C5C5C5;}
	.st5{fill:#F2F2F2;}
	.st6{fill:#FFFAEB;}
	.st7{fill:#FFCA4C;}
	.st8{fill:#FFE199;}
	.st9{fill:#FFECBF;}
	.st10{fill:#FFD980;}
	.st11{fill:#00A0B4;}
	.st12{fill:#AAD200;}
	.st13{fill:#F04646;}
</style>
<g>
	<g>
		<g>
			<g>
				<path d="M35.11,170.17c1.17-0.61,2.48-0.91,3.95-0.91c1.68,0,3.21,0.41,4.6,1.24c1.39,0.83,2.48,1.99,3.27,3.48      c0.79,1.49,1.19,3.2,1.19,5.14s-0.4,3.67-1.19,5.19c-0.79,1.53-1.88,2.72-3.27,3.57c-1.39,0.85-2.92,1.28-4.6,1.28      c-1.47,0-2.77-0.3-3.91-0.89c-1.14-0.59-2.08-1.33-2.8-2.22v11.46c0,0.27-0.22,0.5-0.5,0.5h-2.99c-0.27,0-0.5-0.22-0.5-0.5      v-27.43c0-0.27,0.22-0.5,0.5-0.5h2.99c0.27,0,0.5,0.22,0.5,0.5v2.33C33.02,171.52,33.95,170.78,35.11,170.17z M43.24,175.68      c-0.55-0.97-1.27-1.7-2.17-2.2c-0.9-0.5-1.86-0.75-2.88-0.75c-1,0-1.95,0.26-2.85,0.77c-0.9,0.51-1.62,1.26-2.17,2.24      c-0.55,0.98-0.82,2.13-0.82,3.46c0,1.33,0.27,2.49,0.82,3.48c0.55,0.99,1.27,1.74,2.17,2.25c0.9,0.51,1.85,0.77,2.85,0.77      c1.03,0,1.99-0.26,2.88-0.79c0.9-0.52,1.62-1.29,2.17-2.29c0.55-1,0.82-2.17,0.82-3.5C44.06,177.79,43.79,176.65,43.24,175.68z"/>
				<path d="M86.65,170.21c1.2,0.63,2.14,1.56,2.81,2.8c0.68,1.24,1.01,2.73,1.01,4.47v10.86c0,0.27-0.22,0.5-0.5,0.5h-2.96      c-0.27,0-0.5-0.22-0.5-0.5v-10.27c0-1.72-0.43-3.05-1.29-3.97c-0.86-0.92-2.04-1.38-3.53-1.38c-1.49,0-2.67,0.46-3.55,1.38      c-0.87,0.92-1.31,2.24-1.31,3.97v10.27c0,0.27-0.22,0.5-0.5,0.5h-2.99c-0.27,0-0.5-0.22-0.5-0.5v-18.27c0-0.27,0.22-0.5,0.5-0.5      h2.99c0.27,0,0.5,0.22,0.5,0.5v1.71c0.65-0.79,1.49-1.41,2.5-1.85c1.01-0.44,2.09-0.66,3.23-0.66      C84.09,169.26,85.45,169.58,86.65,170.21z"/>
				<path d="M68.83,180.69H54.55c0.12,1.54,0.69,2.77,1.71,3.71c1.03,0.93,2.28,1.4,3.78,1.4c1.95,0,3.37-0.74,4.28-2.22      c0.16-0.26,0.53-0.48,0.84-0.48h3.01c0.36,0,0.6,0.37,0.46,0.7c-0.61,1.46-1.58,2.68-2.9,3.66c-1.53,1.13-3.42,1.7-5.68,1.7      c-1.84,0-3.49-0.41-4.95-1.24c-1.46-0.83-2.6-1.99-3.43-3.5c-0.83-1.5-1.24-3.25-1.24-5.23c0-1.98,0.4-3.72,1.21-5.23      c0.8-1.5,1.93-2.66,3.39-3.48c1.46-0.82,3.13-1.22,5.02-1.22c1.82,0,3.44,0.4,4.86,1.19c1.42,0.79,2.53,1.91,3.32,3.34      c0.79,1.43,1.19,3.08,1.19,4.95c0,0.54-0.03,1.05-0.08,1.51C69.3,180.5,69.09,180.69,68.83,180.69z M65.25,177.48      c-0.02-1.47-0.55-2.64-1.57-3.53c-1.03-0.89-2.3-1.33-3.81-1.33c-1.38,0-2.55,0.44-3.53,1.31c-0.98,0.87-1.56,2.06-1.75,3.55      H65.25z"/>
				<path class="st0" d="M111.46,164.94v2.96c0,0.27-0.22,0.5-0.5,0.5h-6.01v19.96c0,0.27-0.22,0.5-0.5,0.5h-3.9      c-0.27,0-0.5-0.22-0.5-0.5v-19.96h-6.01c-0.27,0-0.5-0.22-0.5-0.5v-2.96c0-0.27,0.22-0.5,0.5-0.5h16.91      C111.24,164.44,111.46,164.66,111.46,164.94z"/>
				<path class="st0" d="M119.66,170.07c0.88-0.5,1.86-0.79,2.96-0.86c0.28-0.02,0.52,0.22,0.52,0.5v4.62h-1.29      c-1.54,0-2.7,0.36-3.48,1.08c-0.78,0.72-1.17,1.98-1.17,3.78v9.15c0,0.27-0.22,0.5-0.5,0.5h-3.9c-0.27,0-0.5-0.22-0.5-0.5      v-18.38c0-0.27,0.22-0.5,0.5-0.5h3.9c0.27,0,0.5,0.22,0.5,0.5v2.51C117.82,171.45,118.64,170.65,119.66,170.07z"/>
				<path class="st0" d="M126.01,173.88c0.78-1.51,1.84-2.68,3.18-3.5c1.34-0.82,2.84-1.22,4.49-1.22c1.44,0,2.71,0.29,3.79,0.87      c1.08,0.58,1.95,1.32,2.6,2.2v-2.27c0-0.27,0.22-0.5,0.5-0.5h3.94c0.27,0,0.5,0.22,0.5,0.5v18.38c0,0.27-0.22,0.5-0.5,0.5h-3.94      c-0.27,0-0.5-0.22-0.5-0.5v-2.34c-0.63,0.91-1.5,1.66-2.6,2.25c-1.11,0.59-2.38,0.89-3.83,0.89c-1.63,0-3.12-0.42-4.46-1.26      c-1.34-0.84-2.4-2.02-3.18-3.55c-0.78-1.53-1.17-3.28-1.17-5.26C124.84,177.13,125.23,175.39,126.01,173.88z M139.38,176.1      c-0.47-0.85-1.1-1.5-1.89-1.96c-0.79-0.45-1.64-0.68-2.55-0.68s-1.75,0.22-2.52,0.66c-0.77,0.44-1.39,1.09-1.87,1.94      s-0.72,1.86-0.72,3.02s0.24,2.18,0.72,3.06c0.48,0.87,1.11,1.54,1.89,2.01c0.78,0.47,1.61,0.7,2.5,0.7      c0.91,0,1.76-0.23,2.55-0.68c0.79-0.45,1.42-1.11,1.89-1.96c0.47-0.85,0.7-1.87,0.7-3.06      C140.08,177.97,139.85,176.95,139.38,176.1z"/>
				<path class="st0" d="M149.63,173.9c0.82-1.5,1.95-2.67,3.39-3.5c1.45-0.83,3.1-1.24,4.96-1.24c2.4,0,4.39,0.6,5.96,1.8      c1.41,1.08,2.41,2.55,2.99,4.41c0.1,0.32-0.15,0.64-0.48,0.64l-3.97,0c-0.39,0-0.71-0.25-0.89-0.6      c-0.28-0.56-0.67-1.02-1.17-1.38c-0.66-0.48-1.49-0.72-2.47-0.72c-1.4,0-2.5,0.51-3.32,1.52c-0.82,1.01-1.22,2.45-1.22,4.32      c0,1.84,0.41,3.27,1.22,4.28c0.82,1.01,1.92,1.52,3.32,1.52c1.74,0,2.95-0.68,3.63-2.05c0.18-0.36,0.51-0.61,0.91-0.61l3.95,0      c0.33,0,0.59,0.33,0.48,0.65c-0.58,1.79-1.58,3.24-2.99,4.35c-1.59,1.24-3.57,1.85-5.94,1.85c-1.86,0-3.52-0.41-4.96-1.24      c-1.45-0.83-2.58-1.99-3.39-3.5c-0.82-1.5-1.22-3.26-1.22-5.26C148.41,177.15,148.82,175.4,149.63,173.9z"/>
				<path class="st0" d="M181.59,188.47l-6.28-7.88v7.75c0,0.27-0.22,0.5-0.5,0.5h-3.9c-0.27,0-0.5-0.22-0.5-0.5v-24.88      c0-0.27,0.22-0.5,0.5-0.5h3.9c0.27,0,0.5,0.22,0.5,0.5v14.22l6.21-7.84c0.19-0.24,0.47-0.38,0.78-0.38h4.79      c0.43,0,0.65,0.5,0.37,0.82l-7.81,8.9l7.86,8.82c0.28,0.32,0.06,0.83-0.37,0.83h-4.78C182.06,188.84,181.77,188.7,181.59,188.47      z"/>
			</g>
			<g>
				<path d="M191.45,159.34v0.68h-1.35v4.38h-0.83v-4.38h-1.35v-0.68H191.45z"/>
				<path d="M197.81,159.34v5.06h-0.83v-3.47l-1.55,3.47h-0.58l-1.55-3.47v3.47h-0.83v-5.06h0.9l1.78,3.97l1.77-3.97H197.81z"/>
			</g>
		</g>
	</g>
</g>
<g>
	<g>
		<path class="st6" d="M107.96,140.85L107.96,140.85c-34.02,0-61.59-27.58-61.59-61.59v0c0-34.02,27.58-61.59,61.59-61.59h0    c34.02,0,61.59,27.58,61.59,61.59v0C169.55,113.27,141.97,140.85,107.96,140.85z"/>
	</g>
	<g>
		<g>
			<g>
				<path class="st12" d="M47.05,69.55c-1.69-0.36-2.78-2.03-2.42-3.72l0,0c0.36-1.7,2.03-2.78,3.73-2.42l0,0      c1.69,0.36,2.78,2.03,2.42,3.72l0,0c-0.3,1.49-1.61,2.49-3.07,2.49l0,0C47.49,69.62,47.27,69.6,47.05,69.55z M165.22,67.08      c-0.36-1.69,0.72-3.36,2.42-3.72l0,0c1.7-0.36,3.37,0.72,3.73,2.42l0,0c0.36,1.69-0.72,3.36-2.42,3.73l0,0      c-0.23,0.04-0.44,0.07-0.66,0.07l0,0C166.83,69.58,165.53,68.56,165.22,67.08z M50.4,57.1c-1.59-0.71-2.3-2.56-1.59-4.15l0,0      c0.7-1.58,2.56-2.3,4.15-1.59l0,0c1.58,0.71,2.29,2.56,1.59,4.15l0,0c-0.52,1.16-1.67,1.86-2.87,1.86l0,0      C51.25,57.37,50.81,57.28,50.4,57.1z M161.44,55.46c-0.71-1.58,0-3.44,1.58-4.15l0,0c1.58-0.71,3.44,0,4.15,1.58l0,0l0,0l0,0      c0.7,1.58-0.01,3.44-1.59,4.15l0,0c-0.42,0.18-0.85,0.27-1.28,0.27l0,0C163.11,57.32,161.96,56.63,161.44,55.46z M56.28,45.61      c-1.4-1.02-1.7-2.98-0.69-4.39l0,0l0,0l0,0c1.02-1.4,2.99-1.71,4.39-0.69l0,0c1.4,1.02,1.71,2.99,0.69,4.39l0,0      c-0.61,0.84-1.57,1.29-2.54,1.29l0,0C57.49,46.21,56.84,46.02,56.28,45.61z M64.42,35.6c-1.16-1.3-1.06-3.28,0.23-4.44l0,0      c0,0,0,0-0.01,0l0,0c1.29-1.16,3.28-1.06,4.44,0.24l0,0c1.16,1.29,1.05,3.28-0.24,4.43l0,0c-0.6,0.55-1.35,0.81-2.1,0.81l0,0      C65.89,36.64,65.04,36.29,64.42,35.6z M74.45,27.49c-0.87-1.5-0.36-3.42,1.15-4.29l0,0c1.5-0.87,3.42-0.36,4.29,1.15l0,0      c0.87,1.49,0.36,3.42-1.15,4.28l0,0c-0.49,0.29-1.04,0.43-1.57,0.43l0,0C76.09,29.06,75.04,28.49,74.45,27.49z M85.94,21.64      c-0.54-1.65,0.36-3.42,2.02-3.96l0,0c1.65-0.53,3.42,0.37,3.95,2.02l0,0c0.54,1.65-0.36,3.42-2.01,3.96l0,0      c-0.33,0.1-0.65,0.16-0.97,0.16l0,0C87.6,23.82,86.38,22.97,85.94,21.64z M126.05,23.64L126.05,23.64      c-1.65-0.53-2.56-2.3-2.02-3.95l0,0c0.53-1.65,2.3-2.55,3.95-2.03l0,0c1.65,0.54,2.56,2.31,2.03,3.96l0,0      c-0.43,1.33-1.67,2.17-2.99,2.17l0,0C126.71,23.8,126.37,23.75,126.05,23.64z M98.41,18.32c-0.17-1.72,1.08-3.27,2.8-3.45l0,0      c1.73-0.18,3.27,1.07,3.45,2.8l0,0c0.18,1.73-1.07,3.27-2.8,3.45l0,0c-0.11,0.01-0.22,0.02-0.33,0.02l0,0      C99.95,21.14,98.58,19.94,98.41,18.32z M114.09,21.12L114.09,21.12c-1.73-0.18-2.98-1.72-2.81-3.45l0,0      c0.18-1.73,1.72-2.98,3.45-2.81l0,0c0,0,0,0,0,0.01l0,0c1.73,0.17,2.98,1.72,2.8,3.44l0,0c-0.16,1.62-1.53,2.82-3.12,2.82l0,0      C114.31,21.14,114.2,21.13,114.09,21.12z"/>
			</g>
		</g>
	</g>
	<g>
		<path d="M161.69,21.82c-7.27-7.27-19.11-7.27-26.38,0c-3.52,3.52-5.46,8.21-5.46,13.19s1.94,9.67,5.46,13.19l12.27,12.27    c0.25,0.25,0.59,0.38,0.92,0.38c0.33,0,0.67-0.13,0.92-0.38l12.27-12.27C168.97,40.93,168.97,29.1,161.69,21.82z"/>
		<g>
			<circle class="st12" cx="148.51" cy="34.65" r="8.18"/>
		</g>
	</g>
	<g>
		<g>
			<g>
				<g>
					<path d="M46.44,83.78c-1.16,0-2.32-0.49-3.16-1.29c-0.8-0.84-1.29-2-1.29-3.16c0-0.58,0.09-1.16,0.31-1.69       c0.27-0.53,0.58-1.03,0.98-1.47c0.4-0.4,0.89-0.71,1.46-0.93c1.07-0.44,2.27-0.44,3.38,0c0.53,0.22,1.02,0.53,1.42,0.93       c0.45,0.44,0.76,0.93,0.98,1.47c0.22,0.53,0.36,1.11,0.36,1.69c0,1.16-0.49,2.32-1.34,3.16C48.75,83.29,47.6,83.78,46.44,83.78       z"/>
				</g>
			</g>
		</g>
		<g>
			<g>
				<g>
					<path d="M169.56,83.78c-1.16,0-2.32-0.49-3.16-1.29c-0.8-0.84-1.29-2-1.29-3.16c0-0.58,0.09-1.16,0.31-1.69       c0.27-0.53,0.58-1.03,0.98-1.47c0.4-0.4,0.89-0.71,1.46-0.93c1.07-0.44,2.27-0.44,3.38,0c0.53,0.22,1.02,0.53,1.42,0.93       c0.45,0.44,0.76,0.93,0.98,1.47c0.22,0.53,0.36,1.11,0.36,1.69c0,1.16-0.49,2.32-1.34,3.16       C171.87,83.29,170.71,83.78,169.56,83.78z"/>
				</g>
			</g>
		</g>
	</g>
	<g>
		<g>
			<path class="st3" d="M125.03,115.6h-7.64h-2.75h-3.45c-0.46,0-0.88,0.24-1.11,0.63l-3.31,5.6v5.08l5.17-8.73h4.17v4.91     c0,0.05,0.01,0.09,0.01,0.13c0.41-0.09,0.84-0.13,1.28-0.13s0.87,0.05,1.28,0.13c0-0.04,0.01-0.09,0.01-0.13v-4.91h6.34     c0.02,0,0.04-0.01,0.07-0.01c-0.03-0.43-0.06-0.85-0.06-1.29c0-0.43,0.04-0.86,0.06-1.29     C125.07,115.61,125.05,115.6,125.03,115.6z"/>
			<path class="st3" d="M154.98,80.46h-11.35c-1.07,0-1.94,0.87-1.94,1.94c0,0.57,0.25,1.08,0.65,1.44v8.34v6.11     c0,0.02,0.01,0.04,0.01,0.07c0.43-0.03,0.85-0.07,1.29-0.07c0.43,0,0.86,0.04,1.29,0.07c0-0.02,0.01-0.04,0.01-0.07V84.34h10.06     c1.07,0,1.94-0.87,1.94-1.94C156.92,81.32,156.06,80.46,154.98,80.46z"/>
		</g>
		<g>
			<path class="st8" d="M144.92,98.36c-0.43-0.03-0.85-0.07-1.29-0.07c-0.43,0-0.86,0.04-1.29,0.07c-0.84,0.06-1.66,0.15-2.46,0.31     c-1.21,0.25-2.38,0.61-3.49,1.08c-6.3,2.67-10.81,8.71-11.3,15.86c-0.03,0.43-0.06,0.85-0.06,1.29c0,0.43,0.04,0.86,0.06,1.29     c0.49,7.09,4.93,13.08,11.14,15.78c10.33-5.35,18.95-13.53,24.83-23.53C158.58,103.74,152.36,98.87,144.92,98.36z M143.63,123.1     c-3.43,0-6.2-2.78-6.2-6.2c0-3.43,2.78-6.2,6.2-6.2c3.43,0,6.2,2.78,6.2,6.2C149.84,120.32,147.06,123.1,143.63,123.1z"/>
			<path class="st8" d="M118.67,123.23c-0.41-0.09-0.84-0.13-1.28-0.13s-0.87,0.05-1.28,0.13c-2.81,0.59-4.92,3.08-4.92,6.07     c0,3.43,2.78,6.2,6.2,6.2c3.43,0,6.2-2.78,6.2-6.2C123.59,126.32,121.48,123.82,118.67,123.23z"/>
			<path class="st8" d="M99.45,69.29c-0.76-2.74-2.17-5.22-4.03-7.23l-0.33,2.22H72.23l-0.33-2.21c-1.87,2.02-3.28,4.49-4.03,7.23     l-4.34,15.7c-0.47,2.06,1.09,4.02,3.2,4.02h6.55c1.7,1.23,3.63,2.16,5.7,2.73v3.67h8.64v-3.48c2.35-0.54,4.53-1.55,6.43-2.92     h6.55c2.11,0,3.67-1.96,3.2-4.02L99.45,69.29z"/>
		</g>
		<g>
			<path class="st7" d="M142.34,98.29v-6.11h-25.3c-1.33,0-2.41,1.08-2.41,2.41v21.02h2.75h7.64c0.02,0,0.04,0.01,0.07,0.01     c0.49-7.15,5-13.19,11.3-15.86c1.11-0.47,2.28-0.84,3.49-1.08c0.8-0.16,1.63-0.26,2.46-0.31     C142.34,98.33,142.34,98.31,142.34,98.29z"/>
			<path class="st7" d="M97.56,95.41h-9.94h-8.64h-9.22c-5.08,0-9.2,5.74-9.2,12.83v10.34c11.06,13.32,27.62,21.88,46.2,22.24     v-13.89v-5.08v-13.6C106.76,101.16,102.64,95.41,97.56,95.41z"/>
			<path class="st7" d="M72.23,64.28h22.85l0.33-2.22l0.8-5.29c0,0-5.37-4.34-12.55-4.34c-7.19,0-12.55,4.34-12.55,4.34l0.79,5.29     L72.23,64.28z"/>
		</g>
	</g>
</g>
</svg>