<svg width="1339" height="1324" viewBox="0 0 1339 1324" fill="none" xmlns="http://www.w3.org/2000/svg">
<path opacity="0.5" d="M78.4001 1016.34C-11.1154 822.403 -34.3629 624.323 69.9022 442.383C141.091 318.16 240.702 198.718 353.332 140.33C675.08 -26.4657 1184.63 15.3637 1231.12 245.829C1289.95 537.515 1317.36 735.623 1231.12 1016.34C1176.13 1195.31 1025.07 1140.44 923.692 1199.71C752.834 1299.59 704.167 1348.6 518.292 1309.6C326.469 1269.36 175.953 1227.7 78.4001 1016.34Z" fill="#D9D9D9" stroke="black"/>
<path d="M130.4 978.344C40.8846 784.403 17.6371 586.323 121.902 404.383C193.091 280.16 292.702 160.718 405.332 102.33C727.08 -64.4657 1236.63 -22.6363 1283.12 207.829C1341.95 499.515 1369.36 697.623 1283.12 978.344C1228.13 1157.31 1077.07 1102.44 975.692 1161.71C804.834 1261.59 756.167 1310.6 570.292 1271.6C378.469 1231.36 227.953 1189.7 130.4 978.344Z" fill="#D9D9D9" stroke="black"/>
</svg>
