<svg width="873" height="664" viewBox="0 0 873 664" fill="none" xmlns="http://www.w3.org/2000/svg">
<g clip-path="url(#clip0_407_46)">
<rect width="663.929" height="873" transform="matrix(0 1 -1 0 873 0)" fill="#F8F6F8"/>
<path d="M847.791 -27.9489L833.816 699.551" stroke="#F6F3F5" stroke-width="65.7627"/>
<path d="M366.353 327.991L277.436 475.409" stroke="#F6F3F5" stroke-width="65.7627"/>
<path d="M299.631 115.359L222.36 -11.3717L194.548 -62.4748" stroke="#F8F6F8" stroke-width="65.7627"/>
<path d="M298.946 115.085L199.206 -42.3348" stroke="white" stroke-width="21.9209"/>
<path d="M-12.6046 -13.0153L-3.28817 381.15L41.5127 424.444L140.431 442.939L573.232 543.502" stroke="#F6F3F5" stroke-width="65.7627"/>
<path d="M926.158 542.542L725.719 742.981" stroke="white" stroke-width="10.9605"/>
<path d="M864 659.5L-34 659.5L38.1452 764" stroke="white" stroke-width="18"/>
<path d="M885.467 194.137L444.857 -13.0153L262.683 149.336M-49.5001 445L196.809 208.043M150 667.5L-123 217.5M196.809 208.043L262.683 149.336M196.809 208.043L392.761 346.385M588.713 484.726L392.761 346.385M262.683 149.336L628.856 359.503M497.467 166.325L392.761 346.385" stroke="white" stroke-width="10.9605"/>
<path d="M679.822 212.633L490.48 164.749M297.165 115.633L490.48 164.749M580.904 56.5834L490.48 164.749" stroke="white" stroke-width="21.9209"/>
<path d="M-13.0001 403L573 540" stroke="white" stroke-width="21.9209"/>
<path d="M235.376 24.9348L111.523 102.137M-12.3306 179.34L111.523 102.137M111.523 102.137L139.609 254.693" stroke="white" stroke-width="10.9605"/>
<path d="M361.558 329.361L281.684 477.327" stroke="white" stroke-width="21.9209"/>
<path d="M858.5 512.5L559.531 538.706" stroke="white" stroke-width="21.9209"/>
<path d="M668 208L859 298" stroke="white" stroke-width="10.9605"/>
<path d="M863.683 -38.9093V662.5L832.994 710.237" stroke="white" stroke-width="21.9209"/>
<path d="M897.387 407.455L631.596 374.985L755.175 -33.1553L542 668.5" stroke="white" stroke-width="21.9209"/>
</g>
<defs>
<clipPath id="clip0_407_46">
<rect width="663.929" height="873" fill="white" transform="matrix(0 1 -1 0 873 0)"/>
</clipPath>
</defs>
</svg>
