<svg width="433" height="112" viewBox="0 0 433 112" fill="none" xmlns="http://www.w3.org/2000/svg">
<path d="M141.1 32.3201C143.67 30.9801 146.57 30.3101 149.81 30.3101C153.51 30.3101 156.89 31.22 159.95 33.05C163.01 34.88 165.41 37.4301 167.16 40.7201C168.91 44.0101 169.78 47.79 169.78 52.05C169.78 56.32 168.91 60.1301 167.16 63.5001C165.41 66.8701 163.01 69.49 159.95 71.36C156.89 73.24 153.51 74.1701 149.81 74.1701C146.57 74.1701 143.69 73.5201 141.18 72.2001C138.66 70.8901 136.6 69.26 135.01 67.3V92.5701C135.01 93.1801 134.52 93.6701 133.91 93.6701H127.32C126.71 93.6701 126.22 93.1801 126.22 92.5701V32.0901C126.22 31.4801 126.71 30.9901 127.32 30.9901H133.91C134.52 30.9901 135.01 31.4801 135.01 32.0901V37.2401C136.5 35.3001 138.53 33.6601 141.1 32.3201ZM159.03 44.4601C157.82 42.3301 156.23 40.7101 154.25 39.6001C152.27 38.5001 150.15 37.9401 147.89 37.9401C145.68 37.9401 143.59 38.5101 141.61 39.6401C139.63 40.7701 138.04 42.4201 136.83 44.5701C135.62 46.7301 135.02 49.2701 135.02 52.2001C135.02 55.1301 135.62 57.6901 136.83 59.8701C138.04 62.0501 139.63 63.7101 141.61 64.8401C143.59 65.9701 145.68 66.5401 147.89 66.5401C150.15 66.5401 152.27 65.9601 154.25 64.8101C156.23 63.6501 157.82 61.9701 159.03 59.7601C160.24 57.5501 160.84 54.98 160.84 52.05C160.84 49.13 160.23 46.6001 159.03 44.4601Z" fill="black"/>
<path d="M216.43 55.5301H183.97C184.23 58.9201 185.49 61.6501 187.75 63.7001C190.01 65.7601 192.79 66.7801 196.08 66.7801C200.38 66.7801 203.54 65.1401 205.54 61.8701C205.93 61.2301 206.64 60.8501 207.39 60.8501H214C214.79 60.8501 215.32 61.6601 215.01 62.3901C213.66 65.6101 211.52 68.2901 208.61 70.4501C205.24 72.9401 201.07 74.1901 196.08 74.1901C192.02 74.1901 188.38 73.2801 185.17 71.4501C181.96 69.6301 179.44 67.0601 177.61 63.7401C175.78 60.4301 174.87 56.5801 174.87 52.2201C174.87 47.8501 175.76 44.0101 177.53 40.6901C179.3 37.3801 181.79 34.8201 185.01 33.0201C188.22 31.2201 191.91 30.3201 196.07 30.3201C200.08 30.3201 203.65 31.1901 206.79 32.9401C209.93 34.6901 212.37 37.14 214.11 40.3C215.86 43.46 216.73 47.1001 216.73 51.2101C216.73 52.8001 216.63 54.2401 216.43 55.5301ZM207.56 48.4301C207.51 45.1901 206.35 42.6001 204.09 40.6401C201.83 38.6901 199.03 37.7101 195.69 37.7101C192.66 37.7101 190.06 38.6701 187.9 40.6001C185.74 42.5301 184.46 45.1401 184.05 48.4201H207.56V48.4301Z" fill="black"/>
<path d="M254.76 32.3999C257.4 33.7899 259.47 35.84 260.96 38.57C262.45 41.29 263.2 44.58 263.2 48.44V72.3999C263.2 73.0099 262.71 73.5 262.1 73.5H255.58C254.97 73.5 254.48 73.0099 254.48 72.3999V49.75C254.48 45.95 253.53 43.03 251.63 41C249.73 38.97 247.13 37.95 243.84 37.95C240.55 37.95 237.94 38.97 236.02 41C234.09 43.03 233.13 45.95 233.13 49.75V72.3999C233.13 73.0099 232.64 73.5 232.03 73.5H225.44C224.83 73.5 224.34 73.0099 224.34 72.3999V32.1199C224.34 31.5099 224.83 31.0199 225.44 31.0199H232.03C232.64 31.0199 233.13 31.5099 233.13 32.1199V35.88C234.57 34.13 236.41 32.77 238.64 31.79C240.88 30.81 243.25 30.3299 245.77 30.3299C249.11 30.3199 252.11 31.0099 254.76 32.3999Z" fill="black"/>
<path d="M299.13 32.2801C301.67 33.5901 303.67 35.2201 305.1 37.1801V32.11C305.1 31.5 305.59 31.0101 306.2 31.0101H312.87C313.48 31.0101 313.97 31.5 313.97 32.11V74.1801C313.97 78.0901 313.15 81.5701 311.5 84.6301C309.85 87.6901 307.48 90.0901 304.37 91.8401C301.26 93.5901 297.55 94.4601 293.23 94.4601C287.47 94.4601 282.69 93.1101 278.89 90.4101C275.45 87.9701 273.36 84.7501 272.61 80.7401C272.48 80.0601 273 79.4301 273.69 79.4301H279.63C280.5 79.4301 281.25 79.9501 281.63 80.7301C282.41 82.3501 283.67 83.7001 285.4 84.7801C287.58 86.1401 290.19 86.8201 293.22 86.8201C296.76 86.8201 299.63 85.74 301.82 83.58C304 81.42 305.1 78.2901 305.1 74.1701V67.08C303.61 69.08 301.59 70.7701 299.05 72.1301C296.51 73.4901 293.61 74.1701 290.38 74.1701C286.68 74.1701 283.3 73.23 280.24 71.36C277.18 69.48 274.77 66.8601 272.99 63.5001C271.22 60.1301 270.33 56.32 270.33 52.05C270.33 47.78 271.22 44.0101 272.99 40.7201C274.76 37.4301 277.18 34.87 280.24 33.05C283.3 31.23 286.68 30.3101 290.38 30.3101C293.67 30.3201 296.58 30.9701 299.13 32.2801ZM303.29 44.58C302.08 42.42 300.5 40.7801 298.55 39.6501C296.6 38.5201 294.49 37.9501 292.23 37.9501C289.97 37.9501 287.86 38.5 285.91 39.61C283.96 40.72 282.38 42.3301 281.17 44.4701C279.96 46.6001 279.36 49.1301 279.36 52.0601C279.36 54.9901 279.96 57.5601 281.17 59.7701C282.38 61.9801 283.97 63.6601 285.95 64.8201C287.93 65.9801 290.02 66.55 292.23 66.55C294.49 66.55 296.6 65.9801 298.55 64.8501C300.5 63.7201 302.08 62.0601 303.29 59.8801C304.5 57.7001 305.1 55.1401 305.1 52.2101C305.1 49.2801 304.5 46.74 303.29 44.58Z" fill="black"/>
<path d="M361.789 32.11V72.39C361.789 73 361.299 73.49 360.689 73.49H354.099C353.489 73.49 352.999 73 352.999 72.39V68.48C351.609 70.23 349.799 71.6 347.559 72.6C345.319 73.6 342.949 74.1 340.429 74.1C337.089 74.1 334.089 73.41 331.449 72.02C328.809 70.63 326.719 68.58 325.209 65.85C323.689 63.13 322.939 59.84 322.939 55.98V32.1C322.939 31.49 323.429 31 324.039 31H330.559C331.169 31 331.659 31.49 331.659 32.1V54.67C331.659 58.47 332.609 61.39 334.509 63.42C336.409 65.45 339.009 66.46 342.299 66.46C345.589 66.46 348.199 65.45 350.119 63.42C352.049 61.39 353.009 58.47 353.009 54.67V32.1C353.009 31.49 353.499 31 354.109 31H360.699C361.299 31.01 361.789 31.5 361.789 32.11Z" fill="black"/>
<path d="M372.56 23.21C371.3 22 370.67 20.5 370.67 18.7C370.67 16.9 371.3 15.4 372.56 14.19C373.82 12.98 375.4 12.38 377.3 12.38C379.2 12.38 380.78 12.98 382.04 14.19C383.3 15.4 383.93 16.9 383.93 18.7C383.93 20.5 383.3 22 382.04 23.21C380.78 24.42 379.2 25.02 377.3 25.02C375.4 25.02 373.82 24.42 372.56 23.21Z" fill="#FFB400"/>
<path d="M382.619 31.88V72.39C382.619 73 382.129 73.49 381.519 73.49H372.919C372.309 73.49 371.819 73 371.819 72.39V31.88C371.819 31.27 372.309 30.78 372.919 30.78H381.519C382.129 30.78 382.619 31.27 382.619 31.88Z" fill="#FFB400"/>
<path d="M428.249 34.98C431.379 38.19 432.949 42.68 432.949 48.43V72.39C432.949 73 432.459 73.49 431.849 73.49H423.249C422.639 73.49 422.149 73 422.149 72.39V49.9C422.149 46.51 421.299 43.9 419.609 42.08C417.909 40.26 415.599 39.34 412.669 39.34C409.689 39.34 407.339 40.25 405.619 42.08C403.899 43.9 403.039 46.51 403.039 49.9V72.39C403.039 73 402.549 73.49 401.939 73.49H393.339C392.729 73.49 392.239 73 392.239 72.39V31.88C392.239 31.27 392.729 30.78 393.339 30.78H401.939C402.549 30.78 403.039 31.27 403.039 31.88V36.1C404.479 34.25 406.319 32.8 408.549 31.74C410.789 30.69 413.239 30.16 415.909 30.16C420.999 30.16 425.109 31.77 428.249 34.98Z" fill="#FFB400"/>
<path d="M76.2299 81.9L79.4799 78.65C97.4499 60.68 97.4499 31.55 79.4799 13.59C61.5099 -4.37995 32.3799 -4.37995 14.4199 13.59C-3.55012 31.56 -3.55012 60.69 14.4199 78.65L46.9499 111.18L56.7099 101.42C58.5099 99.6201 58.5099 96.7101 56.7099 94.9101L27.4299 65.6301C16.6499 54.8501 16.6499 37.37 27.4299 26.59C38.2099 15.81 55.6899 15.81 66.4699 26.59C77.2499 37.37 77.2499 54.8501 66.4699 65.6301L63.2199 68.8801C61.4199 70.6801 61.4199 73.5901 63.2199 75.3901L69.7299 81.9C71.5199 83.69 74.4399 83.69 76.2299 81.9Z" fill="black"/>
<path d="M107.15 44.49L90.4297 31.02C93.8097 40.78 93.8097 51.46 90.4297 61.22L107.16 47.74C108.04 46.84 108.04 45.38 107.15 44.49Z" fill="#FFB400"/>
<path d="M141.11 32.3201C143.68 30.9801 146.58 30.3101 149.82 30.3101C153.52 30.3101 156.9 31.22 159.96 33.05C163.02 34.88 165.42 37.4301 167.17 40.7201C168.92 44.0101 169.79 47.79 169.79 52.05C169.79 56.31 168.92 60.1301 167.17 63.5001C165.42 66.8701 163.02 69.49 159.96 71.36C156.9 73.24 153.52 74.1701 149.82 74.1701C146.58 74.1701 143.7 73.5201 141.19 72.2001C138.67 70.8901 136.61 69.26 135.02 67.3V92.5701C135.02 93.1801 134.53 93.6701 133.92 93.6701H127.33C126.72 93.6701 126.23 93.1801 126.23 92.5701V32.0901C126.23 31.4801 126.72 30.9901 127.33 30.9901H133.92C134.53 30.9901 135.02 31.4801 135.02 32.0901V37.2401C136.51 35.3001 138.54 33.6601 141.11 32.3201ZM159.03 44.4601C157.82 42.3301 156.23 40.7101 154.25 39.6001C152.27 38.5001 150.15 37.9401 147.89 37.9401C145.68 37.9401 143.59 38.5101 141.61 39.6401C139.63 40.7701 138.04 42.4201 136.83 44.5701C135.62 46.7301 135.02 49.2701 135.02 52.2001C135.02 55.1301 135.62 57.6901 136.83 59.8701C138.04 62.0501 139.63 63.7101 141.61 64.8401C143.59 65.9701 145.68 66.5401 147.89 66.5401C150.15 66.5401 152.27 65.9601 154.25 64.8101C156.23 63.6501 157.82 61.9701 159.03 59.7601C160.24 57.5501 160.84 54.98 160.84 52.05C160.84 49.13 160.24 46.6001 159.03 44.4601Z" fill="black"/>
<path d="M216.431 55.53H183.981C184.241 58.92 185.501 61.65 187.761 63.7C190.021 65.76 192.801 66.78 196.091 66.78C200.391 66.78 203.551 65.14 205.551 61.87C205.941 61.23 206.651 60.85 207.401 60.85H214.011C214.801 60.85 215.331 61.66 215.021 62.39C213.671 65.61 211.531 68.29 208.621 70.45C205.251 72.94 201.081 74.19 196.091 74.19C192.031 74.19 188.391 73.28 185.181 71.45C181.971 69.63 179.451 67.06 177.631 63.74C175.801 60.43 174.891 56.58 174.891 52.22C174.891 47.85 175.781 44.01 177.551 40.7C179.321 37.39 181.811 34.83 185.031 33.03C188.241 31.23 191.931 30.33 196.091 30.33C200.101 30.33 203.671 31.2 206.811 32.95C209.951 34.7 212.391 37.15 214.131 40.31C215.881 43.47 216.751 47.11 216.751 51.22C216.741 52.8 216.631 54.24 216.431 55.53ZM207.561 48.43C207.511 45.19 206.351 42.6 204.091 40.64C201.831 38.69 199.031 37.71 195.691 37.71C192.661 37.71 190.061 38.67 187.901 40.6C185.741 42.53 184.461 45.14 184.051 48.42H207.561V48.43Z" fill="black"/>
<path d="M254.761 32.3999C257.401 33.7899 259.471 35.84 260.961 38.57C262.451 41.29 263.201 44.58 263.201 48.44V72.3999C263.201 73.0099 262.711 73.5 262.101 73.5H255.581C254.971 73.5 254.481 73.0099 254.481 72.3999V49.75C254.481 45.95 253.531 43.03 251.631 41C249.731 38.97 247.131 37.95 243.841 37.95C240.551 37.95 237.941 38.97 236.021 41C234.091 43.03 233.131 45.95 233.131 49.75V72.3999C233.131 73.0099 232.641 73.5 232.031 73.5H225.441C224.831 73.5 224.341 73.0099 224.341 72.3999V32.1199C224.341 31.5099 224.831 31.0199 225.441 31.0199H232.031C232.641 31.0199 233.131 31.5099 233.131 32.1199V35.88C234.571 34.13 236.411 32.77 238.641 31.79C240.881 30.81 243.251 30.3299 245.771 30.3299C249.121 30.3199 252.111 31.0099 254.761 32.3999Z" fill="black"/>
<path d="M299.13 32.2801C301.67 33.5901 303.67 35.2201 305.1 37.1801V32.11C305.1 31.5 305.59 31.0101 306.2 31.0101H312.87C313.48 31.0101 313.97 31.5 313.97 32.11V74.1801C313.97 78.0901 313.15 81.5701 311.5 84.6301C309.85 87.6901 307.48 90.0901 304.37 91.8401C301.26 93.5901 297.55 94.4601 293.23 94.4601C287.47 94.4601 282.69 93.1101 278.89 90.4101C275.45 87.9701 273.36 84.7501 272.61 80.7401C272.48 80.0601 273 79.4301 273.69 79.4301H279.63C280.5 79.4301 281.25 79.9501 281.63 80.7301C282.41 82.3501 283.67 83.7001 285.4 84.7801C287.58 86.1401 290.19 86.8201 293.22 86.8201C296.76 86.8201 299.63 85.74 301.82 83.58C304 81.42 305.1 78.2901 305.1 74.1701V67.08C303.61 69.08 301.59 70.7701 299.05 72.1301C296.51 73.4901 293.61 74.1701 290.38 74.1701C286.68 74.1701 283.3 73.23 280.24 71.36C277.18 69.48 274.77 66.8601 272.99 63.5001C271.22 60.1301 270.33 56.32 270.33 52.05C270.33 47.78 271.22 44.0101 272.99 40.7201C274.76 37.4301 277.18 34.87 280.24 33.05C283.3 31.23 286.68 30.3101 290.38 30.3101C293.67 30.3201 296.58 30.9701 299.13 32.2801ZM303.29 44.58C302.08 42.42 300.5 40.7801 298.55 39.6501C296.6 38.5201 294.49 37.9501 292.23 37.9501C289.97 37.9501 287.86 38.5 285.91 39.61C283.96 40.72 282.38 42.3301 281.17 44.4701C279.96 46.6001 279.36 49.1301 279.36 52.0601C279.36 54.9901 279.96 57.5601 281.17 59.7701C282.38 61.9801 283.97 63.6601 285.95 64.8201C287.93 65.9801 290.02 66.55 292.23 66.55C294.49 66.55 296.6 65.9801 298.55 64.8501C300.5 63.7201 302.08 62.0601 303.29 59.8801C304.5 57.7001 305.1 55.1401 305.1 52.2101C305.1 49.2801 304.5 46.74 303.29 44.58Z" fill="black"/>
<path d="M361.79 32.11V72.39C361.79 73 361.3 73.49 360.69 73.49H354.1C353.49 73.49 353 73 353 72.39V68.48C351.61 70.23 349.8 71.6 347.56 72.6C345.32 73.6 342.95 74.1 340.43 74.1C337.09 74.1 334.09 73.41 331.45 72.02C328.8 70.63 326.72 68.58 325.21 65.85C323.69 63.13 322.94 59.84 322.94 55.98V32.1C322.94 31.49 323.43 31 324.04 31H330.56C331.17 31 331.66 31.49 331.66 32.1V54.67C331.66 58.47 332.61 61.39 334.51 63.42C336.41 65.45 339.01 66.46 342.3 66.46C345.59 66.46 348.2 65.45 350.12 63.42C352.05 61.39 353.01 58.47 353.01 54.67V32.1C353.01 31.49 353.5 31 354.11 31H360.7C361.3 31.01 361.79 31.5 361.79 32.11Z" fill="black"/>
<path d="M372.561 23.21C371.301 22 370.671 20.5 370.671 18.7C370.671 16.9 371.301 15.4 372.561 14.19C373.821 12.98 375.401 12.38 377.301 12.38C379.201 12.38 380.781 12.98 382.041 14.19C383.301 15.4 383.931 16.9 383.931 18.7C383.931 20.5 383.301 22 382.041 23.21C380.781 24.42 379.201 25.02 377.301 25.02C375.401 25.02 373.821 24.42 372.561 23.21Z" fill="#FFB400"/>
<path d="M382.62 31.88V72.39C382.62 73 382.13 73.49 381.52 73.49H372.92C372.31 73.49 371.82 73 371.82 72.39V31.88C371.82 31.27 372.31 30.78 372.92 30.78H381.52C382.13 30.78 382.62 31.27 382.62 31.88Z" fill="#FFB400"/>
<path d="M428.25 34.98C431.38 38.19 432.95 42.68 432.95 48.43V72.39C432.95 73 432.46 73.49 431.85 73.49H423.25C422.64 73.49 422.15 73 422.15 72.39V49.9C422.15 46.51 421.3 43.9 419.61 42.08C417.91 40.26 415.6 39.34 412.67 39.34C409.69 39.34 407.34 40.25 405.62 42.08C403.9 43.9 403.04 46.51 403.04 49.9V72.39C403.04 73 402.55 73.49 401.94 73.49H393.34C392.73 73.49 392.24 73 392.24 72.39V31.88C392.24 31.27 392.73 30.78 393.34 30.78H401.94C402.55 30.78 403.04 31.27 403.04 31.88V36.1C404.48 34.25 406.32 32.8 408.55 31.74C410.79 30.69 413.24 30.16 415.91 30.16C421 30.16 425.11 31.77 428.25 34.98Z" fill="#FFB400"/>
</svg>
