<svg xmlns="http://www.w3.org/2000/svg" xmlns:xlink="http://www.w3.org/1999/xlink" version="1.1" id="Layer_1" x="0px" y="0px" style="enable-background:new 0 0 841.89 595.28;" xml:space="preserve" viewBox="204.94 242.1 432 111.07">
<style type="text/css">
	.st0{fill:#FFB400;}
	.st1{fill:#FFFFFF;}
</style>
<g>
	<g>
		<g>
			<path d="M280.23,323.89l3.25-3.25c17.97-17.97,17.97-47.1,0-65.06l0,0c-17.97-17.97-47.1-17.97-65.06,0l0,0     c-17.97,17.97-17.97,47.1,0,65.06l32.53,32.53l9.76-9.76c1.8-1.8,1.8-4.71,0-6.51l-29.28-29.28c-10.78-10.78-10.78-28.26,0-39.04     l0,0c10.78-10.78,28.26-10.78,39.04,0l0,0c10.78,10.78,10.78,28.26,0,39.04l-3.25,3.25c-1.8,1.8-1.8,4.71,0,6.51l6.51,6.51     C275.52,325.69,278.43,325.69,280.23,323.89z"/>
			<path class="st0" d="M311.14,286.49l-16.72-13.47l0,0c3.38,9.76,3.38,20.44,0,30.2h0l16.73-13.48     C312.04,288.84,312.04,287.38,311.14,286.49z"/>
		</g>
		<g>
			<path d="M345.1,274.32c2.57-1.34,5.47-2.01,8.71-2.01c3.7,0,7.08,0.91,10.14,2.74c3.06,1.83,5.46,4.38,7.21,7.67     c1.75,3.29,2.62,7.07,2.62,11.33c0,4.27-0.87,8.08-2.62,11.45c-1.75,3.37-4.15,5.99-7.21,7.86c-3.06,1.88-6.44,2.81-10.14,2.81     c-3.24,0-6.12-0.65-8.63-1.97c-2.52-1.31-4.58-2.94-6.17-4.9v25.27c0,0.61-0.49,1.1-1.1,1.1h-6.59c-0.61,0-1.1-0.49-1.1-1.1     v-60.48c0-0.61,0.49-1.1,1.1-1.1h6.59c0.61,0,1.1,0.49,1.1,1.1v5.15C340.5,277.3,342.53,275.66,345.1,274.32z M363.02,286.46     c-1.21-2.13-2.8-3.75-4.78-4.86c-1.98-1.1-4.1-1.66-6.36-1.66c-2.21,0-4.3,0.57-6.28,1.7c-1.98,1.13-3.57,2.78-4.78,4.93     c-1.21,2.16-1.81,4.7-1.81,7.63c0,2.93,0.6,5.49,1.81,7.67c1.21,2.18,2.8,3.84,4.78,4.97c1.98,1.13,4.07,1.7,6.28,1.7     c2.26,0,4.38-0.58,6.36-1.73c1.98-1.16,3.57-2.84,4.78-5.05c1.21-2.21,1.81-4.78,1.81-7.71     C364.84,291.12,364.23,288.59,363.02,286.46z"/>
			<path d="M458.75,274.4c2.64,1.39,4.71,3.44,6.2,6.17c1.49,2.72,2.24,6.01,2.24,9.87v23.96c0,0.61-0.49,1.1-1.1,1.1h-6.52     c-0.61,0-1.1-0.49-1.1-1.1v-22.65c0-3.8-0.95-6.72-2.85-8.75c-1.9-2.03-4.5-3.05-7.79-3.05s-5.9,1.02-7.82,3.05     c-1.93,2.03-2.89,4.95-2.89,8.75v22.65c0,0.61-0.49,1.1-1.1,1.1h-6.59c-0.61,0-1.1-0.49-1.1-1.1v-40.28c0-0.61,0.49-1.1,1.1-1.1     h6.59c0.61,0,1.1,0.49,1.1,1.1v3.76c1.44-1.75,3.28-3.11,5.51-4.09c2.24-0.98,4.61-1.46,7.13-1.46     C453.11,272.32,456.11,273.01,458.75,274.4z"/>
			<path d="M503.12,274.28c2.54,1.31,4.54,2.94,5.97,4.9v-5.07c0-0.61,0.49-1.1,1.1-1.1h6.67c0.61,0,1.1,0.49,1.1,1.1v42.07     c0,3.91-0.82,7.39-2.47,10.45c-1.65,3.06-4.02,5.46-7.13,7.21c-3.11,1.75-6.82,2.62-11.14,2.62c-5.76,0-10.54-1.35-14.34-4.05     c-3.45-2.45-5.54-5.68-6.29-9.71c-0.13-0.69,0.38-1.27,1.08-1.27l5.53,0c1.37,0,2.05,0.53,2.4,1.27     c0.78,1.63,2.04,2.99,3.79,4.08c2.18,1.36,4.79,2.04,7.82,2.04c3.54,0,6.41-1.08,8.6-3.24c2.18-2.16,3.28-5.29,3.28-9.41v-7.09     c-1.49,2-3.51,3.69-6.05,5.05c-2.54,1.36-5.44,2.04-8.67,2.04c-3.7,0-7.08-0.94-10.14-2.81c-3.06-1.88-5.47-4.5-7.25-7.86     c-1.77-3.37-2.66-7.18-2.66-11.45c0-4.27,0.89-8.04,2.66-11.33c1.77-3.29,4.19-5.85,7.25-7.67c3.06-1.82,6.44-2.74,10.14-2.74     C497.66,272.32,500.58,272.97,503.12,274.28z M507.29,286.58c-1.21-2.16-2.79-3.8-4.74-4.93c-1.95-1.13-4.06-1.7-6.32-1.7     c-2.26,0-4.37,0.55-6.32,1.66c-1.95,1.11-3.53,2.72-4.74,4.86c-1.21,2.13-1.81,4.66-1.81,7.59c0,2.93,0.6,5.5,1.81,7.71     c1.21,2.21,2.8,3.89,4.78,5.05c1.98,1.16,4.07,1.73,6.28,1.73c2.26,0,4.37-0.57,6.32-1.7c1.95-1.13,3.53-2.79,4.74-4.97     c1.21-2.18,1.81-4.74,1.81-7.67C509.1,291.28,508.5,288.74,507.29,286.58z"/>
			<path d="M565.79,274.11v40.28c0,0.61-0.49,1.1-1.1,1.1h-6.59c-0.61,0-1.1-0.49-1.1-1.1v-3.91c-1.39,1.75-3.2,3.12-5.44,4.12     s-4.61,1.5-7.13,1.5c-3.34,0-6.34-0.69-8.98-2.08c-2.65-1.39-4.73-3.44-6.24-6.17c-1.52-2.72-2.27-6.01-2.27-9.87v-23.88     c0-0.61,0.49-1.1,1.1-1.1h6.52c0.61,0,1.1,0.49,1.1,1.1v22.57c0,3.8,0.95,6.72,2.85,8.75c1.9,2.03,4.5,3.04,7.79,3.04     c3.29,0,5.9-1.01,7.82-3.04c1.93-2.03,2.89-4.95,2.89-8.75v-22.57c0-0.61,0.49-1.1,1.1-1.1h6.59     C565.3,273.01,565.79,273.5,565.79,274.11z"/>
			<path class="st0" d="M576.56,265.21c-1.26-1.21-1.89-2.71-1.89-4.51c0-1.8,0.63-3.3,1.89-4.51c1.26-1.21,2.84-1.81,4.74-1.81     c1.9,0,3.48,0.6,4.74,1.81c1.26,1.21,1.89,2.71,1.89,4.51c0,1.8-0.63,3.3-1.89,4.51c-1.26,1.21-2.84,1.81-4.74,1.81     C579.4,267.02,577.82,266.41,576.56,265.21z"/>
			<path class="st0" d="M586.62,273.87v40.51c0,0.61-0.49,1.1-1.1,1.1h-8.6c-0.61,0-1.1-0.49-1.1-1.1v-40.51     c0-0.61,0.49-1.1,1.1-1.1h8.6C586.13,272.78,586.62,273.27,586.62,273.87z"/>
			<path class="st0" d="M632.24,276.98c3.13,3.21,4.7,7.7,4.7,13.45v23.96c0,0.61-0.49,1.1-1.1,1.1h-8.6c-0.61,0-1.1-0.49-1.1-1.1     V291.9c0-3.39-0.85-6-2.54-7.82c-1.7-1.82-4.01-2.74-6.94-2.74c-2.98,0-5.33,0.91-7.05,2.74c-1.72,1.82-2.58,4.43-2.58,7.82     v22.49c0,0.61-0.49,1.1-1.1,1.1h-8.6c-0.61,0-1.1-0.49-1.1-1.1v-40.51c0-0.61,0.49-1.1,1.1-1.1h8.6c0.61,0,1.1,0.49,1.1,1.1v4.22     c1.44-1.85,3.28-3.3,5.51-4.36c2.24-1.05,4.69-1.58,7.36-1.58C624.99,272.16,629.11,273.77,632.24,276.98z"/>
			<path d="M419.46,297.52h-31.49c0.26,3.39,1.52,6.12,3.78,8.17c2.26,2.06,5.04,3.08,8.33,3.08c4.29,0,7.44-1.63,9.44-4.89     c0.35-0.57,1.17-1.05,1.85-1.05h6.63c0.79,0,1.32,0.81,1.01,1.54c-1.35,3.22-3.49,5.9-6.4,8.06c-3.37,2.49-7.54,3.74-12.53,3.74     c-4.06,0-7.7-0.91-10.91-2.74c-3.21-1.82-5.73-4.39-7.55-7.71c-1.83-3.31-2.74-7.16-2.74-11.52c0-4.37,0.89-8.21,2.66-11.52     c1.77-3.31,4.26-5.87,7.48-7.67c3.21-1.8,6.9-2.7,11.06-2.7c4.01,0,7.58,0.87,10.71,2.62c3.13,1.75,5.58,4.2,7.32,7.36     c1.75,3.16,2.62,6.8,2.62,10.91c0,1.2-0.06,2.31-0.17,3.33C420.49,297.1,420.02,297.52,419.46,297.52z M411.56,290.43     c-0.05-3.24-1.21-5.83-3.47-7.79c-2.26-1.95-5.06-2.93-8.4-2.93c-3.03,0-5.63,0.96-7.79,2.89c-2.16,1.93-3.44,4.54-3.85,7.82     H411.56z"/>
		</g>
	</g>
</g>
</svg>