<svg xmlns="http://www.w3.org/2000/svg" xmlns:xlink="http://www.w3.org/1999/xlink" version="1.1" id="Layer_1" x="0px" y="0px" style="enable-background:new 0 0 841.89 595.28;" xml:space="preserve" viewBox="204.94 239.45 432.01 116.13">
<style type="text/css">
	.st0{fill:#FFB400;}
</style>
<g>
	<g>
		<path d="M331.99,349.08h4.74v1.44h-6.51v-13.54h1.77V349.08z"/>
		<path d="M341.39,350.01c-0.81-0.45-1.45-1.1-1.9-1.93c-0.46-0.84-0.69-1.8-0.69-2.91c0-1.09,0.24-2.05,0.71-2.89    s1.12-1.48,1.93-1.92c0.82-0.45,1.73-0.67,2.74-0.67c1.01,0,1.92,0.22,2.74,0.67c0.82,0.45,1.46,1.08,1.93,1.91    c0.47,0.83,0.71,1.79,0.71,2.9c0,1.1-0.24,2.07-0.73,2.91c-0.49,0.84-1.14,1.48-1.97,1.93c-0.83,0.45-1.75,0.68-2.76,0.68    C343.1,350.69,342.2,350.47,341.39,350.01z M345.89,348.69c0.56-0.3,1.01-0.74,1.35-1.34c0.34-0.6,0.51-1.32,0.51-2.18    c0-0.86-0.17-1.58-0.5-2.18c-0.34-0.6-0.78-1.04-1.32-1.33c-0.54-0.29-1.13-0.44-1.77-0.44c-0.65,0-1.24,0.15-1.78,0.44    c-0.54,0.29-0.97,0.74-1.29,1.33c-0.32,0.6-0.49,1.32-0.49,2.18c0,0.87,0.16,1.6,0.48,2.2c0.32,0.6,0.74,1.04,1.27,1.33    c0.53,0.29,1.11,0.44,1.75,0.44C344.73,349.14,345.33,348.99,345.89,348.69z"/>
		<path d="M353.05,342.29c0.44-0.82,1.05-1.46,1.84-1.91c0.78-0.45,1.68-0.68,2.69-0.68c1.31,0,2.39,0.32,3.24,0.95    c0.85,0.63,1.41,1.52,1.68,2.64h-1.9c-0.18-0.65-0.53-1.16-1.06-1.54c-0.53-0.38-1.18-0.56-1.95-0.56c-1.01,0-1.83,0.35-2.45,1.04    c-0.62,0.69-0.93,1.67-0.93,2.94c0,1.28,0.31,2.27,0.93,2.97c0.62,0.7,1.44,1.05,2.45,1.05c0.78,0,1.42-0.18,1.94-0.54    c0.52-0.36,0.87-0.88,1.07-1.55h1.9c-0.28,1.09-0.86,1.96-1.71,2.61c-0.86,0.65-1.92,0.98-3.21,0.98c-1.01,0-1.91-0.23-2.69-0.68    c-0.78-0.45-1.39-1.09-1.84-1.92c-0.44-0.83-0.66-1.8-0.66-2.91C352.39,344.07,352.61,343.11,353.05,342.29z"/>
		<path d="M365.92,342.29c0.44-0.82,1.05-1.46,1.82-1.91c0.77-0.45,1.63-0.68,2.57-0.68c0.93,0,1.74,0.2,2.43,0.6    c0.69,0.4,1.2,0.91,1.54,1.52v-1.94h1.79v10.65h-1.79v-1.98c-0.35,0.62-0.87,1.14-1.56,1.55c-0.69,0.41-1.5,0.61-2.42,0.61    c-0.95,0-1.8-0.23-2.57-0.7c-0.76-0.47-1.37-1.12-1.81-1.96c-0.44-0.84-0.66-1.8-0.66-2.88    C365.26,344.07,365.48,343.11,365.92,342.29z M373.79,343.08c-0.32-0.6-0.76-1.05-1.31-1.37c-0.55-0.32-1.16-0.48-1.82-0.48    c-0.66,0-1.26,0.15-1.81,0.47c-0.54,0.31-0.98,0.76-1.3,1.36c-0.32,0.6-0.49,1.3-0.49,2.1c0,0.82,0.16,1.53,0.49,2.13    c0.32,0.6,0.76,1.06,1.3,1.38c0.54,0.32,1.15,0.48,1.81,0.48c0.66,0,1.27-0.16,1.82-0.48c0.55-0.32,0.99-0.78,1.31-1.38    c0.32-0.6,0.49-1.3,0.49-2.11C374.28,344.37,374.11,343.67,373.79,343.08z"/>
		<path d="M382.27,341.33v6.28c0,0.52,0.11,0.88,0.33,1.1s0.6,0.32,1.15,0.32h1.3v1.5h-1.59c-0.99,0-1.72-0.23-2.22-0.68    c-0.49-0.45-0.74-1.2-0.74-2.23v-6.28h-1.38v-1.46h1.38v-2.68h1.77v2.68h2.78v1.46H382.27z"/>
		<path d="M388.19,337.79c-0.23-0.23-0.35-0.52-0.35-0.86c0-0.34,0.12-0.62,0.35-0.85c0.23-0.23,0.52-0.35,0.86-0.35    c0.32,0,0.6,0.12,0.83,0.35c0.23,0.23,0.34,0.52,0.34,0.85c0,0.34-0.11,0.62-0.34,0.86c-0.23,0.23-0.5,0.35-0.83,0.35    C388.71,338.14,388.42,338.02,388.19,337.79z M389.9,339.87v10.65h-1.77v-10.65H389.9z"/>
		<path d="M395.93,350.01c-0.81-0.45-1.45-1.1-1.9-1.93c-0.46-0.84-0.69-1.8-0.69-2.91c0-1.09,0.24-2.05,0.71-2.89    c0.47-0.84,1.12-1.48,1.93-1.92c0.82-0.45,1.73-0.67,2.74-0.67s1.92,0.22,2.74,0.67c0.82,0.45,1.46,1.08,1.93,1.91    c0.47,0.83,0.71,1.79,0.71,2.9c0,1.1-0.24,2.07-0.73,2.91c-0.49,0.84-1.14,1.48-1.97,1.93c-0.83,0.45-1.75,0.68-2.76,0.68    C397.64,350.69,396.74,350.47,395.93,350.01z M400.42,348.69c0.56-0.3,1.01-0.74,1.35-1.34c0.34-0.6,0.51-1.32,0.51-2.18    c0-0.86-0.17-1.58-0.5-2.18c-0.34-0.6-0.78-1.04-1.32-1.33c-0.54-0.29-1.13-0.44-1.77-0.44c-0.65,0-1.24,0.15-1.78,0.44    c-0.54,0.29-0.97,0.74-1.29,1.33c-0.32,0.6-0.49,1.32-0.49,2.18c0,0.87,0.16,1.6,0.48,2.2c0.32,0.6,0.74,1.04,1.27,1.33    c0.53,0.29,1.11,0.44,1.75,0.44C399.27,349.14,399.87,348.99,400.42,348.69z"/>
		<path d="M415.88,340.85c0.8,0.78,1.21,1.91,1.21,3.39v6.28h-1.75v-6.02c0-1.06-0.27-1.87-0.8-2.44c-0.53-0.56-1.26-0.85-2.18-0.85    c-0.93,0-1.67,0.29-2.23,0.87c-0.55,0.58-0.83,1.43-0.83,2.55v5.89h-1.77v-10.65h1.77v1.52c0.35-0.54,0.83-0.96,1.43-1.26    c0.6-0.3,1.27-0.45,1.99-0.45C414.03,339.68,415.08,340.07,415.88,340.85z"/>
		<path d="M429.4,350.18c-0.71-0.32-1.26-0.76-1.66-1.32c-0.4-0.56-0.61-1.21-0.62-1.95H429c0.06,0.63,0.33,1.17,0.79,1.6    c0.46,0.43,1.13,0.65,2.01,0.65c0.84,0,1.51-0.21,1.99-0.63c0.49-0.42,0.73-0.96,0.73-1.62c0-0.52-0.14-0.94-0.43-1.26    c-0.28-0.32-0.64-0.57-1.07-0.74s-1-0.35-1.73-0.54c-0.89-0.23-1.61-0.47-2.15-0.7c-0.54-0.23-1-0.6-1.38-1.1    c-0.38-0.5-0.57-1.17-0.57-2.01c0-0.74,0.19-1.39,0.56-1.96c0.37-0.57,0.9-1.01,1.58-1.32c0.68-0.31,1.46-0.47,2.34-0.47    c1.27,0,2.31,0.32,3.12,0.95c0.81,0.63,1.27,1.48,1.37,2.53h-1.94c-0.06-0.52-0.34-0.97-0.82-1.37c-0.48-0.4-1.11-0.59-1.9-0.59    c-0.74,0-1.34,0.19-1.81,0.57c-0.47,0.38-0.7,0.92-0.7,1.6c0,0.49,0.14,0.89,0.42,1.2c0.28,0.31,0.62,0.55,1.03,0.71    s0.98,0.35,1.72,0.55c0.9,0.25,1.61,0.49,2.16,0.73s1.01,0.61,1.4,1.11c0.39,0.5,0.58,1.18,0.58,2.03c0,0.66-0.18,1.28-0.53,1.87    c-0.35,0.58-0.87,1.06-1.55,1.42s-1.5,0.54-2.43,0.54C430.9,350.66,430.1,350.5,429.4,350.18z"/>
		<path d="M449.61,345.86h-8.51c0.06,1.05,0.42,1.87,1.08,2.46c0.65,0.59,1.45,0.88,2.38,0.88c0.77,0,1.4-0.18,1.92-0.53    c0.51-0.36,0.87-0.83,1.08-1.43h1.9c-0.28,1.02-0.86,1.86-1.71,2.5c-0.86,0.64-1.92,0.96-3.19,0.96c-1.01,0-1.91-0.23-2.71-0.68    c-0.8-0.45-1.42-1.1-1.88-1.93c-0.45-0.84-0.68-1.8-0.68-2.91c0-1.1,0.22-2.07,0.66-2.9c0.44-0.83,1.06-1.47,1.86-1.91    c0.8-0.45,1.71-0.67,2.75-0.67c1.01,0,1.91,0.22,2.68,0.66c0.78,0.44,1.38,1.05,1.8,1.82c0.42,0.77,0.63,1.64,0.63,2.61    C449.67,345.12,449.65,345.48,449.61,345.86z M447.39,342.68c-0.3-0.49-0.7-0.86-1.21-1.11c-0.51-0.25-1.08-0.38-1.7-0.38    c-0.89,0-1.65,0.28-2.28,0.85c-0.63,0.57-0.99,1.36-1.08,2.37h6.72C447.84,343.74,447.69,343.16,447.39,342.68z"/>
		<path d="M456.22,340.18c0.58-0.34,1.28-0.51,2.11-0.51v1.83h-0.47c-1.98,0-2.97,1.08-2.97,3.23v5.79h-1.77v-10.65h1.77v1.73    C455.2,340.99,455.64,340.52,456.22,340.18z"/>
		<path d="M465.95,348.89l3.3-9.02h1.89l-4.18,10.65h-2.06l-4.18-10.65h1.91L465.95,348.89z"/>
		<path d="M474.08,337.79c-0.23-0.23-0.35-0.52-0.35-0.86c0-0.34,0.12-0.62,0.35-0.85c0.23-0.23,0.52-0.35,0.86-0.35    c0.32,0,0.6,0.12,0.83,0.35c0.23,0.23,0.34,0.52,0.34,0.85c0,0.34-0.11,0.62-0.34,0.86c-0.23,0.23-0.5,0.35-0.83,0.35    C474.6,338.14,474.32,338.02,474.08,337.79z M475.79,339.87v10.65h-1.77v-10.65H475.79z"/>
		<path d="M479.89,342.29c0.44-0.82,1.05-1.46,1.84-1.91c0.78-0.45,1.68-0.68,2.69-0.68c1.31,0,2.39,0.32,3.24,0.95    c0.85,0.63,1.41,1.52,1.68,2.64h-1.9c-0.18-0.65-0.53-1.16-1.06-1.54c-0.53-0.38-1.18-0.56-1.95-0.56c-1.01,0-1.83,0.35-2.45,1.04    c-0.62,0.69-0.93,1.67-0.93,2.94c0,1.28,0.31,2.27,0.93,2.97c0.62,0.7,1.44,1.05,2.45,1.05c0.78,0,1.42-0.18,1.94-0.54    c0.52-0.36,0.87-0.88,1.07-1.55h1.9c-0.28,1.09-0.86,1.96-1.71,2.61c-0.86,0.65-1.92,0.98-3.21,0.98c-1.01,0-1.91-0.23-2.69-0.68    c-0.78-0.45-1.39-1.09-1.84-1.92c-0.44-0.83-0.66-1.8-0.66-2.91C479.23,344.07,479.45,343.11,479.89,342.29z"/>
		<path d="M502.41,345.86h-8.51c0.06,1.05,0.42,1.87,1.08,2.46c0.65,0.59,1.45,0.88,2.38,0.88c0.77,0,1.4-0.18,1.92-0.53    c0.51-0.36,0.87-0.83,1.08-1.43h1.9c-0.28,1.02-0.86,1.86-1.71,2.5c-0.86,0.64-1.92,0.96-3.19,0.96c-1.01,0-1.91-0.23-2.71-0.68    c-0.8-0.45-1.42-1.1-1.88-1.93c-0.45-0.84-0.68-1.8-0.68-2.91c0-1.1,0.22-2.07,0.66-2.9c0.44-0.83,1.06-1.47,1.86-1.91    c0.8-0.45,1.71-0.67,2.75-0.67c1.01,0,1.91,0.22,2.68,0.66c0.78,0.44,1.38,1.05,1.8,1.82c0.42,0.77,0.63,1.64,0.63,2.61    C502.47,345.12,502.45,345.48,502.41,345.86z M500.19,342.68c-0.3-0.49-0.7-0.86-1.21-1.11c-0.51-0.25-1.08-0.38-1.7-0.38    c-0.89,0-1.65,0.28-2.28,0.85c-0.63,0.57-0.99,1.36-1.08,2.37h6.72C500.64,343.74,500.49,343.16,500.19,342.68z"/>
		<path d="M507.45,350.28c-0.65-0.28-1.16-0.67-1.54-1.17c-0.38-0.5-0.58-1.07-0.62-1.72h1.83c0.05,0.53,0.3,0.97,0.75,1.3    c0.45,0.34,1.03,0.51,1.76,0.51c0.67,0,1.21-0.15,1.59-0.45c0.39-0.3,0.58-0.67,0.58-1.13c0-0.47-0.21-0.81-0.62-1.04    c-0.41-0.23-1.06-0.45-1.92-0.67c-0.79-0.21-1.43-0.42-1.93-0.63c-0.5-0.21-0.93-0.53-1.28-0.95c-0.36-0.42-0.53-0.97-0.53-1.66    c0-0.54,0.16-1.04,0.49-1.5c0.32-0.45,0.78-0.81,1.38-1.08s1.28-0.4,2.04-0.4c1.18,0,2.13,0.3,2.86,0.89    c0.73,0.6,1.11,1.41,1.17,2.45h-1.77c-0.04-0.56-0.26-1-0.67-1.34c-0.41-0.34-0.96-0.5-1.64-0.5c-0.64,0-1.14,0.14-1.52,0.41    c-0.37,0.27-0.56,0.63-0.56,1.07c0,0.35,0.11,0.64,0.34,0.87c0.23,0.23,0.51,0.41,0.86,0.54c0.34,0.14,0.82,0.29,1.43,0.46    c0.76,0.21,1.39,0.41,1.86,0.61c0.48,0.2,0.89,0.5,1.24,0.9c0.34,0.4,0.52,0.93,0.53,1.57c0,0.58-0.16,1.11-0.49,1.57    c-0.32,0.47-0.78,0.83-1.37,1.1c-0.59,0.27-1.27,0.4-2.03,0.4C508.83,350.69,508.1,350.55,507.45,350.28z"/>
		<path d="M516.99,350.29c-0.23-0.23-0.35-0.52-0.35-0.85s0.12-0.62,0.35-0.86c0.23-0.23,0.52-0.35,0.86-0.35    c0.32,0,0.6,0.12,0.83,0.35c0.23,0.23,0.34,0.52,0.34,0.86s-0.11,0.62-0.34,0.85c-0.23,0.23-0.5,0.35-0.83,0.35    C517.51,350.64,517.22,350.52,516.99,350.29z"/>
		<path d="M530.78,350.18c-0.71-0.32-1.26-0.76-1.66-1.32c-0.4-0.56-0.61-1.21-0.62-1.95h1.89c0.06,0.63,0.33,1.17,0.79,1.6    c0.46,0.43,1.13,0.65,2.01,0.65c0.84,0,1.51-0.21,1.99-0.63c0.49-0.42,0.73-0.96,0.73-1.62c0-0.52-0.14-0.94-0.43-1.26    c-0.28-0.32-0.64-0.57-1.07-0.74s-1-0.35-1.73-0.54c-0.89-0.23-1.61-0.47-2.15-0.7c-0.54-0.23-1-0.6-1.38-1.1    c-0.38-0.5-0.57-1.17-0.57-2.01c0-0.74,0.19-1.39,0.56-1.96c0.37-0.57,0.9-1.01,1.58-1.32s1.46-0.47,2.34-0.47    c1.27,0,2.31,0.32,3.12,0.95c0.81,0.63,1.27,1.48,1.37,2.53h-1.94c-0.06-0.52-0.34-0.97-0.82-1.37c-0.48-0.4-1.11-0.59-1.9-0.59    c-0.74,0-1.34,0.19-1.81,0.57c-0.47,0.38-0.7,0.92-0.7,1.6c0,0.49,0.14,0.89,0.42,1.2c0.28,0.31,0.62,0.55,1.03,0.71    s0.98,0.35,1.72,0.55c0.9,0.25,1.61,0.49,2.16,0.73c0.54,0.24,1.01,0.61,1.4,1.11c0.39,0.5,0.58,1.18,0.58,2.03    c0,0.66-0.18,1.28-0.53,1.87c-0.35,0.58-0.87,1.06-1.55,1.42c-0.69,0.36-1.5,0.54-2.43,0.54    C532.28,350.66,531.48,350.5,530.78,350.18z"/>
		<path d="M541.4,337.79c-0.23-0.23-0.35-0.52-0.35-0.86c0-0.34,0.12-0.62,0.35-0.85c0.23-0.23,0.52-0.35,0.86-0.35    c0.32,0,0.6,0.12,0.83,0.35c0.23,0.23,0.34,0.52,0.34,0.85c0,0.34-0.11,0.62-0.34,0.86c-0.23,0.23-0.5,0.35-0.83,0.35    C541.91,338.14,541.63,338.02,541.4,337.79z M543.1,339.87v10.65h-1.77v-10.65H543.1z"/>
		<path d="M562.22,340.19c0.65,0.34,1.16,0.86,1.54,1.55c0.37,0.69,0.56,1.52,0.56,2.51v6.28h-1.75v-6.02    c0-1.06-0.26-1.87-0.79-2.44c-0.52-0.56-1.23-0.85-2.13-0.85c-0.92,0-1.65,0.29-2.2,0.88c-0.54,0.59-0.82,1.44-0.82,2.56v5.87    h-1.75v-6.02c0-1.06-0.26-1.87-0.79-2.44c-0.53-0.56-1.24-0.85-2.13-0.85c-0.92,0-1.65,0.29-2.2,0.88    c-0.54,0.59-0.82,1.44-0.82,2.56v5.87h-1.77v-10.65h1.77v1.54c0.35-0.56,0.82-0.98,1.41-1.28c0.59-0.3,1.24-0.45,1.95-0.45    c0.89,0,1.68,0.2,2.37,0.6c0.69,0.4,1.2,0.99,1.54,1.77c0.3-0.75,0.79-1.33,1.48-1.75c0.69-0.41,1.45-0.62,2.29-0.62    C560.83,339.68,561.57,339.85,562.22,340.19z"/>
		<path d="M571.63,340.31c0.69-0.41,1.5-0.61,2.42-0.61c0.95,0,1.8,0.23,2.58,0.68c0.77,0.45,1.38,1.09,1.82,1.91    c0.44,0.82,0.66,1.78,0.66,2.87c0,1.08-0.22,2.03-0.66,2.88c-0.44,0.84-1.05,1.5-1.82,1.96c-0.77,0.47-1.63,0.7-2.58,0.7    c-0.91,0-1.71-0.2-2.4-0.61s-1.22-0.92-1.58-1.53v7.02h-1.77v-15.7h1.77v1.96C570.41,341.22,570.93,340.71,571.63,340.31z     M576.8,343.06c-0.32-0.6-0.76-1.05-1.31-1.36c-0.55-0.31-1.16-0.47-1.82-0.47c-0.65,0-1.25,0.16-1.8,0.48s-0.99,0.78-1.32,1.38    c-0.33,0.6-0.5,1.3-0.5,2.09c0,0.8,0.17,1.51,0.5,2.11c0.33,0.6,0.77,1.06,1.32,1.38c0.55,0.32,1.15,0.48,1.8,0.48    c0.66,0,1.27-0.16,1.82-0.48c0.55-0.32,0.99-0.78,1.31-1.38c0.32-0.6,0.49-1.31,0.49-2.13    C577.29,344.35,577.13,343.65,576.8,343.06z"/>
		<path d="M584.34,336.14v14.38h-1.77v-14.38H584.34z"/>
		<path d="M588.49,337.79c-0.23-0.23-0.35-0.52-0.35-0.86c0-0.34,0.12-0.62,0.35-0.85c0.23-0.23,0.52-0.35,0.86-0.35    c0.32,0,0.6,0.12,0.83,0.35c0.23,0.23,0.34,0.52,0.34,0.85c0,0.34-0.11,0.62-0.34,0.86c-0.23,0.23-0.5,0.35-0.83,0.35    C589.01,338.14,588.72,338.02,588.49,337.79z M590.2,339.87v10.65h-1.77v-10.65H590.2z"/>
		<path d="M598.58,341.33h-2.23v9.19h-1.77v-9.19h-1.38v-1.46h1.38v-0.76c0-1.19,0.31-2.06,0.92-2.61c0.62-0.55,1.6-0.83,2.96-0.83    v1.48c-0.78,0-1.33,0.15-1.64,0.46c-0.32,0.3-0.48,0.81-0.48,1.51v0.76h2.23V341.33z"/>
		<path d="M601.76,337.79c-0.23-0.23-0.35-0.52-0.35-0.86c0-0.34,0.12-0.62,0.35-0.85c0.23-0.23,0.52-0.35,0.86-0.35    c0.32,0,0.6,0.12,0.83,0.35c0.23,0.23,0.34,0.52,0.34,0.85c0,0.34-0.11,0.62-0.34,0.86c-0.23,0.23-0.5,0.35-0.83,0.35    C602.28,338.14,601.99,338.02,601.76,337.79z M603.47,339.87v10.65h-1.77v-10.65H603.47z"/>
		<path d="M617.22,345.86h-8.51c0.06,1.05,0.42,1.87,1.08,2.46c0.65,0.59,1.45,0.88,2.38,0.88c0.77,0,1.4-0.18,1.92-0.53    c0.51-0.36,0.87-0.83,1.08-1.43h1.9c-0.28,1.02-0.86,1.86-1.71,2.5c-0.86,0.64-1.92,0.96-3.19,0.96c-1.01,0-1.91-0.23-2.71-0.68    c-0.8-0.45-1.42-1.1-1.88-1.93c-0.45-0.84-0.68-1.8-0.68-2.91c0-1.1,0.22-2.07,0.66-2.9c0.44-0.83,1.06-1.47,1.86-1.91    c0.8-0.45,1.71-0.67,2.75-0.67c1.01,0,1.91,0.22,2.68,0.66c0.78,0.44,1.38,1.05,1.8,1.82c0.42,0.77,0.63,1.64,0.63,2.61    C617.28,345.12,617.26,345.48,617.22,345.86z M615,342.68c-0.3-0.49-0.7-0.86-1.21-1.11c-0.51-0.25-1.08-0.38-1.7-0.38    c-0.89,0-1.65,0.28-2.28,0.85c-0.63,0.57-0.99,1.36-1.08,2.37h6.72C615.45,343.74,615.3,343.16,615,342.68z"/>
		<path d="M620.78,342.29c0.44-0.82,1.05-1.46,1.82-1.91c0.77-0.45,1.64-0.68,2.6-0.68c0.83,0,1.6,0.19,2.31,0.57    c0.71,0.38,1.26,0.88,1.63,1.51v-5.64h1.79v14.38h-1.79v-2c-0.35,0.63-0.87,1.16-1.55,1.56c-0.69,0.41-1.49,0.61-2.41,0.61    c-0.95,0-1.8-0.23-2.57-0.7c-0.77-0.47-1.38-1.12-1.82-1.96c-0.44-0.84-0.66-1.8-0.66-2.88    C620.12,344.07,620.34,343.11,620.78,342.29z M628.65,343.08c-0.32-0.6-0.76-1.05-1.31-1.37s-1.16-0.48-1.82-0.48    c-0.66,0-1.26,0.15-1.81,0.47c-0.54,0.31-0.98,0.76-1.3,1.36c-0.32,0.6-0.49,1.3-0.49,2.1c0,0.82,0.16,1.53,0.49,2.13    c0.32,0.6,0.76,1.06,1.3,1.38c0.54,0.32,1.15,0.48,1.81,0.48c0.66,0,1.27-0.16,1.82-0.48c0.55-0.32,0.99-0.78,1.31-1.38    c0.32-0.6,0.49-1.3,0.49-2.11C629.13,344.37,628.97,343.67,628.65,343.08z"/>
		<path d="M634.92,350.29c-0.23-0.23-0.35-0.52-0.35-0.85s0.12-0.62,0.35-0.86c0.23-0.23,0.52-0.35,0.86-0.35    c0.32,0,0.6,0.12,0.83,0.35c0.23,0.23,0.34,0.52,0.34,0.86s-0.11,0.62-0.34,0.85c-0.23,0.23-0.5,0.35-0.83,0.35    C635.44,350.64,635.15,350.52,634.92,350.29z"/>
	</g>
	<g>
		<path d="M345.1,259.4c2.57-1.34,5.47-2,8.71-2c3.7,0,7.08,0.91,10.14,2.74c3.06,1.83,5.46,4.38,7.21,7.67    c1.75,3.29,2.62,7.07,2.62,11.33s-0.87,8.08-2.62,11.45c-1.75,3.37-4.15,5.99-7.21,7.86c-3.06,1.88-6.44,2.81-10.14,2.81    c-3.24,0-6.12-0.65-8.63-1.97c-2.52-1.31-4.58-2.94-6.17-4.89v25.27c0,0.61-0.49,1.1-1.1,1.1h-6.59c-0.61,0-1.1-0.49-1.1-1.1    v-60.48c0-0.61,0.49-1.1,1.1-1.1h6.59c0.61,0,1.1,0.49,1.1,1.1v5.15C340.5,262.38,342.53,260.74,345.1,259.4z M363.02,271.54    c-1.21-2.13-2.8-3.75-4.78-4.86c-1.98-1.1-4.1-1.66-6.36-1.66c-2.21,0-4.3,0.57-6.28,1.7c-1.98,1.13-3.57,2.78-4.78,4.93    c-1.21,2.16-1.81,4.7-1.81,7.63c0,2.93,0.6,5.49,1.81,7.67c1.21,2.18,2.8,3.84,4.78,4.97c1.98,1.13,4.07,1.7,6.28,1.7    c2.26,0,4.38-0.58,6.36-1.73c1.98-1.16,3.57-2.84,4.78-5.05c1.21-2.21,1.81-4.78,1.81-7.71    C364.83,276.2,364.23,273.67,363.02,271.54z"/>
		<path d="M420.42,282.6h-32.45c0.26,3.39,1.52,6.12,3.78,8.17c2.26,2.06,5.04,3.08,8.33,3.08c4.3,0,7.46-1.64,9.46-4.91    c0.39-0.64,1.1-1.02,1.85-1.02h6.61c0.79,0,1.32,0.81,1.01,1.54c-1.35,3.22-3.49,5.9-6.4,8.06c-3.37,2.49-7.54,3.74-12.53,3.74    c-4.06,0-7.7-0.91-10.91-2.74c-3.21-1.82-5.73-4.39-7.55-7.71c-1.83-3.31-2.74-7.16-2.74-11.52c0-4.37,0.89-8.21,2.66-11.52    s4.26-5.87,7.48-7.67c3.21-1.8,6.9-2.7,11.06-2.7c4.01,0,7.58,0.87,10.72,2.62c3.14,1.75,5.58,4.2,7.32,7.36    c1.75,3.16,2.62,6.8,2.62,10.91C420.73,279.88,420.63,281.32,420.42,282.6z M411.56,275.51c-0.05-3.24-1.21-5.83-3.47-7.79    c-2.26-1.95-5.06-2.93-8.4-2.93c-3.03,0-5.63,0.96-7.79,2.89c-2.16,1.93-3.44,4.54-3.85,7.82H411.56z"/>
		<path d="M458.75,259.48c2.64,1.39,4.71,3.44,6.2,6.17c1.49,2.72,2.24,6.01,2.24,9.87v23.96c0,0.61-0.49,1.1-1.1,1.1h-6.52    c-0.61,0-1.1-0.49-1.1-1.1v-22.65c0-3.8-0.95-6.72-2.85-8.75c-1.9-2.03-4.5-3.05-7.79-3.05c-3.29,0-5.9,1.02-7.82,3.05    c-1.93,2.03-2.89,4.95-2.89,8.75v22.65c0,0.61-0.49,1.1-1.1,1.1h-6.59c-0.61,0-1.1-0.49-1.1-1.1v-40.28c0-0.61,0.49-1.1,1.1-1.1    h6.59c0.61,0,1.1,0.49,1.1,1.1v3.76c1.44-1.75,3.28-3.11,5.51-4.09c2.24-0.98,4.61-1.46,7.13-1.46    C453.11,257.39,456.1,258.09,458.75,259.48z"/>
		<path d="M503.12,259.36c2.54,1.31,4.54,2.94,5.97,4.9v-5.07c0-0.61,0.49-1.1,1.1-1.1h6.67c0.61,0,1.1,0.49,1.1,1.1v42.07    c0,3.91-0.82,7.39-2.47,10.45c-1.65,3.06-4.02,5.46-7.13,7.21c-3.11,1.75-6.82,2.62-11.14,2.62c-5.76,0-10.54-1.35-14.34-4.05    c-3.44-2.44-5.53-5.66-6.28-9.67c-0.13-0.68,0.39-1.31,1.08-1.31h5.94c0.87,0,1.62,0.52,2,1.3c0.78,1.62,2.04,2.97,3.77,4.05    c2.18,1.36,4.79,2.04,7.82,2.04c3.54,0,6.41-1.08,8.6-3.24c2.18-2.16,3.28-5.29,3.28-9.41v-7.09c-1.49,2-3.51,3.69-6.05,5.05    c-2.54,1.36-5.44,2.04-8.67,2.04c-3.7,0-7.08-0.94-10.14-2.81c-3.06-1.88-5.47-4.5-7.25-7.86c-1.77-3.37-2.66-7.18-2.66-11.45    s0.89-8.04,2.66-11.33c1.77-3.29,4.19-5.85,7.25-7.67c3.06-1.82,6.44-2.74,10.14-2.74C497.66,257.39,500.58,258.05,503.12,259.36z     M507.28,271.66c-1.21-2.16-2.79-3.8-4.74-4.93c-1.95-1.13-4.06-1.7-6.32-1.7c-2.26,0-4.37,0.55-6.32,1.66    c-1.95,1.11-3.53,2.72-4.74,4.86c-1.21,2.13-1.81,4.66-1.81,7.59c0,2.93,0.6,5.5,1.81,7.71c1.21,2.21,2.8,3.89,4.78,5.05    c1.98,1.16,4.07,1.73,6.28,1.73c2.26,0,4.37-0.57,6.32-1.7c1.95-1.13,3.53-2.79,4.74-4.97c1.21-2.18,1.81-4.74,1.81-7.67    C509.09,276.36,508.49,273.81,507.28,271.66z"/>
		<path d="M565.78,259.19v40.28c0,0.61-0.49,1.1-1.1,1.1h-6.59c-0.61,0-1.1-0.49-1.1-1.1v-3.91c-1.39,1.75-3.2,3.12-5.44,4.12    c-2.24,1-4.61,1.5-7.13,1.5c-3.34,0-6.34-0.69-8.98-2.08c-2.65-1.39-4.73-3.44-6.24-6.17c-1.52-2.72-2.27-6.01-2.27-9.87v-23.88    c0-0.61,0.49-1.1,1.1-1.1h6.52c0.61,0,1.1,0.49,1.1,1.1v22.57c0,3.8,0.95,6.72,2.85,8.75c1.9,2.03,4.5,3.04,7.79,3.04    c3.29,0,5.9-1.01,7.82-3.04c1.93-2.03,2.89-4.95,2.89-8.75v-22.57c0-0.61,0.49-1.1,1.1-1.1h6.59    C565.29,258.09,565.78,258.58,565.78,259.19z"/>
		<path class="st0" d="M576.55,250.29c-1.26-1.21-1.89-2.71-1.89-4.51c0-1.8,0.63-3.3,1.89-4.51c1.26-1.21,2.84-1.81,4.74-1.81    c1.9,0,3.48,0.6,4.74,1.81c1.26,1.21,1.89,2.71,1.89,4.51c0,1.8-0.63,3.3-1.89,4.51c-1.26,1.21-2.84,1.81-4.74,1.81    C579.39,252.1,577.81,251.49,576.55,250.29z"/>
		<path class="st0" d="M586.61,258.95v40.51c0,0.61-0.49,1.1-1.1,1.1h-8.6c-0.61,0-1.1-0.49-1.1-1.1v-40.51c0-0.61,0.49-1.1,1.1-1.1    h8.6C586.12,257.86,586.61,258.35,586.61,258.95z"/>
		<path class="st0" d="M632.23,262.06c3.13,3.21,4.7,7.7,4.7,13.45v23.96c0,0.61-0.49,1.1-1.1,1.1h-8.6c-0.61,0-1.1-0.49-1.1-1.1    v-22.49c0-3.39-0.85-6-2.54-7.82c-1.7-1.82-4.01-2.74-6.94-2.74c-2.98,0-5.33,0.91-7.05,2.74c-1.72,1.82-2.58,4.43-2.58,7.82    v22.49c0,0.61-0.49,1.1-1.1,1.1h-8.6c-0.61,0-1.1-0.49-1.1-1.1v-40.51c0-0.61,0.49-1.1,1.1-1.1h8.6c0.61,0,1.1,0.49,1.1,1.1v4.22    c1.44-1.85,3.28-3.3,5.51-4.36c2.24-1.05,4.69-1.58,7.36-1.58C624.99,257.24,629.1,258.85,632.23,262.06z"/>
	</g>
	<g>
		<path d="M280.23,321.24l3.25-3.25c17.97-17.97,17.97-47.1,0-65.06l0,0c-17.97-17.97-47.1-17.97-65.06,0l0,0    c-17.97,17.97-17.97,47.1,0,65.06l32.53,32.53l9.76-9.76c1.8-1.8,1.8-4.71,0-6.51l-29.28-29.28c-10.78-10.78-10.78-28.26,0-39.04    l0,0c10.78-10.78,28.26-10.78,39.04,0l0,0c10.78,10.78,10.78,28.26,0,39.04l-3.25,3.25c-1.8,1.8-1.8,4.71,0,6.51l6.51,6.51    C275.52,323.04,278.43,323.04,280.23,321.24z"/>
		<path class="st0" d="M311.14,283.83l-16.72-13.47l0,0c3.38,9.76,3.38,20.44,0,30.2h0l16.73-13.48    C312.04,286.18,312.04,284.73,311.14,283.83z"/>
	</g>
</g>
</svg>