<svg width="2566" height="660" viewBox="0 0 2566 660" fill="none" xmlns="http://www.w3.org/2000/svg">
<g clip-path="url(#clip0_29_45)">
<path d="M832.398 191.281C847.661 183.323 864.884 179.343 884.127 179.343C906.101 179.343 926.175 184.748 944.349 195.616C962.522 206.485 976.776 221.629 987.169 241.169C997.562 260.708 1002.73 283.157 1002.73 308.458C1002.73 333.817 997.562 356.445 987.169 376.459C976.776 396.474 962.522 412.034 944.349 423.14C926.175 434.305 906.101 439.829 884.127 439.829C864.884 439.829 847.78 435.968 832.873 428.129C817.907 420.349 805.672 410.668 796.229 399.028V549.107C796.229 552.73 793.319 555.64 789.696 555.64H750.558C746.936 555.64 744.025 552.73 744.025 549.107V189.915C744.025 186.292 746.936 183.382 750.558 183.382H789.696C793.319 183.382 796.229 186.292 796.229 189.915V220.501C805.079 208.979 817.135 199.239 832.398 191.281ZM938.885 263.38C931.698 250.73 922.255 241.109 910.496 234.517C898.737 227.984 886.146 224.658 872.724 224.658C859.599 224.658 847.186 228.043 835.427 234.755C823.668 241.466 814.224 251.265 807.038 264.034C799.852 276.862 796.289 291.947 796.289 309.349C796.289 326.75 799.852 341.954 807.038 354.901C814.224 367.848 823.668 377.707 835.427 384.418C847.186 391.129 859.599 394.514 872.724 394.514C886.146 394.514 898.737 391.069 910.496 384.24C922.255 377.35 931.698 367.373 938.885 354.248C946.071 341.122 949.634 325.859 949.634 308.458C949.634 291.116 946.011 276.09 938.885 263.38Z" fill="black"/>
<path d="M1279.78 329.125H1087C1088.55 349.259 1096.03 365.472 1109.45 377.647C1122.88 389.882 1139.39 395.939 1158.93 395.939C1184.46 395.939 1203.23 386.199 1215.11 366.779C1217.42 362.978 1221.64 360.721 1226.1 360.721H1265.35C1270.04 360.721 1273.19 365.532 1271.35 369.867C1263.33 388.991 1250.62 404.907 1233.34 417.736C1213.33 432.524 1188.56 439.948 1158.93 439.948C1134.81 439.948 1113.2 434.543 1094.13 423.675C1075.07 412.866 1060.1 397.602 1049.23 377.885C1038.36 358.227 1032.96 335.361 1032.96 309.467C1032.96 283.514 1038.24 260.708 1048.76 240.99C1059.27 221.332 1074.06 206.128 1093.18 195.438C1112.24 184.748 1134.16 179.403 1158.87 179.403C1182.68 179.403 1203.88 184.57 1222.53 194.963C1241.18 205.356 1255.67 219.907 1266.01 238.674C1276.4 257.441 1281.57 279.059 1281.57 303.469C1281.57 312.912 1280.97 321.464 1279.78 329.125ZM1227.11 286.958C1226.81 267.716 1219.92 252.334 1206.5 240.694C1193.07 229.112 1176.45 223.292 1156.61 223.292C1138.61 223.292 1123.17 228.994 1110.34 240.456C1097.52 251.918 1089.91 267.419 1087.48 286.899H1227.11V286.958Z" fill="black"/>
<path d="M1507.43 191.756C1523.11 200.011 1535.4 212.186 1544.25 228.4C1553.1 244.554 1557.55 264.093 1557.55 287.018V429.317C1557.55 432.939 1554.64 435.849 1551.02 435.849H1512.3C1508.67 435.849 1505.76 432.939 1505.76 429.317V294.798C1505.76 272.23 1500.12 254.888 1488.84 242.831C1477.55 230.775 1462.11 224.717 1442.57 224.717C1423.03 224.717 1407.53 230.775 1396.13 242.831C1384.67 254.888 1378.97 272.23 1378.97 294.798V429.317C1378.97 432.939 1376.06 435.849 1372.43 435.849H1333.29C1329.67 435.849 1326.76 432.939 1326.76 429.317V190.093C1326.76 186.47 1329.67 183.56 1333.29 183.56H1372.43C1376.06 183.56 1378.97 186.47 1378.97 190.093V212.424C1387.52 202.03 1398.45 193.953 1411.69 188.133C1424.99 182.313 1439.07 179.462 1454.03 179.462C1473.87 179.403 1491.69 183.501 1507.43 191.756Z" fill="black"/>
<path d="M1770.94 191.043C1786.03 198.823 1797.9 208.504 1806.4 220.144V190.034C1806.4 186.411 1809.31 183.501 1812.93 183.501H1852.54C1856.17 183.501 1859.08 186.411 1859.08 190.034V439.888C1859.08 463.11 1854.21 483.778 1844.41 501.951C1834.61 520.124 1820.53 534.378 1802.06 544.771C1783.59 555.164 1761.56 560.331 1735.9 560.331C1701.69 560.331 1673.3 552.314 1650.74 536.278C1630.31 521.787 1617.89 502.663 1613.44 478.848C1612.67 474.809 1615.75 471.068 1619.85 471.068H1655.13C1660.3 471.068 1664.75 474.156 1667.01 478.789C1671.64 488.41 1679.12 496.428 1689.4 502.842C1702.35 510.919 1717.85 514.957 1735.84 514.957C1756.87 514.957 1773.91 508.543 1786.92 495.715C1799.86 482.887 1806.4 464.298 1806.4 439.829V397.721C1797.55 409.599 1785.55 419.636 1770.47 427.713C1755.38 435.79 1738.16 439.829 1718.97 439.829C1697 439.829 1676.93 434.246 1658.75 423.14C1640.58 411.975 1626.27 396.415 1615.7 376.459C1605.18 356.445 1599.9 333.817 1599.9 308.458C1599.9 283.098 1605.18 260.708 1615.7 241.169C1626.21 221.629 1640.58 206.425 1658.75 195.616C1676.93 184.807 1697 179.343 1718.97 179.343C1738.51 179.403 1755.8 183.263 1770.94 191.043ZM1795.65 264.093C1788.46 251.265 1779.08 241.525 1767.5 234.814C1755.92 228.103 1743.38 224.718 1729.96 224.718C1716.54 224.718 1704.01 227.984 1692.43 234.576C1680.85 241.168 1671.46 250.73 1664.28 263.44C1657.09 276.09 1653.53 291.116 1653.53 308.517C1653.53 325.918 1657.09 341.182 1664.28 354.307C1671.46 367.432 1680.91 377.41 1692.67 384.299C1704.42 391.188 1716.84 394.573 1729.96 394.573C1743.38 394.573 1755.92 391.188 1767.5 384.477C1779.08 377.766 1788.46 367.907 1795.65 354.96C1802.83 342.013 1806.4 326.809 1806.4 309.408C1806.4 292.007 1802.83 276.921 1795.65 264.093Z" fill="black"/>
<path d="M2143.08 190.034V429.257C2143.08 432.88 2140.17 435.79 2136.55 435.79H2097.41C2093.79 435.79 2090.88 432.88 2090.88 429.257V406.036C2082.62 416.429 2071.87 424.565 2058.57 430.504C2045.26 436.443 2031.19 439.413 2016.22 439.413C1996.39 439.413 1978.57 435.315 1962.89 427.06C1947.21 418.804 1934.8 406.63 1925.83 390.416C1916.8 374.262 1912.35 354.723 1912.35 331.798V189.974C1912.35 186.351 1915.26 183.441 1918.88 183.441H1957.6C1961.23 183.441 1964.14 186.351 1964.14 189.974V324.018C1964.14 346.586 1969.78 363.928 1981.06 375.984C1992.35 388.041 2007.79 394.039 2027.33 394.039C2046.87 394.039 2062.37 388.041 2073.77 375.984C2085.23 363.928 2090.93 346.586 2090.93 324.018V189.974C2090.93 186.351 2093.84 183.441 2097.47 183.441H2136.61C2140.17 183.501 2143.08 186.411 2143.08 190.034Z" fill="black"/>
<path d="M2207.04 137.176C2199.56 129.99 2195.82 121.082 2195.82 110.391C2195.82 99.7012 2199.56 90.7926 2207.04 83.6064C2214.53 76.4202 2223.91 72.8568 2235.19 72.8568C2246.48 72.8568 2255.86 76.4202 2263.34 83.6064C2270.83 90.7926 2274.57 99.7012 2274.57 110.391C2274.57 121.082 2270.83 129.99 2263.34 137.176C2255.86 144.363 2246.48 147.926 2235.19 147.926C2223.91 147.926 2214.53 144.363 2207.04 137.176Z" fill="#FFB400"/>
<path d="M2266.79 188.668V429.257C2266.79 432.88 2263.88 435.79 2260.26 435.79H2209.18C2205.56 435.79 2202.65 432.88 2202.65 429.257V188.668C2202.65 185.045 2205.56 182.135 2209.18 182.135H2260.26C2263.88 182.135 2266.79 185.045 2266.79 188.668Z" fill="#FFB400"/>
<path d="M2537.79 207.079C2556.38 226.143 2565.7 252.809 2565.7 286.958V429.257C2565.7 432.88 2562.79 435.79 2559.17 435.79H2508.09C2504.47 435.79 2501.56 432.88 2501.56 429.257V295.689C2501.56 275.555 2496.51 260.055 2486.47 249.246C2476.38 238.436 2462.66 232.973 2445.26 232.973C2427.56 232.973 2413.6 238.377 2403.39 249.246C2393.17 260.055 2388.06 275.555 2388.06 295.689V429.257C2388.06 432.88 2385.15 435.79 2381.53 435.79H2330.46C2326.83 435.79 2323.92 432.88 2323.92 429.257V188.668C2323.92 185.045 2326.83 182.135 2330.46 182.135H2381.53C2385.15 182.135 2388.06 185.045 2388.06 188.668V213.73C2396.62 202.743 2407.54 194.131 2420.79 187.836C2434.09 181.6 2448.64 178.453 2464.5 178.453C2494.73 178.453 2519.14 188.014 2537.79 207.079Z" fill="#FFB400"/>
<path d="M447.134 485.737L466.436 466.436C573.16 359.711 573.16 186.708 466.436 80.0431C359.712 -26.681 186.708 -26.681 80.0431 80.0431C-26.681 186.767 -26.681 359.771 80.0431 466.436L273.239 659.632L331.204 601.667C341.894 590.977 341.894 573.694 331.204 563.004L157.31 389.11C93.2871 325.087 93.2871 221.273 157.31 157.25C221.332 93.2277 325.146 93.2277 389.169 157.25C453.192 221.273 453.192 325.087 389.169 389.11L369.867 408.411C359.177 419.102 359.177 436.384 369.867 447.075L408.53 485.737C419.161 496.368 436.503 496.368 447.134 485.737Z" fill="black"/>
<path d="M630.768 263.559L531.468 183.56C551.542 241.525 551.542 304.954 531.468 362.918L630.828 282.86C636.054 277.515 636.054 268.844 630.768 263.559Z" fill="#FFB400"/>
</g>
<defs>
<clipPath id="clip0_29_45">
<rect width="2565.7" height="659.632" fill="white"/>
</clipPath>
</defs>
</svg>
