<svg width="432" height="117" viewBox="0 0 432 117" fill="none" xmlns="http://www.w3.org/2000/svg">
<path d="M127.05 109.63H131.79V111.07H125.28V97.53H127.05V109.63Z" fill="white"/>
<path d="M136.45 110.56C135.64 110.11 135 109.46 134.55 108.63C134.09 107.79 133.86 106.83 133.86 105.72C133.86 104.63 134.1 103.67 134.57 102.83C135.04 101.99 135.69 101.35 136.5 100.91C137.32 100.46 138.23 100.24 139.24 100.24C140.25 100.24 141.16 100.46 141.98 100.91C142.8 101.36 143.44 101.99 143.91 102.82C144.38 103.65 144.62 104.61 144.62 105.72C144.62 106.82 144.38 107.79 143.89 108.63C143.4 109.47 142.75 110.11 141.92 110.56C141.09 111.01 140.17 111.24 139.16 111.24C138.16 111.24 137.26 111.02 136.45 110.56ZM140.95 109.24C141.51 108.94 141.96 108.5 142.3 107.9C142.64 107.3 142.81 106.58 142.81 105.72C142.81 104.86 142.64 104.14 142.31 103.54C141.97 102.94 141.53 102.5 140.99 102.21C140.45 101.92 139.86 101.77 139.22 101.77C138.57 101.77 137.98 101.92 137.44 102.21C136.9 102.5 136.47 102.95 136.15 103.54C135.83 104.14 135.66 104.86 135.66 105.72C135.66 106.59 135.82 107.32 136.14 107.92C136.46 108.52 136.88 108.96 137.41 109.25C137.94 109.54 138.52 109.69 139.16 109.69C139.79 109.69 140.39 109.54 140.95 109.24Z" fill="white"/>
<path d="M148.11 102.84C148.55 102.02 149.16 101.38 149.95 100.93C150.73 100.48 151.63 100.25 152.64 100.25C153.95 100.25 155.03 100.57 155.88 101.2C156.73 101.83 157.29 102.72 157.56 103.84H155.66C155.48 103.19 155.13 102.68 154.6 102.3C154.07 101.92 153.42 101.74 152.65 101.74C151.64 101.74 150.82 102.09 150.2 102.78C149.58 103.47 149.27 104.45 149.27 105.72C149.27 107 149.58 107.99 150.2 108.69C150.82 109.39 151.64 109.74 152.65 109.74C153.43 109.74 154.07 109.56 154.59 109.2C155.11 108.84 155.46 108.32 155.66 107.65H157.56C157.28 108.74 156.7 109.61 155.85 110.26C154.99 110.91 153.93 111.24 152.64 111.24C151.63 111.24 150.73 111.01 149.95 110.56C149.17 110.11 148.56 109.47 148.11 108.64C147.67 107.81 147.45 106.84 147.45 105.73C147.45 104.62 147.67 103.66 148.11 102.84Z" fill="white"/>
<path d="M160.98 102.84C161.42 102.02 162.03 101.38 162.8 100.93C163.57 100.48 164.43 100.25 165.37 100.25C166.3 100.25 167.11 100.45 167.8 100.85C168.49 101.25 169 101.76 169.34 102.37V100.43H171.13V111.08H169.34V109.1C168.99 109.72 168.47 110.24 167.78 110.65C167.09 111.06 166.28 111.26 165.36 111.26C164.41 111.26 163.56 111.03 162.79 110.56C162.03 110.09 161.42 109.44 160.98 108.6C160.54 107.76 160.32 106.8 160.32 105.72C160.32 104.62 160.54 103.66 160.98 102.84ZM168.85 103.63C168.53 103.03 168.09 102.58 167.54 102.26C166.99 101.94 166.38 101.78 165.72 101.78C165.06 101.78 164.46 101.93 163.91 102.25C163.37 102.56 162.93 103.01 162.61 103.61C162.29 104.21 162.12 104.91 162.12 105.71C162.12 106.53 162.28 107.24 162.61 107.84C162.93 108.44 163.37 108.9 163.91 109.22C164.45 109.54 165.06 109.7 165.72 109.7C166.38 109.7 166.99 109.54 167.54 109.22C168.09 108.9 168.53 108.44 168.85 107.84C169.17 107.24 169.34 106.54 169.34 105.73C169.34 104.92 169.17 104.22 168.85 103.63Z" fill="white"/>
<path d="M177.331 101.88V108.16C177.331 108.68 177.441 109.04 177.661 109.26C177.881 109.48 178.261 109.58 178.811 109.58H180.111V111.08H178.521C177.531 111.08 176.801 110.85 176.301 110.4C175.811 109.95 175.561 109.2 175.561 108.17V101.89H174.181V100.43H175.561V97.75H177.331V100.43H180.111V101.89H177.331V101.88Z" fill="white"/>
<path d="M183.25 98.34C183.02 98.11 182.9 97.82 182.9 97.48C182.9 97.14 183.02 96.86 183.25 96.63C183.48 96.4 183.77 96.28 184.11 96.28C184.43 96.28 184.71 96.4 184.94 96.63C185.17 96.86 185.28 97.15 185.28 97.48C185.28 97.82 185.17 98.1 184.94 98.34C184.71 98.57 184.44 98.69 184.11 98.69C183.77 98.69 183.48 98.57 183.25 98.34ZM184.96 100.42V111.07H183.19V100.42H184.96Z" fill="white"/>
<path d="M190.99 110.56C190.18 110.11 189.54 109.46 189.09 108.63C188.63 107.79 188.4 106.83 188.4 105.72C188.4 104.63 188.64 103.67 189.11 102.83C189.58 101.99 190.23 101.35 191.04 100.91C191.86 100.46 192.77 100.24 193.78 100.24C194.79 100.24 195.7 100.46 196.52 100.91C197.34 101.36 197.98 101.99 198.45 102.82C198.92 103.65 199.16 104.61 199.16 105.72C199.16 106.82 198.92 107.79 198.43 108.63C197.94 109.47 197.29 110.11 196.46 110.56C195.63 111.01 194.71 111.24 193.7 111.24C192.7 111.24 191.8 111.02 190.99 110.56ZM195.48 109.24C196.04 108.94 196.49 108.5 196.83 107.9C197.17 107.3 197.34 106.58 197.34 105.72C197.34 104.86 197.17 104.14 196.84 103.54C196.5 102.94 196.06 102.5 195.52 102.21C194.98 101.92 194.39 101.77 193.75 101.77C193.1 101.77 192.51 101.92 191.97 102.21C191.43 102.5 191 102.95 190.68 103.54C190.36 104.14 190.19 104.86 190.19 105.72C190.19 106.59 190.35 107.32 190.67 107.92C190.99 108.52 191.41 108.96 191.94 109.25C192.47 109.54 193.05 109.69 193.69 109.69C194.33 109.69 194.93 109.54 195.48 109.24Z" fill="white"/>
<path d="M210.94 101.4C211.74 102.18 212.15 103.31 212.15 104.79V111.07H210.4V105.05C210.4 103.99 210.13 103.18 209.6 102.61C209.07 102.05 208.34 101.76 207.42 101.76C206.49 101.76 205.75 102.05 205.19 102.63C204.64 103.21 204.36 104.06 204.36 105.18V111.07H202.59V100.42H204.36V101.94C204.71 101.4 205.19 100.98 205.79 100.68C206.39 100.38 207.06 100.23 207.78 100.23C209.09 100.23 210.14 100.62 210.94 101.4Z" fill="white"/>
<path d="M224.461 110.73C223.751 110.41 223.201 109.97 222.801 109.41C222.401 108.85 222.191 108.2 222.181 107.46H224.061C224.121 108.09 224.391 108.63 224.851 109.06C225.311 109.49 225.981 109.71 226.861 109.71C227.701 109.71 228.371 109.5 228.851 109.08C229.341 108.66 229.581 108.12 229.581 107.46C229.581 106.94 229.441 106.52 229.151 106.2C228.871 105.88 228.511 105.63 228.081 105.46C227.651 105.29 227.081 105.11 226.351 104.92C225.461 104.69 224.741 104.45 224.201 104.22C223.661 103.99 223.201 103.62 222.821 103.12C222.441 102.62 222.251 101.95 222.251 101.11C222.251 100.37 222.441 99.72 222.811 99.15C223.181 98.58 223.711 98.14 224.391 97.83C225.071 97.52 225.851 97.36 226.731 97.36C228.001 97.36 229.041 97.68 229.851 98.31C230.661 98.94 231.121 99.79 231.221 100.84H229.281C229.221 100.32 228.941 99.87 228.461 99.47C227.981 99.07 227.351 98.88 226.561 98.88C225.821 98.88 225.221 99.07 224.751 99.45C224.281 99.83 224.051 100.37 224.051 101.05C224.051 101.54 224.191 101.94 224.471 102.25C224.751 102.56 225.091 102.8 225.501 102.96C225.911 103.12 226.481 103.31 227.221 103.51C228.121 103.76 228.831 104 229.381 104.24C229.931 104.48 230.391 104.85 230.781 105.35C231.171 105.85 231.361 106.53 231.361 107.38C231.361 108.04 231.181 108.66 230.831 109.25C230.481 109.83 229.961 110.31 229.281 110.67C228.601 111.03 227.781 111.21 226.851 111.21C225.961 111.21 225.161 111.05 224.461 110.73Z" fill="white"/>
<path d="M244.671 106.41H236.161C236.221 107.46 236.581 108.28 237.241 108.87C237.891 109.46 238.691 109.75 239.621 109.75C240.391 109.75 241.021 109.57 241.541 109.22C242.051 108.86 242.411 108.39 242.621 107.79H244.521C244.241 108.81 243.661 109.65 242.811 110.29C241.951 110.93 240.891 111.25 239.621 111.25C238.611 111.25 237.711 111.02 236.911 110.57C236.111 110.12 235.491 109.47 235.031 108.64C234.581 107.8 234.351 106.84 234.351 105.73C234.351 104.63 234.571 103.66 235.011 102.83C235.451 102 236.071 101.36 236.871 100.92C237.671 100.47 238.581 100.25 239.621 100.25C240.631 100.25 241.531 100.47 242.301 100.91C243.081 101.35 243.681 101.96 244.101 102.73C244.521 103.5 244.731 104.37 244.731 105.34C244.731 105.67 244.711 106.03 244.671 106.41ZM242.451 103.23C242.151 102.74 241.751 102.37 241.241 102.12C240.731 101.87 240.161 101.74 239.541 101.74C238.651 101.74 237.891 102.02 237.261 102.59C236.631 103.16 236.271 103.95 236.181 104.96H242.901C242.901 104.29 242.751 103.71 242.451 103.23Z" fill="white"/>
<path d="M251.281 100.73C251.861 100.39 252.561 100.22 253.391 100.22V102.05H252.921C250.941 102.05 249.951 103.13 249.951 105.28V111.07H248.181V100.42H249.951V102.15C250.261 101.54 250.701 101.07 251.281 100.73Z" fill="white"/>
<path d="M261.01 109.44L264.31 100.42H266.2L262.02 111.07H259.96L255.78 100.42H257.69L261.01 109.44Z" fill="white"/>
<path d="M269.14 98.34C268.91 98.11 268.79 97.82 268.79 97.48C268.79 97.14 268.91 96.86 269.14 96.63C269.37 96.4 269.66 96.28 270 96.28C270.32 96.28 270.6 96.4 270.83 96.63C271.06 96.86 271.17 97.15 271.17 97.48C271.17 97.82 271.06 98.1 270.83 98.34C270.6 98.57 270.33 98.69 270 98.69C269.66 98.69 269.38 98.57 269.14 98.34ZM270.85 100.42V111.07H269.08V100.42H270.85Z" fill="white"/>
<path d="M274.95 102.84C275.39 102.02 276 101.38 276.79 100.93C277.57 100.48 278.47 100.25 279.48 100.25C280.79 100.25 281.87 100.57 282.72 101.2C283.57 101.83 284.13 102.72 284.4 103.84H282.5C282.32 103.19 281.97 102.68 281.44 102.3C280.91 101.92 280.26 101.74 279.49 101.74C278.48 101.74 277.66 102.09 277.04 102.78C276.42 103.47 276.11 104.45 276.11 105.72C276.11 107 276.42 107.99 277.04 108.69C277.66 109.39 278.48 109.74 279.49 109.74C280.27 109.74 280.91 109.56 281.43 109.2C281.95 108.84 282.3 108.32 282.5 107.65H284.4C284.12 108.74 283.54 109.61 282.69 110.26C281.83 110.91 280.77 111.24 279.48 111.24C278.47 111.24 277.57 111.01 276.79 110.56C276.01 110.11 275.4 109.47 274.95 108.64C274.51 107.81 274.29 106.84 274.29 105.73C274.29 104.62 274.51 103.66 274.95 102.84Z" fill="white"/>
<path d="M297.47 106.41H288.96C289.02 107.46 289.38 108.28 290.04 108.87C290.69 109.46 291.49 109.75 292.42 109.75C293.19 109.75 293.82 109.57 294.34 109.22C294.85 108.86 295.21 108.39 295.42 107.79H297.32C297.04 108.81 296.46 109.65 295.61 110.29C294.75 110.93 293.69 111.25 292.42 111.25C291.41 111.25 290.51 111.02 289.71 110.57C288.91 110.12 288.29 109.47 287.83 108.64C287.38 107.8 287.15 106.84 287.15 105.73C287.15 104.63 287.37 103.66 287.81 102.83C288.25 102 288.87 101.36 289.67 100.92C290.47 100.47 291.38 100.25 292.42 100.25C293.43 100.25 294.33 100.47 295.1 100.91C295.88 101.35 296.48 101.96 296.9 102.73C297.32 103.5 297.53 104.37 297.53 105.34C297.53 105.67 297.51 106.03 297.47 106.41ZM295.25 103.23C294.95 102.74 294.55 102.37 294.04 102.12C293.53 101.87 292.96 101.74 292.34 101.74C291.45 101.74 290.69 102.02 290.06 102.59C289.43 103.16 289.07 103.95 288.98 104.96H295.7C295.7 104.29 295.55 103.71 295.25 103.23Z" fill="white"/>
<path d="M302.511 110.83C301.861 110.55 301.351 110.16 300.971 109.66C300.591 109.16 300.391 108.59 300.351 107.94H302.181C302.231 108.47 302.481 108.91 302.931 109.24C303.381 109.58 303.961 109.75 304.691 109.75C305.361 109.75 305.901 109.6 306.281 109.3C306.671 109 306.861 108.63 306.861 108.17C306.861 107.7 306.651 107.36 306.241 107.13C305.831 106.9 305.181 106.68 304.321 106.46C303.531 106.25 302.891 106.04 302.391 105.83C301.891 105.62 301.461 105.3 301.111 104.88C300.751 104.46 300.581 103.91 300.581 103.22C300.581 102.68 300.741 102.18 301.071 101.72C301.391 101.27 301.851 100.91 302.451 100.64C303.051 100.37 303.731 100.24 304.491 100.24C305.671 100.24 306.621 100.54 307.351 101.13C308.081 101.73 308.461 102.54 308.521 103.58H306.751C306.711 103.02 306.491 102.58 306.081 102.24C305.671 101.9 305.121 101.74 304.441 101.74C303.801 101.74 303.301 101.88 302.921 102.15C302.551 102.42 302.361 102.78 302.361 103.22C302.361 103.57 302.471 103.86 302.701 104.09C302.931 104.32 303.211 104.5 303.561 104.63C303.901 104.77 304.381 104.92 304.991 105.09C305.751 105.3 306.381 105.5 306.851 105.7C307.331 105.9 307.741 106.2 308.091 106.6C308.431 107 308.611 107.53 308.621 108.17C308.621 108.75 308.461 109.28 308.131 109.74C307.811 110.21 307.351 110.57 306.761 110.84C306.171 111.11 305.491 111.24 304.731 111.24C303.891 111.24 303.161 111.1 302.511 110.83Z" fill="white"/>
<path d="M312.05 110.84C311.82 110.61 311.7 110.32 311.7 109.99C311.7 109.66 311.82 109.37 312.05 109.13C312.28 108.9 312.57 108.78 312.91 108.78C313.23 108.78 313.51 108.9 313.74 109.13C313.97 109.36 314.08 109.65 314.08 109.99C314.08 110.33 313.97 110.61 313.74 110.84C313.51 111.07 313.24 111.19 312.91 111.19C312.57 111.19 312.28 111.07 312.05 110.84Z" fill="white"/>
<path d="M325.841 110.73C325.131 110.41 324.581 109.97 324.181 109.41C323.781 108.85 323.571 108.2 323.561 107.46H325.451C325.511 108.09 325.781 108.63 326.241 109.06C326.701 109.49 327.371 109.71 328.251 109.71C329.091 109.71 329.761 109.5 330.241 109.08C330.731 108.66 330.971 108.12 330.971 107.46C330.971 106.94 330.831 106.52 330.541 106.2C330.261 105.88 329.901 105.63 329.471 105.46C329.041 105.29 328.471 105.11 327.741 104.92C326.851 104.69 326.131 104.45 325.591 104.22C325.051 103.99 324.591 103.62 324.211 103.12C323.831 102.62 323.641 101.95 323.641 101.11C323.641 100.37 323.831 99.72 324.201 99.15C324.571 98.58 325.101 98.14 325.781 97.83C326.461 97.52 327.241 97.36 328.121 97.36C329.391 97.36 330.431 97.68 331.241 98.31C332.051 98.94 332.511 99.79 332.611 100.84H330.671C330.611 100.32 330.331 99.87 329.851 99.47C329.371 99.07 328.741 98.88 327.951 98.88C327.211 98.88 326.611 99.07 326.141 99.45C325.671 99.83 325.441 100.37 325.441 101.05C325.441 101.54 325.581 101.94 325.861 102.25C326.141 102.56 326.481 102.8 326.891 102.96C327.301 103.12 327.871 103.31 328.611 103.51C329.511 103.76 330.221 104 330.771 104.24C331.311 104.48 331.781 104.85 332.171 105.35C332.561 105.85 332.751 106.53 332.751 107.38C332.751 108.04 332.571 108.66 332.221 109.25C331.871 109.83 331.351 110.31 330.671 110.67C329.981 111.03 329.171 111.21 328.241 111.21C327.341 111.21 326.541 111.05 325.841 110.73Z" fill="white"/>
<path d="M336.46 98.34C336.23 98.11 336.11 97.82 336.11 97.48C336.11 97.14 336.23 96.86 336.46 96.63C336.69 96.4 336.98 96.28 337.32 96.28C337.64 96.28 337.92 96.4 338.15 96.63C338.38 96.86 338.49 97.15 338.49 97.48C338.49 97.82 338.38 98.1 338.15 98.34C337.92 98.57 337.65 98.69 337.32 98.69C336.97 98.69 336.69 98.57 336.46 98.34ZM338.16 100.42V111.07H336.39V100.42H338.16Z" fill="white"/>
<path d="M357.28 100.74C357.93 101.08 358.44 101.6 358.82 102.29C359.19 102.98 359.38 103.81 359.38 104.8V111.08H357.63V105.06C357.63 104 357.371 103.19 356.841 102.62C356.321 102.06 355.611 101.77 354.711 101.77C353.791 101.77 353.06 102.06 352.51 102.65C351.97 103.24 351.69 104.09 351.69 105.21V111.08H349.94V105.06C349.94 104 349.681 103.19 349.151 102.62C348.621 102.06 347.911 101.77 347.021 101.77C346.101 101.77 345.37 102.06 344.82 102.65C344.28 103.24 344 104.09 344 105.21V111.08H342.23V100.43H344V101.97C344.35 101.41 344.82 100.99 345.41 100.69C346 100.39 346.65 100.24 347.36 100.24C348.25 100.24 349.04 100.44 349.73 100.84C350.42 101.24 350.931 101.83 351.271 102.61C351.571 101.86 352.06 101.28 352.75 100.86C353.44 100.45 354.2 100.24 355.04 100.24C355.89 100.23 356.63 100.4 357.28 100.74Z" fill="white"/>
<path d="M366.69 100.86C367.38 100.45 368.19 100.25 369.11 100.25C370.06 100.25 370.91 100.48 371.69 100.93C372.46 101.38 373.07 102.02 373.51 102.84C373.95 103.66 374.17 104.62 374.17 105.71C374.17 106.79 373.95 107.74 373.51 108.59C373.07 109.43 372.46 110.09 371.69 110.55C370.92 111.02 370.06 111.25 369.11 111.25C368.2 111.25 367.4 111.05 366.71 110.64C366.02 110.23 365.49 109.72 365.13 109.11V116.13H363.36V100.43H365.13V102.39C365.47 101.77 365.99 101.26 366.69 100.86ZM371.86 103.61C371.54 103.01 371.1 102.56 370.55 102.25C370 101.94 369.39 101.78 368.73 101.78C368.08 101.78 367.48 101.94 366.93 102.26C366.38 102.58 365.94 103.04 365.61 103.64C365.28 104.24 365.11 104.94 365.11 105.73C365.11 106.53 365.28 107.24 365.61 107.84C365.94 108.44 366.38 108.9 366.93 109.22C367.48 109.54 368.08 109.7 368.73 109.7C369.39 109.7 370 109.54 370.55 109.22C371.1 108.9 371.54 108.44 371.86 107.84C372.18 107.24 372.35 106.53 372.35 105.71C372.35 104.9 372.19 104.2 371.86 103.61Z" fill="white"/>
<path d="M379.4 96.6899V111.07H377.63V96.6899H379.4Z" fill="white"/>
<path d="M383.55 98.34C383.32 98.11 383.2 97.82 383.2 97.48C383.2 97.14 383.32 96.86 383.55 96.63C383.78 96.4 384.07 96.28 384.41 96.28C384.73 96.28 385.01 96.4 385.24 96.63C385.47 96.86 385.58 97.15 385.58 97.48C385.58 97.82 385.47 98.1 385.24 98.34C385.01 98.57 384.74 98.69 384.41 98.69C384.07 98.69 383.78 98.57 383.55 98.34ZM385.26 100.42V111.07H383.49V100.42H385.26Z" fill="white"/>
<path d="M393.641 101.88H391.411V111.07H389.641V101.88H388.261V100.42H389.641V99.6599C389.641 98.4699 389.951 97.6 390.561 97.05C391.181 96.5 392.161 96.22 393.521 96.22V97.7C392.741 97.7 392.191 97.8499 391.881 98.1599C391.561 98.4599 391.401 98.97 391.401 99.67V100.43H393.631V101.88H393.641Z" fill="white"/>
<path d="M396.821 98.34C396.591 98.11 396.471 97.82 396.471 97.48C396.471 97.14 396.591 96.86 396.821 96.63C397.051 96.4 397.341 96.28 397.681 96.28C398.001 96.28 398.281 96.4 398.511 96.63C398.741 96.86 398.851 97.15 398.851 97.48C398.851 97.82 398.741 98.1 398.511 98.34C398.281 98.57 398.011 98.69 397.681 98.69C397.341 98.69 397.051 98.57 396.821 98.34ZM398.531 100.42V111.07H396.761V100.42H398.531Z" fill="white"/>
<path d="M412.28 106.41H403.77C403.83 107.46 404.19 108.28 404.85 108.87C405.5 109.46 406.3 109.75 407.23 109.75C408 109.75 408.63 109.57 409.15 109.22C409.66 108.86 410.02 108.39 410.23 107.79H412.13C411.85 108.81 411.27 109.65 410.42 110.29C409.56 110.93 408.5 111.25 407.23 111.25C406.22 111.25 405.32 111.02 404.52 110.57C403.72 110.12 403.1 109.47 402.64 108.64C402.19 107.8 401.96 106.84 401.96 105.73C401.96 104.63 402.18 103.66 402.62 102.83C403.06 102 403.68 101.36 404.48 100.92C405.28 100.47 406.19 100.25 407.23 100.25C408.24 100.25 409.14 100.47 409.91 100.91C410.69 101.35 411.29 101.96 411.71 102.73C412.13 103.5 412.34 104.37 412.34 105.34C412.34 105.67 412.32 106.03 412.28 106.41ZM410.06 103.23C409.76 102.74 409.36 102.37 408.85 102.12C408.34 101.87 407.77 101.74 407.15 101.74C406.26 101.74 405.5 102.02 404.87 102.59C404.24 103.16 403.88 103.95 403.79 104.96H410.51C410.51 104.29 410.36 103.71 410.06 103.23Z" fill="white"/>
<path d="M415.841 102.84C416.281 102.02 416.891 101.38 417.661 100.93C418.431 100.48 419.301 100.25 420.261 100.25C421.091 100.25 421.861 100.44 422.571 100.82C423.281 101.2 423.831 101.7 424.201 102.33V96.6899H425.991V111.07H424.201V109.07C423.851 109.7 423.331 110.23 422.651 110.63C421.961 111.04 421.161 111.24 420.241 111.24C419.291 111.24 418.441 111.01 417.671 110.54C416.901 110.07 416.291 109.42 415.851 108.58C415.411 107.74 415.191 106.78 415.191 105.7C415.181 104.62 415.401 103.66 415.841 102.84ZM423.711 103.63C423.391 103.03 422.951 102.58 422.401 102.26C421.851 101.94 421.241 101.78 420.581 101.78C419.921 101.78 419.321 101.93 418.771 102.25C418.231 102.56 417.791 103.01 417.471 103.61C417.151 104.21 416.981 104.91 416.981 105.71C416.981 106.53 417.141 107.24 417.471 107.84C417.791 108.44 418.231 108.9 418.771 109.22C419.311 109.54 419.921 109.7 420.581 109.7C421.241 109.7 421.851 109.54 422.401 109.22C422.951 108.9 423.391 108.44 423.711 107.84C424.031 107.24 424.201 106.54 424.201 105.73C424.191 104.92 424.031 104.22 423.711 103.63Z" fill="white"/>
<path d="M429.98 110.84C429.75 110.61 429.63 110.32 429.63 109.99C429.63 109.66 429.75 109.37 429.98 109.13C430.21 108.9 430.5 108.78 430.84 108.78C431.16 108.78 431.44 108.9 431.67 109.13C431.9 109.36 432.01 109.65 432.01 109.99C432.01 110.33 431.9 110.61 431.67 110.84C431.44 111.07 431.17 111.19 430.84 111.19C430.5 111.19 430.21 111.07 429.98 110.84Z" fill="white"/>
<path d="M140.16 19.95C142.73 18.61 145.63 17.95 148.87 17.95C152.57 17.95 155.95 18.86 159.01 20.69C162.07 22.52 164.47 25.07 166.22 28.36C167.97 31.65 168.84 35.43 168.84 39.69C168.84 43.95 167.97 47.77 166.22 51.14C164.47 54.51 162.07 57.13 159.01 59C155.95 60.88 152.57 61.81 148.87 61.81C145.63 61.81 142.75 61.16 140.24 59.84C137.72 58.53 135.66 56.9 134.07 54.95V80.22C134.07 80.83 133.58 81.3199 132.97 81.3199H126.38C125.77 81.3199 125.28 80.83 125.28 80.22V19.74C125.28 19.13 125.77 18.64 126.38 18.64H132.97C133.58 18.64 134.07 19.13 134.07 19.74V24.89C135.56 22.93 137.59 21.29 140.16 19.95ZM158.08 32.09C156.87 29.96 155.28 28.3399 153.3 27.2299C151.32 26.1299 149.2 25.5699 146.94 25.5699C144.73 25.5699 142.64 26.14 140.66 27.27C138.68 28.4 137.09 30.05 135.88 32.2C134.67 34.36 134.07 36.9 134.07 39.83C134.07 42.76 134.67 45.32 135.88 47.5C137.09 49.68 138.68 51.34 140.66 52.47C142.64 53.6 144.73 54.17 146.94 54.17C149.2 54.17 151.32 53.59 153.3 52.44C155.28 51.28 156.87 49.6 158.08 47.39C159.29 45.18 159.89 42.61 159.89 39.68C159.89 36.75 159.29 34.22 158.08 32.09Z" fill="white"/>
<path d="M215.48 43.15H183.03C183.29 46.54 184.55 49.2699 186.81 51.3199C189.07 53.3799 191.85 54.4 195.14 54.4C199.44 54.4 202.6 52.76 204.6 49.49C204.99 48.85 205.7 48.47 206.45 48.47H213.06C213.85 48.47 214.38 49.2799 214.07 50.0099C212.72 53.2299 210.58 55.9099 207.67 58.0699C204.3 60.5599 200.13 61.81 195.14 61.81C191.08 61.81 187.44 60.8999 184.23 59.0699C181.02 57.2499 178.5 54.68 176.68 51.36C174.85 48.05 173.94 44.2 173.94 39.84C173.94 35.47 174.83 31.6299 176.6 28.3199C178.37 25.0099 180.86 22.45 184.08 20.65C187.29 18.85 190.98 17.95 195.14 17.95C199.15 17.95 202.72 18.8199 205.86 20.5699C209 22.3199 211.44 24.77 213.18 27.93C214.93 31.09 215.8 34.73 215.8 38.84C215.79 40.43 215.69 41.87 215.48 43.15ZM206.62 36.06C206.57 32.82 205.41 30.23 203.15 28.27C200.89 26.32 198.09 25.34 194.75 25.34C191.72 25.34 189.12 26.3 186.96 28.2299C184.8 30.1599 183.52 32.77 183.11 36.05H206.62V36.06Z" fill="white"/>
<path d="M253.811 20.03C256.451 21.42 258.521 23.47 260.011 26.2C261.501 28.92 262.251 32.21 262.251 36.07V60.03C262.251 60.64 261.761 61.13 261.151 61.13H254.631C254.021 61.13 253.531 60.64 253.531 60.03V37.38C253.531 33.58 252.581 30.66 250.681 28.63C248.781 26.6 246.181 25.58 242.891 25.58C239.601 25.58 236.991 26.6 235.071 28.63C233.141 30.66 232.181 33.58 232.181 37.38V60.03C232.181 60.64 231.691 61.13 231.081 61.13H224.491C223.881 61.13 223.391 60.64 223.391 60.03V19.75C223.391 19.14 223.881 18.65 224.491 18.65H231.081C231.691 18.65 232.181 19.14 232.181 19.75V23.51C233.621 21.76 235.461 20.4 237.691 19.42C239.931 18.44 242.301 17.96 244.821 17.96C248.171 17.94 251.161 18.64 253.811 20.03Z" fill="white"/>
<path d="M298.18 19.91C300.72 21.22 302.72 22.8501 304.15 24.8101V19.7401C304.15 19.1301 304.64 18.64 305.25 18.64H311.92C312.53 18.64 313.02 19.1301 313.02 19.7401V61.8101C313.02 65.7201 312.2 69.2 310.55 72.26C308.9 75.32 306.53 77.7201 303.42 79.4701C300.31 81.2201 296.6 82.0901 292.28 82.0901C286.52 82.0901 281.74 80.74 277.94 78.04C274.5 75.6 272.41 72.3801 271.66 68.3701C271.53 67.6901 272.05 67.0601 272.74 67.0601H278.68C279.55 67.0601 280.3 67.58 280.68 68.36C281.46 69.98 282.72 71.33 284.45 72.41C286.63 73.77 289.24 74.45 292.27 74.45C295.81 74.45 298.68 73.3701 300.87 71.2101C303.05 69.0501 304.15 65.92 304.15 61.8V54.7101C302.66 56.7101 300.64 58.4 298.1 59.76C295.56 61.12 292.66 61.8 289.43 61.8C285.73 61.8 282.35 60.8601 279.29 58.9901C276.23 57.1101 273.82 54.49 272.04 51.13C270.27 47.76 269.38 43.9501 269.38 39.6801C269.38 35.4101 270.27 31.64 272.04 28.35C273.81 25.06 276.23 22.5001 279.29 20.6801C282.35 18.8601 285.73 17.9401 289.43 17.9401C292.72 17.9401 295.64 18.6 298.18 19.91ZM302.34 32.2101C301.13 30.0501 299.55 28.4101 297.6 27.2801C295.65 26.1501 293.54 25.58 291.28 25.58C289.02 25.58 286.91 26.1301 284.96 27.2401C283.01 28.3501 281.43 29.96 280.22 32.1C279.01 34.23 278.41 36.7601 278.41 39.6901C278.41 42.6201 279.01 45.1901 280.22 47.4001C281.43 49.6101 283.02 51.29 285 52.45C286.98 53.61 289.07 54.1801 291.28 54.1801C293.54 54.1801 295.65 53.61 297.6 52.48C299.55 51.35 301.13 49.69 302.34 47.51C303.55 45.33 304.15 42.7701 304.15 39.8401C304.15 36.9101 303.55 34.3601 302.34 32.2101Z" fill="white"/>
<path d="M360.84 19.74V60.02C360.84 60.63 360.35 61.12 359.74 61.12H353.15C352.54 61.12 352.05 60.63 352.05 60.02V56.11C350.66 57.86 348.85 59.23 346.61 60.23C344.37 61.23 342 61.73 339.48 61.73C336.14 61.73 333.14 61.04 330.5 59.65C327.85 58.26 325.77 56.21 324.26 53.48C322.74 50.76 321.99 47.47 321.99 43.61V19.73C321.99 19.12 322.48 18.63 323.09 18.63H329.61C330.22 18.63 330.71 19.12 330.71 19.73V42.3C330.71 46.1 331.66 49.02 333.56 51.05C335.46 53.08 338.06 54.09 341.35 54.09C344.64 54.09 347.25 53.08 349.17 51.05C351.1 49.02 352.06 46.1 352.06 42.3V19.73C352.06 19.12 352.55 18.63 353.16 18.63H359.75C360.35 18.64 360.84 19.13 360.84 19.74Z" fill="white"/>
<path d="M371.611 10.84C370.351 9.63 369.721 8.13 369.721 6.33C369.721 4.53 370.351 3.03001 371.611 1.82001C372.871 0.610007 374.451 0.0100098 376.351 0.0100098C378.251 0.0100098 379.831 0.610007 381.091 1.82001C382.351 3.03001 382.981 4.53 382.981 6.33C382.981 8.13 382.351 9.63 381.091 10.84C379.831 12.05 378.251 12.65 376.351 12.65C374.451 12.65 372.871 12.04 371.611 10.84Z" fill="#FFB400"/>
<path d="M381.67 19.5V60.01C381.67 60.62 381.18 61.11 380.57 61.11H371.97C371.36 61.11 370.87 60.62 370.87 60.01V19.5C370.87 18.89 371.36 18.4 371.97 18.4H380.57C381.18 18.41 381.67 18.9 381.67 19.5Z" fill="#FFB400"/>
<path d="M427.29 22.61C430.42 25.82 431.99 30.3101 431.99 36.0601V60.0201C431.99 60.6301 431.5 61.1201 430.89 61.1201H422.29C421.68 61.1201 421.19 60.6301 421.19 60.0201V37.5301C421.19 34.1401 420.34 31.5301 418.65 29.7101C416.95 27.8901 414.64 26.9701 411.71 26.9701C408.73 26.9701 406.38 27.8801 404.66 29.7101C402.94 31.5301 402.08 34.1401 402.08 37.5301V60.0201C402.08 60.6301 401.59 61.1201 400.98 61.1201H392.38C391.77 61.1201 391.28 60.6301 391.28 60.0201V19.51C391.28 18.9 391.77 18.41 392.38 18.41H400.98C401.59 18.41 402.08 18.9 402.08 19.51V23.73C403.52 21.88 405.36 20.4301 407.59 19.3701C409.83 18.3201 412.28 17.79 414.95 17.79C420.05 17.79 424.16 19.4 427.29 22.61Z" fill="#FFB400"/>
<path d="M75.2904 81.7899L78.5404 78.5399C96.5104 60.5699 96.5104 31.4399 78.5404 13.4799C60.5704 -4.49006 31.4404 -4.49006 13.4804 13.4799C-4.48957 31.4499 -4.48957 60.5799 13.4804 78.5399L46.0104 111.07L55.7704 101.31C57.5704 99.51 57.5704 96.5999 55.7704 94.7999L26.4904 65.52C15.7104 54.74 15.7104 37.2599 26.4904 26.4799C37.2704 15.6999 54.7504 15.6999 65.5304 26.4799C76.3104 37.2599 76.3104 54.74 65.5304 65.52L62.2804 68.77C60.4804 70.57 60.4804 73.48 62.2804 75.28L68.7904 81.7899C70.5804 83.5899 73.4904 83.5899 75.2904 81.7899Z" fill="white"/>
<path d="M106.2 44.3799L89.4805 30.9099C92.8605 40.6699 92.8605 51.3499 89.4805 61.1099L106.21 47.6299C107.1 46.7299 107.1 45.2799 106.2 44.3799Z" fill="#FFB400"/>
</svg>
